# Blender 5.1.2
# www.blender.org
o mesh.013
v -0.002035 0.228534 0.019867
v 0.152512 0.187118 0.136114
v 0.221119 0.061098 0.000005
v 0.056994 0.212713 0.064269
v 0.098043 0.174793 0.048197
v -0.038529 0.238307 0.136107
v 0.048674 0.181684 0.000003
v 0.066351 0.129510 0.145989
v 0.093476 0.202942 -0.051995
v -0.114162 0.192068 0.051991
v -0.015750 0.205284 -0.009918
v 0.116035 0.196897 0.019849
v 0.038977 0.190620 -0.068065
v -0.069954 0.166032 -0.100139
v 0.089124 0.096466 -0.188089
v 0.135870 0.125072 -0.136098
v 0.109306 0.171775 -0.032148
v 0.095819 0.121614 -0.136077
v 0.141085 -0.091643 0.155958
v -0.141107 0.091610 0.220219
v -0.028958 0.128092 0.188095
v 0.021760 0.081241 0.168240
v -0.044007 0.071924 0.188091
v -0.074035 -0.040314 0.188100
v -0.177578 0.101398 0.103976
v 0.089124 0.096449 0.188097
v 0.020733 0.195491 0.061978
v 0.194915 0.109227 0.052003
v 0.086196 0.057622 0.178152
v 0.158627 0.092053 0.094084
v -0.176001 0.107292 -0.000007
v -0.124468 0.153690 0.116248
v 0.020498 0.222497 -0.051976
v -0.132784 0.122650 0.051997
v -0.088211 0.170892 0.074181
v 0.040350 0.150642 0.168242
v -0.123079 0.113697 0.120052
v -0.014167 0.138353 0.152138
v -0.118323 0.058577 -0.158292
v -0.049956 -0.040441 -0.220217
v -0.043993 0.071921 -0.188096
v -0.074103 -0.040296 -0.188077
v -0.124466 0.153690 -0.116251
v 0.056990 0.212713 -0.168242
v -0.055157 0.176234 -0.136107
v -0.141106 0.091613 -0.155958
v -0.097568 0.254120 -0.051992
v -0.073758 0.106835 -0.136104
v -0.082076 0.075786 -0.200366
v -0.134376 0.116724 -0.103955
v -0.120895 0.166950 -0.000057
v 0.023031 -0.059988 -0.220221
v 0.211549 0.171299 -0.051995
v 0.108961 0.024607 -0.200371
v 0.117281 0.055646 -0.136114
v 0.067918 0.062519 -0.184300
v -0.014062 0.138325 -0.152173
v 0.236592 -0.117251 0.084120
v 0.200127 -0.107440 -0.032128
v 0.176319 0.039827 0.051997
v 0.049939 0.040435 0.220221
v 0.180078 0.099004 0.016066
v 0.204239 0.025992 -0.009948
v 0.158693 0.092035 -0.093991
v 0.038520 -0.238305 -0.136114
v 0.114168 -0.192070 -0.051974
v 0.106416 -0.175802 -0.016039
v 0.028940 -0.128101 -0.188093
v -0.079778 -0.179687 -0.061935
v -0.211549 -0.171299 0.051995
v -0.048686 -0.181681 0.000007
v 0.002040 -0.228535 -0.019850
v 0.022175 -0.153230 0.136077
v 0.013458 0.050250 -0.272202
v 0.168005 0.008823 -0.155958
v -0.021770 -0.081229 -0.168244
v 0.004570 -0.028097 -0.204151
v 0.113494 -0.003538 -0.172031
v -0.040371 -0.150633 -0.168246
v -0.028946 0.128119 -0.188080
v -0.204486 0.000976 -0.103976
v -0.163415 -0.036923 -0.120084
v -0.057003 -0.212703 -0.064299
v -0.007302 -0.145299 -0.146023
v 0.124445 -0.153693 -0.116269
v 0.091349 -0.159034 -0.094084
v -0.236596 0.117252 -0.084109
v -0.227034 0.007041 -0.032124
v -0.190773 0.024245 -0.074201
v -0.194924 -0.109220 -0.051982
v -0.160932 0.163485 0.000008
v -0.221121 -0.061083 0.000007
v -0.200124 0.107450 0.032113
v -0.206068 -0.004917 0.000008
v -0.184637 -0.070865 -0.116248
v -0.188185 -0.084110 0.000020
v -0.152519 -0.187110 -0.136117
v -0.116065 -0.196878 -0.019861
v -0.161839 -0.103891 -0.074181
v -0.116323 -0.169878 0.009922
v -0.167997 -0.008776 -0.220227
v -0.176322 -0.039817 -0.051995
v -0.089144 -0.096462 -0.188082
v -0.081446 -0.112733 -0.152138
v -0.089116 -0.096444 0.188105
v -0.131759 0.008432 0.158292
v -0.177337 0.074390 0.074201
v -0.023043 0.060001 0.220217
v -0.057001 -0.212710 0.168242
v -0.135884 -0.125045 0.136107
v -0.081374 -0.112729 0.152178
v 0.027526 -0.088086 0.184313
v -0.184641 -0.070855 0.116245
v -0.093493 -0.202926 0.052024
v -0.143595 -0.108780 0.100177
v -0.061561 -0.184551 0.068110
v -0.108973 -0.024594 0.200366
v -0.263518 0.016819 0.084116
v -0.168002 -0.008775 0.155963
v -0.117291 -0.055635 0.136110
v -0.174735 -0.033898 0.103955
v 0.124479 -0.153677 0.116254
v 0.168013 0.008837 0.220212
v 0.100057 -0.053683 0.172031
v 0.018007 0.022048 0.204151
v 0.184636 0.070890 0.116234
v 0.139521 -0.097517 0.116242
v 0.169563 0.014718 0.116275
v 0.097558 -0.254124 0.051995
v 0.055154 -0.176233 0.136109
v 0.091413 -0.159028 0.094032
v 0.163883 -0.124622 0.009987
v 0.082059 -0.075791 0.200371
v 0.028945 -0.128085 0.188101
v 0.073746 -0.106831 0.136114
v -0.020481 -0.222489 0.052013
v 0.008816 -0.203409 0.032173
v -0.013451 -0.050187 0.272213
v 0.263520 -0.016754 -0.084121
v 0.204488 -0.000953 0.103972
v 0.227035 -0.007018 0.032128
v 0.184314 -0.076260 -0.051971
v 0.197750 -0.026114 0.051971
v 0.141093 -0.091607 -0.220229
v 0.184627 0.070893 -0.116248
v 0.132784 -0.122651 -0.051997
v 0.139513 -0.097515 -0.116254
v 0.169605 0.014707 -0.116215
v 0.045874 -0.093002 -0.178141
v 0.160958 -0.163458 0.000008
v -0.002450 -0.200390 -0.048227
v 0.177592 -0.101379 -0.103971
vn -0.2985 0.0800 -0.9511
vn -0.6190 -0.3784 -0.6882
vn -0.2202 -0.8217 -0.5257
vn 0.3469 -0.6371 -0.6883
vn 0.2985 -0.0799 -0.9511
vn 0.7814 -0.2094 -0.5878
vn 0.9659 -0.2588 -0.0001
vn 0.6455 -0.7172 0.2628
vn 0.2627 -0.9511 -0.1626
vn 0.3470 -0.6373 -0.6881
vn -0.7814 0.2094 -0.5878
vn -0.6453 0.7173 -0.2628
vn -0.0782 0.9016 -0.4254
vn 0.1360 0.5078 -0.8507
vn -0.2985 0.0800 -0.9510
vn -0.2628 0.9511 0.1625
vn -0.3468 0.6373 0.6882
vn -0.7815 0.2095 0.5877
vn -0.9659 0.2588 -0.0000
vn -0.6454 0.7172 -0.2629
vn 0.1360 0.5079 -0.8506
vn 0.2986 -0.0799 -0.9510
vn 0.9175 0.2984 -0.2629
vn 0.0783 -0.9017 0.4252
vn 0.2627 -0.9511 -0.1624
vn -0.7031 -0.6923 -0.1624
vn -0.6192 -0.3783 -0.6881
vn -0.7032 -0.6922 -0.1625
vn -0.9175 -0.2984 0.2628
vn -0.7814 0.2095 -0.5878
vn -0.5187 -0.7416 0.4254
vn -0.1361 -0.5077 0.8507
vn -0.2985 0.0800 0.9510
vn -0.7814 0.2094 0.5878
vn -0.9175 -0.2985 0.2628
vn -0.5186 -0.7417 0.4253
vn 0.6454 -0.7172 0.2629
vn 0.7815 -0.2094 0.5878
vn 0.2985 -0.0799 0.9510
vn -0.1359 -0.5077 0.8507
vn 0.0782 -0.9016 0.4254
vn 0.6191 0.3785 0.6881
vn 0.2984 -0.0799 0.9511
vn 0.9176 0.2984 -0.2628
vn 0.7030 0.6924 0.1625
vn 0.6191 0.3784 0.6881
vn 0.9659 -0.2588 -0.0000
vn 0.7814 -0.2094 0.5878
vn 0.2201 0.8218 0.5256
vn -0.3469 0.6372 0.6882
vn -0.2985 0.0800 0.9511
vn 0.7031 0.6923 0.1625
vn 0.2201 0.8217 0.5257
vn 0.5187 0.7417 -0.4253
vn -0.2628 0.9511 0.1624
vn -0.0783 0.9017 -0.4253
vn 0.5187 0.7418 -0.4251
s 0
f 97//1 81//1 76//1 68//1
f 65//2 98//2 76//2 52//2
f 144//3 66//3 76//3 40//3
f 74//4 75//4 76//4 103//4
f 101//5 80//5 76//5 79//5
f 150//6 65//6 52//6 146//6
f 66//7 144//7 145//7 146//7
f 139//8 140//8 146//8 85//8
f 58//9 130//9 146//9 152//9
f 129//10 83//10 146//10 59//10
f 45//11 74//11 103//11 48//11
f 80//12 101//12 88//12 48//12
f 87//13 10//13 48//13 49//13
f 47//14 9//14 48//14 46//14
f 44//15 54//15 48//15 43//15
f 20//16 36//16 34//16 93//16
f 118//17 117//17 34//17 91//17
f 10//18 87//18 92//18 34//18
f 32//19 47//19 46//19 34//19
f 6//20 33//20 34//20 25//20
f 145//21 144//21 40//21 55//21
f 16//22 139//22 85//22 55//22
f 54//23 44//23 12//23 55//23
f 53//6 141//6 55//6 15//6
f 98//24 65//24 150//24 71//24
f 114//25 97//25 68//25 71//25
f 70//3 95//3 71//3 136//3
f 109//26 113//26 71//26 72//26
f 92//27 87//27 49//27 102//27
f 88//28 101//28 79//28 102//28
f 81//29 97//29 114//29 102//29
f 95//19 70//19 119//19 102//19
f 90//30 118//30 91//30 102//30
f 117//31 118//31 90//31 120//31
f 119//32 70//32 136//32 120//32
f 113//33 109//33 133//33 120//33
f 138//34 21//34 120//34 110//34
f 105//35 20//35 93//35 120//35
f 83//36 129//36 134//36 71//36
f 133//37 109//37 72//37 135//37
f 134//38 129//38 59//38 135//38
f 130//39 58//39 126//39 135//39
f 123//40 108//40 135//40 122//40
f 19//41 138//41 110//41 135//41
f 21//42 138//42 19//42 22//42
f 36//43 20//43 105//43 22//43
f 126//44 58//44 152//44 60//44
f 140//45 139//45 16//45 60//45
f 141//46 53//46 4//46 60//46
f 28//47 123//47 122//47 60//47
f 2//48 61//48 60//48 3//48
f 108//49 123//49 28//49 22//49
f 61//50 2//50 1//50 22//50
f 26//51 6//51 25//51 22//51
f 33//52 6//52 26//52 7//52
f 9//53 47//53 32//53 7//53
f 1//54 2//54 3//54 7//54
f 12//55 44//55 43//55 7//55
f 4//56 53//56 15//56 7//56
f 75//57 74//57 45//57 55//57
l 4 5
l 2 4
l 1 4
l 5 62
l 2 28
l 3 62
l 3 28
l 1 27
l 1 6
l 1 33
l 8 27
l 6 36
l 8 26
l 26 36
l 11 33
l 33 47
l 9 33
l 11 35
l 10 47
l 32 35
l 10 32
l 9 13
l 9 44
l 9 12
l 13 14
l 44 45
l 14 43
l 43 45
l 12 17
l 12 53
l 4 12
l 17 18
l 16 53
l 15 18
l 15 16
l 108 125
l 108 138
l 21 108
l 124 125
l 133 138
l 19 124
l 19 133
l 21 23
l 20 21
l 21 36
l 23 24
l 20 117
l 24 105
l 105 117
l 36 38
l 37 38
l 6 32
l 25 37
l 25 32
l 2 26
l 26 61
l 29 61
l 61 123
l 61 108
l 29 30
l 123 126
l 28 30
l 28 126
l 93 107
l 93 118
l 91 93
l 106 107
l 118 119
l 106 117
l 117 119
l 31 91
l 87 91
l 10 91
l 31 94
l 87 88
l 92 94
l 88 92
l 10 51
l 50 51
l 43 47
l 46 50
l 43 46
l 20 25
l 25 93
l 39 49
l 49 101
l 49 80
l 39 89
l 81 101
l 88 89
l 81 88
l 41 80
l 74 80
l 45 80
l 41 42
l 40 74
l 42 103
l 40 103
l 45 57
l 56 57
l 15 44
l 54 56
l 15 54
l 46 87
l 46 49
l 75 78
l 75 144
l 75 145
l 77 78
l 52 144
l 40 77
l 40 52
l 145 148
l 139 145
l 16 145
l 147 148
l 139 152
l 85 147
l 85 152
l 16 64
l 63 64
l 3 53
l 63 141
l 3 141
l 54 74
l 54 75
l 140 143
l 58 140
l 126 140
l 142 143
l 58 59
l 142 152
l 59 152
l 126 128
l 127 128
l 19 123
l 122 127
l 19 122
l 139 141
l 140 141
l 83 151
l 65 83
l 83 98
l 67 151
l 65 66
l 67 150
l 66 150
l 69 98
l 97 98
l 98 114
l 69 84
l 79 97
l 68 84
l 68 79
l 100 114
l 70 114
l 114 136
l 99 100
l 70 90
l 95 99
l 90 95
l 116 136
l 109 136
l 72 136
l 115 116
l 109 110
l 113 115
l 110 113
l 72 137
l 72 129
l 72 83
l 73 137
l 129 130
l 73 134
l 130 134
l 101 103
l 79 103
l 79 104
l 82 104
l 95 97
l 81 82
l 81 95
l 65 68
l 52 68
l 52 149
l 86 149
l 85 144
l 66 86
l 66 85
l 92 118
l 90 92
l 90 96
l 96 121
l 70 113
l 119 121
l 113 119
l 105 138
l 105 110
l 110 111
l 111 112
l 109 134
l 112 133
l 133 134
l 58 122
l 122 130
l 130 131
l 131 132
l 129 150
l 59 132
l 59 150
