# Blender 4.0.1
# www.blender.org
o Solid.004
v 0.117851 0.333333 -0.204124
v -0.235702 0.333333 -0.000000
v 0.117851 0.333333 0.204124
v 0.353553 -0.000000 -0.204124
v 0.353553 0.000000 0.204124
v 0.235702 -0.333333 0.000000
v 0.000000 -0.000000 -0.408248
v -0.117851 -0.333333 -0.204124
v -0.353553 -0.000000 -0.204124
v -0.353553 0.000000 0.204124
v -0.117851 -0.333333 0.204124
v 0.000000 0.000000 0.408248
vn -0.0000 1.0000 -0.0000
vn 0.9428 -0.3333 -0.0000
vn -0.4714 -0.3333 -0.8165
vn -0.4714 -0.3333 0.8165
vn 0.8165 0.5774 -0.0000
vn 0.4082 -0.5774 -0.7071
vn -0.4082 0.5774 -0.7071
vn -0.8165 -0.5774 -0.0000
vn 0.4082 -0.5774 0.7071
vn -0.4082 0.5774 0.7071
vn 0.4714 0.3333 -0.8165
vn -0.9428 0.3333 -0.0000
vn 0.4714 0.3333 0.8165
vn -0.0000 -1.0000 -0.0000
s 0
f 2//1 3//1 1//1
f 5//2 6//2 4//2
f 8//3 9//3 7//3
f 11//4 12//4 10//4
f 5//5 4//5 1//5 3//5
f 8//6 7//6 4//6 6//6
f 7//7 9//7 2//7 1//7
f 11//8 10//8 9//8 8//8
f 12//9 11//9 6//9 5//9
f 10//10 12//10 3//10 2//10
f 1//11 4//11 7//11
f 2//12 9//12 10//12
f 3//13 12//13 5//13
f 6//14 11//14 8//14
