# Blender 4.0.1
# www.blender.org
o Solid.005
v -0.577350 -0.239164 0.239164
v -0.577350 -0.239164 -0.239164
v -0.577350 0.239164 -0.239164
v -0.577350 0.239164 0.239164
v 0.577350 -0.239164 0.239164
v 0.577350 0.239164 0.239164
v 0.577350 0.239164 -0.239164
v 0.577350 -0.239164 -0.239164
v -0.239164 -0.239164 0.577350
v -0.239164 0.239164 0.577350
v 0.239164 0.239164 0.577350
v 0.239164 -0.239164 0.577350
v 0.239164 -0.239164 -0.577350
v 0.239164 0.239164 -0.577350
v -0.239164 0.239164 -0.577350
v -0.239164 -0.239164 -0.577350
v -0.239164 -0.577350 0.239164
v 0.239164 -0.577350 0.239164
v 0.239164 -0.577350 -0.239164
v -0.239164 -0.577350 -0.239164
v -0.239164 0.577350 0.239164
v -0.239164 0.577350 -0.239164
v 0.239164 0.577350 -0.239164
v 0.239164 0.577350 0.239164
vn -1.0000 -0.0000 -0.0000
vn 1.0000 -0.0000 -0.0000
vn -0.0000 -0.0000 1.0000
vn -0.0000 -0.0000 -1.0000
vn -0.0000 -1.0000 -0.0000
vn -0.0000 1.0000 -0.0000
vn -0.7071 -0.0000 0.7071
vn 0.7071 -0.0000 0.7071
vn 0.7071 -0.0000 -0.7071
vn -0.7071 -0.0000 -0.7071
vn -0.0000 -0.7071 0.7071
vn 0.7071 -0.7071 -0.0000
vn -0.0000 -0.7071 -0.7071
vn -0.7071 -0.7071 -0.0000
vn -0.7071 0.7071 -0.0000
vn -0.0000 0.7071 -0.7071
vn 0.7071 0.7071 -0.0000
vn -0.0000 0.7071 0.7071
vn -0.5774 -0.5774 0.5774
vn 0.5774 -0.5774 0.5774
vn 0.5774 -0.5774 -0.5774
vn -0.5774 -0.5774 -0.5774
vn -0.5774 0.5774 0.5774
vn 0.5774 0.5774 0.5774
vn 0.5774 0.5774 -0.5774
vn -0.5774 0.5774 -0.5774
s 0
f 2//1 1//1 4//1 3//1
f 6//2 5//2 8//2 7//2
f 10//3 9//3 12//3 11//3
f 14//4 13//4 16//4 15//4
f 18//5 17//5 20//5 19//5
f 22//6 21//6 24//6 23//6
f 10//7 4//7 1//7 9//7
f 12//8 5//8 6//8 11//8
f 14//9 7//9 8//9 13//9
f 16//10 2//10 3//10 15//10
f 18//11 12//11 9//11 17//11
f 19//12 8//12 5//12 18//12
f 20//13 16//13 13//13 19//13
f 17//14 1//14 2//14 20//14
f 22//15 3//15 4//15 21//15
f 23//16 14//16 15//16 22//16
f 24//17 6//17 7//17 23//17
f 21//18 10//18 11//18 24//18
f 17//19 9//19 1//19
f 18//20 5//20 12//20
f 19//21 13//21 8//21
f 20//22 2//22 16//22
f 21//23 4//23 10//23
f 24//24 11//24 6//24
f 23//25 7//25 14//25
f 22//26 15//26 3//26
