# Blender 4.0.1
# www.blender.org
o Solid.009
v -0.622779 -0.311405 0.503845
v -0.815238 -0.192459 0.192440
v -0.815238 0.192459 0.192440
v -0.622779 0.311405 0.503845
v -0.503833 0.000000 0.696304
v 0.622779 -0.311405 0.503845
v 0.503833 0.000000 0.696304
v 0.622779 0.311405 0.503845
v 0.815238 0.192459 0.192440
v 0.815238 -0.192459 0.192440
v -0.622779 -0.311405 -0.503845
v -0.503833 -0.000000 -0.696304
v -0.622779 0.311405 -0.503845
v -0.815238 0.192459 -0.192440
v -0.815238 -0.192459 -0.192440
v 0.622779 -0.311405 -0.503845
v 0.815238 -0.192459 -0.192440
v 0.815238 0.192459 -0.192440
v 0.622779 0.311405 -0.503845
v 0.503833 -0.000000 -0.696304
v -0.503845 -0.622779 0.311405
v -0.192440 -0.815238 0.192459
v -0.192440 -0.815238 -0.192459
v -0.503845 -0.622779 -0.311405
v -0.696304 -0.503833 0.000000
v -0.503845 0.622779 0.311405
v -0.696304 0.503833 -0.000000
v -0.503845 0.622779 -0.311405
v -0.192440 0.815238 -0.192459
v -0.192440 0.815238 0.192459
v 0.503845 -0.622779 0.311405
v 0.696304 -0.503833 0.000000
v 0.503845 -0.622779 -0.311405
v 0.192440 -0.815238 -0.192459
v 0.192440 -0.815238 0.192459
v 0.503845 0.622779 0.311405
v 0.192440 0.815238 0.192459
v 0.192440 0.815238 -0.192459
v 0.503845 0.622779 -0.311405
v 0.696304 0.503833 -0.000000
v -0.311405 -0.503845 0.622779
v -0.192459 -0.192440 0.815238
v 0.192459 -0.192440 0.815238
v 0.311405 -0.503845 0.622779
v 0.000000 -0.696304 0.503833
v -0.311405 -0.503845 -0.622779
v 0.000000 -0.696304 -0.503833
v 0.311405 -0.503845 -0.622779
v 0.192459 -0.192440 -0.815238
v -0.192459 -0.192440 -0.815238
v -0.311405 0.503845 0.622779
v 0.000000 0.696304 0.503833
v 0.311405 0.503845 0.622779
v 0.192459 0.192440 0.815238
v -0.192459 0.192440 0.815238
v -0.311405 0.503845 -0.622779
v -0.192459 0.192440 -0.815238
v 0.192459 0.192440 -0.815238
v 0.311405 0.503845 -0.622779
v 0.000000 0.696304 -0.503833
vn -0.8507 -0.0000 -0.5257
vn 0.8507 -0.0000 -0.5257
vn -0.5257 -0.8507 -0.0000
vn -0.5257 0.8507 -0.0000
vn 0.5257 -0.8507 -0.0000
vn 0.5257 0.8507 -0.0000
vn -0.0000 -0.5257 0.8507
vn -0.0000 -0.5257 -0.8507
vn -0.0000 0.5257 0.8507
vn -0.0000 0.5257 -0.8507
vn 0.8507 -0.0000 0.5257
vn -1.0000 -0.0000 -0.0000
vn 1.0000 -0.0000 -0.0000
vn -0.8090 -0.5000 -0.3090
vn -0.8090 -0.5000 0.3090
vn -0.8090 0.5000 0.3090
vn -0.8090 0.5000 -0.3090
vn 0.8090 -0.5000 0.3090
vn 0.8090 -0.5000 -0.3090
vn -0.0000 -1.0000 -0.0000
vn -0.0000 1.0000 -0.0000
vn 0.8090 0.5000 -0.3090
vn 0.8090 0.5000 0.3090
vn -0.5000 -0.3090 0.8090
vn 0.5000 -0.3090 0.8090
vn 0.3090 -0.8090 0.5000
vn -0.3090 -0.8090 0.5000
vn -0.3090 -0.8090 -0.5000
vn 0.3090 -0.8090 -0.5000
vn 0.5000 -0.3090 -0.8090
vn -0.5000 -0.3090 -0.8090
vn -0.3090 0.8090 0.5000
vn 0.3090 0.8090 0.5000
vn 0.5000 0.3090 0.8090
vn -0.0000 -0.0000 1.0000
vn -0.5000 0.3090 0.8090
vn -0.5000 0.3090 -0.8090
vn -0.0000 -0.0000 -1.0000
vn 0.5000 0.3090 -0.8090
vn 0.3090 0.8090 -0.5000
vn -0.3090 0.8090 -0.5000
vn -0.5774 -0.5774 0.5774
vn -0.5774 0.5774 0.5774
vn -0.5774 -0.5774 -0.5774
vn -0.5774 0.5774 -0.5774
vn 0.5774 -0.5774 0.5774
vn 0.5774 0.5774 0.5774
vn 0.5774 -0.5774 -0.5774
vn 0.5774 0.5774 -0.5774
vn -0.3568 -0.0000 0.9342
vn 0.3568 -0.0000 0.9342
vn -0.3568 -0.0000 -0.9342
vn 0.3568 -0.0000 -0.9342
vn -0.9342 -0.3568 -0.0000
vn -0.9342 0.3568 -0.0000
vn 0.9342 -0.3568 -0.0000
vn 0.9342 0.3568 -0.0000
vn -0.0000 -0.9342 0.3568
vn -0.0000 -0.9342 -0.3568
vn -0.0000 0.9342 0.3568
vn -0.0000 0.9342 -0.3568
vn -0.8507 -0.0000 0.5257
s 0
f 13//1 12//1 11//1 15//1 14//1
f 18//2 17//2 16//2 20//2 19//2
f 23//3 22//3 21//3 25//3 24//3
f 28//4 27//4 26//4 30//4 29//4
f 33//5 32//5 31//5 35//5 34//5
f 38//6 37//6 36//6 40//6 39//6
f 43//7 42//7 41//7 45//7 44//7
f 48//8 47//8 46//8 50//8 49//8
f 53//9 52//9 51//9 55//9 54//9
f 58//10 57//10 56//10 60//10 59//10
f 8//11 7//11 6//11 10//11 9//11
f 15//12 2//12 3//12 14//12
f 18//13 9//13 10//13 17//13
f 25//14 15//14 11//14 24//14
f 21//15 1//15 2//15 25//15
f 27//16 3//16 4//16 26//16
f 28//17 13//17 14//17 27//17
f 32//18 10//18 6//18 31//18
f 33//19 16//19 17//19 32//19
f 35//20 22//20 23//20 34//20
f 38//21 29//21 30//21 37//21
f 40//22 18//22 19//22 39//22
f 36//23 8//23 9//23 40//23
f 42//24 5//24 1//24 41//24
f 44//25 6//25 7//25 43//25
f 45//26 35//26 31//26 44//26
f 41//27 21//27 22//27 45//27
f 47//28 23//28 24//28 46//28
f 48//29 33//29 34//29 47//29
f 49//30 20//30 16//30 48//30
f 46//31 11//31 12//31 50//31
f 52//32 30//32 26//32 51//32
f 53//33 36//33 37//33 52//33
f 54//34 7//34 8//34 53//34
f 55//35 42//35 43//35 54//35
f 51//36 4//36 5//36 55//36
f 57//37 12//37 13//37 56//37
f 58//38 49//38 50//38 57//38
f 59//39 19//39 20//39 58//39
f 60//40 38//40 39//40 59//40
f 56//41 28//41 29//41 60//41
f 1//42 21//42 41//42
f 4//43 51//43 26//43
f 11//44 46//44 24//44
f 13//45 28//45 56//45
f 6//46 44//46 31//46
f 8//47 36//47 53//47
f 16//48 33//48 48//48
f 19//49 59//49 39//49
f 5//50 42//50 55//50
f 7//51 54//51 43//51
f 12//52 57//52 50//52
f 20//53 49//53 58//53
f 25//54 2//54 15//54
f 27//55 14//55 3//55
f 32//56 17//56 10//56
f 40//57 9//57 18//57
f 45//58 22//58 35//58
f 47//59 34//59 23//59
f 52//60 37//60 30//60
f 60//61 29//61 38//61
f 3//62 2//62 1//62 5//62 4//62
