# Blender 4.0.1
# www.blender.org
o Solid.006
v -0.577350 -0.313919 0.170524
v -0.577350 -0.170524 -0.313919
v -0.577350 0.313919 -0.170524
v -0.577350 0.170524 0.313919
v 0.577350 -0.170524 0.313919
v 0.577350 0.313919 0.170524
v 0.577350 0.170524 -0.313919
v 0.577350 -0.313919 -0.170524
v -0.313919 -0.170524 0.577350
v -0.170524 0.313919 0.577350
v 0.313919 0.170524 0.577350
v 0.170524 -0.313919 0.577350
v 0.313919 -0.170524 -0.577350
v 0.170524 0.313919 -0.577350
v -0.313919 0.170524 -0.577350
v -0.170524 -0.313919 -0.577350
v -0.170524 -0.577350 0.313919
v 0.313919 -0.577350 0.170524
v 0.170524 -0.577350 -0.313919
v -0.313919 -0.577350 -0.170524
v -0.313919 0.577350 0.170524
v -0.170524 0.577350 -0.313919
v 0.313919 0.577350 -0.170524
v 0.170524 0.577350 0.313919
vn -1.0000 -0.0000 -0.0000
vn 1.0000 -0.0000 -0.0000
vn -0.0000 -0.0000 1.0000
vn -0.0000 -0.0000 -1.0000
vn -0.0000 -1.0000 -0.0000
vn -0.0000 1.0000 -0.0000
vn -0.5773 0.1709 0.7985
vn -0.7985 -0.1709 0.5773
vn 0.5773 -0.1709 0.7985
vn 0.7985 0.1709 0.5773
vn 0.5773 0.1709 -0.7985
vn 0.7985 -0.1709 -0.5773
vn -0.5773 -0.1709 -0.7985
vn -0.7985 0.1709 -0.5773
vn 0.1709 -0.7985 0.5773
vn -0.1709 -0.5773 0.7985
vn 0.5773 -0.7985 -0.1709
vn 0.7985 -0.5773 0.1709
vn -0.1709 -0.7985 -0.5773
vn 0.1709 -0.5773 -0.7985
vn -0.5773 -0.7985 0.1709
vn -0.7985 -0.5773 -0.1709
vn -0.5773 0.7985 -0.1709
vn -0.7985 0.5773 0.1709
vn 0.1709 0.7985 -0.5773
vn -0.1709 0.5773 -0.7985
vn 0.5773 0.7985 0.1709
vn 0.7985 0.5773 -0.1709
vn -0.1709 0.7985 0.5773
vn 0.1709 0.5773 0.7985
vn -0.5774 -0.5774 0.5774
vn 0.5774 -0.5774 0.5774
vn 0.5774 -0.5774 -0.5774
vn -0.5774 -0.5774 -0.5774
vn -0.5774 0.5774 0.5774
vn 0.5774 0.5774 0.5774
vn 0.5774 0.5774 -0.5774
vn -0.5774 0.5774 -0.5774
s 0
f 2//1 1//1 4//1 3//1
f 6//2 5//2 8//2 7//2
f 10//3 9//3 12//3 11//3
f 14//4 13//4 16//4 15//4
f 18//5 17//5 20//5 19//5
f 22//6 21//6 24//6 23//6
f 10//7 4//7 9//7
f 9//8 4//8 1//8
f 12//9 5//9 11//9
f 11//10 5//10 6//10
f 14//11 7//11 13//11
f 13//12 7//12 8//12
f 16//13 2//13 15//13
f 15//14 2//14 3//14
f 18//15 12//15 17//15
f 17//16 12//16 9//16
f 19//17 8//17 18//17
f 18//18 8//18 5//18
f 20//19 16//19 19//19
f 19//20 16//20 13//20
f 17//21 1//21 20//21
f 20//22 1//22 2//22
f 22//23 3//23 21//23
f 21//24 3//24 4//24
f 23//25 14//25 22//25
f 22//26 14//26 15//26
f 24//27 6//27 23//27
f 23//28 6//28 7//28
f 21//29 10//29 24//29
f 24//30 10//30 11//30
f 17//31 9//31 1//31
f 18//32 5//32 12//32
f 19//33 13//33 8//33
f 20//34 2//34 16//34
f 21//35 4//35 10//35
f 24//36 11//36 6//36
f 23//37 7//37 14//37
f 22//38 15//38 3//38
