# Blender 4.0.1
# www.blender.org
o Solid.011
v -0.660604 -0.340185 0.442642
v -0.841317 -0.132926 0.150243
v -0.793530 0.258033 0.227564
v -0.583284 0.292399 0.567749
v -0.501132 -0.077320 0.700675
v 0.583284 -0.292399 0.567749
v 0.501132 0.077320 0.700675
v 0.660604 0.340185 0.442642
v 0.841317 0.132926 0.150243
v 0.793530 -0.258033 0.227564
v -0.583284 -0.292399 -0.567749
v -0.501132 0.077320 -0.700675
v -0.660604 0.340185 -0.442642
v -0.841317 0.132926 -0.150243
v -0.793530 -0.258033 -0.227564
v 0.660604 -0.340185 -0.442642
v 0.841317 -0.132926 -0.150243
v 0.793530 0.258033 -0.227564
v 0.583284 0.292399 -0.567749
v 0.501132 -0.077320 -0.700675
v -0.442642 -0.660604 0.340185
v -0.150243 -0.841317 0.132926
v -0.227564 -0.793530 -0.258033
v -0.567749 -0.583284 -0.292399
v -0.700675 -0.501132 0.077320
v -0.567749 0.583284 0.292399
v -0.700675 0.501132 -0.077320
v -0.442642 0.660604 -0.340185
v -0.150243 0.841317 -0.132926
v -0.227564 0.793530 0.258033
v 0.567749 -0.583284 0.292399
v 0.700675 -0.501132 -0.077320
v 0.442642 -0.660604 -0.340185
v 0.150243 -0.841317 -0.132926
v 0.227564 -0.793530 0.258033
v 0.442642 0.660604 0.340185
v 0.150243 0.841317 0.132926
v 0.227564 0.793530 -0.258033
v 0.567749 0.583284 -0.292399
v 0.700675 0.501132 0.077320
v -0.340185 -0.442642 0.660604
v -0.132926 -0.150243 0.841317
v 0.258033 -0.227564 0.793530
v 0.292399 -0.567749 0.583284
v -0.077320 -0.700675 0.501132
v -0.292399 -0.567749 -0.583284
v 0.077320 -0.700675 -0.501132
v 0.340185 -0.442642 -0.660604
v 0.132926 -0.150243 -0.841317
v -0.258033 -0.227564 -0.793530
v -0.292399 0.567749 0.583284
v 0.077320 0.700675 0.501132
v 0.340185 0.442642 0.660604
v 0.132926 0.150243 0.841317
v -0.258033 0.227564 0.793530
v -0.340185 0.442642 -0.660604
v -0.132926 0.150243 -0.841317
v 0.258033 0.227564 -0.793530
v 0.292399 0.567749 -0.583284
v -0.077320 0.700675 -0.501132
vn -0.8507 -0.0000 -0.5257
vn 0.8507 -0.0000 -0.5257
vn -0.5257 -0.8507 -0.0000
vn -0.5257 0.8507 -0.0000
vn 0.5257 -0.8507 -0.0000
vn 0.5257 0.8507 -0.0000
vn -0.0000 -0.5257 0.8507
vn -0.0000 -0.5257 -0.8507
vn -0.0000 0.5257 0.8507
vn -0.0000 0.5257 -0.8507
vn 0.8507 -0.0000 0.5257
vn -0.9905 -0.1030 -0.0912
vn -0.9905 0.1030 0.0912
vn 0.9905 0.1030 -0.0912
vn 0.9905 -0.1030 0.0912
vn -0.8247 -0.5372 -0.1771
vn -0.7780 -0.4533 -0.4350
vn -0.7216 -0.6008 0.3439
vn -0.8810 -0.3897 0.2683
vn -0.8247 0.5372 0.1771
vn -0.7780 0.4533 0.4350
vn -0.7216 0.6008 -0.3439
vn -0.8810 0.3897 -0.2683
vn 0.8247 -0.5372 0.1771
vn 0.7780 -0.4533 0.4350
vn 0.7216 -0.6008 -0.3439
vn 0.8810 -0.3897 -0.2683
vn 0.0912 -0.9905 0.1030
vn -0.0912 -0.9905 -0.1030
vn 0.0912 0.9905 -0.1030
vn -0.0912 0.9905 0.1030
vn 0.8247 0.5372 -0.1771
vn 0.7780 0.4533 -0.4350
vn 0.7216 0.6008 0.3439
vn 0.8810 0.3897 0.2683
vn -0.3897 -0.2683 0.8810
vn -0.6008 -0.3439 0.7216
vn 0.4533 -0.4350 0.7780
vn 0.5372 -0.1771 0.8247
vn 0.1771 -0.8247 0.5372
vn 0.4350 -0.7780 0.4533
vn -0.3439 -0.7216 0.6008
vn -0.2683 -0.8810 0.3897
vn -0.1771 -0.8247 -0.5372
vn -0.4350 -0.7780 -0.4533
vn 0.3439 -0.7216 -0.6008
vn 0.2683 -0.8810 -0.3897
vn 0.3897 -0.2683 -0.8810
vn 0.6008 -0.3439 -0.7216
vn -0.4533 -0.4350 -0.7780
vn -0.5372 -0.1771 -0.8247
vn -0.1771 0.8247 0.5372
vn -0.4350 0.7780 0.4533
vn 0.3439 0.7216 0.6008
vn 0.2683 0.8810 0.3897
vn 0.3897 0.2683 0.8810
vn 0.6008 0.3439 0.7216
vn -0.1030 0.0912 0.9905
vn 0.1030 -0.0912 0.9905
vn -0.4533 0.4350 0.7780
vn -0.5372 0.1771 0.8247
vn -0.3897 0.2683 -0.8810
vn -0.6008 0.3439 -0.7216
vn 0.1030 0.0912 -0.9905
vn -0.1030 -0.0912 -0.9905
vn 0.4533 0.4350 -0.7780
vn 0.5372 0.1771 -0.8247
vn 0.1771 0.8247 -0.5372
vn 0.4350 0.7780 -0.4533
vn -0.3439 0.7216 -0.6008
vn -0.2683 0.8810 -0.3897
vn -0.5774 -0.5774 0.5774
vn -0.5774 0.5774 0.5774
vn -0.5774 -0.5774 -0.5774
vn -0.5774 0.5774 -0.5774
vn 0.5774 -0.5774 0.5774
vn 0.5774 0.5774 0.5774
vn 0.5774 -0.5774 -0.5774
vn 0.5774 0.5774 -0.5774
vn -0.3568 -0.0000 0.9342
vn 0.3568 -0.0000 0.9342
vn -0.3568 -0.0000 -0.9342
vn 0.3568 -0.0000 -0.9342
vn -0.9342 -0.3568 -0.0000
vn -0.9342 0.3568 -0.0000
vn 0.9342 -0.3568 -0.0000
vn 0.9342 0.3568 -0.0000
vn -0.0000 -0.9342 0.3568
vn -0.0000 -0.9342 -0.3568
vn -0.0000 0.9342 0.3568
vn -0.0000 0.9342 -0.3568
vn -0.8507 -0.0000 0.5257
s 0
f 13//1 12//1 11//1 15//1 14//1
f 18//2 17//2 16//2 20//2 19//2
f 23//3 22//3 21//3 25//3 24//3
f 28//4 27//4 26//4 30//4 29//4
f 33//5 32//5 31//5 35//5 34//5
f 38//6 37//6 36//6 40//6 39//6
f 43//7 42//7 41//7 45//7 44//7
f 48//8 47//8 46//8 50//8 49//8
f 53//9 52//9 51//9 55//9 54//9
f 58//10 57//10 56//10 60//10 59//10
f 8//11 7//11 6//11 10//11 9//11
f 15//12 2//12 14//12
f 14//13 2//13 3//13
f 18//14 9//14 17//14
f 17//15 9//15 10//15
f 25//16 15//16 24//16
f 24//17 15//17 11//17
f 21//18 1//18 25//18
f 25//19 1//19 2//19
f 27//20 3//20 26//20
f 26//21 3//21 4//21
f 28//22 13//22 27//22
f 27//23 13//23 14//23
f 32//24 10//24 31//24
f 31//25 10//25 6//25
f 33//26 16//26 32//26
f 32//27 16//27 17//27
f 35//28 22//28 34//28
f 34//29 22//29 23//29
f 38//30 29//30 37//30
f 37//31 29//31 30//31
f 40//32 18//32 39//32
f 39//33 18//33 19//33
f 36//34 8//34 40//34
f 40//35 8//35 9//35
f 42//36 5//36 41//36
f 41//37 5//37 1//37
f 44//38 6//38 43//38
f 43//39 6//39 7//39
f 45//40 35//40 44//40
f 44//41 35//41 31//41
f 41//42 21//42 45//42
f 45//43 21//43 22//43
f 47//44 23//44 46//44
f 46//45 23//45 24//45
f 48//46 33//46 47//46
f 47//47 33//47 34//47
f 49//48 20//48 48//48
f 48//49 20//49 16//49
f 46//50 11//50 50//50
f 50//51 11//51 12//51
f 52//52 30//52 51//52
f 51//53 30//53 26//53
f 53//54 36//54 52//54
f 52//55 36//55 37//55
f 54//56 7//56 53//56
f 53//57 7//57 8//57
f 55//58 42//58 54//58
f 54//59 42//59 43//59
f 51//60 4//60 55//60
f 55//61 4//61 5//61
f 57//62 12//62 56//62
f 56//63 12//63 13//63
f 58//64 49//64 57//64
f 57//65 49//65 50//65
f 59//66 19//66 58//66
f 58//67 19//67 20//67
f 60//68 38//68 59//68
f 59//69 38//69 39//69
f 56//70 28//70 60//70
f 60//71 28//71 29//71
f 1//72 21//72 41//72
f 4//73 51//73 26//73
f 11//74 46//74 24//74
f 13//75 28//75 56//75
f 6//76 44//76 31//76
f 8//77 36//77 53//77
f 16//78 33//78 48//78
f 19//79 59//79 39//79
f 5//80 42//80 55//80
f 7//81 54//81 43//81
f 12//82 57//82 50//82
f 20//83 49//83 58//83
f 25//84 2//84 15//84
f 27//85 14//85 3//85
f 32//86 17//86 10//86
f 40//87 9//87 18//87
f 45//88 22//88 35//88
f 47//89 34//89 23//89
f 52//90 37//90 30//90
f 60//91 29//91 38//91
f 3//92 2//92 1//92 5//92 4//92
