# Blender 4.0.1
# www.blender.org
o Solid.010
v 0.525867 0.283471 -0.567045
v 0.634085 0.350353 -0.391944
v 0.742397 0.283413 -0.216692
v 0.809279 0.108312 -0.108473
v 0.809279 -0.108312 -0.108473
v 0.742397 -0.283413 -0.216692
v 0.634085 -0.350353 -0.391944
v 0.525867 -0.283471 -0.567045
v 0.458926 -0.108218 -0.675357
v 0.458926 0.108218 -0.675357
v -0.634085 0.350353 -0.391944
v -0.525867 0.283471 -0.567045
v -0.458926 0.108218 -0.675357
v -0.458926 -0.108218 -0.675357
v -0.525867 -0.283471 -0.567045
v -0.634085 -0.350353 -0.391944
v -0.742397 -0.283413 -0.216692
v -0.809279 -0.108312 -0.108473
v -0.809279 0.108312 -0.108473
v -0.742397 0.283413 -0.216692
v 0.634085 0.350353 0.391944
v 0.525867 0.283471 0.567045
v 0.458926 0.108218 0.675357
v 0.458926 -0.108218 0.675357
v 0.525867 -0.283471 0.567045
v 0.634085 -0.350353 0.391944
v 0.742397 -0.283413 0.216692
v 0.809279 -0.108312 0.108473
v 0.809279 0.108312 0.108473
v 0.742397 0.283413 0.216692
v -0.525867 0.283471 0.567045
v -0.634085 0.350353 0.391944
v -0.742397 0.283413 0.216692
v -0.809279 0.108312 0.108473
v -0.809279 -0.108312 0.108473
v -0.742397 -0.283413 0.216692
v -0.634085 -0.350353 0.391944
v -0.525867 -0.283471 0.567045
v -0.458926 -0.108218 0.675357
v -0.458926 0.108218 0.675357
v 0.567045 0.525867 -0.283471
v 0.391944 0.634085 -0.350353
v 0.216692 0.742397 -0.283413
v 0.108473 0.809279 -0.108312
v 0.108473 0.809279 0.108312
v 0.216692 0.742397 0.283413
v 0.391944 0.634085 0.350353
v 0.567045 0.525867 0.283471
v 0.675357 0.458926 0.108218
v 0.675357 0.458926 -0.108218
v 0.391944 -0.634085 -0.350353
v 0.567045 -0.525867 -0.283471
v 0.675357 -0.458926 -0.108218
v 0.675357 -0.458926 0.108218
v 0.567045 -0.525867 0.283471
v 0.391944 -0.634085 0.350353
v 0.216692 -0.742397 0.283413
v 0.108473 -0.809279 0.108312
v 0.108473 -0.809279 -0.108312
v 0.216692 -0.742397 -0.283413
v -0.391944 0.634085 -0.350353
v -0.567045 0.525867 -0.283471
v -0.675357 0.458926 -0.108218
v -0.675357 0.458926 0.108218
v -0.567045 0.525867 0.283471
v -0.391944 0.634085 0.350353
v -0.216692 0.742397 0.283413
v -0.108473 0.809279 0.108312
v -0.108473 0.809279 -0.108312
v -0.216692 0.742397 -0.283413
v -0.567045 -0.525867 -0.283471
v -0.391944 -0.634085 -0.350353
v -0.216692 -0.742397 -0.283413
v -0.108473 -0.809279 -0.108312
v -0.108473 -0.809279 0.108312
v -0.216692 -0.742397 0.283413
v -0.391944 -0.634085 0.350353
v -0.567045 -0.525867 0.283471
v -0.675357 -0.458926 0.108218
v -0.675357 -0.458926 -0.108218
v 0.283471 0.567045 -0.525867
v 0.350353 0.391944 -0.634085
v 0.283413 0.216692 -0.742397
v 0.108312 0.108473 -0.809279
v -0.108312 0.108473 -0.809279
v -0.283413 0.216692 -0.742397
v -0.350353 0.391944 -0.634085
v -0.283471 0.567045 -0.525867
v -0.108218 0.675357 -0.458926
v 0.108218 0.675357 -0.458926
v 0.350353 0.391944 0.634085
v 0.283471 0.567045 0.525867
v 0.108218 0.675357 0.458926
v -0.108218 0.675357 0.458926
v -0.283471 0.567045 0.525867
v -0.350353 0.391944 0.634085
v -0.283413 0.216692 0.742397
v -0.108312 0.108473 0.809279
v 0.108312 0.108473 0.809279
v 0.283413 0.216692 0.742397
v 0.350353 -0.391944 -0.634085
v 0.283471 -0.567045 -0.525867
v 0.108218 -0.675357 -0.458926
v -0.108218 -0.675357 -0.458926
v -0.283471 -0.567045 -0.525867
v -0.350353 -0.391944 -0.634085
v -0.283413 -0.216692 -0.742397
v -0.108312 -0.108473 -0.809279
v 0.108312 -0.108473 -0.809279
v 0.283413 -0.216692 -0.742397
v 0.283471 -0.567045 0.525867
v 0.350353 -0.391944 0.634085
v 0.283413 -0.216692 0.742397
v 0.108312 -0.108473 0.809279
v -0.108312 -0.108473 0.809279
v -0.283413 -0.216692 0.742397
v -0.350353 -0.391944 0.634085
v -0.283471 -0.567045 0.525867
v -0.108218 -0.675357 0.458926
v 0.108218 -0.675357 0.458926
vn 0.9342 0.3568 -0.0000
vn -0.9342 -0.3568 -0.0000
vn -0.0000 0.9342 0.3568
vn -0.3568 -0.0000 0.9342
vn -0.5257 -0.8507 -0.0000
vn -0.5774 0.5774 0.5774
vn 0.5257 -0.8507 -0.0000
vn -0.5257 0.8507 -0.0000
vn -0.0000 0.5257 -0.8507
vn -0.0000 0.9342 -0.3568
vn -0.0000 0.5257 0.8507
vn 0.5774 0.5774 -0.5774
vn 0.5774 0.5774 0.5774
vn -0.0000 -0.5257 -0.8507
vn 0.5257 0.8507 -0.0000
vn -0.3568 -0.0000 -0.9342
vn -0.5774 -0.5774 0.5774
vn -0.9342 0.3568 -0.0000
vn -0.0000 -0.9342 0.3568
vn 1.0000 -0.0000 -0.0000
vn -1.0000 -0.0000 -0.0000
vn 0.8090 0.5000 0.3090
vn 0.8090 0.5000 -0.3090
vn 0.8090 -0.5000 -0.3090
vn 0.8090 -0.5000 0.3090
vn -0.8090 0.5000 -0.3090
vn -0.8090 0.5000 0.3090
vn -0.0000 1.0000 -0.0000
vn -0.0000 -1.0000 -0.0000
vn -0.8090 -0.5000 0.3090
vn -0.8090 -0.5000 -0.3090
vn 0.5000 0.3090 -0.8090
vn -0.5000 0.3090 -0.8090
vn -0.3090 0.8090 -0.5000
vn 0.3090 0.8090 -0.5000
vn 0.3090 0.8090 0.5000
vn -0.3090 0.8090 0.5000
vn -0.5000 0.3090 0.8090
vn 0.5000 0.3090 0.8090
vn 0.3090 -0.8090 -0.5000
vn -0.3090 -0.8090 -0.5000
vn -0.5000 -0.3090 -0.8090
vn -0.0000 -0.0000 -1.0000
vn 0.5000 -0.3090 -0.8090
vn 0.5000 -0.3090 0.8090
vn -0.0000 -0.0000 1.0000
vn -0.5000 -0.3090 0.8090
vn -0.3090 -0.8090 0.5000
vn 0.3090 -0.8090 0.5000
vn 0.9342 -0.3568 -0.0000
vn 0.8507 -0.0000 -0.5257
vn -0.5774 -0.5774 -0.5774
vn 0.3568 -0.0000 -0.9342
vn -0.0000 -0.5257 0.8507
vn -0.0000 -0.9342 -0.3568
vn 0.5774 -0.5774 -0.5774
vn 0.8507 -0.0000 0.5257
vn 0.3568 -0.0000 0.9342
vn 0.5774 -0.5774 0.5774
vn -0.8507 -0.0000 -0.5257
vn -0.8507 -0.0000 0.5257
vn -0.5774 0.5774 -0.5774
s 0
f 49//1 30//1 29//1 4//1 3//1 50//1
f 79//2 36//2 35//2 18//2 17//2 80//2
f 93//3 46//3 45//3 68//3 67//3 94//3
f 39//4 116//4 115//4 98//4 97//4 40//4
f 75//5 76//5 77//5 78//5 79//5 80//5 71//5 72//5 73//5 74//5
f 31//6 96//6 95//6 66//6 65//6 32//6
f 55//7 56//7 57//7 58//7 59//7 60//7 51//7 52//7 53//7 54//7
f 65//8 66//8 67//8 68//8 69//8 70//8 61//8 62//8 63//8 64//8
f 84//9 85//9 86//9 87//9 88//9 89//9 90//9 81//9 82//9 83//9
f 89//10 70//10 69//10 44//10 43//10 90//10
f 95//11 96//11 97//11 98//11 99//11 100//11 91//11 92//11 93//11 94//11
f 1//12 82//12 81//12 42//12 41//12 2//12
f 21//13 48//13 47//13 92//13 91//13 22//13
f 105//14 106//14 107//14 108//14 109//14 110//14 101//14 102//14 103//14 104//14
f 45//15 46//15 47//15 48//15 49//15 50//15 41//15 42//15 43//15 44//15
f 13//16 86//16 85//16 108//16 107//16 14//16
f 37//17 78//17 77//17 118//17 117//17 38//17
f 63//18 20//18 19//18 34//18 33//18 64//18
f 119//19 76//19 75//19 58//19 57//19 120//19
f 29//20 28//20 5//20 4//20
f 35//21 34//21 19//21 18//21
f 49//22 48//22 21//22 30//22
f 41//23 50//23 3//23 2//23
f 53//24 52//24 7//24 6//24
f 55//25 54//25 27//25 26//25
f 63//26 62//26 11//26 20//26
f 65//27 64//27 33//27 32//27
f 69//28 68//28 45//28 44//28
f 75//29 74//29 59//29 58//29
f 79//30 78//30 37//30 36//30
f 71//31 80//31 17//31 16//31
f 83//32 82//32 1//32 10//32
f 87//33 86//33 13//33 12//33
f 89//34 88//34 61//34 70//34
f 81//35 90//35 43//35 42//35
f 93//36 92//36 47//36 46//36
f 95//37 94//37 67//37 66//37
f 97//38 96//38 31//38 40//38
f 91//39 100//39 23//39 22//39
f 103//40 102//40 51//40 60//40
f 105//41 104//41 73//41 72//41
f 107//42 106//42 15//42 14//42
f 109//43 108//43 85//43 84//43
f 101//44 110//44 9//44 8//44
f 113//45 112//45 25//45 24//45
f 115//46 114//46 99//46 98//46
f 117//47 116//47 39//47 38//47
f 119//48 118//48 77//48 76//48
f 111//49 120//49 57//49 56//49
f 53//50 6//50 5//50 28//50 27//50 54//50
f 5//51 6//51 7//51 8//51 9//51 10//51 1//51 2//51 3//51 4//51
f 15//52 106//52 105//52 72//52 71//52 16//52
f 9//53 110//53 109//53 84//53 83//53 10//53
f 114//54 115//54 116//54 117//54 118//54 119//54 120//54 111//54 112//54 113//54
f 103//55 60//55 59//55 74//55 73//55 104//55
f 7//56 52//56 51//56 102//56 101//56 8//56
f 25//57 26//57 27//57 28//57 29//57 30//57 21//57 22//57 23//57 24//57
f 23//58 100//58 99//58 114//58 113//58 24//58
f 25//59 112//59 111//59 56//59 55//59 26//59
f 15//60 16//60 17//60 18//60 19//60 20//60 11//60 12//60 13//60 14//60
f 35//61 36//61 37//61 38//61 39//61 40//61 31//61 32//61 33//61 34//61
f 11//62 62//62 61//62 88//62 87//62 12//62
