# Blender 4.0.1
# www.blender.org
o Truncated_dodecahedron
v 0.606748 0.661458 -0.440828
v 0.518225 0.838505 -0.168381
v 0.749982 0.374991 -0.544894
v 0.320281 0.838504 -0.440828
v 0.000001 0.838505 -0.544894
v 0.518225 0.838505 0.168381
v 0.606748 0.661458 0.440828
v 0.749982 0.374991 0.544894
v -0.231757 0.661458 0.713275
v 0.320281 0.838504 0.440828
v 0.000001 0.838505 0.544894
v -0.320281 -0.838504 -0.440828
v -0.320281 -0.838504 0.440828
v -0.518225 -0.838505 -0.168381
v -0.000001 -0.838505 -0.544894
v -0.606748 -0.661458 -0.440828
v -0.749982 -0.374991 -0.544894
v -0.518225 -0.838505 0.168381
v -0.000001 -0.838505 0.544894
v -0.606748 -0.661458 0.440828
v -0.749982 -0.374991 0.544894
v 0.143233 -0.088523 -0.985722
v 0.463514 -0.088524 -0.881656
v 0.981738 -0.088524 -0.168381
v 0.927028 -0.374992 0.000000
v 0.695271 0.088523 -0.713275
v 0.893216 0.088523 -0.440828
v 0.286467 -0.374991 -0.881656
v 0.981738 -0.088524 0.168381
v 0.231757 -0.661458 -0.713275
v 0.893216 0.088523 0.440828
v -0.143233 0.088523 -0.985722
v 0.749982 -0.661458 0.000000
v -0.286467 0.374991 -0.881656
v 0.518224 -0.838505 -0.168381
v -0.231757 0.661458 -0.713275
v -0.927028 0.374992 0.000000
v 0.320280 -0.838506 -0.440828
v -0.463514 0.088524 -0.881656
v 0.518224 -0.838505 0.168381
v -0.695271 -0.088523 -0.713275
v 0.320280 -0.838506 0.440828
v 0.143233 -0.088523 0.985722
v -0.749982 0.661458 0.000000
v 0.463514 -0.088524 0.881656
v -0.518224 0.838505 -0.168381
v 0.695271 0.088523 0.713275
v -0.320280 0.838506 -0.440828
v 0.286467 -0.374991 0.881656
v -0.518224 0.838505 0.168381
v 0.231757 -0.661458 0.713275
v -0.320280 0.838506 0.440828
v -0.143233 0.088523 0.985722
v -0.286467 0.374991 0.881656
v -0.981738 0.088524 -0.168381
v -0.893216 -0.088523 -0.440828
v -0.463514 0.088524 0.881656
v -0.981738 0.088524 0.168381
v -0.695271 -0.088523 0.713275
v -0.893216 -0.088523 0.440828
vn 0.4911 0.7947 -0.3568
vn 0.4911 0.7947 0.3568
vn -0.4911 -0.7947 -0.3568
vn -0.4911 -0.7947 0.3568
vn 0.7947 0.1876 -0.5774
vn 0.3035 -0.1876 -0.9342
vn 0.9822 -0.1876 -0.0000
vn 0.7236 -0.4472 -0.5257
vn -0.7236 0.4472 -0.5257
vn -0.0000 -1.0000 -0.0000
vn 0.1876 -0.7947 -0.5774
vn 0.2764 0.4472 0.8507
vn -0.3035 0.1876 -0.9342
vn 0.6071 -0.7947 -0.0000
vn 0.2764 0.4472 -0.8507
vn 0.7947 0.1876 0.5774
vn -0.1876 0.7947 -0.5774
vn 0.8944 0.4472 -0.0000
vn 0.3035 -0.1876 0.9342
vn -0.6071 0.7947 -0.0000
vn -0.7236 0.4472 0.5257
vn 0.1876 -0.7947 0.5774
vn -0.1876 0.7947 0.5774
vn -0.0000 1.0000 -0.0000
vn -0.7947 -0.1876 -0.5774
vn -0.2764 -0.4472 -0.8507
vn -0.8944 -0.4472 -0.0000
vn -0.3035 0.1876 0.9342
vn -0.9822 0.1876 -0.0000
vn -0.2764 -0.4472 0.8507
vn 0.7236 -0.4472 0.5257
vn -0.7947 -0.1876 0.5774
s 0
f 4//1 2//1 1//1
f 10//2 7//2 6//2
f 16//3 12//3 14//3
f 20//4 18//4 13//4
f 27//5 26//5 3//5
f 28//6 22//6 23//6
f 29//7 25//7 24//7
f 27//8 24//8 25//8 33//8 35//8 38//8 30//8 28//8 23//8 26//8
f 48//9 36//9 34//9 39//9 41//9 56//9 55//9 37//9 44//9 46//9
f 19//10 13//10 18//10 14//10 12//10 15//10 38//10 35//10 40//10 42//10
f 38//11 15//11 30//11
f 8//12 7//12 10//12 11//12 9//12 54//12 53//12 43//12 45//12 47//12
f 39//13 34//13 32//13
f 40//14 35//14 33//14
f 22//15 32//15 34//15 36//15 5//15 4//15 1//15 3//15 26//15 23//15
f 47//16 31//16 8//16
f 48//17 5//17 36//17
f 27//18 3//18 1//18 2//18 6//18 7//18 8//18 31//18 29//18 24//18
f 49//19 45//19 43//19
f 50//20 46//20 44//20
f 54//21 9//21 52//21 50//21 44//21 37//21 58//21 60//21 59//21 57//21
f 51//22 19//22 42//22
f 52//23 9//23 11//23
f 11//24 10//24 6//24 2//24 4//24 5//24 48//24 46//24 50//24 52//24
f 56//25 41//25 17//25
f 41//26 39//26 32//26 22//26 28//26 30//26 15//26 12//26 16//26 17//26
f 14//27 18//27 20//27 21//27 60//27 58//27 55//27 56//27 17//27 16//27
f 57//28 53//28 54//28
f 58//29 37//29 55//29
f 21//30 20//30 13//30 19//30 51//30 49//30 43//30 53//30 57//30 59//30
f 40//31 33//31 25//31 29//31 31//31 47//31 45//31 49//31 51//31 42//31
f 60//32 21//32 59//32
