# Blender 4.0.1
# www.blender.org
o Solid.008
v 0.742344 0.283550 -0.350487
v 0.850651 -0.000000 -0.175244
v 0.742344 -0.283550 -0.350487
v 0.567100 -0.175244 -0.634038
v 0.567100 0.175244 -0.634038
v -0.567100 0.175244 -0.634038
v -0.567100 -0.175244 -0.634038
v -0.742344 -0.283550 -0.350487
v -0.850651 -0.000000 -0.175244
v -0.742344 0.283550 -0.350487
v 0.567100 0.175244 0.634038
v 0.567100 -0.175244 0.634038
v 0.742344 -0.283550 0.350487
v 0.850651 0.000000 0.175244
v 0.742344 0.283550 0.350487
v -0.742344 0.283550 0.350487
v -0.850651 0.000000 0.175244
v -0.742344 -0.283550 0.350487
v -0.567100 -0.175244 0.634038
v -0.567100 0.175244 0.634038
v 0.350487 0.742344 -0.283550
v 0.175244 0.850651 -0.000000
v 0.350487 0.742344 0.283550
v 0.634038 0.567100 0.175244
v 0.634038 0.567100 -0.175244
v 0.634038 -0.567100 -0.175244
v 0.634038 -0.567100 0.175244
v 0.350487 -0.742344 0.283550
v 0.175244 -0.850651 0.000000
v 0.350487 -0.742344 -0.283550
v -0.634038 0.567100 -0.175244
v -0.634038 0.567100 0.175244
v -0.350487 0.742344 0.283550
v -0.175244 0.850651 -0.000000
v -0.350487 0.742344 -0.283550
v -0.350487 -0.742344 -0.283550
v -0.175244 -0.850651 0.000000
v -0.350487 -0.742344 0.283550
v -0.634038 -0.567100 0.175244
v -0.634038 -0.567100 -0.175244
v 0.283550 0.350487 -0.742344
v 0.000000 0.175244 -0.850651
v -0.283550 0.350487 -0.742344
v -0.175244 0.634038 -0.567100
v 0.175244 0.634038 -0.567100
v 0.175244 0.634038 0.567100
v -0.175244 0.634038 0.567100
v -0.283550 0.350487 0.742344
v 0.000000 0.175244 0.850651
v 0.283550 0.350487 0.742344
v 0.175244 -0.634038 -0.567100
v -0.175244 -0.634038 -0.567100
v -0.283550 -0.350487 -0.742344
v 0.000000 -0.175244 -0.850651
v 0.283550 -0.350487 -0.742344
v 0.283550 -0.350487 0.742344
v 0.000000 -0.175244 0.850651
v -0.283550 -0.350487 0.742344
v -0.175244 -0.634038 0.567100
v 0.175244 -0.634038 0.567100
vn -0.8507 -0.0000 -0.5257
vn 0.8507 -0.0000 0.5257
vn -0.8507 -0.0000 0.5257
vn 0.5774 0.5774 -0.5774
vn 0.5257 -0.8507 -0.0000
vn -0.5257 0.8507 -0.0000
vn -0.5774 -0.5774 -0.5774
vn -0.0000 0.5257 -0.8507
vn -0.0000 0.5257 0.8507
vn 0.5774 -0.5774 -0.5774
vn -0.0000 -0.5257 0.8507
vn 0.5774 0.5774 0.5774
vn 0.5257 0.8507 -0.0000
vn -0.0000 -0.5257 -0.8507
vn -0.9342 0.3568 -0.0000
vn 0.9342 -0.3568 -0.0000
vn -0.5774 -0.5774 0.5774
vn -0.5257 -0.8507 -0.0000
vn 0.5774 -0.5774 0.5774
vn -0.5774 0.5774 0.5774
vn -0.0000 0.9342 0.3568
vn -0.5774 0.5774 -0.5774
vn 0.9342 0.3568 -0.0000
vn -0.0000 -0.9342 0.3568
vn -0.0000 0.9342 -0.3568
vn 0.3568 -0.0000 -0.9342
vn 0.3568 -0.0000 0.9342
vn 0.8507 -0.0000 -0.5257
vn -0.3568 -0.0000 0.9342
vn -0.3568 -0.0000 -0.9342
vn -0.0000 -0.9342 -0.3568
vn -0.9342 -0.3568 -0.0000
s 0
f 7//1 8//1 9//1 10//1 6//1
f 12//2 13//2 14//2 15//2 11//2
f 17//3 18//3 19//3 20//3 16//3
f 5//4 41//4 45//4 21//4 25//4 1//4
f 27//5 28//5 29//5 30//5 26//5
f 32//6 33//6 34//6 35//6 31//6
f 7//7 53//7 52//7 36//7 40//7 8//7
f 42//8 43//8 44//8 45//8 41//8
f 47//9 48//9 49//9 50//9 46//9
f 3//10 26//10 30//10 51//10 55//10 4//10
f 57//11 58//11 59//11 60//11 56//11
f 15//12 24//12 23//12 46//12 50//12 11//12
f 22//13 23//13 24//13 25//13 21//13
f 52//14 53//14 54//14 55//14 51//14
f 31//15 10//15 9//15 17//15 16//15 32//15
f 26//16 3//16 2//16 14//16 13//16 27//16
f 18//17 39//17 38//17 59//17 58//17 19//17
f 37//18 38//18 39//18 40//18 36//18
f 12//19 56//19 60//19 28//19 27//19 13//19
f 20//20 48//20 47//20 33//20 32//20 16//20
f 46//21 23//21 22//21 34//21 33//21 47//21
f 10//22 31//22 35//22 44//22 43//22 6//22
f 24//23 15//23 14//23 2//23 1//23 25//23
f 59//24 38//24 37//24 29//24 28//24 60//24
f 44//25 35//25 34//25 22//25 21//25 45//25
f 4//26 55//26 54//26 42//26 41//26 5//26
f 11//27 50//27 49//27 57//27 56//27 12//27
f 2//28 3//28 4//28 5//28 1//28
f 19//29 58//29 57//29 49//29 48//29 20//29
f 6//30 43//30 42//30 54//30 53//30 7//30
f 51//31 30//31 29//31 37//31 36//31 52//31
f 39//32 18//32 17//32 9//32 8//32 40//32
