# Blender 4.0.1
# www.blender.org
o Solid
v -0.157135 0.555556 -0.272166
v -0.157135 0.555556 0.272166
v 0.314270 0.555556 0.000000
v 0.628539 0.111111 0.000000
v 0.471404 -0.333333 0.272166
v 0.471404 -0.333333 -0.272166
v 0.000000 -0.333333 -0.544331
v -0.471404 -0.333333 -0.272165
v -0.314270 0.111111 -0.544331
v -0.471404 -0.333333 0.272165
v 0.000000 -0.333333 0.544331
v -0.314270 0.111111 0.544331
vn -0.0000 1.0000 -0.0000
vn 0.9428 -0.3333 -0.0000
vn -0.4714 -0.3333 -0.8165
vn -0.4714 -0.3333 0.8165
vn -0.9428 0.3333 -0.0000
vn -0.0000 -1.0000 -0.0000
vn 0.4714 0.3333 0.8165
vn 0.4714 0.3333 -0.8165
s 0
f 1//1 2//1 3//1
f 4//2 5//2 6//2
f 7//3 8//3 9//3
f 10//4 11//4 12//4
f 1//5 9//5 8//5 10//5 12//5 2//5
f 5//6 11//6 10//6 8//6 7//6 6//6
f 2//7 12//7 11//7 5//7 4//7 3//7
f 3//8 4//8 6//8 7//8 9//8 1//8
