# Blender 4.0.1
# www.blender.org
o Solid.002
v 0.642889 0.491123 -0.467086
v 0.888451 -0.000000 -0.288675
v 0.549093 -0.000000 -0.755761
v 0.397327 -0.794655 -0.288675
v -0.151766 -0.794654 -0.467086
v 0.245562 -0.491124 -0.755761
v 0.642889 0.491123 0.467086
v 0.549093 0.000000 0.755761
v 0.888451 0.000000 0.288675
v 0.245562 -0.491124 0.755761
v -0.151766 -0.794654 0.467086
v 0.397327 -0.794655 0.288675
v -0.245562 0.491124 -0.755761
v -0.397327 0.794655 -0.288675
v 0.151766 0.794654 -0.467086
v -0.642889 -0.491123 -0.467086
v -0.888451 -0.000000 -0.288675
v -0.549093 -0.000000 -0.755761
v -0.397327 0.794655 0.288675
v -0.245562 0.491124 0.755761
v 0.151766 0.794654 0.467086
v -0.642889 -0.491123 0.467086
v -0.549093 0.000000 0.755761
v -0.888451 0.000000 0.288675
v 0.000000 -0.000000 -0.934172
v 0.000000 0.000000 0.934172
v 0.794654 -0.491124 0.000000
v -0.794654 0.491124 -0.000000
v 0.491124 0.794654 -0.000000
v -0.491124 -0.794654 0.000000
vn 0.7947 0.1876 -0.5774
vn 0.1876 -0.7947 -0.5773
vn 0.7947 0.1876 0.5774
vn 0.1876 -0.7947 0.5774
vn -0.1876 0.7947 -0.5774
vn -0.7947 -0.1876 -0.5774
vn -0.1876 0.7947 0.5773
vn -0.7947 -0.1876 0.5774
vn 0.3035 -0.1876 -0.9342
vn -0.3035 0.1876 -0.9342
vn 0.3035 -0.1876 0.9342
vn -0.3035 0.1876 0.9342
vn 0.9822 -0.1876 -0.0000
vn 0.6071 -0.7947 -0.0000
vn -0.6071 0.7947 -0.0000
vn -0.9822 0.1876 -0.0000
vn 0.4911 0.7947 -0.3568
vn 0.4911 0.7947 0.3568
vn -0.4911 -0.7947 -0.3568
vn -0.4911 -0.7947 0.3568
vn 0.2764 0.4472 0.8507
vn -0.2764 -0.4472 0.8507
vn -0.0000 1.0000 -0.0000
vn -0.2764 -0.4472 -0.8507
vn -0.0000 -1.0000 -0.0000
vn 0.8944 0.4472 -0.0000
vn -0.7236 0.4472 -0.5257
vn 0.7236 -0.4472 -0.5257
vn 0.7236 -0.4472 0.5257
vn -0.8944 -0.4472 -0.0000
vn 0.2764 0.4472 -0.8507
vn -0.7236 0.4472 0.5257
s 0
f 1//1 2//1 3//1
f 4//2 5//2 6//2
f 7//3 8//3 9//3
f 10//4 11//4 12//4
f 13//5 14//5 15//5
f 16//6 17//6 18//6
f 19//7 20//7 21//7
f 22//8 23//8 24//8
f 3//9 6//9 25//9
f 25//10 18//10 13//10
f 8//11 26//11 10//11
f 20//12 23//12 26//12
f 2//13 9//13 27//13
f 27//14 12//14 4//14
f 14//15 28//15 19//15
f 17//16 24//16 28//16
f 15//17 29//17 1//17
f 29//18 21//18 7//18
f 5//19 30//19 16//19
f 11//20 22//20 30//20
f 26//21 8//21 7//21 21//21 20//21
f 11//22 10//22 26//22 23//22 22//22
f 14//23 19//23 21//23 29//23 15//23
f 5//24 16//24 18//24 25//24 6//24
f 30//25 5//25 4//25 12//25 11//25
f 29//26 7//26 9//26 2//26 1//26
f 17//27 28//27 14//27 13//27 18//27
f 27//28 4//28 6//28 3//28 2//28
f 8//29 10//29 12//29 27//29 9//29
f 17//30 16//30 30//30 22//30 24//30
f 25//31 13//31 15//31 1//31 3//31
f 20//32 19//32 28//32 24//32 23//32
