# Blender 4.0.1
# www.blender.org
o Solid.006
v -0.577350 -0.150803 0.364072
v -0.577350 -0.364072 0.150803
v -0.577350 -0.364072 -0.150803
v -0.577350 -0.150803 -0.364072
v -0.577350 0.150803 -0.364072
v -0.577350 0.364072 -0.150803
v -0.577350 0.364072 0.150803
v -0.577350 0.150803 0.364072
v 0.577350 -0.364072 0.150803
v 0.577350 -0.150803 0.364072
v 0.577350 0.150803 0.364072
v 0.577350 0.364072 0.150803
v 0.577350 0.364072 -0.150803
v 0.577350 0.150803 -0.364072
v 0.577350 -0.150803 -0.364072
v 0.577350 -0.364072 -0.150803
v -0.150803 -0.364072 0.577350
v -0.364072 -0.150803 0.577350
v -0.364072 0.150803 0.577350
v -0.150803 0.364072 0.577350
v 0.150803 0.364072 0.577350
v 0.364072 0.150803 0.577350
v 0.364072 -0.150803 0.577350
v 0.150803 -0.364072 0.577350
v 0.150803 -0.364072 -0.577350
v 0.364072 -0.150803 -0.577350
v 0.364072 0.150803 -0.577350
v 0.150803 0.364072 -0.577350
v -0.150803 0.364072 -0.577350
v -0.364072 0.150803 -0.577350
v -0.364072 -0.150803 -0.577350
v -0.150803 -0.364072 -0.577350
v -0.364072 -0.577350 0.150803
v -0.150803 -0.577350 0.364072
v 0.150803 -0.577350 0.364072
v 0.364072 -0.577350 0.150803
v 0.364072 -0.577350 -0.150803
v 0.150803 -0.577350 -0.364072
v -0.150803 -0.577350 -0.364072
v -0.364072 -0.577350 -0.150803
v -0.150803 0.577350 0.364072
v -0.364072 0.577350 0.150803
v -0.364072 0.577350 -0.150803
v -0.150803 0.577350 -0.364072
v 0.150803 0.577350 -0.364072
v 0.364072 0.577350 -0.150803
v 0.364072 0.577350 0.150803
v 0.150803 0.577350 0.364072
vn 0.5774 -0.5774 -0.5774
vn -1.0000 -0.0000 -0.0000
vn 1.0000 -0.0000 -0.0000
vn -0.5774 0.5774 -0.5774
vn 0.5774 0.5774 0.5774
vn -0.5774 0.5774 0.5774
vn -0.7071 -0.0000 0.7071
vn 0.7071 -0.0000 0.7071
vn 0.7071 -0.0000 -0.7071
vn -0.7071 -0.0000 -0.7071
vn -0.0000 -0.7071 0.7071
vn 0.7071 -0.7071 -0.0000
vn -0.0000 -0.7071 -0.7071
vn -0.7071 -0.7071 -0.0000
vn -0.7071 0.7071 -0.0000
vn -0.0000 0.7071 -0.7071
vn 0.7071 0.7071 -0.0000
vn -0.0000 0.7071 0.7071
vn -0.5774 -0.5774 -0.5774
vn -0.5774 -0.5774 0.5774
vn -0.0000 1.0000 -0.0000
vn -0.0000 -0.0000 1.0000
vn 0.5774 0.5774 -0.5774
vn -0.0000 -1.0000 -0.0000
vn -0.0000 -0.0000 -1.0000
vn 0.5774 -0.5774 0.5774
s 0
f 37//1 38//1 25//1 26//1 15//1 16//1
f 5//2 4//2 3//2 2//2 1//2 8//2 7//2 6//2
f 13//3 12//3 11//3 10//3 9//3 16//3 15//3 14//3
f 43//4 44//4 29//4 30//4 5//4 6//4
f 47//5 48//5 21//5 22//5 11//5 12//5
f 41//6 42//6 7//6 8//6 19//6 20//6
f 19//7 8//7 1//7 18//7
f 23//8 10//8 11//8 22//8
f 27//9 14//9 15//9 26//9
f 31//10 4//10 5//10 30//10
f 35//11 24//11 17//11 34//11
f 37//12 16//12 9//12 36//12
f 39//13 32//13 25//13 38//13
f 33//14 2//14 3//14 40//14
f 43//15 6//15 7//15 42//15
f 45//16 28//16 29//16 44//16
f 47//17 12//17 13//17 46//17
f 41//18 20//18 21//18 48//18
f 39//19 40//19 3//19 4//19 31//19 32//19
f 33//20 34//20 17//20 18//20 1//20 2//20
f 45//21 44//21 43//21 42//21 41//21 48//21 47//21 46//21
f 21//22 20//22 19//22 18//22 17//22 24//22 23//22 22//22
f 45//23 46//23 13//23 14//23 27//23 28//23
f 37//24 36//24 35//24 34//24 33//24 40//24 39//24 38//24
f 29//25 28//25 27//25 26//25 25//25 32//25 31//25 30//25
f 35//26 36//26 9//26 10//26 23//26 24//26
