# Blender 4.0.1
# www.blender.org
o Chamfered_Icosahdron
v 1.350651 0.000000 2.185399
v 1.350651 -0.000000 -2.185399
v -1.350651 0.000000 2.185399
v -1.350651 -0.000000 -2.185399
v 2.185399 1.350651 -0.000000
v 2.185399 -1.350651 0.000000
v -2.185399 1.350651 -0.000000
v -2.185399 -1.350651 0.000000
v 0.000000 2.185399 1.350651
v 0.000000 2.185399 -1.350651
v 0.000000 -2.185399 1.350651
v 0.000000 -2.185399 -1.350651
v 0.500000 0.525731 2.185399
v 0.500000 0.525731 -2.185399
v 0.500000 -0.525731 2.185399
v 0.500000 -0.525731 -2.185399
v -0.500000 0.525731 2.185399
v -0.500000 0.525731 -2.185399
v -0.500000 -0.525731 2.185399
v -0.500000 -0.525731 -2.185399
v 2.185399 0.500000 0.525731
v 2.185399 0.500000 -0.525731
v 2.185399 -0.500000 0.525731
v 2.185399 -0.500000 -0.525731
v -2.185399 0.500000 0.525731
v -2.185399 0.500000 -0.525731
v -2.185399 -0.500000 0.525731
v -2.185399 -0.500000 -0.525731
v 0.525731 2.185399 0.500000
v 0.525731 2.185399 -0.500000
v 0.525731 -2.185399 0.500000
v 0.525731 -2.185399 -0.500000
v -0.525731 2.185399 0.500000
v -0.525731 2.185399 -0.500000
v -0.525731 -2.185399 0.500000
v -0.525731 -2.185399 -0.500000
v 0.000000 1.334748 1.876382
v 0.000000 1.334748 -1.876382
v 0.000000 -1.334748 1.876382
v 0.000000 -1.334748 -1.876382
v 1.876382 0.000000 1.334748
v 1.876382 -0.000000 -1.334748
v -1.876382 0.000000 1.334748
v -1.876382 -0.000000 -1.334748
v 1.334748 1.876382 -0.000000
v 1.334748 -1.876382 0.000000
v -1.334748 1.876382 -0.000000
v -1.334748 -1.876382 0.000000
v 1.350651 0.850651 1.659668
v 1.350651 0.850651 -1.659668
v 1.350651 -0.850651 1.659668
v 1.350651 -0.850651 -1.659668
v -1.350651 0.850651 1.659668
v -1.350651 0.850651 -1.659668
v -1.350651 -0.850651 1.659668
v -1.350651 -0.850651 -1.659668
v 1.659668 1.350651 0.850651
v 1.659668 1.350651 -0.850651
v 1.659668 -1.350651 0.850651
v 1.659668 -1.350651 -0.850651
v -1.659668 1.350651 0.850651
v -1.659668 1.350651 -0.850651
v -1.659668 -1.350651 0.850651
v -1.659668 -1.350651 -0.850651
v 0.850651 1.659668 1.350651
v 0.850651 1.659668 -1.350651
v 0.850651 -1.659668 1.350651
v 0.850651 -1.659668 -1.350651
v -0.850651 1.659668 1.350651
v -0.850651 1.659668 -1.350651
v -0.850651 -1.659668 1.350651
v -0.850651 -1.659668 -1.350651
vn -0.0000 -0.0000 1.0000
vn 0.3090 -0.5000 0.8090
vn 0.8090 -0.3090 0.5000
vn 0.3090 0.5000 -0.8090
vn 0.8090 0.3090 -0.5000
vn 0.8090 -0.3090 -0.5000
vn -0.8090 0.3090 0.5000
vn -0.8090 -0.3090 0.5000
vn -0.3090 -0.5000 0.8090
vn -0.8090 0.3090 -0.5000
vn -0.3090 0.5000 -0.8090
vn -0.0000 -0.0000 -1.0000
vn 0.5000 0.8090 0.3090
vn 0.8090 0.3090 0.5000
vn 1.0000 -0.0000 -0.0000
vn -1.0000 -0.0000 -0.0000
vn -0.8090 -0.3090 -0.5000
vn -0.5000 -0.8090 -0.3090
vn -0.5000 0.8090 0.3090
vn -0.3090 0.5000 0.8090
vn 0.3090 0.5000 0.8090
vn -0.5000 0.8090 -0.3090
vn -0.0000 1.0000 -0.0000
vn 0.5000 0.8090 -0.3090
vn -0.5000 -0.8090 0.3090
vn -0.0000 -1.0000 -0.0000
vn 0.5000 -0.8090 0.3090
vn -0.3090 -0.5000 -0.8090
vn 0.3090 -0.5000 -0.8090
vn 0.5000 -0.8090 -0.3090
vn -0.0000 0.3568 0.9342
vn -0.0000 0.3568 -0.9342
vn -0.0000 -0.3568 0.9342
vn -0.0000 -0.3568 -0.9342
vn 0.9342 -0.0000 0.3568
vn 0.9342 -0.0000 -0.3568
vn -0.9342 -0.0000 0.3568
vn -0.9342 -0.0000 -0.3568
vn 0.3568 0.9342 -0.0000
vn 0.3568 -0.9342 -0.0000
vn -0.3568 0.9342 -0.0000
vn -0.3568 -0.9342 -0.0000
vn 0.5774 0.5774 0.5774
vn 0.5774 0.5774 -0.5774
vn 0.5774 -0.5774 0.5774
vn 0.5774 -0.5774 -0.5774
vn -0.5774 0.5774 0.5774
vn -0.5774 0.5774 -0.5774
vn -0.5774 -0.5774 0.5774
vn -0.5774 -0.5774 -0.5774
s 0
f 1//1 13//1 17//1 3//1 19//1 15//1
f 1//2 15//2 39//2 11//2 67//2 51//2
f 1//3 51//3 59//3 6//3 23//3 41//3
f 2//4 14//4 38//4 10//4 66//4 50//4
f 2//5 50//5 58//5 5//5 22//5 42//5
f 2//6 42//6 24//6 6//6 60//6 52//6
f 3//7 53//7 61//7 7//7 25//7 43//7
f 3//8 43//8 27//8 8//8 63//8 55//8
f 3//9 55//9 71//9 11//9 39//9 19//9
f 4//10 44//10 26//10 7//10 62//10 54//10
f 4//11 54//11 70//11 10//11 38//11 18//11
f 4//12 18//12 14//12 2//12 16//12 20//12
f 5//13 45//13 29//13 9//13 65//13 57//13
f 5//14 57//14 49//14 1//14 41//14 21//14
f 5//15 21//15 23//15 6//15 24//15 22//15
f 8//16 27//16 25//16 7//16 26//16 28//16
f 8//17 28//17 44//17 4//17 56//17 64//17
f 8//18 64//18 72//18 12//18 36//18 48//18
f 9//19 33//19 47//19 7//19 61//19 69//19
f 9//20 69//20 53//20 3//20 17//20 37//20
f 9//21 37//21 13//21 1//21 49//21 65//21
f 10//22 70//22 62//22 7//22 47//22 34//22
f 10//23 34//23 33//23 9//23 29//23 30//23
f 10//24 30//24 45//24 5//24 58//24 66//24
f 11//25 71//25 63//25 8//25 48//25 35//25
f 11//26 35//26 36//26 12//26 32//26 31//26
f 11//27 31//27 46//27 6//27 59//27 67//27
f 12//28 72//28 56//28 4//28 20//28 40//28
f 12//29 40//29 16//29 2//29 52//29 68//29
f 12//30 68//30 60//30 6//30 46//30 32//30
f 37//31 17//31 13//31
f 38//32 14//32 18//32
f 39//33 15//33 19//33
f 40//34 20//34 16//34
f 41//35 23//35 21//35
f 42//36 22//36 24//36
f 43//37 25//37 27//37
f 44//38 28//38 26//38
f 45//39 30//39 29//39
f 46//40 31//40 32//40
f 47//41 33//41 34//41
f 48//42 36//42 35//42
f 49//43 57//43 65//43
f 50//44 66//44 58//44
f 51//45 67//45 59//45
f 52//46 60//46 68//46
f 53//47 69//47 61//47
f 54//48 62//48 70//48
f 55//49 63//49 71//49
f 56//50 72//50 64//50
