# Blender 4.0.1
# www.blender.org
o star
v -0.894428 -0.447213 0.000000
v -0.447226 -0.341640 -0.324908
v -0.276393 -0.447213 -0.850651
v 0.170824 -0.105590 -0.525725
v 0.170820 -0.341638 -0.525730
v 0.105591 -0.447211 -0.324922
v 0.381966 0.000002 -0.525728
v 0.552784 -0.341641 0.000000
v 0.723607 -0.447213 -0.525731
v 0.341649 -0.447211 0.000017
v 0.276404 -0.552779 0.200822
v 0.552788 -0.105559 0.000013
v 0.723607 -0.447213 0.525731
v 0.170820 -0.341638 0.525730
v 0.105559 -0.447211 0.324933
v -0.105580 -0.552779 0.324933
v -0.276394 -0.447213 0.850651
v -0.276393 -0.447209 0.200830
v -0.447207 -0.341640 0.324934
v -0.000000 -1.000000 0.000000
v -0.276379 -0.447215 -0.200824
v -0.341628 -0.552796 0.000002
v 0.276394 -0.552784 -0.200809
v -0.105571 -0.552796 -0.324907
v 0.447213 0.341638 0.324919
v 0.894428 0.447213 0.000000
v 0.618038 0.000014 0.200806
v 0.447224 0.105581 -0.324907
v 0.618039 0.000012 -0.200802
v 0.341640 0.552784 0.000002
v 0.447225 0.341640 -0.324908
v 0.276393 0.447213 -0.850651
v -0.170820 0.341641 -0.525728
v -0.170824 0.105590 -0.525725
v 0.000010 0.000012 -0.649841
v 0.105574 0.552784 -0.324918
v -0.105557 0.447221 -0.324913
v -0.447224 -0.105569 -0.324904
v -0.381973 0.000014 -0.525729
v -0.552784 0.341641 0.000000
v -0.552782 0.105590 0.000005
v -0.618033 0.000012 -0.200822
v -0.723607 0.447213 -0.525731
v -0.723607 0.447213 0.525731
v -0.447219 -0.105556 0.324922
v -0.618034 0.000014 0.200818
v -0.170814 0.105590 0.525728
v -0.381975 0.000012 0.525727
v 0.105579 0.552779 0.324933
v -0.170805 0.341643 0.525737
v 0.381966 0.000000 0.525728
v 0.170838 -0.105569 0.525725
v 0.000007 0.000014 0.649841
v 0.276393 0.447213 0.850651
v 0.447204 0.105581 0.324934
v 0.000000 1.000000 0.000000
v -0.341636 0.447215 0.000018
v -0.276382 0.552796 -0.200806
v -0.105570 0.447227 0.324906
v -0.276384 0.552796 0.200802
v 0.276381 0.447227 0.200805
v 0.276383 0.447227 -0.200802
vn -0.1625 -0.8506 0.5000
vn -0.5878 -0.0000 0.8090
vn -0.8507 0.5257 -0.0000
vn -0.5878 -0.0000 -0.8090
vn -0.1625 -0.8506 -0.5000
vn -0.5257 -0.8506 -0.0000
vn -0.9511 -0.0000 -0.3090
vn -0.2629 0.5257 -0.8090
vn 0.5878 -0.0000 -0.8090
vn 0.4253 -0.8506 -0.3090
vn -0.1625 -0.8507 -0.5000
vn -0.0000 -0.0000 -1.0000
vn 0.6882 0.5257 -0.5000
vn 0.9511 -0.0000 0.3090
vn 0.4253 -0.8507 0.3090
vn 0.4253 -0.8507 -0.3090
vn 0.9511 -0.0000 -0.3090
vn 0.6882 0.5257 0.5000
vn -0.0000 -0.0000 1.0000
vn -0.1625 -0.8507 0.5000
vn 0.5878 -0.0000 0.8090
vn -0.2629 0.5257 0.8090
vn -0.9511 -0.0000 0.3090
vn 0.8506 -0.5257 -0.0000
vn 0.2629 -0.5257 0.8090
vn -0.6882 -0.5257 0.5000
vn -0.6882 -0.5257 -0.5000
vn 0.2629 -0.5257 -0.8090
vn 0.1625 0.8506 0.5000
vn 0.1625 0.8506 -0.5000
vn 0.5257 0.8507 -0.0000
vn -0.4253 0.8507 -0.3090
vn -0.4253 0.8506 0.3090
vn -0.4253 0.8506 -0.3090
vn 0.1625 0.8507 0.5000
vn -0.4253 0.8507 0.3090
vn 0.5257 0.8506 -0.0000
s 0
f 19//1 1//1 22//1 18//1
f 46//2 1//2 19//2 45//2
f 42//3 1//3 46//3 41//3
f 2//4 1//4 42//4 38//4
f 22//5 1//5 2//5 21//5
f 2//6 3//6 24//6 21//6
f 39//7 3//7 2//7 38//7
f 35//8 3//8 39//8 34//8
f 5//9 3//9 35//9 4//9
f 24//10 3//10 5//10 6//10
f 5//11 9//11 23//11 6//11
f 7//12 9//12 5//12 4//12
f 29//13 9//13 7//13 28//13
f 8//14 9//14 29//14 12//14
f 23//15 9//15 8//15 10//15
f 8//16 13//16 11//16 10//16
f 27//17 13//17 8//17 12//17
f 51//18 13//18 27//18 55//18
f 14//19 13//19 51//19 52//19
f 11//20 13//20 14//20 15//20
f 14//15 17//15 16//15 15//15
f 53//21 17//21 14//21 52//21
f 48//22 17//22 53//22 47//22
f 19//23 17//23 48//23 45//23
f 16//6 17//6 19//6 18//6
f 11//24 20//24 23//24 10//24
f 16//25 20//25 11//25 15//25
f 22//26 20//26 16//26 18//26
f 24//27 20//27 22//27 21//27
f 23//28 20//28 24//28 6//28
f 25//29 26//29 30//29 61//29
f 27//21 26//21 25//21 55//21
f 29//24 26//24 27//24 12//24
f 31//9 26//9 29//9 28//9
f 30//30 26//30 31//30 62//30
f 31//31 32//31 36//31 62//31
f 7//17 32//17 31//17 28//17
f 35//28 32//28 7//28 4//28
f 33//4 32//4 35//4 34//4
f 36//32 32//32 33//32 37//32
f 33//30 43//30 58//30 37//30
f 39//12 43//12 33//12 34//12
f 42//27 43//27 39//27 38//27
f 40//23 43//23 42//23 41//23
f 58//33 43//33 40//33 57//33
f 40//34 44//34 60//34 57//34
f 46//7 44//7 40//7 41//7
f 48//26 44//26 46//26 45//26
f 50//19 44//19 48//19 47//19
f 60//35 44//35 50//35 59//35
f 50//36 54//36 49//36 59//36
f 53//2 54//2 50//2 47//2
f 51//25 54//25 53//25 52//25
f 25//14 54//14 51//14 55//14
f 49//37 54//37 25//37 61//37
f 60//3 56//3 58//3 57//3
f 49//22 56//22 60//22 59//22
f 30//18 56//18 49//18 61//18
f 36//13 56//13 30//13 62//13
f 58//8 56//8 36//8 37//8
