# Blender 4.0.1
# www.blender.org
o Dodecahedron
v 7.946545 1.875924 -5.773502
v 3.035310 -1.875926 -9.341723
v -1.875924 7.946545 -5.773502
v 4.911235 7.946544 -3.568222
v -3.035310 1.875924 -9.341723
v 9.822469 -1.875925 0.000000
v 1.875924 -7.946546 -5.773501
v 6.070619 -7.946545 0.000001
v 7.946545 1.875924 5.773502
v 4.911235 7.946545 3.568220
v -7.946545 -1.875924 -5.773502
v -4.911235 -7.946545 -3.568220
v 1.875924 -7.946545 5.773502
v 3.035310 -1.875924 9.341723
v -1.875924 7.946546 5.773501
v -6.070619 7.946545 -0.000001
v -9.822469 1.875925 -0.000000
v -3.035310 1.875926 9.341723
v -4.911235 -7.946544 3.568222
v -7.946545 -1.875924 5.773502
s 0
f 9 6 1 4 10
f 15 10 4 3 16
f 7 2 1 6 8
f 3 4 1 2 5
f 11 5 2 7 12
f 7 8 13 19 12
f 16 3 5 11 17
f 13 8 6 9 14
f 9 10 15 18 14
f 17 11 12 19 20
f 18 15 16 17 20
f 19 13 14 18 20
