# Blender 4.0.1
# www.blender.org
o Solid.001
v 0.706250 0.000000 -0.436486
v -0.706250 0.000000 -0.436486
v 0.706250 0.000000 0.436486
v -0.706250 0.000000 0.436486
v 0.436486 0.706250 0.000000
v 0.436486 -0.706250 -0.000000
v -0.436486 0.706250 -0.000000
v -0.436486 -0.706250 0.000000
v 0.000000 0.436486 -0.706250
v 0.000000 0.436486 0.706250
v 0.000000 -0.436486 -0.706250
v 0.000000 -0.436486 0.706250
v 0.809284 0.000000 0.000000
v -0.809284 0.000000 0.000000
v 0.654724 0.404642 0.250083
v 0.654724 0.404642 -0.250083
v 0.654724 -0.404642 -0.250083
v 0.654724 -0.404642 0.250083
v -0.654724 0.404642 -0.250083
v -0.654724 0.404642 0.250083
v 0.000000 0.809284 0.000000
v 0.000000 -0.809284 0.000000
v -0.654724 -0.404642 0.250083
v -0.654724 -0.404642 -0.250083
v 0.404642 0.250082 -0.654724
v -0.404642 0.250083 -0.654724
v -0.250083 0.654724 -0.404642
v 0.250083 0.654724 -0.404642
v 0.250083 0.654724 0.404642
v -0.250083 0.654724 0.404642
v -0.404642 0.250082 0.654724
v 0.404642 0.250083 0.654724
v 0.250083 -0.654724 -0.404642
v -0.250083 -0.654724 -0.404642
v -0.404642 -0.250082 -0.654724
v 0.000000 0.000000 -0.809284
v 0.404642 -0.250083 -0.654724
v 0.404642 -0.250082 0.654724
v 0.000000 0.000000 0.809284
v -0.404642 -0.250083 0.654724
v -0.250083 -0.654724 0.404642
v 0.250083 -0.654724 0.404642
v 0.458794 0.458794 -0.458794
v 0.458794 -0.458794 -0.458794
v 0.458794 0.458794 0.458794
v 0.458794 -0.458794 0.458794
v -0.458794 0.458794 -0.458794
v -0.458794 -0.458794 -0.458794
v -0.458794 0.458794 0.458794
v -0.458794 -0.458794 0.458794
v 0.283550 0.000000 -0.742344
v -0.283550 0.000000 -0.742344
v 0.283550 0.000000 0.742344
v -0.283550 0.000000 0.742344
v 0.742344 0.283550 0.000000
v 0.742344 -0.283550 0.000000
v -0.742344 0.283550 0.000000
v -0.742344 -0.283550 0.000000
v 0.000000 0.742344 -0.283550
v 0.000000 0.742344 0.283550
v 0.000000 -0.742344 -0.283550
v 0.000000 -0.742344 0.283550
vn 0.7246 0.3623 -0.5862
vn 0.9485 0.2239 -0.2239
vn 0.9485 -0.2239 -0.2239
vn 0.7246 -0.3623 -0.5862
vn 0.5862 -0.0000 -0.8102
vn -0.7246 0.3623 -0.5862
vn -0.5862 -0.0000 -0.8102
vn -0.7246 -0.3623 -0.5862
vn -0.9485 -0.2239 -0.2239
vn -0.9485 0.2239 -0.2239
vn 0.7246 0.3623 0.5862
vn 0.5862 -0.0000 0.8102
vn 0.7246 -0.3623 0.5862
vn 0.9485 -0.2239 0.2239
vn 0.9485 0.2239 0.2239
vn -0.7246 0.3623 0.5862
vn -0.9485 0.2239 0.2239
vn -0.9485 -0.2239 0.2239
vn -0.7246 -0.3623 0.5862
vn -0.5862 -0.0000 0.8102
vn 0.5862 0.7246 -0.3623
vn 0.2239 0.9485 -0.2239
vn 0.2239 0.9485 0.2239
vn 0.5862 0.7246 0.3623
vn 0.8102 0.5862 -0.0000
vn 0.5862 -0.7246 -0.3623
vn 0.8102 -0.5862 -0.0000
vn 0.5862 -0.7246 0.3623
vn 0.2239 -0.9485 0.2239
vn 0.2239 -0.9485 -0.2239
vn -0.5862 0.7246 -0.3623
vn -0.8102 0.5862 -0.0000
vn -0.5862 0.7246 0.3623
vn -0.2239 0.9485 0.2239
vn -0.2239 0.9485 -0.2239
vn -0.5862 -0.7246 -0.3623
vn -0.2239 -0.9485 -0.2239
vn -0.2239 -0.9485 0.2239
vn -0.5862 -0.7246 0.3623
vn -0.8102 -0.5862 -0.0000
vn 0.3623 0.5862 -0.7246
vn 0.2239 0.2239 -0.9485
vn -0.2239 0.2239 -0.9485
vn -0.3623 0.5862 -0.7246
vn -0.0000 0.8102 -0.5862
vn 0.3623 0.5862 0.7246
vn -0.0000 0.8102 0.5862
vn -0.3623 0.5862 0.7246
vn -0.2239 0.2239 0.9485
vn 0.2239 0.2239 0.9485
vn 0.3623 -0.5862 -0.7246
vn -0.0000 -0.8102 -0.5862
vn -0.3623 -0.5862 -0.7246
vn -0.2239 -0.2239 -0.9485
vn 0.2239 -0.2239 -0.9485
vn 0.3623 -0.5862 0.7246
vn 0.2239 -0.2239 0.9485
vn -0.2239 -0.2239 0.9485
vn -0.3623 -0.5862 0.7246
vn -0.0000 -0.8102 0.5862
s 0
f 1//1 25//1 43//1 16//1
f 1//2 16//2 55//2 13//2
f 1//3 13//3 56//3 17//3
f 1//4 17//4 44//4 37//4
f 1//5 37//5 51//5 25//5
f 2//6 19//6 47//6 26//6
f 2//7 26//7 52//7 35//7
f 2//8 35//8 48//8 24//8
f 2//9 24//9 58//9 14//9
f 2//10 14//10 57//10 19//10
f 3//11 15//11 45//11 32//11
f 3//12 32//12 53//12 38//12
f 3//13 38//13 46//13 18//13
f 3//14 18//14 56//14 13//14
f 3//15 13//15 55//15 15//15
f 4//16 31//16 49//16 20//16
f 4//17 20//17 57//17 14//17
f 4//18 14//18 58//18 23//18
f 4//19 23//19 50//19 40//19
f 4//20 40//20 54//20 31//20
f 5//21 16//21 43//21 28//21
f 5//22 28//22 59//22 21//22
f 5//23 21//23 60//23 29//23
f 5//24 29//24 45//24 15//24
f 5//25 15//25 55//25 16//25
f 6//26 33//26 44//26 17//26
f 6//27 17//27 56//27 18//27
f 6//28 18//28 46//28 42//28
f 6//29 42//29 62//29 22//29
f 6//30 22//30 61//30 33//30
f 7//31 27//31 47//31 19//31
f 7//32 19//32 57//32 20//32
f 7//33 20//33 49//33 30//33
f 7//34 30//34 60//34 21//34
f 7//35 21//35 59//35 27//35
f 8//36 24//36 48//36 34//36
f 8//37 34//37 61//37 22//37
f 8//38 22//38 62//38 41//38
f 8//39 41//39 50//39 23//39
f 8//40 23//40 58//40 24//40
f 9//41 28//41 43//41 25//41
f 9//42 25//42 51//42 36//42
f 9//43 36//43 52//43 26//43
f 9//44 26//44 47//44 27//44
f 9//45 27//45 59//45 28//45
f 10//46 32//46 45//46 29//46
f 10//47 29//47 60//47 30//47
f 10//48 30//48 49//48 31//48
f 10//49 31//49 54//49 39//49
f 10//50 39//50 53//50 32//50
f 11//51 37//51 44//51 33//51
f 11//52 33//52 61//52 34//52
f 11//53 34//53 48//53 35//53
f 11//54 35//54 52//54 36//54
f 11//55 36//55 51//55 37//55
f 12//56 42//56 46//56 38//56
f 12//57 38//57 53//57 39//57
f 12//58 39//58 54//58 40//58
f 12//59 40//59 50//59 41//59
f 12//60 41//60 62//60 42//60
