# Blender 4.0.1
# www.blender.org
o Solid.001
v 0.630597 0.000000 0.000000
v -0.630597 0.000000 0.000000
v 0.000000 0.000000 -0.630597
v 0.000000 0.000000 0.630597
v 0.000000 0.630597 0.000000
v 0.000000 -0.630597 0.000000
v 0.386729 0.000000 -0.386729
v -0.386729 0.000000 -0.386729
v -0.386729 0.000000 0.386729
v 0.386729 0.000000 0.386729
v 0.000000 0.386729 -0.386729
v -0.386729 0.386729 0.000000
v 0.000000 0.386729 0.386729
v 0.386729 0.386729 0.000000
v 0.386729 -0.386729 0.000000
v 0.000000 -0.386729 0.386729
v -0.386729 -0.386729 0.000000
v 0.000000 -0.386729 -0.386729
v 0.333333 0.333333 -0.333333
v -0.333333 0.333333 -0.333333
v -0.333333 0.333333 0.333333
v 0.333333 0.333333 0.333333
v 0.333333 -0.333333 -0.333333
v -0.333333 -0.333333 -0.333333
v -0.333333 -0.333333 0.333333
v 0.333333 -0.333333 0.333333
vn 0.8259 0.2157 -0.5208
vn 0.8259 0.5208 -0.2157
vn 0.8259 0.5208 0.2157
vn 0.8259 0.2157 0.5208
vn 0.8259 -0.2157 0.5208
vn 0.8259 -0.5208 0.2157
vn 0.8259 -0.5208 -0.2157
vn 0.8259 -0.2157 -0.5208
vn -0.8259 0.5208 -0.2157
vn -0.8259 0.2157 -0.5208
vn -0.8259 -0.2157 -0.5208
vn -0.8259 -0.5208 -0.2157
vn -0.8259 -0.5208 0.2157
vn -0.8259 -0.2157 0.5208
vn -0.8259 0.2157 0.5208
vn -0.8259 0.5208 0.2157
vn 0.2157 0.5208 -0.8259
vn 0.5208 0.2157 -0.8259
vn 0.5208 -0.2157 -0.8259
vn 0.2157 -0.5208 -0.8259
vn -0.2157 -0.5208 -0.8259
vn -0.5208 -0.2157 -0.8259
vn -0.5208 0.2157 -0.8259
vn -0.2157 0.5208 -0.8259
vn -0.2157 0.5208 0.8259
vn -0.5208 0.2157 0.8259
vn -0.5208 -0.2157 0.8259
vn -0.2157 -0.5208 0.8259
vn 0.2157 -0.5208 0.8259
vn 0.5208 -0.2157 0.8259
vn 0.5208 0.2157 0.8259
vn 0.2157 0.5208 0.8259
vn 0.5208 0.8259 -0.2157
vn 0.2157 0.8259 -0.5208
vn -0.2157 0.8259 -0.5208
vn -0.5208 0.8259 -0.2157
vn -0.5208 0.8259 0.2157
vn -0.2157 0.8259 0.5208
vn 0.2157 0.8259 0.5208
vn 0.5208 0.8259 0.2157
vn 0.2157 -0.8259 -0.5208
vn 0.5208 -0.8259 -0.2157
vn 0.5208 -0.8259 0.2157
vn 0.2157 -0.8259 0.5208
vn -0.2157 -0.8259 0.5208
vn -0.5208 -0.8259 0.2157
vn -0.5208 -0.8259 -0.2157
vn -0.2157 -0.8259 -0.5208
s 0
f 1//1 7//1 19//1
f 1//2 19//2 14//2
f 1//3 14//3 22//3
f 1//4 22//4 10//4
f 1//5 10//5 26//5
f 1//6 26//6 15//6
f 1//7 15//7 23//7
f 1//8 23//8 7//8
f 2//9 12//9 20//9
f 2//10 20//10 8//10
f 2//11 8//11 24//11
f 2//12 24//12 17//12
f 2//13 17//13 25//13
f 2//14 25//14 9//14
f 2//15 9//15 21//15
f 2//16 21//16 12//16
f 3//17 11//17 19//17
f 3//18 19//18 7//18
f 3//19 7//19 23//19
f 3//20 23//20 18//20
f 3//21 18//21 24//21
f 3//22 24//22 8//22
f 3//23 8//23 20//23
f 3//24 20//24 11//24
f 4//25 13//25 21//25
f 4//26 21//26 9//26
f 4//27 9//27 25//27
f 4//28 25//28 16//28
f 4//29 16//29 26//29
f 4//30 26//30 10//30
f 4//31 10//31 22//31
f 4//32 22//32 13//32
f 5//33 14//33 19//33
f 5//34 19//34 11//34
f 5//35 11//35 20//35
f 5//36 20//36 12//36
f 5//37 12//37 21//37
f 5//38 21//38 13//38
f 5//39 13//39 22//39
f 5//40 22//40 14//40
f 6//41 18//41 23//41
f 6//42 23//42 15//42
f 6//43 15//43 26//43
f 6//44 26//44 16//44
f 6//45 16//45 25//45
f 6//46 25//46 17//46
f 6//47 17//47 24//47
f 6//48 24//48 18//48
