# Blender 4.0.1
# www.blender.org
o Solid.001
v 0.708903 0.000000 -0.438126
v -0.708903 0.000000 -0.438126
v 0.708903 0.000000 0.438126
v -0.708903 0.000000 0.438126
v 0.438126 0.708903 -0.000000
v 0.438126 -0.708903 -0.000000
v -0.438126 0.708903 -0.000000
v -0.438126 -0.708903 -0.000000
v 0.000000 0.438126 -0.708903
v 0.000000 0.438126 0.708903
v 0.000000 -0.438126 -0.708903
v 0.000000 -0.438126 0.708903
v 0.787144 0.081884 0.072446
v 0.787144 -0.081884 -0.072446
v -0.787144 -0.081884 0.072446
v -0.787144 0.081884 -0.072446
v 0.655368 0.426879 0.140772
v 0.618258 0.360266 0.345710
v 0.573484 0.477486 -0.273264
v 0.700142 0.309659 -0.213218
v 0.655368 -0.426879 -0.140772
v 0.618258 -0.360266 -0.345710
v 0.573484 -0.477486 0.273264
v 0.700142 -0.309659 0.213218
v -0.655368 0.426879 -0.140772
v -0.618258 0.360266 -0.345710
v -0.573484 0.477486 0.273264
v -0.700142 0.309659 0.213218
v -0.072446 0.787144 -0.081884
v 0.072446 0.787144 0.081884
v -0.072446 -0.787144 0.081884
v 0.072446 -0.787144 -0.081884
v -0.655368 -0.426879 0.140772
v -0.618258 -0.360266 0.345710
v -0.573484 -0.477486 -0.273264
v -0.700142 -0.309659 -0.213218
v 0.309659 0.213218 -0.700142
v 0.477486 0.273264 -0.573484
v -0.360266 0.345710 -0.618258
v -0.426879 0.140772 -0.655368
v -0.140772 0.655368 -0.426879
v -0.345710 0.618258 -0.360266
v 0.273264 0.573484 -0.477486
v 0.213218 0.700142 -0.309659
v 0.140772 0.655368 0.426879
v 0.345710 0.618258 0.360266
v -0.273264 0.573484 0.477486
v -0.213218 0.700142 0.309659
v -0.309659 0.213218 0.700142
v -0.477486 0.273264 0.573484
v 0.360266 0.345710 0.618258
v 0.426879 0.140772 0.655368
v 0.140772 -0.655368 -0.426879
v 0.345710 -0.618258 -0.360266
v -0.273264 -0.573484 -0.477486
v -0.213218 -0.700142 -0.309659
v -0.309659 -0.213218 -0.700142
v -0.477486 -0.273264 -0.573484
v 0.081884 -0.072446 -0.787144
v -0.081884 0.072446 -0.787144
v 0.360266 -0.345710 -0.618258
v 0.426879 -0.140772 -0.655368
v 0.309659 -0.213218 0.700142
v 0.477486 -0.273264 0.573484
v -0.081884 -0.072446 0.787144
v 0.081884 0.072446 0.787144
v -0.360266 -0.345710 0.618258
v -0.426879 -0.140772 0.655368
v -0.140772 -0.655368 0.426879
v -0.345710 -0.618258 0.360266
v 0.273264 -0.573484 0.477486
v 0.213218 -0.700142 0.309659
v 0.458794 0.458794 -0.458794
v 0.458794 -0.458794 -0.458794
v 0.458794 0.458794 0.458794
v 0.458794 -0.458794 0.458794
v -0.458794 0.458794 -0.458794
v -0.458794 -0.458794 -0.458794
v -0.458794 0.458794 0.458794
v -0.458794 -0.458794 0.458794
v 0.283550 0.000000 -0.742344
v -0.283550 -0.000000 -0.742344
v 0.283550 -0.000000 0.742344
v -0.283550 0.000000 0.742344
v 0.742344 0.283550 -0.000000
v 0.742344 -0.283550 0.000000
v -0.742344 0.283550 0.000000
v -0.742344 -0.283550 -0.000000
v 0.000000 0.742344 -0.283550
v -0.000000 0.742344 0.283550
v -0.000000 -0.742344 -0.283550
v 0.000000 -0.742344 0.283550
vn 0.8101 -0.5794 0.0894
vn 0.1537 -0.1737 0.9727
vn 0.9727 -0.1537 0.1737
vn 0.5794 -0.0894 0.8101
vn -0.3933 0.5118 0.7638
vn -0.6564 0.6744 -0.3381
vn -0.2983 0.2631 -0.9175
vn -0.7638 0.3933 0.5118
vn -0.6744 0.3381 -0.6564
vn -0.9727 -0.1537 -0.1737
vn 0.2631 -0.9175 -0.2983
vn -0.6744 -0.3381 0.6564
vn -0.3381 0.6564 -0.6744
vn -0.9175 0.2983 -0.2631
vn -0.9175 -0.2983 0.2631
vn -0.5118 -0.7638 -0.3933
vn 0.9175 0.2983 0.2631
vn -0.2631 0.9175 -0.2983
vn 0.7638 0.3933 -0.5118
vn 0.8101 0.5794 -0.0894
vn -0.5118 0.7638 0.3933
vn -0.0894 0.8101 0.5794
vn -0.1737 0.9727 0.1537
vn -0.8101 0.5794 0.0894
vn -0.1537 -0.1737 -0.9727
vn -0.0894 -0.8101 -0.5794
vn -0.3381 -0.6564 0.6744
vn 0.5794 0.0894 -0.8101
vn 0.1737 0.9727 -0.1537
vn -0.5794 -0.0894 -0.8101
vn 0.3933 0.5118 -0.7638
vn 0.0894 0.8101 -0.5794
vn -0.7638 -0.3933 -0.5118
vn 0.6744 0.3381 0.6564
vn 0.5118 0.7638 -0.3933
vn 0.1537 0.1737 -0.9727
vn 0.9175 -0.2983 -0.2631
vn 0.5118 -0.7638 0.3933
vn 0.3381 0.6564 0.6744
vn 0.1737 -0.9727 0.1537
vn 0.2631 0.9175 0.2983
vn -0.1537 0.1737 0.9727
vn 0.6744 -0.3381 -0.6564
vn -0.2983 -0.2631 0.9175
vn 0.2983 -0.2631 -0.9175
vn 0.3933 -0.5118 0.7638
vn 0.6564 0.6744 0.3381
vn -0.2631 -0.9175 0.2983
vn 0.7638 -0.3933 0.5118
vn 0.2983 0.2631 0.9175
vn 0.9727 0.1537 -0.1737
vn -0.5794 0.0894 0.8101
vn -0.6564 -0.6744 0.3381
vn -0.1737 -0.9727 -0.1537
vn 0.3381 -0.6564 -0.6744
vn -0.3933 -0.5118 -0.7638
vn 0.6564 -0.6744 -0.3381
vn 0.0894 -0.8101 0.5794
vn -0.8101 -0.5794 -0.0894
vn -0.9727 0.1537 0.1737
s 0
f 21//1 86//1 24//1 23//1 6//1
f 63//2 83//2 66//2 65//2 12//2
f 24//3 86//3 14//3 13//3 3//3
f 52//4 83//4 63//4 64//4 3//4
f 47//5 79//5 50//5 49//5 10//5
f 42//6 77//6 26//6 25//6 7//6
f 60//7 82//7 40//7 39//7 9//7
f 50//8 79//8 27//8 28//8 4//8
f 26//9 77//9 39//9 40//9 2//9
f 36//10 88//10 15//10 16//10 2//10
f 32//11 91//11 53//11 54//11 6//11
f 34//12 80//12 67//12 68//12 4//12
f 39//13 77//13 42//13 41//13 9//13
f 16//14 87//14 25//14 26//14 2//14
f 15//15 88//15 33//15 34//15 4//15
f 35//16 78//16 55//16 56//16 8//16
f 13//17 85//17 17//17 18//17 3//17
f 29//18 89//18 41//18 42//18 7//18
f 38//19 73//19 19//19 20//19 1//19
f 17//20 85//20 20//20 19//20 5//20
f 27//21 79//21 47//21 48//21 7//21
f 45//22 90//22 48//22 47//22 10//22
f 48//23 90//23 30//23 29//23 7//23
f 25//24 87//24 28//24 27//24 7//24
f 57//25 82//25 60//25 59//25 11//25
f 53//26 91//26 56//26 55//26 11//26
f 67//27 80//27 70//27 69//27 12//27
f 62//28 81//28 37//28 38//28 1//28
f 44//29 89//29 29//29 30//29 5//29
f 40//30 82//30 57//30 58//30 2//30
f 43//31 73//31 38//31 37//31 9//31
f 41//32 89//32 44//32 43//32 9//32
f 58//33 78//33 35//33 36//33 2//33
f 18//34 75//34 51//34 52//34 3//34
f 19//35 73//35 43//35 44//35 5//35
f 37//36 81//36 59//36 60//36 9//36
f 14//37 86//37 21//37 22//37 1//37
f 23//38 76//38 71//38 72//38 6//38
f 51//39 75//39 46//39 45//39 10//39
f 72//40 92//40 31//40 32//40 6//40
f 30//41 90//41 45//41 46//41 5//41
f 49//42 84//42 65//42 66//42 10//42
f 22//43 74//43 61//43 62//43 1//43
f 65//44 84//44 68//44 67//44 12//44
f 59//45 81//45 62//45 61//45 11//45
f 71//46 76//46 64//46 63//46 12//46
f 46//47 75//47 18//47 17//47 5//47
f 31//48 92//48 69//48 70//48 8//48
f 64//49 76//49 23//49 24//49 3//49
f 66//50 83//50 52//50 51//50 10//50
f 20//51 85//51 13//51 14//51 1//51
f 68//52 84//52 49//52 50//52 4//52
f 70//53 80//53 34//53 33//53 8//53
f 56//54 91//54 32//54 31//54 8//54
f 61//55 74//55 54//55 53//55 11//55
f 55//56 78//56 58//56 57//56 11//56
f 54//57 74//57 22//57 21//57 6//57
f 69//58 92//58 72//58 71//58 12//58
f 33//59 88//59 36//59 35//59 8//59
f 28//60 87//60 16//60 15//60 4//60
