# Blender 4.0.1
# www.blender.org
o Solid.001
v 0.613027 0.000000 0.000000
v -0.613027 0.000000 0.000000
v 0.000000 -0.000000 -0.613027
v 0.000000 0.000000 0.613027
v 0.000000 0.613027 -0.000000
v 0.000000 -0.613027 0.000000
v 0.333255 -0.098644 -0.460963
v 0.460963 0.098644 -0.333255
v -0.333255 0.098644 -0.460963
v -0.460963 -0.098644 -0.333255
v -0.333255 -0.098644 0.460963
v -0.460963 0.098644 0.333255
v 0.333255 0.098644 0.460963
v 0.460963 -0.098644 0.333255
v -0.098644 0.460963 -0.333255
v 0.098644 0.333255 -0.460963
v -0.333255 0.460963 0.098644
v -0.460963 0.333255 -0.098644
v 0.098644 0.460963 0.333255
v -0.098644 0.333255 0.460963
v 0.333255 0.460963 -0.098644
v 0.460963 0.333255 0.098644
v 0.333255 -0.460963 0.098644
v 0.460963 -0.333255 -0.098644
v -0.098644 -0.460963 0.333255
v 0.098644 -0.333255 0.460963
v -0.333255 -0.460963 -0.098644
v -0.460963 -0.333255 0.098644
v 0.098644 -0.460963 -0.333255
v -0.098644 -0.333255 -0.460963
v 0.333333 0.333333 -0.333333
v -0.333333 0.333333 -0.333333
v -0.333333 0.333333 0.333333
v 0.333333 0.333333 0.333333
v 0.333333 -0.333333 -0.333333
v -0.333333 -0.333333 -0.333333
v -0.333333 -0.333333 0.333333
v 0.333333 -0.333333 0.333333
vn 0.8504 -0.4624 0.2512
vn -0.8504 -0.2512 0.4624
vn -0.2512 -0.4624 0.8504
vn -0.4624 0.2512 0.8504
vn 0.8504 -0.2512 -0.4624
vn 0.2512 -0.4624 -0.8504
vn -0.4624 -0.2512 -0.8504
vn 0.2512 0.4624 0.8504
vn -0.8504 0.2512 -0.4624
vn 0.2512 -0.8504 0.4624
vn 0.2512 0.8504 -0.4624
vn -0.8504 0.4624 0.2512
vn -0.4624 0.8504 -0.2512
vn -0.8504 -0.4624 -0.2512
vn 0.4624 0.8504 0.2512
vn 0.8504 0.4624 -0.2512
vn -0.2512 0.8504 0.4624
vn 0.8504 0.2512 0.4624
vn 0.4624 -0.2512 0.8504
vn -0.4624 -0.8504 0.2512
vn 0.4624 -0.8504 -0.2512
vn -0.2512 -0.8504 -0.4624
vn 0.4624 0.2512 -0.8504
vn -0.2512 0.4624 -0.8504
s 0
f 14//1 38//1 23//1 24//1 1//1
f 28//2 37//2 11//2 12//2 2//2
f 11//3 37//3 25//3 26//3 4//3
f 20//4 33//4 12//4 11//4 4//4
f 24//5 35//5 7//5 8//5 1//5
f 7//6 35//6 29//6 30//6 3//6
f 30//7 36//7 10//7 9//7 3//7
f 13//8 34//8 19//8 20//8 4//8
f 18//9 32//9 9//9 10//9 2//9
f 23//10 38//10 26//10 25//10 6//10
f 21//11 31//11 16//11 15//11 5//11
f 12//12 33//12 17//12 18//12 2//12
f 15//13 32//13 18//13 17//13 5//13
f 10//14 36//14 27//14 28//14 2//14
f 19//15 34//15 22//15 21//15 5//15
f 8//16 31//16 21//16 22//16 1//16
f 17//17 33//17 20//17 19//17 5//17
f 22//18 34//18 13//18 14//18 1//18
f 26//19 38//19 14//19 13//19 4//19
f 25//20 37//20 28//20 27//20 6//20
f 29//21 35//21 24//21 23//21 6//21
f 27//22 36//22 30//22 29//22 6//22
f 16//23 31//23 8//23 7//23 3//23
f 9//24 32//24 15//24 16//24 3//24
