# Blender 4.0.1
# www.blender.org
o Solid.001
v 0.398399 0.398399 -0.398399
v 0.398399 -0.398399 -0.398399
v 0.398399 0.398399 0.398399
v 0.398399 -0.398399 0.398399
v -0.398399 0.398399 -0.398399
v -0.398399 -0.398399 -0.398399
v -0.398399 0.398399 0.398399
v -0.398399 -0.398399 0.398399
v 0.246224 0.000000 -0.644624
v -0.246224 0.000000 -0.644624
v 0.246224 0.000000 0.644624
v -0.246224 0.000000 0.644624
v 0.644624 0.246224 0.000000
v 0.644624 -0.246224 0.000000
v -0.644624 0.246224 0.000000
v -0.644624 -0.246224 0.000000
v 0.000000 0.644624 -0.246224
v 0.000000 0.644624 0.246224
v 0.000000 -0.644624 -0.246224
v 0.000000 -0.644624 0.246224
v -0.000000 0.417774 -0.675973
v 0.675973 -0.000000 -0.417774
v 0.417774 0.675973 0.000000
v -0.000000 -0.417774 -0.675973
v 0.675973 -0.000000 0.417774
v -0.417774 0.675973 0.000000
v -0.675973 0.000000 -0.417775
v 0.000000 0.417774 0.675973
v 0.417774 -0.675973 -0.000000
v -0.417775 -0.675973 -0.000000
v -0.675973 0.000000 0.417775
v 0.000000 -0.417775 0.675973
vn 0.4087 0.7394 -0.5350
vn 0.7394 0.5350 -0.4087
vn 0.5350 0.4087 -0.7394
vn 0.7394 -0.5350 -0.4087
vn 0.4087 -0.7394 -0.5350
vn 0.5350 -0.4087 -0.7394
vn 0.4087 0.7394 0.5350
vn 0.5350 0.4087 0.7394
vn 0.7394 0.5350 0.4087
vn 0.5350 -0.4087 0.7394
vn 0.4087 -0.7394 0.5350
vn 0.7394 -0.5350 0.4087
vn -0.5350 0.4087 -0.7394
vn -0.7394 0.5350 -0.4087
vn -0.4087 0.7394 -0.5350
vn -0.4087 -0.7394 -0.5350
vn -0.7394 -0.5350 -0.4087
vn -0.5350 -0.4087 -0.7394
vn -0.7394 0.5350 0.4087
vn -0.5350 0.4087 0.7394
vn -0.4087 0.7394 0.5350
vn -0.4087 -0.7394 0.5350
vn -0.5350 -0.4087 0.7394
vn -0.7394 -0.5350 0.4087
vn 0.4570 0.2044 -0.8657
vn 0.4570 -0.2044 -0.8657
vn 0.1263 -0.0000 -0.9920
vn -0.1263 -0.0000 -0.9920
vn -0.4570 -0.2044 -0.8657
vn -0.4570 0.2044 -0.8657
vn 0.4570 0.2044 0.8657
vn 0.1263 -0.0000 0.9920
vn 0.4570 -0.2044 0.8657
vn -0.4570 0.2044 0.8657
vn -0.4570 -0.2044 0.8657
vn -0.1263 -0.0000 0.9920
vn 0.8657 0.4570 -0.2044
vn 0.8657 0.4570 0.2044
vn 0.9920 0.1263 -0.0000
vn 0.9920 -0.1263 -0.0000
vn 0.8657 -0.4570 0.2044
vn 0.8657 -0.4570 -0.2044
vn -0.8657 0.4570 -0.2044
vn -0.9920 0.1263 -0.0000
vn -0.8657 0.4570 0.2044
vn -0.8657 -0.4570 -0.2044
vn -0.8657 -0.4570 0.2044
vn -0.9920 -0.1263 -0.0000
vn -0.2044 0.8657 -0.4570
vn -0.0000 0.9920 -0.1263
vn 0.2044 0.8657 -0.4570
vn -0.0000 0.9920 0.1263
vn -0.2044 0.8657 0.4570
vn 0.2044 0.8657 0.4570
vn 0.2044 -0.8657 -0.4570
vn -0.0000 -0.9920 -0.1263
vn -0.2044 -0.8657 -0.4570
vn 0.2044 -0.8657 0.4570
vn -0.2044 -0.8657 0.4570
vn -0.0000 -0.9920 0.1263
s 0
f 1//1 21//1 23//1
f 1//2 23//2 22//2
f 1//3 22//3 21//3
f 2//4 22//4 29//4
f 2//5 29//5 24//5
f 2//6 24//6 22//6
f 3//7 23//7 28//7
f 3//8 28//8 25//8
f 3//9 25//9 23//9
f 4//10 25//10 32//10
f 4//11 32//11 29//11
f 4//12 29//12 25//12
f 5//13 21//13 27//13
f 5//14 27//14 26//14
f 5//15 26//15 21//15
f 6//16 24//16 30//16
f 6//17 30//17 27//17
f 6//18 27//18 24//18
f 7//19 26//19 31//19
f 7//20 31//20 28//20
f 7//21 28//21 26//21
f 8//22 30//22 32//22
f 8//23 32//23 31//23
f 8//24 31//24 30//24
f 9//25 21//25 22//25
f 9//26 22//26 24//26
f 9//27 24//27 21//27
f 10//28 21//28 24//28
f 10//29 24//29 27//29
f 10//30 27//30 21//30
f 11//31 25//31 28//31
f 11//32 28//32 32//32
f 11//33 32//33 25//33
f 12//34 28//34 31//34
f 12//35 31//35 32//35
f 12//36 32//36 28//36
f 13//37 22//37 23//37
f 13//38 23//38 25//38
f 13//39 25//39 22//39
f 14//40 22//40 25//40
f 14//41 25//41 29//41
f 14//42 29//42 22//42
f 15//43 26//43 27//43
f 15//44 27//44 31//44
f 15//45 31//45 26//45
f 16//46 27//46 30//46
f 16//47 30//47 31//47
f 16//48 31//48 27//48
f 17//49 21//49 26//49
f 17//50 26//50 23//50
f 17//51 23//51 21//51
f 18//52 23//52 26//52
f 18//53 26//53 28//53
f 18//54 28//54 23//54
f 19//55 24//55 29//55
f 19//56 29//56 30//56
f 19//57 30//57 24//57
f 20//58 29//58 32//58
f 20//59 32//59 30//59
f 20//60 30//60 29//60
