# Blender 4.0.1
# www.blender.org
o Solid.001
v -0.247436 -0.247436 0.247436
v 0.247436 -0.247436 0.247436
v 0.247436 -0.247436 -0.247436
v -0.247436 -0.247436 -0.247436
v -0.247436 0.247436 0.247436
v 0.247436 0.247436 0.247436
v 0.247436 0.247436 -0.247436
v -0.247436 0.247436 -0.247436
v 0.000000 -0.577350 0.000000
v 0.000000 0.000000 0.577350
v -0.577350 0.000000 0.000000
v 0.577350 0.000000 0.000000
v 0.000000 0.000000 -0.577350
v 0.000000 0.577350 0.000000
vn -0.2294 -0.6882 0.6882
vn -0.6882 -0.2294 0.6882
vn -0.6882 -0.6882 0.2294
vn 0.6882 -0.6882 0.2294
vn 0.6882 -0.2294 0.6882
vn 0.2294 -0.6882 0.6882
vn 0.2294 -0.6882 -0.6882
vn 0.6882 -0.2294 -0.6882
vn 0.6882 -0.6882 -0.2294
vn -0.6882 -0.6882 -0.2294
vn -0.6882 -0.2294 -0.6882
vn -0.2294 -0.6882 -0.6882
vn -0.2294 0.6882 0.6882
vn -0.6882 0.6882 0.2294
vn -0.6882 0.2294 0.6882
vn 0.6882 0.2294 0.6882
vn 0.6882 0.6882 0.2294
vn 0.2294 0.6882 0.6882
vn 0.6882 0.2294 -0.6882
vn 0.2294 0.6882 -0.6882
vn 0.6882 0.6882 -0.2294
vn -0.6882 0.6882 -0.2294
vn -0.2294 0.6882 -0.6882
vn -0.6882 0.2294 -0.6882
s 0
f 1//1 9//1 10//1
f 1//2 10//2 11//2
f 1//3 11//3 9//3
f 2//4 9//4 12//4
f 2//5 12//5 10//5
f 2//6 10//6 9//6
f 3//7 9//7 13//7
f 3//8 13//8 12//8
f 3//9 12//9 9//9
f 4//10 9//10 11//10
f 4//11 11//11 13//11
f 4//12 13//12 9//12
f 5//13 10//13 14//13
f 5//14 14//14 11//14
f 5//15 11//15 10//15
f 6//16 10//16 12//16
f 6//17 12//17 14//17
f 6//18 14//18 10//18
f 7//19 12//19 13//19
f 7//20 13//20 14//20
f 7//21 14//21 12//21
f 8//22 11//22 14//22
f 8//23 14//23 13//23
f 8//24 13//24 11//24
