# Blender 4.0.1
# www.blender.org
o Dodecahedron
v 7.946545 1.875924 -5.773502
v 3.035310 -1.875928 -9.341723
v -1.875924 7.946545 -5.773502
v 4.911235 7.946544 -3.568224
v -3.035310 1.875922 -9.341723
v 9.822469 -1.875925 0.000000
v 1.875924 -7.946548 -5.773499
v 6.070619 -7.946545 0.000003
v 7.946545 1.875924 5.773502
v 4.911235 7.946547 3.568218
v -7.946545 -1.875924 -5.773502
v -4.911235 -7.946547 -3.568218
v 1.875924 -7.946545 5.773502
v 3.035310 -1.875922 9.341723
v -1.875924 7.946548 5.773499
v -6.070619 7.946545 -0.000003
v -9.822469 1.875925 -0.000000
v -3.035310 1.875928 9.341723
v -4.911235 -7.946544 3.568224
v -7.946545 -1.875924 5.773502
vn 0.8944 0.4472 -0.0000
vn -0.0000 1.0000 -0.0000
vn 0.7236 -0.4472 -0.5257
vn 0.2764 0.4472 -0.8507
vn -0.2764 -0.4472 -0.8507
vn -0.0000 -1.0000 -0.0000
vn -0.7236 0.4472 -0.5257
vn 0.7236 -0.4472 0.5257
vn 0.2764 0.4472 0.8507
vn -0.8944 -0.4472 -0.0000
vn -0.7236 0.4472 0.5257
vn -0.2764 -0.4472 0.8507
s 0
f 9//1 6//1 1//1 4//1 10//1
f 15//2 10//2 4//2 3//2 16//2
f 7//3 2//3 1//3 6//3 8//3
f 3//4 4//4 1//4 2//4 5//4
f 11//5 5//5 2//5 7//5 12//5
f 7//6 8//6 13//6 19//6 12//6
f 16//7 3//7 5//7 11//7 17//7
f 13//8 8//8 6//8 9//8 14//8
f 9//9 10//9 15//9 18//9 14//9
f 17//10 11//10 12//10 19//10 20//10
f 18//11 15//11 16//11 17//11 20//11
f 19//12 13//12 14//12 18//12 20//12
