# Blender 4.0.1
# www.blender.org
o Solid.001
v 0.720600 0.000000 -0.445355
v -0.720600 0.000000 -0.445355
v 0.720600 0.000000 0.445355
v -0.720600 0.000000 0.445355
v 0.445355 0.720600 0.000000
v 0.445355 -0.720600 0.000000
v -0.445355 0.720600 0.000000
v -0.445355 -0.720600 0.000000
v 0.000000 0.445355 -0.720600
v 0.000000 0.445355 0.720600
v 0.000000 -0.445355 -0.720600
v 0.000000 -0.445355 0.720600
v 0.780294 0.000000 0.000000
v -0.780294 0.000000 0.000000
v 0.631271 0.390147 0.241124
v 0.631271 0.390147 -0.241124
v 0.631271 -0.390147 -0.241124
v 0.631271 -0.390147 0.241124
v -0.631271 0.390147 -0.241124
v -0.631271 0.390147 0.241124
v 0.000000 0.780294 0.000000
v 0.000000 -0.780294 0.000000
v -0.631271 -0.390147 0.241124
v -0.631271 -0.390147 -0.241124
v 0.390147 0.241124 -0.631271
v -0.390147 0.241124 -0.631271
v -0.241124 0.631271 -0.390147
v 0.241124 0.631271 -0.390147
v 0.241124 0.631271 0.390147
v -0.241124 0.631271 0.390147
v -0.390147 0.241124 0.631271
v 0.390147 0.241124 0.631271
v 0.241124 -0.631271 -0.390147
v -0.241124 -0.631271 -0.390147
v -0.390147 -0.241124 -0.631271
v 0.000000 0.000000 -0.780294
v 0.390147 -0.241124 -0.631271
v 0.390147 -0.241124 0.631271
v 0.000000 0.000000 0.780294
v -0.390147 -0.241124 0.631271
v -0.241124 -0.631271 0.390147
v 0.241124 -0.631271 0.390147
v 0.458794 0.458794 -0.458794
v 0.458794 -0.458794 -0.458794
v 0.458794 0.458794 0.458794
v 0.458794 -0.458794 0.458794
v -0.458794 0.458794 -0.458794
v -0.458794 -0.458794 -0.458794
v -0.458794 0.458794 0.458794
v -0.458794 -0.458794 0.458794
v 0.283550 0.000000 -0.742344
v -0.283550 0.000000 -0.742344
v 0.283550 0.000000 0.742344
v -0.283550 0.000000 0.742344
v 0.742344 0.283550 0.000000
v 0.742344 -0.283550 0.000000
v -0.742344 0.283550 0.000000
v -0.742344 -0.283550 0.000000
v 0.000000 0.742344 -0.283550
v 0.000000 0.742344 0.283550
v 0.000000 -0.742344 -0.283550
v 0.000000 -0.742344 0.283550
vn 0.6384 0.3442 -0.6884
vn 0.7698 0.4254 -0.4759
vn 0.9013 0.3441 -0.2631
vn 0.9825 0.1315 -0.1317
vn 0.9825 -0.1315 -0.1317
vn 0.9013 -0.3441 -0.2631
vn 0.7698 -0.4254 -0.4759
vn 0.6384 -0.3442 -0.6884
vn 0.5572 -0.1314 -0.8199
vn 0.5572 0.1314 -0.8199
vn -0.7698 0.4254 -0.4759
vn -0.6384 0.3442 -0.6884
vn -0.5572 0.1314 -0.8199
vn -0.5572 -0.1314 -0.8199
vn -0.6384 -0.3442 -0.6884
vn -0.7698 -0.4254 -0.4759
vn -0.9013 -0.3441 -0.2631
vn -0.9825 -0.1315 -0.1317
vn -0.9825 0.1315 -0.1317
vn -0.9013 0.3441 -0.2631
vn 0.7698 0.4254 0.4759
vn 0.6384 0.3442 0.6884
vn 0.5572 0.1314 0.8199
vn 0.5572 -0.1314 0.8199
vn 0.6384 -0.3442 0.6884
vn 0.7698 -0.4254 0.4759
vn 0.9013 -0.3441 0.2631
vn 0.9825 -0.1315 0.1317
vn 0.9825 0.1315 0.1317
vn 0.9013 0.3441 0.2631
vn -0.6384 0.3442 0.6884
vn -0.7698 0.4254 0.4759
vn -0.9013 0.3441 0.2631
vn -0.9825 0.1315 0.1317
vn -0.9825 -0.1315 0.1317
vn -0.9013 -0.3441 0.2631
vn -0.7698 -0.4254 0.4759
vn -0.6384 -0.3442 0.6884
vn -0.5572 -0.1314 0.8199
vn -0.5572 0.1314 0.8199
vn 0.6884 0.6384 -0.3442
vn 0.4759 0.7698 -0.4254
vn 0.2631 0.9013 -0.3441
vn 0.1317 0.9825 -0.1315
vn 0.1317 0.9825 0.1315
vn 0.2631 0.9013 0.3441
vn 0.4759 0.7698 0.4254
vn 0.6884 0.6384 0.3442
vn 0.8199 0.5572 0.1314
vn 0.8199 0.5572 -0.1314
vn 0.4759 -0.7698 -0.4254
vn 0.6884 -0.6384 -0.3442
vn 0.8199 -0.5572 -0.1314
vn 0.8199 -0.5572 0.1314
vn 0.6884 -0.6384 0.3442
vn 0.4759 -0.7698 0.4254
vn 0.2631 -0.9013 0.3441
vn 0.1317 -0.9825 0.1315
vn 0.1317 -0.9825 -0.1315
vn 0.2631 -0.9013 -0.3441
vn -0.4759 0.7698 -0.4254
vn -0.6884 0.6384 -0.3442
vn -0.8199 0.5572 -0.1314
vn -0.8199 0.5572 0.1314
vn -0.6884 0.6384 0.3442
vn -0.4759 0.7698 0.4254
vn -0.2631 0.9013 0.3441
vn -0.1317 0.9825 0.1315
vn -0.1317 0.9825 -0.1315
vn -0.2631 0.9013 -0.3441
vn -0.6884 -0.6384 -0.3442
vn -0.4759 -0.7698 -0.4254
vn -0.2631 -0.9013 -0.3441
vn -0.1317 -0.9825 -0.1315
vn -0.1317 -0.9825 0.1315
vn -0.2631 -0.9013 0.3441
vn -0.4759 -0.7698 0.4254
vn -0.6884 -0.6384 0.3442
vn -0.8199 -0.5572 0.1314
vn -0.8199 -0.5572 -0.1314
vn 0.3442 0.6884 -0.6384
vn 0.4254 0.4759 -0.7698
vn 0.3441 0.2631 -0.9013
vn 0.1315 0.1317 -0.9825
vn -0.1315 0.1317 -0.9825
vn -0.3441 0.2631 -0.9013
vn -0.4254 0.4759 -0.7698
vn -0.3442 0.6884 -0.6384
vn -0.1314 0.8199 -0.5572
vn 0.1314 0.8199 -0.5572
vn 0.4254 0.4759 0.7698
vn 0.3442 0.6884 0.6384
vn 0.1314 0.8199 0.5572
vn -0.1314 0.8199 0.5572
vn -0.3442 0.6884 0.6384
vn -0.4254 0.4759 0.7698
vn -0.3441 0.2631 0.9013
vn -0.1315 0.1317 0.9825
vn 0.1315 0.1317 0.9825
vn 0.3441 0.2631 0.9013
vn 0.4254 -0.4759 -0.7698
vn 0.3442 -0.6884 -0.6384
vn 0.1314 -0.8199 -0.5572
vn -0.1314 -0.8199 -0.5572
vn -0.3442 -0.6884 -0.6384
vn -0.4254 -0.4759 -0.7698
vn -0.3441 -0.2631 -0.9013
vn -0.1315 -0.1317 -0.9825
vn 0.1315 -0.1317 -0.9825
vn 0.3441 -0.2631 -0.9013
vn 0.3442 -0.6884 0.6384
vn 0.4254 -0.4759 0.7698
vn 0.3441 -0.2631 0.9013
vn 0.1315 -0.1317 0.9825
vn -0.1315 -0.1317 0.9825
vn -0.3441 -0.2631 0.9013
vn -0.4254 -0.4759 0.7698
vn -0.3442 -0.6884 0.6384
vn -0.1314 -0.8199 0.5572
vn 0.1314 -0.8199 0.5572
s 0
f 1//1 25//1 43//1
f 1//2 43//2 16//2
f 1//3 16//3 55//3
f 1//4 55//4 13//4
f 1//5 13//5 56//5
f 1//6 56//6 17//6
f 1//7 17//7 44//7
f 1//8 44//8 37//8
f 1//9 37//9 51//9
f 1//10 51//10 25//10
f 2//11 19//11 47//11
f 2//12 47//12 26//12
f 2//13 26//13 52//13
f 2//14 52//14 35//14
f 2//15 35//15 48//15
f 2//16 48//16 24//16
f 2//17 24//17 58//17
f 2//18 58//18 14//18
f 2//19 14//19 57//19
f 2//20 57//20 19//20
f 3//21 15//21 45//21
f 3//22 45//22 32//22
f 3//23 32//23 53//23
f 3//24 53//24 38//24
f 3//25 38//25 46//25
f 3//26 46//26 18//26
f 3//27 18//27 56//27
f 3//28 56//28 13//28
f 3//29 13//29 55//29
f 3//30 55//30 15//30
f 4//31 31//31 49//31
f 4//32 49//32 20//32
f 4//33 20//33 57//33
f 4//34 57//34 14//34
f 4//35 14//35 58//35
f 4//36 58//36 23//36
f 4//37 23//37 50//37
f 4//38 50//38 40//38
f 4//39 40//39 54//39
f 4//40 54//40 31//40
f 5//41 16//41 43//41
f 5//42 43//42 28//42
f 5//43 28//43 59//43
f 5//44 59//44 21//44
f 5//45 21//45 60//45
f 5//46 60//46 29//46
f 5//47 29//47 45//47
f 5//48 45//48 15//48
f 5//49 15//49 55//49
f 5//50 55//50 16//50
f 6//51 33//51 44//51
f 6//52 44//52 17//52
f 6//53 17//53 56//53
f 6//54 56//54 18//54
f 6//55 18//55 46//55
f 6//56 46//56 42//56
f 6//57 42//57 62//57
f 6//58 62//58 22//58
f 6//59 22//59 61//59
f 6//60 61//60 33//60
f 7//61 27//61 47//61
f 7//62 47//62 19//62
f 7//63 19//63 57//63
f 7//64 57//64 20//64
f 7//65 20//65 49//65
f 7//66 49//66 30//66
f 7//67 30//67 60//67
f 7//68 60//68 21//68
f 7//69 21//69 59//69
f 7//70 59//70 27//70
f 8//71 24//71 48//71
f 8//72 48//72 34//72
f 8//73 34//73 61//73
f 8//74 61//74 22//74
f 8//75 22//75 62//75
f 8//76 62//76 41//76
f 8//77 41//77 50//77
f 8//78 50//78 23//78
f 8//79 23//79 58//79
f 8//80 58//80 24//80
f 9//81 28//81 43//81
f 9//82 43//82 25//82
f 9//83 25//83 51//83
f 9//84 51//84 36//84
f 9//85 36//85 52//85
f 9//86 52//86 26//86
f 9//87 26//87 47//87
f 9//88 47//88 27//88
f 9//89 27//89 59//89
f 9//90 59//90 28//90
f 10//91 32//91 45//91
f 10//92 45//92 29//92
f 10//93 29//93 60//93
f 10//94 60//94 30//94
f 10//95 30//95 49//95
f 10//96 49//96 31//96
f 10//97 31//97 54//97
f 10//98 54//98 39//98
f 10//99 39//99 53//99
f 10//100 53//100 32//100
f 11//101 37//101 44//101
f 11//102 44//102 33//102
f 11//103 33//103 61//103
f 11//104 61//104 34//104
f 11//105 34//105 48//105
f 11//106 48//106 35//106
f 11//107 35//107 52//107
f 11//108 52//108 36//108
f 11//109 36//109 51//109
f 11//110 51//110 37//110
f 12//111 42//111 46//111
f 12//112 46//112 38//112
f 12//113 38//113 53//113
f 12//114 53//114 39//114
f 12//115 39//115 54//115
f 12//116 54//116 40//116
f 12//117 40//117 50//117
f 12//118 50//118 41//118
f 12//119 41//119 62//119
f 12//120 62//120 42//120
