# Blender 4.0.1
# www.blender.org
o Solid.001
v 0.417774 0.417775 -0.417774
v 0.417775 -0.417775 -0.417775
v 0.417775 0.417775 0.417775
v 0.417774 -0.417774 0.417775
v -0.417775 0.417775 -0.417775
v -0.417774 -0.417775 -0.417774
v -0.417775 0.417774 0.417774
v -0.417775 -0.417775 0.417775
v 0.258199 0.000000 -0.675973
v -0.258199 0.000000 -0.675973
v 0.258199 0.000000 0.675973
v -0.258199 0.000000 0.675973
v 0.675973 0.258199 0.000000
v 0.675973 -0.258199 0.000000
v -0.675973 0.258199 0.000000
v -0.675973 -0.258199 0.000000
v 0.000000 0.675973 -0.258199
v 0.000000 0.675973 0.258199
v 0.000000 -0.675973 -0.258199
v 0.000000 -0.675973 0.258199
v 0.000000 0.417775 -0.675973
v 0.675973 0.000000 -0.417775
v 0.417775 0.675973 0.000000
v 0.000000 -0.417775 -0.675973
v 0.675973 0.000000 0.417775
v -0.417775 0.675973 0.000000
v -0.675973 -0.000000 -0.417774
v 0.000000 0.417775 0.675973
v 0.417775 -0.675973 0.000000
v -0.417775 -0.675973 0.000000
v -0.675973 0.000000 0.417775
v 0.000000 -0.417775 0.675973
vn 0.3090 0.8090 -0.5000
vn 0.8090 0.5000 -0.3090
vn 0.5000 0.3090 -0.8090
vn 0.8090 -0.5000 -0.3090
vn 0.3090 -0.8090 -0.5000
vn 0.5000 -0.3090 -0.8090
vn 0.3090 0.8090 0.5000
vn 0.5000 0.3090 0.8090
vn 0.8090 0.5000 0.3090
vn 0.5000 -0.3090 0.8090
vn 0.3090 -0.8090 0.5000
vn 0.8090 -0.5000 0.3090
vn -0.5000 0.3090 -0.8090
vn -0.8090 0.5000 -0.3090
vn -0.3090 0.8090 -0.5000
vn -0.3090 -0.8090 -0.5000
vn -0.8090 -0.5000 -0.3090
vn -0.5000 -0.3090 -0.8090
vn -0.8090 0.5000 0.3090
vn -0.5000 0.3090 0.8090
vn -0.3090 0.8090 0.5000
vn -0.3090 -0.8090 0.5000
vn -0.5000 -0.3090 0.8090
vn -0.8090 -0.5000 0.3090
vn -0.0000 -0.0000 -1.0000
vn -0.0000 -0.0000 1.0000
vn 1.0000 -0.0000 -0.0000
vn -1.0000 -0.0000 -0.0000
vn -0.0000 1.0000 -0.0000
vn -0.0000 -1.0000 -0.0000
s 0
f 1//1 21//1 17//1 23//1
f 1//2 23//2 13//2 22//2
f 1//3 22//3 9//3 21//3
f 2//4 22//4 14//4 29//4
f 2//5 29//5 19//5 24//5
f 2//6 24//6 9//6 22//6
f 3//7 23//7 18//7 28//7
f 3//8 28//8 11//8 25//8
f 3//9 25//9 13//9 23//9
f 4//10 25//10 11//10 32//10
f 4//11 32//11 20//11 29//11
f 4//12 29//12 14//12 25//12
f 5//13 21//13 10//13 27//13
f 5//14 27//14 15//14 26//14
f 5//15 26//15 17//15 21//15
f 6//16 24//16 19//16 30//16
f 6//17 30//17 16//17 27//17
f 6//18 27//18 10//18 24//18
f 7//19 26//19 15//19 31//19
f 7//20 31//20 12//20 28//20
f 7//21 28//21 18//21 26//21
f 8//22 30//22 20//22 32//22
f 8//23 32//23 12//23 31//23
f 8//24 31//24 16//24 30//24
f 9//25 24//25 10//25 21//25
f 11//26 28//26 12//26 32//26
f 13//27 25//27 14//27 22//27
f 15//28 27//28 16//28 31//28
f 17//29 26//29 18//29 23//29
f 19//30 29//30 20//30 30//30
