# Blender 4.0.1
# www.blender.org
o Solid.001
v 0.500000 0.000000 0.000000
v -0.500000 0.000000 0.000000
v 0.000000 0.000000 -0.500000
v 0.000000 0.000000 0.500000
v 0.000000 0.500000 0.000000
v 0.000000 -0.500000 0.000000
v 0.333333 0.333333 -0.333333
v -0.333333 0.333333 -0.333333
v -0.333333 0.333333 0.333333
v 0.333333 0.333333 0.333333
v 0.333333 -0.333333 -0.333333
v -0.333333 -0.333333 -0.333333
v -0.333333 -0.333333 0.333333
v 0.333333 -0.333333 0.333333
vn 0.8944 0.4472 -0.0000
vn 0.8944 -0.0000 0.4472
vn 0.8944 -0.4472 -0.0000
vn 0.8944 -0.0000 -0.4472
vn -0.8944 -0.0000 -0.4472
vn -0.8944 -0.4472 -0.0000
vn -0.8944 -0.0000 0.4472
vn -0.8944 0.4472 -0.0000
vn 0.4472 -0.0000 -0.8944
vn -0.0000 -0.4472 -0.8944
vn -0.4472 -0.0000 -0.8944
vn -0.0000 0.4472 -0.8944
vn -0.4472 -0.0000 0.8944
vn -0.0000 -0.4472 0.8944
vn 0.4472 -0.0000 0.8944
vn -0.0000 0.4472 0.8944
vn -0.0000 0.8944 -0.4472
vn -0.4472 0.8944 -0.0000
vn -0.0000 0.8944 0.4472
vn 0.4472 0.8944 -0.0000
vn 0.4472 -0.8944 -0.0000
vn -0.0000 -0.8944 0.4472
vn -0.4472 -0.8944 -0.0000
vn -0.0000 -0.8944 -0.4472
s 0
f 1//1 7//1 10//1
f 1//2 10//2 14//2
f 1//3 14//3 11//3
f 1//4 11//4 7//4
f 2//5 8//5 12//5
f 2//6 12//6 13//6
f 2//7 13//7 9//7
f 2//8 9//8 8//8
f 3//9 7//9 11//9
f 3//10 11//10 12//10
f 3//11 12//11 8//11
f 3//12 8//12 7//12
f 4//13 9//13 13//13
f 4//14 13//14 14//14
f 4//15 14//15 10//15
f 4//16 10//16 9//16
f 5//17 7//17 8//17
f 5//18 8//18 9//18
f 5//19 9//19 10//19
f 5//20 10//20 7//20
f 6//21 11//21 14//21
f 6//22 14//22 13//22
f 6//23 13//23 12//23
f 6//24 12//24 11//24
