# Blender 4.0.1
# www.blender.org
o Solid.001
v 0.000000 0.200000 0.000000
v 0.188562 -0.066667 0.000000
v -0.094281 -0.066667 -0.163299
v -0.094281 -0.066667 0.163299
v 0.157135 0.111111 -0.272166
v -0.314270 0.111111 0.000000
v 0.157135 0.111111 0.272166
v 0.000000 -0.333333 0.000000
vn -0.2462 0.8704 -0.4264
vn -0.2462 0.8704 0.4264
vn 0.4924 0.8704 -0.0000
vn 0.9847 0.1741 -0.0000
vn 0.7385 -0.5222 0.4264
vn 0.7385 -0.5222 -0.4264
vn -0.0000 -0.5222 -0.8528
vn -0.7385 -0.5222 -0.4264
vn -0.4924 0.1741 -0.8528
vn -0.7385 -0.5222 0.4264
vn -0.0000 -0.5222 0.8528
vn -0.4924 0.1741 0.8528
s 0
f 1//1 5//1 6//1
f 1//2 6//2 7//2
f 1//3 7//3 5//3
f 2//4 5//4 7//4
f 2//5 7//5 8//5
f 2//6 8//6 5//6
f 3//7 5//7 8//7
f 3//8 8//8 6//8
f 3//9 6//9 5//9
f 4//10 6//10 8//10
f 4//11 8//11 7//11
f 4//12 7//12 6//12
