# Blender 4.0.1
# www.blender.org
o tetra.001
v -1.000000 -1.000000 -1.000000
v -1.000000 1.000000 1.000000
v 1.000000 -1.000000 1.000000
v 1.000000 1.000000 -1.000000
vn -0.5774 -0.5774 0.5774
vn 0.5774 -0.5774 -0.5774
vn -0.5774 0.5774 -0.5774
vn 0.5774 0.5774 0.5774
s 0
f 1//1 3//1 2//1
f 1//2 4//2 3//2
f 1//3 2//3 4//3
f 2//4 3//4 4//4
o tetra.002
v -1.000000 -1.000000 1.000000
v 0.000000 1.618034 0.618034
v -0.618034 -0.000000 -1.618034
v 1.618034 -0.618034 0.000000
vn 0.3568 -0.0000 0.9342
vn -0.0000 -0.9342 -0.3568
vn -0.9342 0.3568 -0.0000
vn 0.5774 0.5774 -0.5774
s 0
f 5//5 8//5 6//5
f 5//6 7//6 8//6
f 5//7 6//7 7//7
f 6//8 8//8 7//8
o tetra.003
v -1.000000 1.000000 -1.000000
v 0.000000 -1.618034 -0.618034
v -0.618034 0.000000 1.618034
v 1.618034 0.618034 -0.000000
vn -0.9342 -0.3568 -0.0000
vn -0.0000 0.9342 0.3568
vn 0.3568 -0.0000 -0.9342
vn 0.5774 -0.5774 0.5774
s 0
f 9//9 10//9 11//9
f 9//10 11//10 12//10
f 9//11 12//11 10//11
f 10//12 12//12 11//12
o tetra.004
v 1.000000 -1.000000 -1.000000
v 0.000000 1.618034 -0.618034
v 0.618034 0.000000 1.618034
v -1.618034 -0.618034 0.000000
vn 0.9342 0.3568 -0.0000
vn -0.0000 -0.9342 0.3568
vn -0.3568 -0.0000 -0.9342
vn -0.5774 0.5774 0.5774
s 0
f 13//13 14//13 15//13
f 13//14 15//14 16//14
f 13//15 16//15 14//15
f 14//16 16//16 15//16
o tetra.005
v 1.000000 1.000000 1.000000
v 0.000000 -1.618034 0.618034
v 0.618034 -0.000000 -1.618034
v -1.618034 0.618034 -0.000000
vn 0.9342 -0.3568 -0.0000
vn -0.0000 0.9342 -0.3568
vn -0.3568 -0.0000 0.9342
vn -0.5774 -0.5774 -0.5774
s 0
f 17//17 18//17 19//17
f 17//18 19//18 20//18
f 17//19 20//19 18//19
f 18//20 20//20 19//20
