# Blender 4.0.1
# www.blender.org
o Cube.004
v 0.030901 -0.050000 0.000000
v -0.030900 0.050000 -0.000000
v -0.030901 -0.050000 -0.850640
v 0.030901 0.050000 -0.850640
v 0.309016 -0.050000 -0.382789
v 0.309016 0.050000 -0.467851
v -0.309016 -0.050000 -0.467851
v -0.309016 0.050000 -0.382789
vn 0.7236 0.4472 0.5257
vn -0.7236 0.4472 -0.5257
vn -0.7236 -0.4472 0.5257
vn 0.7236 -0.4472 -0.5257
vn -0.0000 -1.0000 -0.0000
vn -0.0000 1.0000 -0.0000
vt 0.585827 0.244993
vt 0.595991 0.227389
vt 0.688700 0.227389
vt 0.701631 0.244993
vt 0.493119 0.244993
vt 0.480188 0.227389
s 0
f 2/1/1 1/2/1 5/3/1 6/4/1
f 4/1/2 3/2/2 7/3/2 8/4/2
f 8/5/3 7/6/3 1/2/3 2/1/3
f 6/5/4 5/6/4 3/2/4 4/1/4
f 7/3/5 3/2/5 5/6/5 1/2/5
f 8/4/6 2/1/6 6/5/6 4/1/6
o Cube.005
v 0.009549 -0.050000 -0.029389
v -0.009549 0.050000 0.029388
v -0.818556 -0.050000 -0.233474
v -0.799458 0.050000 -0.292251
v -0.268563 -0.050000 -0.412180
v -0.349462 0.050000 -0.438466
v -0.540444 -0.050000 0.149318
v -0.459545 0.050000 0.175603
vn 0.7236 0.4472 -0.5257
vn -0.7236 0.4472 0.5257
vn 0.2764 -0.4472 0.8507
vn -0.2764 -0.4472 -0.8507
vn -0.0000 -1.0000 -0.0000
vn -0.0000 1.0000 -0.0000
vt 0.585827 0.244993
vt 0.595991 0.227389
vt 0.688700 0.227389
vt 0.701631 0.244993
vt 0.493119 0.244993
vt 0.480188 0.227389
s 0
f 10/7/7 9/8/7 13/9/7 14/10/7
f 12/7/8 11/8/8 15/9/8 16/10/8
f 16/11/9 15/12/9 9/8/9 10/7/9
f 14/11/10 13/12/10 11/8/10 12/7/10
f 15/9/11 11/8/11 13/12/11 9/8/11
f 16/10/12 10/7/12 14/11/12 12/7/12
o Cube.006
v -0.024999 -0.050000 -0.018163
v 0.024999 0.050000 0.018163
v -0.474994 -0.050000 0.706345
v -0.524993 0.050000 0.670019
v -0.474997 -0.050000 0.128048
v -0.524995 0.050000 0.196865
v -0.024997 -0.050000 0.560135
v 0.025001 0.050000 0.491318
vn -0.2764 0.4472 -0.8507
vn 0.2764 0.4472 0.8507
vn 0.8944 -0.4472 -0.0000
vn -0.8944 -0.4472 -0.0000
vn -0.0000 -1.0000 -0.0000
vn -0.0000 1.0000 -0.0000
vt 0.585827 0.244993
vt 0.595991 0.227389
vt 0.688700 0.227389
vt 0.701631 0.244993
vt 0.493119 0.244993
vt 0.480188 0.227389
s 0
f 18/13/13 17/14/13 21/15/13 22/16/13
f 20/13/14 19/14/14 23/15/14 24/16/14
f 24/17/15 23/18/15 17/14/15 18/13/15
f 22/17/16 21/18/16 19/14/16 20/13/16
f 23/15/17 19/14/17 21/18/17 17/14/17
f 24/16/18 18/13/18 22/17/18 20/13/18
o Cube.007
v -0.024999 -0.050000 0.018163
v 0.024999 0.050000 -0.018163
v 0.524993 -0.050000 0.670019
v 0.474995 0.050000 0.706345
v -0.025001 -0.050000 0.491318
v 0.024997 0.050000 0.560134
v 0.524995 -0.050000 0.196864
v 0.474997 0.050000 0.128048
vn -0.8944 0.4472 -0.0000
vn 0.8944 0.4472 -0.0000
vn 0.2764 -0.4472 -0.8507
vn -0.2764 -0.4472 0.8507
vn -0.0000 -1.0000 -0.0000
vn -0.0000 1.0000 -0.0000
vt 0.585827 0.244993
vt 0.595991 0.227389
vt 0.688700 0.227389
vt 0.701631 0.244993
vt 0.493119 0.244993
vt 0.480188 0.227389
s 0
f 26/19/19 25/20/19 29/21/19 30/22/19
f 28/19/20 27/20/20 31/21/20 32/22/20
f 32/23/21 31/24/21 25/20/21 26/19/21
f 30/23/22 29/24/22 27/20/22 28/19/22
f 31/21/23 27/20/23 29/24/23 25/20/23
f 32/22/24 26/19/24 30/23/24 28/19/24
o Cube.008
v 0.009549 -0.050000 0.029389
v -0.009549 0.050000 -0.029388
v 0.799458 -0.050000 -0.292251
v 0.818555 0.050000 -0.233474
v 0.459545 -0.050000 0.175603
v 0.540444 0.050000 0.149317
v 0.349462 -0.050000 -0.438466
v 0.268562 0.050000 -0.412180
vn -0.2764 0.4472 0.8507
vn 0.2764 0.4472 -0.8507
vn -0.7236 -0.4472 -0.5257
vn 0.7236 -0.4472 0.5257
vn -0.0000 -1.0000 -0.0000
vn -0.0000 1.0000 -0.0000
vt 0.585827 0.244993
vt 0.595991 0.227389
vt 0.688700 0.227389
vt 0.701631 0.244993
vt 0.493119 0.244993
vt 0.480188 0.227389
s 0
f 34/25/25 33/26/25 37/27/25 38/28/25
f 36/25/26 35/26/26 39/27/26 40/28/26
f 40/29/27 39/30/27 33/26/27 34/25/27
f 38/29/28 37/30/28 35/26/28 36/25/28
f 39/27/29 35/26/29 37/30/29 33/26/29
f 40/28/30 34/25/30 38/29/30 36/25/30
o Cube.009
v -0.033545 -0.044718 -0.018163
v 0.033545 0.044717 0.018163
v -0.279466 0.447232 -0.670019
v -0.167663 0.447223 -0.706345
v -0.033544 -0.044720 -0.491317
v 0.033546 0.044716 -0.560134
v -0.279467 0.447234 -0.196865
v -0.167664 0.447225 -0.128048
vn 0.7999 -0.6001 -0.0000
vn 0.0001 1.0000 -0.0000
vn -0.5236 0.0473 0.8507
vn -0.2764 -0.4472 -0.8507
vn -0.8945 -0.4471 -0.0000
vn 0.8945 0.4471 -0.0000
vt 0.585827 0.244993
vt 0.595991 0.227389
vt 0.688700 0.227389
vt 0.701631 0.244993
vt 0.493119 0.244993
vt 0.480188 0.227389
s 0
f 42/31/31 41/32/31 45/33/31 46/34/31
f 44/31/32 43/32/32 47/33/32 48/34/32
f 48/35/33 47/36/33 41/32/33 42/31/33
f 46/35/34 45/36/34 43/32/34 44/31/34
f 47/33/35 43/32/35 45/36/35 41/32/35
f 48/34/36 42/31/36 46/35/36 44/31/36
o Cube.010
v -0.048993 -0.013816 -0.029389
v 0.048993 0.013816 0.029388
v -0.402189 0.692732 0.292251
v -0.321281 0.754527 0.233474
v -0.250202 0.388691 -0.175603
v -0.196928 0.505766 -0.149318
v -0.200980 0.290225 0.438466
v -0.075360 0.262577 0.412180
vn 0.5236 -0.0473 -0.8507
vn 0.2764 0.4472 0.8507
vn -0.0765 -0.8472 0.5257
vn -0.7236 0.4473 -0.5257
vn -0.8945 -0.4471 -0.0000
vn 0.8945 0.4471 -0.0000
vt 0.585827 0.244993
vt 0.595991 0.227389
vt 0.688700 0.227389
vt 0.701631 0.244993
vt 0.493119 0.244993
vt 0.480188 0.227389
s 0
f 50/37/37 49/38/37 53/39/37 54/40/37
f 52/37/38 51/38/38 55/39/38 56/40/38
f 56/41/39 55/42/39 49/38/39 50/37/39
f 54/41/40 53/42/40 51/38/40 52/37/40
f 55/39/41 51/38/41 53/42/41 49/38/41
f 56/40/42 50/37/42 54/41/42 52/37/42
o Cube.011
v -0.058540 0.005283 -0.000000
v 0.058540 -0.005283 0.000000
v -0.030906 -0.049997 0.850640
v 0.030907 0.049996 0.850640
v -0.182895 0.254048 0.382789
v -0.093448 0.298761 0.467851
v 0.093448 -0.298761 0.467851
v 0.182895 -0.254048 0.382789
vn 0.0765 0.8472 -0.5257
vn 0.7236 -0.4473 0.5257
vn -0.0765 -0.8472 -0.5257
vn -0.7236 0.4473 0.5257
vn -0.8945 -0.4471 -0.0000
vn 0.8945 0.4471 -0.0000
vt 0.585827 0.244993
vt 0.595991 0.227389
vt 0.688700 0.227389
vt 0.701631 0.244993
vt 0.493119 0.244993
vt 0.480188 0.227389
s 0
f 58/43/43 57/44/43 61/45/43 62/46/43
f 60/43/44 59/44/44 63/45/44 64/46/44
f 64/47/45 63/48/45 57/44/45 58/43/45
f 62/47/46 61/48/46 59/44/46 60/43/46
f 63/45/47 59/44/47 61/48/47 57/44/47
f 64/46/48 58/43/48 62/47/48 60/43/48
o Cube.012
v -0.048993 -0.013816 0.029389
v 0.048993 0.013816 -0.029388
v 0.321281 -0.754528 0.233473
v 0.402189 -0.692732 0.292250
v 0.075361 -0.262577 0.412180
v 0.200980 -0.290225 0.438465
v 0.196928 -0.505766 -0.149318
v 0.250202 -0.388691 -0.175604
vn 0.0765 0.8472 0.5257
vn 0.7236 -0.4473 -0.5257
vn -0.5236 0.0473 -0.8507
vn -0.2764 -0.4472 0.8507
vn -0.8945 -0.4471 -0.0000
vn 0.8945 0.4471 -0.0000
vt 0.585827 0.244993
vt 0.595991 0.227389
vt 0.688700 0.227389
vt 0.701631 0.244993
vt 0.493119 0.244993
vt 0.480188 0.227389
s 0
f 66/49/49 65/50/49 69/51/49 70/52/49
f 68/49/50 67/50/50 71/51/50 72/52/50
f 72/53/51 71/54/51 65/50/51 66/49/51
f 70/53/52 69/54/52 67/50/52 68/49/52
f 71/51/53 67/50/53 69/54/53 65/50/53
f 72/52/54 66/49/54 70/53/54 68/49/54
o Cube.013
v -0.033545 -0.044718 0.018163
v 0.033545 0.044717 -0.018163
v 0.167663 -0.447223 -0.706346
v 0.279465 -0.447231 -0.670020
v 0.167664 -0.447225 -0.128048
v 0.279467 -0.447234 -0.196865
v -0.033547 -0.044715 -0.560135
v 0.033544 0.044720 -0.491318
vn 0.5236 -0.0473 0.8507
vn 0.2764 0.4472 -0.8507
vn -0.7999 0.6001 -0.0000
vn -0.0001 -1.0000 -0.0000
vn -0.8945 -0.4471 -0.0000
vn 0.8945 0.4471 -0.0000
vt 0.585827 0.244993
vt 0.595991 0.227389
vt 0.688700 0.227389
vt 0.701631 0.244993
vt 0.493119 0.244993
vt 0.480188 0.227389
s 0
f 74/55/55 73/56/55 77/57/55 78/58/55
f 76/55/56 75/56/56 79/57/56 80/58/56
f 80/59/57 79/60/57 73/56/57 74/55/57
f 78/59/58 77/60/58 75/56/58 76/55/58
f 79/57/59 75/56/59 77/60/59 73/56/59
f 80/58/60 74/55/60 78/59/60 76/55/60
o Cube.014
v -0.027640 -0.044718 0.026291
v 0.027640 0.044717 -0.026291
v -0.723586 0.447232 0.058741
v -0.723585 0.447223 -0.058815
v -0.477636 -0.044720 -0.119923
v -0.522353 0.044716 -0.204995
v -0.273589 0.447234 0.204954
v -0.173592 0.447225 0.119889
vn 0.2472 -0.6001 -0.7608
vn -0.0000 1.0000 -0.0001
vn 0.6472 0.0473 0.7608
vn -0.8944 -0.4472 -0.0000
vn -0.2764 -0.4471 0.8507
vn 0.2764 0.4471 -0.8507
vt 0.585827 0.244993
vt 0.595991 0.227389
vt 0.688700 0.227389
vt 0.701631 0.244993
vt 0.493119 0.244993
vt 0.480188 0.227389
s 0
f 82/61/61 81/62/61 85/63/61 86/64/61
f 84/61/62 83/62/62 87/63/62 88/64/62
f 88/65/63 87/66/63 81/62/63 82/61/63
f 86/65/64 85/66/64 83/62/64 84/61/64
f 87/63/65 83/62/65 85/66/65 81/62/65
f 88/64/66 82/61/66 86/65/66 84/61/66
o Cube.015
v -0.043090 -0.013816 0.037514
v 0.043089 0.013816 -0.037514
v 0.153664 0.692732 0.472815
v 0.122766 0.754527 0.377704
v -0.244325 0.388691 0.183692
v -0.202864 0.505766 0.141148
v 0.354899 0.290225 0.326636
v 0.368719 0.262577 0.199043
vn -0.6472 -0.0473 -0.7608
vn 0.8944 0.4472 -0.0000
vn 0.4764 -0.8472 0.2352
vn -0.7236 0.4473 0.5257
vn -0.2764 -0.4471 0.8507
vn 0.2764 0.4471 -0.8507
vt 0.585827 0.244993
vt 0.595991 0.227389
vt 0.688700 0.227389
vt 0.701631 0.244993
vt 0.493119 0.244993
vt 0.480188 0.227389
s 0
f 90/67/67 89/68/67 93/69/67 94/70/67
f 92/67/68 91/68/68 95/69/68 96/70/68
f 96/71/69 95/72/69 89/68/69 90/67/69
f 94/71/70 93/72/70 91/68/70 92/67/70
f 95/69/71 91/68/71 93/72/71 89/68/71
f 96/70/72 90/67/72 94/71/72 92/67/72
o Cube.016
v -0.018090 0.005283 0.055675
v 0.018090 -0.005283 -0.055675
v 0.799456 -0.049997 0.292256
v 0.818558 0.049996 0.233468
v 0.307536 0.254048 0.292232
v 0.416076 0.298761 0.233449
v 0.473830 -0.298761 0.055699
v 0.420571 -0.254048 -0.055655
vn -0.4764 0.8472 -0.2352
vn 0.7236 -0.4473 -0.5257
vn -0.5236 -0.8472 -0.0897
vn 0.2764 0.4473 0.8506
vn -0.2764 -0.4471 0.8507
vn 0.2764 0.4471 -0.8507
vt 0.585827 0.244993
vt 0.595991 0.227389
vt 0.688700 0.227389
vt 0.701631 0.244993
vt 0.493119 0.244993
vt 0.480188 0.227389
s 0
f 98/73/73 97/74/73 101/75/73 102/76/73
f 100/73/74 99/74/74 103/75/74 104/76/74
f 104/77/75 103/78/75 97/74/75 98/73/75
f 102/77/76 101/78/76 99/74/76 100/73/76
f 103/75/77 99/74/77 101/78/77 97/74/77
f 104/76/78 98/73/78 102/77/78 100/73/78
o Cube.017
v 0.012811 -0.013816 0.055677
v -0.012810 0.013816 -0.055676
v 0.321328 -0.754528 -0.233410
v 0.402229 -0.692732 -0.292194
v 0.415294 -0.262577 0.055698
v 0.479111 -0.290225 -0.055650
v -0.081156 -0.505766 -0.233431
v -0.089692 -0.388691 -0.292221
vn 0.5236 0.8472 0.0897
vn -0.2764 -0.4473 -0.8506
vn -0.9708 0.0473 0.2351
vn 0.7236 -0.4472 0.5258
vn -0.2764 -0.4471 0.8507
vn 0.2764 0.4471 -0.8507
vt 0.585827 0.244993
vt 0.595991 0.227389
vt 0.688700 0.227389
vt 0.701631 0.244993
vt 0.493119 0.244993
vt 0.480188 0.227389
s 0
f 106/79/79 105/80/79 109/81/79 110/82/79
f 108/79/80 107/80/80 111/81/80 112/82/80
f 112/83/81 111/84/81 105/80/81 106/79/81
f 110/83/82 109/84/82 107/80/82 108/79/82
f 111/81/83 107/80/83 109/84/83 105/80/83
f 112/82/84 106/79/84 110/83/84 108/79/84
o Cube.018
v 0.006908 -0.044718 0.037516
v -0.006908 0.044717 -0.037516
v -0.619964 -0.447223 -0.377730
v -0.550867 -0.447231 -0.472835
v -0.069970 -0.447225 -0.199027
v -0.100870 -0.447234 -0.326623
v -0.543086 -0.044715 -0.141186
v -0.456905 0.044720 -0.183728
vn 0.9708 -0.0473 -0.2351
vn -0.7236 0.4472 -0.5258
vn -0.2472 0.6001 0.7608
vn -0.0000 -1.0000 0.0001
vn -0.2764 -0.4471 0.8507
vn 0.2764 0.4471 -0.8507
vt 0.585827 0.244993
vt 0.595991 0.227389
vt 0.688700 0.227389
vt 0.701631 0.244993
vt 0.493119 0.244993
vt 0.480188 0.227389
s 0
f 114/85/85 113/86/85 117/87/85 118/88/85
f 116/85/86 115/86/86 119/87/86 120/88/86
f 120/89/87 119/90/87 113/86/87 114/85/87
f 118/89/88 117/90/88 115/86/88 116/85/88
f 119/87/89 115/86/89 117/90/89 113/86/89
f 120/88/90 114/85/90 118/89/90 116/85/90
o Cube.019
v 0.016463 -0.044718 0.034412
v -0.016463 0.044717 -0.034412
v -0.167735 0.447232 0.706323
v -0.279537 0.447223 0.669995
v -0.261651 -0.044720 0.417201
v -0.356378 0.044716 0.433440
v 0.110379 0.447234 0.323533
v 0.060379 0.447225 0.202143
vn -0.6472 -0.6001 -0.4702
vn -0.0001 1.0000 -0.0000
vn 0.9236 0.0473 -0.3804
vn -0.2764 -0.4472 0.8507
vn 0.7236 -0.4471 0.5258
vn -0.7236 0.4471 -0.5258
vt 0.585827 0.244993
vt 0.595991 0.227389
vt 0.688700 0.227389
vt 0.701631 0.244993
vt 0.493119 0.244993
vt 0.480188 0.227389
s 0
f 122/91/91 121/92/91 125/93/91 126/94/91
f 124/91/92 123/92/92 127/93/92 128/94/92
f 128/95/93 127/96/93 121/92/93 122/91/93
f 126/95/94 125/96/94 123/92/94 124/91/94
f 127/93/95 123/92/95 125/96/95 121/92/95
f 128/94/96 122/91/96 126/95/96 124/91/96
o Cube.020
v 0.022362 -0.013816 0.052573
v -0.022362 0.013816 -0.052573
v 0.497158 0.692732 -0.000035
v 0.397155 0.754527 -0.000040
v 0.099200 0.388691 0.289131
v 0.071551 0.505766 0.236552
v 0.420320 0.290225 -0.236593
v 0.303241 0.262577 -0.289165
vn -0.9236 -0.0473 0.3804
vn 0.2764 0.4472 -0.8507
vn 0.3709 -0.8472 -0.3804
vn 0.2764 0.4473 0.8506
vn 0.7236 -0.4471 0.5258
vn -0.7236 0.4471 -0.5258
vt 0.585827 0.244993
vt 0.595991 0.227389
vt 0.688700 0.227389
vt 0.701631 0.244993
vt 0.493119 0.244993
vt 0.480188 0.227389
s 0
f 130/97/97 129/98/97 133/99/97 134/100/97
f 132/97/98 131/98/98 135/99/98 136/100/98
f 136/101/99 135/102/99 129/98/99 130/97/99
f 134/101/100 133/102/100 131/98/100 132/97/100
f 135/99/101 131/98/101 133/102/101 129/98/101
f 136/100/102 130/97/102 134/101/102 132/97/102
o Cube.021
v 0.047360 0.005283 0.034409
v -0.047360 -0.005283 -0.034409
v 0.524997 -0.049997 -0.670016
v 0.474990 0.049996 -0.706349
v 0.372963 0.254048 -0.202180
v 0.350597 0.298761 -0.323572
v 0.199395 -0.298761 -0.433427
v 0.077032 -0.254048 -0.417186
vn -0.3709 0.8472 0.3804
vn -0.2763 -0.4473 -0.8506
vn -0.2472 -0.8472 0.4703
vn 0.8944 0.4473 -0.0000
vn 0.7236 -0.4471 0.5258
vn -0.7236 0.4471 -0.5258
vt 0.585827 0.244993
vt 0.595991 0.227389
vt 0.688700 0.227389
vt 0.701631 0.244993
vt 0.493119 0.244993
vt 0.480188 0.227389
s 0
f 138/103/103 137/104/103 141/105/103 142/106/103
f 140/103/104 139/104/104 143/105/104 144/106/104
f 144/107/105 143/108/105 137/104/105 138/103/105
f 142/107/106 141/108/106 139/104/106 140/103/106
f 143/105/107 139/104/107 141/108/107 137/104/107
f 144/106/108 138/103/108 142/107/108 140/103/108
o Cube.022
v 0.056910 -0.013816 0.005021
v -0.056910 0.013816 -0.005022
v -0.122690 -0.754528 -0.377728
v -0.153598 -0.692732 -0.472836
v 0.181305 -0.262577 -0.377756
v 0.095127 -0.290225 -0.472859
v -0.247085 -0.505766 0.005050
v -0.305635 -0.388691 -0.004998
vn 0.2472 0.8472 -0.4703
vn -0.8944 -0.4473 -0.0000
vn -0.0764 0.0473 0.9960
vn 0.7236 -0.4472 -0.5257
vn 0.7236 -0.4471 0.5258
vn -0.7236 0.4471 -0.5258
vt 0.585827 0.244993
vt 0.595991 0.227389
vt 0.688700 0.227389
vt 0.701631 0.244993
vt 0.493119 0.244993
vt 0.480188 0.227389
s 0
f 146/109/109 145/110/109 149/111/109 150/112/109
f 148/109/110 147/110/110 151/111/110 152/112/110
f 152/113/111 151/114/111 145/110/111 146/109/111
f 150/113/112 149/114/112 147/110/112 148/109/112
f 151/111/113 147/110/113 149/114/113 145/110/113
f 152/112/114 146/109/114 150/113/114 148/109/114
o Cube.023
v 0.037815 -0.044718 0.005023
v -0.037815 0.044717 -0.005023
v -0.550821 -0.447223 0.472896
v -0.619920 -0.447231 0.377792
v -0.210908 -0.447225 0.005043
v -0.341808 -0.447234 -0.004999
v -0.302099 -0.044715 0.472877
v -0.315927 0.044720 0.377768
vn 0.0764 -0.0473 -0.9960
vn -0.7236 0.4472 0.5257
vn 0.6472 0.6001 0.4702
vn 0.0001 -1.0000 -0.0000
vn 0.7236 -0.4471 0.5258
vn -0.7236 0.4471 -0.5258
vt 0.585827 0.244993
vt 0.595991 0.227389
vt 0.688700 0.227389
vt 0.701631 0.244993
vt 0.493119 0.244993
vt 0.480188 0.227389
s 0
f 154/115/115 153/116/115 157/117/115 158/118/115
f 156/115/116 155/116/116 159/117/116 160/118/116
f 160/119/117 159/120/117 153/116/117 154/115/117
f 158/119/118 157/120/118 155/116/118 156/115/118
f 159/117/119 155/116/119 157/120/119 153/116/119
f 160/118/120 154/115/120 158/119/120 156/115/120
o Cube.024
v 0.037815 -0.044718 -0.005023
v -0.037815 0.044717 0.005024
v 0.619920 0.447232 0.377791
v 0.550822 0.447223 0.472895
v 0.315927 -0.044720 0.377767
v 0.302100 0.044716 0.472876
v 0.341808 0.447234 -0.005000
v 0.210908 0.447225 0.005042
vn -0.6472 -0.6001 0.4702
vn -0.0001 1.0000 0.0001
vn -0.0764 0.0473 -0.9960
vn 0.7236 -0.4472 0.5257
vn 0.7236 -0.4471 -0.5258
vn -0.7236 0.4471 0.5258
vt 0.585827 0.244993
vt 0.595991 0.227389
vt 0.688700 0.227389
vt 0.701631 0.244993
vt 0.493119 0.244993
vt 0.480188 0.227389
s 0
f 162/121/121 161/122/121 165/123/121 166/124/121
f 164/121/122 163/122/122 167/123/122 168/124/122
f 168/125/123 167/126/123 161/122/123 162/121/123
f 166/125/124 165/126/124 163/122/124 164/121/124
f 167/123/125 163/122/125 165/126/125 161/122/125
f 168/124/126 162/121/126 166/125/126 164/121/126
o Cube.025
v 0.056910 -0.013816 -0.005022
v -0.056910 0.013816 0.005022
v 0.153597 0.692732 -0.472836
v 0.122689 0.754527 -0.377729
v 0.305635 0.388691 -0.004999
v 0.247085 0.505766 0.005049
v -0.095127 0.290225 -0.472859
v -0.181305 0.262577 -0.377756
vn 0.0764 -0.0473 0.9960
vn -0.7236 0.4472 -0.5257
vn -0.2472 -0.8472 -0.4703
vn 0.8944 0.4473 -0.0000
vn 0.7236 -0.4471 -0.5258
vn -0.7236 0.4471 0.5258
vt 0.585827 0.244993
vt 0.595991 0.227389
vt 0.688700 0.227389
vt 0.701631 0.244993
vt 0.493119 0.244993
vt 0.480188 0.227389
s 0
f 170/127/127 169/128/127 173/129/127 174/130/127
f 172/127/128 171/128/128 175/129/128 176/130/128
f 176/131/129 175/132/129 169/128/129 170/127/129
f 174/131/130 173/132/130 171/128/130 172/127/130
f 175/129/131 171/128/131 173/132/131 169/128/131
f 176/130/132 170/127/132 174/131/132 172/127/132
o Cube.026
v 0.047360 0.005283 -0.034409
v -0.047360 -0.005283 0.034409
v -0.474990 -0.049997 -0.706348
v -0.524998 0.049996 -0.670016
v -0.077033 0.254048 -0.417186
v -0.199395 0.298761 -0.433427
v -0.350597 -0.298761 -0.323572
v -0.372963 -0.254048 -0.202179
vn 0.2472 0.8472 0.4703
vn -0.8944 -0.4473 -0.0000
vn 0.3709 -0.8472 0.3804
vn 0.2764 0.4473 -0.8506
vn 0.7236 -0.4471 -0.5258
vn -0.7236 0.4471 0.5258
vt 0.585827 0.244993
vt 0.595991 0.227389
vt 0.688700 0.227389
vt 0.701631 0.244993
vt 0.493119 0.244993
vt 0.480188 0.227389
s 0
f 178/133/133 177/134/133 181/135/133 182/136/133
f 180/133/134 179/134/134 183/135/134 184/136/134
f 184/137/135 183/138/135 177/134/135 178/133/135
f 182/137/136 181/138/136 179/134/136 180/133/136
f 183/135/137 179/134/137 181/138/137 177/134/137
f 184/136/138 178/133/138 182/137/138 180/133/138
o Cube.027
v 0.022362 -0.013816 -0.052573
v -0.022362 0.013816 0.052573
v -0.397154 -0.754528 -0.000039
v -0.497158 -0.692732 -0.000034
v -0.303241 -0.262577 -0.289164
v -0.420320 -0.290225 -0.236592
v -0.071551 -0.505766 0.236552
v -0.099200 -0.388691 0.289131
vn -0.3709 0.8472 -0.3804
vn -0.2764 -0.4473 0.8506
vn 0.9236 0.0473 0.3804
vn -0.2764 -0.4472 -0.8507
vn 0.7236 -0.4471 -0.5258
vn -0.7236 0.4471 0.5258
vt 0.585827 0.244993
vt 0.595991 0.227389
vt 0.688700 0.227389
vt 0.701631 0.244993
vt 0.493119 0.244993
vt 0.480188 0.227389
s 0
f 186/139/139 185/140/139 189/141/139 190/142/139
f 188/139/140 187/140/140 191/141/140 192/142/140
f 192/143/141 191/144/141 185/140/141 186/139/141
f 190/143/142 189/144/142 187/140/142 188/139/142
f 191/141/143 187/140/143 189/144/143 185/140/143
f 192/142/144 186/139/144 190/143/144 188/139/144
o Cube.028
v 0.016463 -0.044718 -0.034412
v -0.016463 0.044717 0.034412
v 0.279538 -0.447223 0.669995
v 0.167736 -0.447231 0.706323
v -0.060378 -0.447225 0.202144
v -0.110379 -0.447234 0.323534
v 0.356379 -0.044715 0.433440
v 0.261652 0.044720 0.417201
vn -0.9236 -0.0473 -0.3804
vn 0.2764 0.4472 0.8507
vn 0.6472 0.6001 -0.4702
vn 0.0001 -1.0000 -0.0000
vn 0.7236 -0.4471 -0.5258
vn -0.7236 0.4471 0.5258
vt 0.585827 0.244993
vt 0.595991 0.227389
vt 0.688700 0.227389
vt 0.701631 0.244993
vt 0.493119 0.244993
vt 0.480188 0.227389
s 0
f 194/145/145 193/146/145 197/147/145 198/148/145
f 196/145/146 195/146/146 199/147/146 200/148/146
f 200/149/147 199/150/147 193/146/147 194/145/147
f 198/149/148 197/150/148 195/146/148 196/145/148
f 199/147/149 195/146/149 197/150/149 193/146/149
f 200/148/150 194/145/150 198/149/150 196/145/150
o Cube.029
v 0.006908 -0.044718 -0.037516
v -0.006908 0.044717 0.037516
v 0.550866 0.447232 -0.472836
v 0.619963 0.447223 -0.377730
v 0.456905 -0.044720 -0.183728
v 0.543086 0.044716 -0.141187
v 0.100869 0.447234 -0.326623
v 0.069969 0.447225 -0.199027
vn 0.2472 -0.6001 0.7608
vn -0.0000 1.0000 0.0001
vn -0.9708 0.0473 -0.2351
vn 0.7236 -0.4472 -0.5258
vn -0.2764 -0.4471 -0.8507
vn 0.2764 0.4471 0.8507
vt 0.585827 0.244993
vt 0.595991 0.227389
vt 0.688700 0.227389
vt 0.701631 0.244993
vt 0.493119 0.244993
vt 0.480188 0.227389
s 0
f 202/151/151 201/152/151 205/153/151 206/154/151
f 204/151/152 203/152/152 207/153/152 208/154/152
f 208/155/153 207/156/153 201/152/153 202/151/153
f 206/155/154 205/156/154 203/152/154 204/151/154
f 207/153/155 203/152/155 205/156/155 201/152/155
f 208/154/156 202/151/156 206/155/156 204/151/156
o Cube.030
v 0.012811 -0.013816 -0.055677
v -0.012810 0.013816 0.055676
v -0.402230 0.692732 -0.292194
v -0.321328 0.754527 -0.233409
v 0.089692 0.388691 -0.292220
v 0.081155 0.505766 -0.233431
v -0.479112 0.290225 -0.055650
v -0.415294 0.262577 0.055699
vn 0.9708 -0.0473 0.2351
vn -0.7236 0.4472 0.5258
vn -0.5236 -0.8472 0.0897
vn 0.2764 0.4473 -0.8506
vn -0.2764 -0.4471 -0.8507
vn 0.2764 0.4471 0.8507
vt 0.585827 0.244993
vt 0.595991 0.227389
vt 0.688700 0.227389
vt 0.701631 0.244993
vt 0.493119 0.244993
vt 0.480188 0.227389
s 0
f 210/157/157 209/158/157 213/159/157 214/160/157
f 212/157/158 211/158/158 215/159/158 216/160/158
f 216/161/159 215/162/159 209/158/159 210/157/159
f 214/161/160 213/162/160 211/158/160 212/157/160
f 215/159/161 211/158/161 213/162/161 209/158/161
f 216/160/162 210/157/162 214/161/162 212/157/162
o Cube.031
v -0.018090 0.005283 -0.055675
v 0.018090 -0.005283 0.055675
v -0.818557 -0.049997 0.233469
v -0.799456 0.049996 0.292257
v -0.420571 0.254048 -0.055655
v -0.473830 0.298761 0.055700
v -0.416076 -0.298761 0.233449
v -0.307536 -0.254048 0.292232
vn 0.5236 0.8472 -0.0897
vn -0.2764 -0.4473 0.8506
vn 0.4764 -0.8472 -0.2352
vn -0.7236 0.4473 -0.5257
vn -0.2764 -0.4471 -0.8507
vn 0.2764 0.4471 0.8507
vt 0.585827 0.244993
vt 0.595991 0.227389
vt 0.688700 0.227389
vt 0.701631 0.244993
vt 0.493119 0.244993
vt 0.480188 0.227389
s 0
f 218/163/163 217/164/163 221/165/163 222/166/163
f 220/163/164 219/164/164 223/165/164 224/166/164
f 224/167/165 223/168/165 217/164/165 218/163/165
f 222/167/166 221/168/166 219/164/166 220/163/166
f 223/165/167 219/164/167 221/168/167 217/164/167
f 224/166/168 218/163/168 222/167/168 220/163/168
o Cube.032
v -0.043090 -0.013816 -0.037513
v 0.043089 0.013816 0.037514
v -0.122764 -0.754528 0.377704
v -0.153662 -0.692732 0.472815
v -0.368718 -0.262577 0.199043
v -0.354898 -0.290225 0.326637
v 0.202864 -0.505766 0.141148
v 0.244326 -0.388691 0.183691
vn -0.4764 0.8472 0.2352
vn 0.7236 -0.4473 0.5257
vn 0.6472 0.0473 -0.7608
vn -0.8944 -0.4472 -0.0000
vn -0.2764 -0.4471 -0.8507
vn 0.2764 0.4471 0.8507
vt 0.585827 0.244993
vt 0.595991 0.227389
vt 0.688700 0.227389
vt 0.701631 0.244993
vt 0.493119 0.244993
vt 0.480188 0.227389
s 0
f 226/169/169 225/170/169 229/171/169 230/172/169
f 228/169/170 227/170/170 231/171/170 232/172/170
f 232/173/171 231/174/171 225/170/171 226/169/171
f 230/173/172 229/174/172 227/170/172 228/169/172
f 231/171/173 227/170/173 229/174/173 225/170/173
f 232/172/174 226/169/174 230/173/174 228/169/174
o Cube.033
v -0.027640 -0.044718 -0.026291
v 0.027640 0.044717 0.026291
v 0.723585 -0.447223 -0.058817
v 0.723586 -0.447231 0.058739
v 0.173592 -0.447225 0.119889
v 0.273590 -0.447234 0.204954
v 0.522353 -0.044715 -0.204997
v 0.477636 0.044720 -0.119924
vn -0.6472 -0.0473 0.7608
vn 0.8944 0.4472 -0.0000
vn -0.2472 0.6001 -0.7608
vn -0.0000 -1.0000 -0.0001
vn -0.2764 -0.4471 -0.8507
vn 0.2764 0.4471 0.8507
vt 0.585827 0.244993
vt 0.595991 0.227389
vt 0.688700 0.227389
vt 0.701631 0.244993
vt 0.493119 0.244993
vt 0.480188 0.227389
s 0
f 234/175/175 233/176/175 237/177/175 238/178/175
f 236/175/176 235/176/176 239/177/176 240/178/176
f 240/179/177 239/180/177 233/176/177 234/175/177
f 238/179/178 237/180/178 235/176/178 236/175/178
f 239/177/179 235/176/179 237/180/179 233/176/179
f 240/178/180 234/175/180 238/179/180 236/175/180
o Cube.038
v -0.018061 0.022984 -0.055590
v -0.023937 0.034740 -0.051320
v -0.032854 0.052576 -0.078766
v -0.009510 0.005878 -0.061803
v 0.003633 0.005878 -0.066074
v -0.009510 0.005878 -0.006910
v -0.009510 0.005878 -0.029268
v -0.014426 0.042003 -0.044410
v -0.010794 0.034738 -0.055591
v -0.019710 0.052575 -0.083037
v -0.019710 0.052575 -0.028143
v -0.032854 0.052576 -0.023873
v 0.003633 0.005878 -0.011180
v -0.005875 0.024898 -0.018089
vn -0.2764 -0.4472 -0.8506
vn -0.8945 -0.4471 -0.0000
vn 0.2764 0.4472 0.8507
vn 0.0001 1.0000 -0.0000
vn 0.8945 0.4471 -0.0000
vn -0.0000 -1.0000 -0.0000
vt 0.687483 0.227389
vt 0.679335 0.244993
vt 0.585827 0.244993
vt 0.595991 0.227389
vt 0.614187 0.244993
vt 0.622341 0.244993
vt 0.584490 0.244993
vt 0.569417 0.244993
vt 0.494336 0.244993
s 0
f 245/181/181 244/182/181 243/183/181 250/184/181
f 243/183/182 244/182/182 247/185/182 241/186/182 242/187/182 246/188/182 252/189/182
f 252/189/183 246/188/183 254/185/183 251/182/183
f 252/181/184 251/182/184 250/183/184 243/184/184
f 250/183/185 251/182/185 254/185/185 248/186/185 249/187/185 253/188/185 245/189/185
f 245/189/186 253/188/186 247/185/186 244/182/186
o Cube.041
v 0.044021 0.005878 -0.044410
v 0.041777 -0.005878 -0.051320
v 0.061718 -0.005878 -0.078766
v 0.047286 0.022983 -0.034357
v 0.041408 0.034738 -0.038629
v 0.009511 -0.005877 -0.006909
v 0.024897 0.005878 -0.018089
v 0.028634 -0.005878 -0.055590
v 0.035898 0.005878 -0.055591
v 0.055839 0.005877 -0.083037
v 0.018063 -0.022983 -0.055589
v 0.023943 -0.034738 -0.051318
v 0.003632 0.005877 -0.011181
v 0.009510 -0.005878 -0.029268
vn 0.8944 0.4473 -0.0000
vn 0.7236 -0.4471 0.5258
vn -0.8944 -0.4473 0.0001
vn -0.2764 -0.4473 -0.8506
vn -0.7236 0.4472 -0.5258
vn 0.2763 0.4473 0.8506
vt 0.687483 0.227389
vt 0.679335 0.244993
vt 0.585827 0.244993
vt 0.595991 0.227389
vt 0.614187 0.244993
vt 0.622341 0.244993
vt 0.584490 0.244993
vt 0.569417 0.244993
vt 0.494336 0.244993
s 0
f 259/190/187 258/191/187 257/192/187 264/193/187
f 257/192/188 258/191/188 261/194/188 255/195/188 256/196/188 260/197/188 266/198/188
f 266/198/189 260/197/189 268/194/189 265/191/189
f 266/190/190 265/191/190 264/192/190 257/193/190
f 264/192/191 265/191/191 268/194/191 262/195/191 263/196/191 267/197/191 259/198/191
f 259/198/192 267/197/192 261/194/192 258/191/192
o Cube.042
v 0.018061 -0.022984 -0.055590
v 0.023937 -0.034740 -0.051320
v 0.032854 -0.052576 -0.078766
v 0.009510 -0.005878 -0.061803
v -0.003633 -0.005878 -0.066074
v 0.009510 -0.005878 -0.006910
v 0.009510 -0.005878 -0.029268
v 0.014426 -0.042003 -0.044410
v 0.010794 -0.034738 -0.055591
v 0.019710 -0.052575 -0.083037
v 0.019710 -0.052575 -0.028143
v 0.032854 -0.052576 -0.023873
v -0.003633 -0.005878 -0.011180
v 0.005875 -0.024898 -0.018089
vn 0.2764 0.4472 -0.8506
vn 0.8945 0.4471 -0.0000
vn -0.2764 -0.4472 0.8507
vn -0.0001 -1.0000 -0.0000
vn -0.8945 -0.4471 -0.0000
vn -0.0000 1.0000 -0.0000
vt 0.687483 0.227389
vt 0.679335 0.244993
vt 0.585827 0.244993
vt 0.595991 0.227389
vt 0.614187 0.244993
vt 0.622341 0.244993
vt 0.584490 0.244993
vt 0.569417 0.244993
vt 0.494336 0.244993
s 0
f 273/199/193 272/200/193 271/201/193 278/202/193
f 271/201/194 272/200/194 275/203/194 269/204/194 270/205/194 274/206/194 280/207/194
f 280/207/195 274/206/195 282/203/195 279/200/195
f 280/199/196 279/200/196 278/201/196 271/202/196
f 278/201/197 279/200/197 282/203/197 276/204/197 277/205/197 281/206/197 273/207/197
f 273/207/198 281/206/198 275/203/198 272/200/198
o Cube.043
v -0.028634 0.005878 -0.055590
v -0.035898 -0.005878 -0.055591
v -0.055839 -0.005878 -0.083037
v -0.018063 0.022983 -0.055589
v -0.023943 0.034738 -0.051318
v -0.003632 -0.005877 -0.011181
v -0.009510 0.005878 -0.029268
v -0.044021 -0.005878 -0.044410
v -0.041777 0.005878 -0.051320
v -0.061718 0.005877 -0.078766
v -0.047286 -0.022983 -0.034357
v -0.041408 -0.034738 -0.038629
v -0.009511 0.005877 -0.006909
v -0.024897 -0.005878 -0.018089
vn 0.2763 0.4473 -0.8506
vn 0.7236 -0.4472 -0.5257
vn -0.2763 -0.4473 0.8506
vn -0.8944 -0.4473 -0.0000
vn -0.7236 0.4471 0.5258
vn 0.8944 0.4473 0.0001
vt 0.687483 0.227389
vt 0.679335 0.244993
vt 0.585827 0.244993
vt 0.595991 0.227389
vt 0.614187 0.244993
vt 0.622341 0.244993
vt 0.584490 0.244993
vt 0.569417 0.244993
vt 0.494336 0.244993
s 0
f 287/208/199 286/209/199 285/210/199 292/211/199
f 285/210/200 286/209/200 289/212/200 283/213/200 284/214/200 288/215/200 294/216/200
f 294/216/201 288/215/201 296/212/201 293/209/201
f 294/208/202 293/209/202 292/210/202 285/211/202
f 292/210/203 293/209/203 296/212/203 290/213/203 291/214/203 295/215/203 287/216/203
f 287/216/204 295/215/204 289/212/204 286/209/204
o Cube.045
v -0.061717 0.005878 -0.010054
v -0.061718 0.005878 -0.023873
v -0.093983 0.005878 -0.034357
v -0.061717 0.005878 0.010054
v -0.063963 -0.005878 0.016963
v -0.009510 0.005878 -0.006909
v -0.030774 0.005878 -0.000000
v -0.055840 -0.005878 -0.028143
v -0.063963 -0.005878 -0.016963
v -0.096228 -0.005878 -0.027447
v -0.044021 -0.005878 -0.044410
v -0.041777 0.005878 -0.051320
v -0.011755 -0.005878 -0.000001
v -0.024897 -0.005878 -0.018089
v -0.009510 0.005878 -0.061803
v 0.003633 0.005878 -0.066074
v 0.003633 0.005878 -0.100000
v -0.028634 0.005878 -0.055590
v -0.035898 -0.005878 -0.055591
v 0.003632 0.005878 -0.011180
v -0.009510 0.005878 -0.029268
v 0.009510 -0.005878 -0.061803
v -0.003633 -0.005878 -0.066074
v -0.003633 -0.005878 -0.100000
v 0.028634 -0.005878 -0.055590
v 0.035898 0.005878 -0.055591
v -0.003632 -0.005878 -0.011180
v 0.009510 -0.005878 -0.029268
v 0.055840 0.005878 -0.028143
v 0.063963 0.005878 -0.016963
v 0.096228 0.005878 -0.027447
v 0.044021 0.005878 -0.044410
v 0.041777 -0.005878 -0.051320
v 0.011755 0.005878 -0.000001
v 0.024897 0.005878 -0.018089
v 0.061717 -0.005878 -0.010054
v 0.061718 -0.005878 -0.023873
v 0.093983 -0.005878 -0.034357
v 0.061717 -0.005878 0.010054
v 0.063963 0.005878 0.016963
v 0.009510 -0.005878 -0.006909
v 0.030774 -0.005878 0.000000
v 0.044021 0.005878 0.044410
v 0.035898 0.005878 0.055591
v 0.055840 0.005878 0.083037
v 0.055840 0.005878 0.028143
v 0.061718 -0.005878 0.023873
v 0.003633 0.005878 0.011180
v 0.024897 0.005878 0.018089
v 0.028634 -0.005878 0.055590
v 0.041777 -0.005878 0.051320
v 0.061717 -0.005878 0.078766
v 0.009510 -0.005878 0.061803
v 0.003633 0.005878 0.066074
v 0.009510 -0.005878 0.006910
v 0.009510 -0.005878 0.029268
v -0.028634 0.005878 0.055590
v -0.041777 0.005878 0.051320
v -0.061717 0.005878 0.078766
v -0.009510 0.005878 0.061803
v -0.003633 -0.005878 0.066074
v -0.009510 0.005878 0.006910
v -0.009510 0.005878 0.029268
v -0.044021 -0.005878 0.044410
v -0.035898 -0.005878 0.055591
v -0.055840 -0.005878 0.083037
v -0.055840 -0.005878 0.028143
v -0.061718 0.005878 0.023873
v -0.003633 -0.005878 0.011180
v -0.024897 -0.005878 0.018089
vn -0.7236 0.4472 0.5257
vn -0.0000 1.0000 -0.0000
vn 0.7236 -0.4471 -0.5258
vn -0.2764 -0.4472 -0.8506
vn -0.0000 -1.0000 -0.0000
vn 0.2764 0.4471 0.8507
vn -0.7236 0.4472 -0.5257
vn 0.7237 -0.4471 0.5258
vn 0.7236 -0.4472 -0.5257
vn -0.7237 0.4471 0.5258
vn 0.2764 0.4472 -0.8506
vn -0.2764 -0.4471 0.8507
vn 0.7236 -0.4472 0.5257
vn -0.7236 0.4471 -0.5258
vn 0.8944 0.4472 -0.0000
vn -0.8945 -0.4472 -0.0000
vn -0.2764 -0.4472 0.8506
vn 0.2764 0.4472 -0.8507
vn 0.2764 0.4472 0.8506
vn -0.2764 -0.4472 -0.8507
vn -0.8944 -0.4472 -0.0000
vn 0.8945 0.4472 -0.0000
vt 0.687483 0.227389
vt 0.679335 0.244993
vt 0.585827 0.244993
vt 0.595991 0.227389
vt 0.614187 0.244993
vt 0.622341 0.244993
vt 0.584490 0.244993
vt 0.569417 0.244993
vt 0.494336 0.244993
s 0
f 301/217/205 300/218/205 299/219/205 306/220/205
f 299/219/206 300/218/206 303/221/206 297/222/206 298/223/206 302/224/206 308/225/206
f 308/225/207 302/224/207 310/221/207 307/218/207
f 308/217/208 307/218/208 306/219/208 299/220/208
f 306/219/209 307/218/209 310/221/209 304/222/209 305/223/209 309/224/209 301/225/209
f 301/225/210 309/224/210 303/221/210 300/218/210
f 315/217/211 314/218/211 313/219/211 320/220/211
f 313/219/206 314/218/206 317/221/206 311/222/206 312/223/206 316/224/206 322/225/206
f 322/225/212 316/224/212 324/221/212 321/218/212
f 322/217/213 321/218/213 320/219/213 313/220/213
f 320/219/209 321/218/209 324/221/209 318/222/209 319/223/209 323/224/209 315/225/209
f 315/225/214 323/224/214 317/221/214 314/218/214
f 329/217/215 328/218/215 327/219/215 334/220/215
f 327/219/206 328/218/206 331/221/206 325/222/206 326/223/206 330/224/206 336/225/206
f 336/225/216 330/224/216 338/221/216 335/218/216
f 336/217/217 335/218/217 334/219/217 327/220/217
f 334/219/209 335/218/209 338/221/209 332/222/209 333/223/209 337/224/209 329/225/209
f 329/225/218 337/224/218 331/221/218 328/218/218
f 343/217/219 342/218/219 341/219/219 348/220/219
f 341/219/206 342/218/206 345/221/206 339/222/206 340/223/206 344/224/206 350/225/206
f 350/225/220 344/224/220 352/221/220 349/218/220
f 350/217/221 349/218/221 348/219/221 341/220/221
f 348/219/209 349/218/209 352/221/209 346/222/209 347/223/209 351/224/209 343/225/209
f 343/225/222 351/224/222 345/221/222 342/218/222
f 357/217/223 356/218/223 355/219/223 362/220/223
f 355/219/206 356/218/206 359/221/206 353/222/206 354/223/206 358/224/206 364/225/206
f 364/225/224 358/224/224 366/221/224 363/218/224
f 364/217/225 363/218/225 362/219/225 355/220/225
f 362/219/209 363/218/209 366/221/209 360/222/209 361/223/209 365/224/209 357/225/209
f 357/225/226 365/224/226 359/221/226 356/218/226
