# Blender 4.0.1
# www.blender.org
o mesh.013
v -0.002035 0.980133 0.228534
v 0.152512 0.863886 0.187118
v 0.221119 0.999995 0.061098
v 0.056994 0.935731 0.212713
v 0.098043 0.951803 0.174793
v -0.038529 0.863893 0.238307
v 0.048674 0.999997 0.181684
v 0.066351 0.854011 0.129510
v 0.093476 1.051995 0.202942
v -0.114162 0.948009 0.192068
v -0.015750 1.009918 0.205284
v 0.116035 0.980151 0.196897
v 0.038977 1.068065 0.190620
v -0.069954 1.100139 0.166032
v 0.089124 1.188089 0.096466
v 0.135870 1.136098 0.125072
v 0.109306 1.032148 0.171775
v 0.095819 1.136077 0.121614
v 0.141085 0.844042 -0.091643
v -0.141107 0.779781 0.091610
v -0.028958 0.811905 0.128092
v 0.021760 0.831760 0.081241
v -0.044007 0.811909 0.071924
v -0.074035 0.811900 -0.040314
v -0.177578 0.896024 0.101398
v 0.089124 0.811903 0.096449
v 0.020733 0.938022 0.195491
v 0.194915 0.947997 0.109227
v 0.086196 0.821848 0.057622
v 0.158627 0.905916 0.092053
v -0.176001 1.000007 0.107292
v -0.124468 0.883752 0.153690
v 0.020498 1.051976 0.222497
v -0.132784 0.948003 0.122650
v -0.088211 0.925819 0.170892
v 0.040350 0.831758 0.150642
v -0.123079 0.879948 0.113697
v -0.014167 0.847862 0.138353
v -0.118323 1.158292 0.058577
v -0.049956 1.220217 -0.040441
v -0.043993 1.188096 0.071921
v -0.074103 1.188077 -0.040296
v -0.124466 1.116251 0.153690
v 0.056990 1.168242 0.212713
v -0.055157 1.136107 0.176234
v -0.141106 1.155958 0.091613
v -0.097568 1.051992 0.254120
v -0.073758 1.136104 0.106835
v -0.082076 1.200366 0.075786
v -0.134376 1.103955 0.116724
v -0.120895 1.000057 0.166950
v 0.023031 1.220221 -0.059988
v 0.211549 1.051995 0.171299
v 0.108961 1.200371 0.024607
v 0.117281 1.136114 0.055646
v 0.067918 1.184300 0.062519
v -0.014062 1.152173 0.138325
v 0.236592 0.915880 -0.117251
v 0.200127 1.032128 -0.107440
v 0.176319 0.948003 0.039827
v 0.049939 0.779779 0.040435
v 0.180078 0.983934 0.099004
v 0.204239 1.009948 0.025992
v 0.158693 1.093991 0.092035
v 0.038520 1.136114 -0.238305
v 0.114168 1.051974 -0.192070
v 0.106416 1.016039 -0.175802
v 0.028940 1.188093 -0.128101
v -0.079778 1.061935 -0.179687
v -0.211549 0.948005 -0.171299
v -0.048686 0.999993 -0.181681
v 0.002040 1.019850 -0.228535
v 0.022175 0.863923 -0.153230
v 0.013458 1.272202 0.050250
v 0.168005 1.155958 0.008823
v -0.021770 1.168244 -0.081229
v 0.004570 1.204151 -0.028097
v 0.113494 1.172031 -0.003538
v -0.040371 1.168246 -0.150633
v -0.028946 1.188080 0.128119
v -0.204486 1.103976 0.000976
v -0.163415 1.120084 -0.036923
v -0.057003 1.064299 -0.212703
v -0.007302 1.146023 -0.145299
v 0.124445 1.116269 -0.153693
v 0.091349 1.094084 -0.159034
v -0.236596 1.084109 0.117252
v -0.227034 1.032124 0.007041
v -0.190773 1.074201 0.024245
v -0.194924 1.051982 -0.109220
v -0.160932 0.999992 0.163485
v -0.221121 0.999993 -0.061083
v -0.200124 0.967887 0.107450
v -0.206068 0.999992 -0.004917
v -0.184637 1.116248 -0.070865
v -0.188185 0.999980 -0.084110
v -0.152519 1.136117 -0.187110
v -0.116065 1.019861 -0.196878
v -0.161839 1.074181 -0.103891
v -0.116323 0.990078 -0.169878
v -0.167997 1.220227 -0.008776
v -0.176322 1.051995 -0.039817
v -0.089144 1.188082 -0.096462
v -0.081446 1.152138 -0.112733
v -0.089116 0.811895 -0.096444
v -0.131759 0.841708 0.008432
v -0.177337 0.925799 0.074390
v -0.023043 0.779783 0.060001
v -0.057001 0.831758 -0.212710
v -0.135884 0.863893 -0.125045
v -0.081374 0.847822 -0.112729
v 0.027526 0.815687 -0.088086
v -0.184641 0.883755 -0.070855
v -0.093493 0.947976 -0.202926
v -0.143595 0.899823 -0.108780
v -0.061561 0.931890 -0.184551
v -0.108973 0.799634 -0.024594
v -0.263518 0.915884 0.016819
v -0.168002 0.844037 -0.008775
v -0.117291 0.863890 -0.055635
v -0.174735 0.896045 -0.033898
v 0.124479 0.883746 -0.153677
v 0.168013 0.779788 0.008837
v 0.100057 0.827969 -0.053683
v 0.018007 0.795849 0.022048
v 0.184636 0.883766 0.070890
v 0.139521 0.883758 -0.097517
v 0.169563 0.883725 0.014718
v 0.097558 0.948005 -0.254124
v 0.055154 0.863891 -0.176233
v 0.091413 0.905968 -0.159028
v 0.163883 0.990013 -0.124622
v 0.082059 0.799629 -0.075791
v 0.028945 0.811899 -0.128085
v 0.073746 0.863886 -0.106831
v -0.020481 0.947987 -0.222489
v 0.008816 0.967827 -0.203409
v -0.013451 0.727787 -0.050187
v 0.263520 1.084121 -0.016754
v 0.204488 0.896028 -0.000953
v 0.227035 0.967872 -0.007018
v 0.184314 1.051971 -0.076260
v 0.197750 0.948029 -0.026114
v 0.141093 1.220229 -0.091607
v 0.184627 1.116248 0.070893
v 0.132784 1.051997 -0.122651
v 0.139513 1.116254 -0.097515
v 0.169605 1.116215 0.014707
v 0.045874 1.178141 -0.093002
v 0.160958 0.999992 -0.163458
v -0.002450 1.048227 -0.200390
v 0.177592 1.103971 -0.101379
vn 0.5186 0.4253 0.7417
vn 0.5187 0.4253 0.7417
vn 0.5187 0.4252 0.7417
vn 0.7034 -0.1627 0.6920
vn 0.7032 -0.1624 0.6922
vn 0.7030 -0.1625 0.6924
vn 0.7027 -0.1636 0.6924
vn 0.2200 -0.5259 0.8216
vn 0.2203 -0.5257 0.8216
vn 0.2203 -0.5257 0.8217
vn 0.2205 -0.5260 0.8214
vn -0.2629 -0.1625 0.9510
vn -0.2627 -0.1625 0.9511
vn -0.2627 -0.1623 0.9511
vn -0.2631 -0.1615 0.9511
vn -0.0784 0.4254 0.9016
vn -0.0784 0.4252 0.9017
vn -0.0783 0.4251 0.9017
vn -0.0781 0.4258 0.9014
vn 0.6192 -0.6879 0.3785
vn 0.6190 -0.6882 0.3784
vn 0.6190 -0.6881 0.3786
vn 0.6193 -0.6882 0.3780
vn 0.2985 -0.9511 -0.0800
vn 0.2984 -0.9511 -0.0800
vn 0.2984 -0.9511 -0.0799
vn 0.2980 -0.9512 -0.0800
vn -0.2989 -0.9510 0.0797
vn -0.2984 -0.9511 0.0799
vn -0.2986 -0.9510 0.0801
vn -0.3472 -0.6881 0.6372
vn -0.3467 -0.6882 0.6373
vn -0.3468 -0.6884 0.6371
vn -0.3464 -0.6878 0.6379
vn 0.2200 -0.5254 0.8219
vn 0.2203 -0.5256 0.8217
vn 0.2200 -0.5258 0.8217
vn 0.2208 -0.5257 0.8215
vn -0.3466 -0.6883 0.6373
vn -0.3470 -0.6883 0.6371
vn -0.3468 -0.6880 0.6375
vn -0.3468 -0.6881 0.6374
vn -0.7814 -0.5878 0.2094
vn -0.7814 -0.5878 0.2097
vn -0.7814 -0.5878 0.2095
vn -0.9660 -0.0002 0.2586
vn -0.9659 0.0002 0.2591
vn -0.9660 -0.0002 0.2587
vn -0.9659 -0.0000 0.2589
vn -0.6454 0.2630 0.7172
vn -0.6454 0.2629 0.7172
vn -0.6454 0.2627 0.7172
vn -0.2626 -0.1625 0.9511
vn -0.2630 -0.1626 0.9510
vn -0.2626 -0.1633 0.9510
vn -0.6453 0.2625 0.7174
vn -0.6455 0.2629 0.7171
vn -0.6452 0.2629 0.7173
vn -0.6455 0.2631 0.7170
vn -0.7815 0.5878 0.2094
vn -0.7814 0.5879 0.2094
vn -0.7814 0.5878 0.2095
vn -0.7813 0.5880 0.2093
vn -0.2984 0.9511 0.0796
vn -0.2985 0.9511 0.0800
vn -0.2986 0.9510 0.0800
vn -0.2983 0.9511 0.0802
vn 0.1365 0.8506 0.5077
vn 0.1360 0.8507 0.5077
vn 0.1360 0.8507 0.5078
vn 0.1359 0.8505 0.5081
vn -0.0779 0.4253 0.9017
vn -0.0783 0.4255 0.9016
vn -0.0782 0.4255 0.9016
vn -0.0787 0.4250 0.9018
vn 0.1356 0.8506 0.5080
vn 0.1361 0.8506 0.5080
vn 0.1358 0.8509 0.5074
vn 0.2981 0.9511 -0.0803
vn 0.2986 0.9510 -0.0797
vn 0.2984 0.9511 -0.0798
vn 0.2987 0.9510 -0.0798
vn 0.7813 0.5879 -0.2095
vn 0.7816 0.5877 -0.2091
vn 0.7814 0.5879 -0.2094
vn 0.7816 0.5876 -0.2092
vn 0.9176 0.2624 0.2985
vn 0.9176 0.2629 0.2982
vn 0.9175 0.2630 0.2983
vn 0.9175 0.2630 0.2985
vn 0.5188 0.4250 0.7418
vn 0.5183 0.4255 0.7418
vn 0.5188 0.4252 0.7416
vn 0.5180 0.4256 0.7420
vn 0.9175 0.2632 0.2982
vn 0.9175 0.2631 0.2984
vn 0.9176 0.2626 0.2984
vn 0.9176 0.2627 0.2982
vn 0.9658 0.0003 -0.2592
vn 0.9659 -0.0001 -0.2588
vn 0.9660 0.0001 -0.2587
vn 0.9660 -0.0002 -0.2587
vn 0.7812 -0.5880 -0.2097
vn 0.7815 -0.5877 -0.2095
vn 0.7816 -0.5876 -0.2095
vn 0.7814 -0.5878 -0.2095
vn 0.6189 -0.6882 0.3785
vn 0.6191 -0.6882 0.3783
vn 0.6191 -0.6881 0.3784
vn 0.6191 -0.6881 0.3785
vn 0.7028 -0.1626 0.6926
vn 0.7031 -0.1622 0.6924
vn 0.7031 -0.1627 0.6922
vn 0.7033 -0.1619 0.6922
vn 0.0782 -0.4254 -0.9016
vn 0.0781 -0.4250 -0.9018
vn 0.0780 -0.4253 -0.9017
vn 0.0790 -0.4252 -0.9016
vn 0.2625 0.1622 -0.9512
vn 0.2624 0.1624 -0.9512
vn 0.2627 0.1625 -0.9511
vn 0.2626 0.1625 -0.9511
vn -0.2200 0.5257 -0.8217
vn -0.2203 0.5254 -0.8218
vn -0.2201 0.5257 -0.8217
vn -0.2204 0.5257 -0.8217
vn -0.7031 0.1627 -0.6923
vn -0.7030 0.1621 -0.6924
vn -0.7031 0.1626 -0.6923
vn -0.7032 0.1624 -0.6922
vn -0.5188 -0.4257 -0.7414
vn -0.5188 -0.4249 -0.7418
vn -0.5186 -0.4252 -0.7418
vn -0.5179 -0.4260 -0.7419
vn 0.3470 0.6882 -0.6371
vn 0.3467 0.6882 -0.6373
vn 0.3466 0.6883 -0.6372
vn 0.3474 0.6882 -0.6370
vn 0.2988 0.9510 -0.0799
vn 0.2981 0.9512 -0.0799
vn 0.2986 0.9510 -0.0802
vn 0.2984 0.9511 -0.0796
vn -0.2986 0.9510 0.0805
vn -0.2983 0.9511 0.0800
vn -0.2984 0.9511 0.0799
vn -0.2994 0.9508 0.0797
vn -0.6192 0.6881 -0.3784
vn -0.6191 0.6882 -0.3783
vn -0.6190 0.6883 -0.3782
vn -0.6192 0.6884 -0.3778
vn -0.2202 0.5253 -0.8219
vn -0.2201 0.5256 -0.8218
vn -0.2203 0.5260 -0.8215
vn -0.2197 0.5257 -0.8218
vn -0.6192 0.6881 -0.3783
vn -0.6192 0.6880 -0.3784
vn -0.6191 0.6881 -0.3784
vn -0.7815 0.5877 0.2094
vn -0.7814 0.5879 0.2093
vn -0.7813 0.5878 0.2097
vn -0.9659 -0.0001 0.2589
vn -0.9659 0.0001 0.2589
vn -0.9659 0.0001 0.2588
vn -0.9175 -0.2629 -0.2984
vn -0.9176 -0.2626 -0.2983
vn -0.9174 -0.2629 -0.2988
vn -0.7028 0.1625 -0.6926
vn -0.7032 0.1622 -0.6922
vn -0.7034 0.1624 -0.6920
vn -0.7028 0.1629 -0.6925
vn -0.9176 -0.2625 -0.2986
vn -0.9175 -0.2629 -0.2986
vn -0.9177 -0.2628 -0.2979
vn -0.7815 -0.5875 0.2100
vn -0.7815 -0.5878 0.2093
vn -0.7816 -0.5876 0.2092
vn -0.7815 -0.5877 0.2094
vn -0.2985 -0.9511 0.0800
vn -0.2986 -0.9510 0.0799
vn -0.2980 -0.9512 0.0795
vn -0.1361 -0.8507 -0.5077
vn -0.1362 -0.8507 -0.5078
vn -0.1363 -0.8507 -0.5076
vn -0.1360 -0.8505 -0.5081
vn -0.5187 -0.4254 -0.7416
vn -0.5187 -0.4253 -0.7417
vn -0.1363 -0.8508 -0.5075
vn -0.1361 -0.8506 -0.5080
vn -0.1358 -0.8507 -0.5079
vn -0.1361 -0.8509 -0.5074
vn 0.2985 -0.9511 -0.0798
vn 0.2986 -0.9510 -0.0801
vn 0.2992 -0.9509 -0.0796
vn 0.7815 -0.5878 -0.2093
vn 0.7814 -0.5878 -0.2094
vn 0.7818 -0.5872 -0.2098
vn 0.6455 -0.2626 -0.7172
vn 0.6454 -0.2630 -0.7172
vn 0.6455 -0.2632 -0.7170
vn 0.6451 -0.2625 -0.7176
vn 0.0781 -0.4252 -0.9017
vn 0.0780 -0.4254 -0.9016
vn 0.0784 -0.4254 -0.9016
vn 0.0782 -0.4255 -0.9016
vn 0.6455 -0.2630 -0.7171
vn 0.6453 -0.2627 -0.7173
vn 0.6457 -0.2632 -0.7168
vn 0.9659 -0.0000 -0.2591
vn 0.9659 0.0002 -0.2590
vn 0.9659 0.0002 -0.2589
vn 0.9661 0.0007 -0.2583
vn 0.7816 0.5877 -0.2093
vn 0.7813 0.5878 -0.2097
vn 0.7815 0.5877 -0.2095
vn 0.7808 0.5885 -0.2098
vn 0.3467 0.6884 -0.6371
vn 0.3470 0.6881 -0.6373
vn 0.3471 0.6880 -0.6373
vn 0.3466 0.6876 -0.6380
vn 0.2621 0.1625 -0.9513
vn 0.2628 0.1627 -0.9510
vn 0.2626 0.1627 -0.9511
vn 0.2630 0.1623 -0.9511
s 0
f 4//1 2//1 5//1
f 1//2 4//2 7//2
f 5//2 2//2 28//2 62//2
f 62//3 28//3 3//3
f 1//4 6//4 27//4
f 33//5 1//5 7//5
f 27//6 6//6 36//6 8//6
f 8//7 36//7 26//7
f 33//8 47//8 11//8
f 9//9 33//9 7//9
f 11//10 47//10 10//10 35//10
f 35//11 10//11 32//11
f 9//12 44//12 13//12
f 12//13 9//13 7//13
f 13//14 44//14 45//14 14//14
f 14//15 45//15 43//15
f 12//16 53//16 17//16
f 4//17 12//17 7//17
f 17//18 53//18 16//18 18//18
f 18//19 16//19 15//19
f 108//20 138//20 125//20
f 21//21 108//21 22//21
f 125//22 138//22 133//22 124//22
f 124//23 133//23 19//23
f 21//24 20//24 23//24
f 36//25 21//25 22//25
f 23//26 20//26 117//26 24//26
f 24//27 117//27 105//27
f 36//28 6//28 38//28
f 26//29 36//29 22//29
f 38//29 6//29 32//29 37//29
f 37//30 32//30 25//30
f 26//31 2//31 8//31
f 61//32 26//32 22//32
f 8//33 2//33 4//33 27//33
f 27//34 4//34 1//34
f 61//35 123//35 29//35
f 108//36 61//36 22//36
f 29//37 123//37 126//37 30//37
f 30//38 126//38 28//38
f 93//39 118//39 107//39
f 91//40 93//40 34//40
f 107//41 118//41 119//41 106//41
f 106//42 119//42 117//42
f 91//43 87//43 31//43
f 10//44 91//44 34//44
f 31//45 87//45 88//45 94//45
f 94//43 88//43 92//43
f 10//46 47//46 51//46
f 32//47 10//47 34//47
f 51//48 47//48 43//48 50//48
f 50//49 43//49 46//49
f 32//50 6//50 35//50
f 25//51 32//51 34//51
f 35//51 6//51 1//51 11//51
f 11//52 1//52 33//52
f 25//53 20//53 37//53
f 93//13 25//13 34//13
f 37//54 20//54 21//54 38//54
f 38//55 21//55 36//55
f 49//56 101//56 39//56
f 80//57 49//57 48//57
f 39//58 101//58 81//58 89//58
f 89//59 81//59 88//59
f 80//60 74//60 41//60
f 45//61 80//61 48//61
f 41//62 74//62 40//62 42//62
f 42//63 40//63 103//63
f 45//64 44//64 57//64
f 43//65 45//65 48//65
f 57//66 44//66 15//66 56//66
f 56//67 15//67 54//67
f 43//68 47//68 14//68
f 46//69 43//69 48//69
f 14//70 47//70 33//70 13//70
f 13//71 33//71 9//71
f 46//72 87//72 50//72
f 49//73 46//73 48//73
f 50//74 87//74 91//74 51//74
f 51//75 91//75 10//75
f 75//76 144//76 78//76
f 145//70 75//70 55//70
f 78//77 144//77 52//77 77//77
f 77//78 52//78 40//78
f 145//79 139//79 148//79
f 16//80 145//80 55//80
f 148//81 139//81 152//81 147//81
f 147//82 152//82 85//82
f 16//83 53//83 64//83
f 15//84 16//84 55//84
f 64//85 53//85 3//85 63//85
f 63//86 3//86 141//86
f 15//87 44//87 18//87
f 54//88 15//88 55//88
f 18//89 44//89 9//89 17//89
f 17//90 9//90 12//90
f 54//91 74//91 56//91
f 75//92 54//92 55//92
f 56//93 74//93 80//93 57//93
f 57//94 80//94 45//94
f 140//95 58//95 143//95
f 126//96 140//96 60//96
f 143//97 58//97 59//97 142//97
f 142//98 59//98 152//98
f 126//99 123//99 128//99
f 28//100 126//100 60//100
f 128//101 123//101 19//101 127//101
f 127//102 19//102 122//102
f 28//103 2//103 30//103
f 3//104 28//104 60//104
f 30//105 2//105 26//105 29//105
f 29//106 26//106 61//106
f 3//107 53//107 62//107
f 141//108 3//108 60//108
f 62//109 53//109 12//109 5//109
f 5//110 12//110 4//110
f 141//111 139//111 63//111
f 140//112 141//112 60//112
f 63//113 139//113 145//113 64//113
f 64//114 145//114 16//114
f 83//115 65//115 151//115
f 98//116 83//116 71//116
f 151//117 65//117 66//117 67//117
f 67//118 66//118 150//118
f 98//119 97//119 69//119
f 114//120 98//120 71//120
f 69//121 97//121 79//121 84//121
f 84//122 79//122 68//122
f 114//123 70//123 100//123
f 136//124 114//124 71//124
f 100//125 70//125 90//125 99//125
f 99//126 90//126 95//126
f 136//127 109//127 116//127
f 72//128 136//128 71//128
f 116//129 109//129 110//129 115//129
f 115//130 110//130 113//130
f 72//131 129//131 137//131
f 83//132 72//132 71//132
f 137//133 129//133 130//133 73//133
f 73//134 130//134 134//134
f 40//135 74//135 77//135
f 103//136 40//136 76//136
f 77//137 74//137 54//137 78//137
f 78//138 54//138 75//138
f 103//139 101//139 42//139
f 79//140 103//140 76//140
f 42//141 101//141 49//141 41//141
f 41//142 49//142 80//142
f 79//143 97//143 104//143
f 68//144 79//144 76//144
f 104//145 97//145 95//145 82//145
f 82//146 95//146 81//146
f 68//147 65//147 84//147
f 52//148 68//148 76//148
f 84//149 65//149 83//149 69//149
f 69//150 83//150 98//150
f 52//151 144//151 149//151
f 40//152 52//152 76//152
f 149//153 144//153 85//153 86//153
f 86//154 85//154 66//154
f 88//148 87//148 89//148
f 92//155 88//155 102//155
f 89//156 87//156 46//156 39//156
f 39//157 46//157 49//157
f 92//61 118//61 94//61
f 90//158 92//158 102//158
f 94//159 118//159 93//159 31//159
f 31//160 93//160 91//160
f 90//161 70//161 96//161
f 95//162 90//162 102//162
f 96//163 70//163 113//163 121//163
f 121//49 113//49 119//49
f 95//164 97//164 99//164
f 81//164 95//164 102//164
f 99//165 97//165 98//165 100//165
f 100//166 98//166 114//166
f 81//167 101//167 82//167
f 88//168 81//168 102//168
f 82//169 101//169 103//169 104//169
f 104//170 103//170 79//170
f 117//171 20//171 106//171
f 105//164 117//164 120//164
f 106//172 20//172 25//172 107//172
f 107//173 25//173 93//173
f 105//174 138//174 24//174
f 110//175 105//175 120//175
f 24//176 138//176 108//176 23//176
f 23//177 108//177 21//177
f 110//178 109//178 111//178
f 113//179 110//179 120//179
f 111//179 109//179 134//179 112//179
f 112//180 134//180 133//180
f 113//181 70//181 115//181
f 119//182 113//182 120//182
f 115//183 70//183 114//183 116//183
f 116//184 114//184 136//184
f 119//185 118//185 121//185
f 117//185 119//185 120//185
f 121//185 118//185 92//185 96//185
f 96//186 92//186 90//186
f 19//187 123//187 124//187
f 122//188 19//188 135//188
f 124//189 123//189 61//189 125//189
f 125//190 61//190 108//190
f 122//191 58//191 127//191
f 130//25 122//25 135//25
f 127//192 58//192 140//192 128//192
f 128//193 140//193 126//193
f 130//194 129//194 131//194
f 134//195 130//195 135//195
f 131//106 129//106 150//106 132//106
f 132//196 150//196 59//196
f 134//197 109//197 73//197
f 133//198 134//198 135//198
f 73//199 109//199 136//199 137//199
f 137//200 136//200 72//200
f 133//201 138//201 112//201
f 19//202 133//202 135//202
f 112//203 138//203 105//203 111//203
f 111//204 105//204 110//204
f 152//205 139//205 142//205
f 85//206 152//206 146//206
f 142//197 139//197 141//197 143//197
f 143//207 141//207 140//207
f 85//208 144//208 147//208
f 66//209 85//209 146//209
f 147//210 144//210 75//210 148//210
f 148//211 75//211 145//211
f 66//212 65//212 86//212
f 150//213 66//213 146//213
f 86//214 65//214 68//214 149//214
f 149//215 68//215 52//215
f 150//216 129//216 67//216
f 59//217 150//217 146//217
f 67//218 129//218 72//218 151//218
f 151//219 72//219 83//219
f 59//220 58//220 132//220
f 152//221 59//221 146//221
f 132//222 58//222 122//222 131//222
f 131//223 122//223 130//223
