# Blender 4.0.1
# www.blender.org
o mesh.001
v 0.271847 0.271840 -0.271847
v -0.271847 0.500000 -0.147800
v -0.080360 0.375953 -0.271840
v 0.080360 0.271840 -0.375953
v 0.271847 0.375953 -0.080353
v -0.271847 0.271840 0.271847
v 0.271847 0.500000 0.147800
v 0.080360 0.375953 0.271840
v -0.271847 0.375953 0.080353
v 0.500000 0.271847 -0.147800
v 0.500000 0.147800 0.271847
v 0.147800 0.271847 0.500000
v 0.271847 0.271840 0.271847
v 0.147800 0.500000 -0.271847
v 0.000000 0.500000 -0.000000
v 0.375953 0.271840 0.080360
v 0.080360 0.375953 0.271847
v -0.147800 0.500000 0.271847
v -0.500000 0.271847 0.147800
v -0.271847 0.271840 -0.271847
v -0.080360 0.375953 -0.271847
v -0.271847 -0.500000 0.147800
v -0.271847 -0.271847 0.271840
v 0.080360 -0.271840 0.375953
v -0.271847 -0.080353 0.375953
v -0.271847 0.147800 0.500000
v 0.271847 0.500000 0.147800
v 0.500000 0.147800 0.271847
v 0.271847 0.271847 0.271840
v 0.000000 0.000000 0.500000
v -0.080360 0.271840 0.375953
v 0.271847 0.080353 0.375953
v 0.271847 -0.147800 0.500000
v 0.500000 -0.271847 0.147800
v 0.147800 -0.500000 0.271847
v 0.271847 -0.271847 0.271840
v 0.147800 0.271847 0.500000
v 0.271840 0.080360 0.375953
v 0.080360 -0.271847 0.375953
v -0.147800 -0.271847 0.500000
v -0.500000 -0.147800 0.271847
v -0.500000 0.271847 0.147800
v -0.147800 0.500000 0.271847
v -0.271847 0.271847 0.271840
v -0.375953 0.080360 0.271840
v -0.080353 0.271847 0.375953
v 0.147800 -0.271847 -0.500000
v -0.271847 -0.147800 -0.500000
v -0.500000 -0.271847 -0.147800
v -0.271847 -0.271840 -0.271847
v 0.080360 -0.375953 -0.271840
v -0.080360 -0.271840 -0.375953
v -0.271847 -0.375953 -0.080353
v 0.271847 -0.147800 0.500000
v 0.500000 -0.271847 0.147800
v 0.271847 -0.271840 0.271847
v -0.271847 -0.500000 0.147800
v -0.080360 -0.375953 0.271840
v 0.271847 -0.375953 0.080353
v 0.271847 -0.500000 -0.147800
v 0.500000 -0.271847 0.147800
v 0.500000 -0.147800 -0.271847
v 0.271847 -0.271840 -0.271847
v 0.271840 -0.375953 0.080360
v 0.375953 -0.271840 -0.080360
v 0.080360 -0.375953 -0.271847
v -0.147800 -0.500000 -0.271847
v -0.500000 -0.147800 0.271847
v -0.147800 -0.271847 0.500000
v -0.271847 -0.271840 0.271847
v 0.000000 -0.500000 0.000000
v -0.271840 -0.375953 -0.080360
v -0.375953 -0.271840 0.080360
v -0.080353 -0.375953 0.271847
v 0.147800 -0.500000 0.271847
v 0.147800 0.500000 -0.271847
v -0.271847 0.500000 -0.147800
v -0.500000 0.147800 -0.271847
v -0.271847 0.271847 -0.271840
v 0.000000 -0.000000 -0.500000
v -0.271847 0.080353 -0.375953
v -0.147800 -0.500000 -0.271847
v 0.271847 -0.500000 -0.147800
v 0.500000 -0.147800 -0.271847
v 0.271847 -0.271847 -0.271840
v -0.271847 -0.147800 -0.500000
v 0.000000 -0.000000 -0.500000
v -0.080360 -0.271840 -0.375953
v 0.080360 -0.375953 -0.271840
v 0.271847 -0.080360 -0.375953
v 0.271847 0.147800 -0.500000
v 0.500000 0.271847 -0.147800
v 0.271847 0.271847 -0.271840
v 0.271840 -0.080360 -0.375953
v 0.375953 0.080360 -0.271840
v 0.080360 0.271847 -0.375953
v -0.147800 0.271847 -0.500000
v -0.147800 -0.500000 -0.271847
v -0.271847 -0.271847 -0.271840
v -0.147800 0.271847 -0.500000
v -0.271840 0.080360 -0.375953
v -0.375953 -0.080360 -0.271840
v -0.080353 -0.271847 -0.375953
v -0.147800 0.500000 0.271847
v -0.271840 0.271847 0.271847
v -0.500000 0.000000 0.000000
v -0.375953 0.271840 -0.080360
v -0.271840 0.375953 0.080360
v -0.375953 0.080353 0.271847
v -0.500000 -0.147800 0.271847
v -0.271847 -0.500000 0.147800
v -0.147800 -0.500000 -0.271847
v -0.271840 -0.271847 -0.271847
v -0.500000 -0.147800 0.271847
v -0.500000 0.000000 0.000000
v -0.375953 -0.271840 0.080360
v -0.271840 -0.375953 -0.080360
v -0.375953 -0.080353 -0.271847
v -0.500000 0.147800 -0.271847
v -0.271847 -0.147800 -0.500000
v -0.147800 0.271847 -0.500000
v -0.271847 0.500000 -0.147800
v -0.271840 0.271847 -0.271847
v -0.271840 0.080360 -0.375953
v -0.375953 0.271847 -0.080360
v -0.500000 0.271847 0.147800
v -0.271847 0.147800 0.500000
v -0.147800 -0.271847 0.500000
v -0.271840 -0.271847 0.271847
v -0.271840 -0.080360 0.375953
v -0.375953 -0.271847 0.080360
v -0.500000 -0.271847 -0.147800
v 0.147800 0.500000 -0.271847
v 0.271847 0.147800 -0.500000
v 0.271840 0.271847 -0.271847
v 0.500000 0.000000 0.000000
v 0.375953 0.271840 0.080360
v 0.271840 0.375953 -0.080360
v 0.375953 0.080353 -0.271847
v 0.500000 -0.147800 -0.271847
v 0.271847 -0.500000 -0.147800
v 0.147800 -0.500000 0.271847
v 0.271847 -0.147800 0.500000
v 0.271840 -0.271847 0.271847
v 0.500000 -0.147800 -0.271847
v 0.500000 0.000000 0.000000
v 0.375953 -0.271840 -0.080360
v 0.271840 -0.375953 0.080360
v 0.375953 -0.080360 0.271847
v 0.147800 0.271847 0.500000
v 0.271847 0.500000 0.147800
v 0.271840 0.271847 0.271847
v 0.500000 0.000000 0.000000
v 0.375953 -0.080360 0.271840
v 0.375953 0.271847 0.080353
v 0.500000 0.271847 -0.147800
v 0.271847 0.147800 -0.500000
v 0.147800 -0.271847 -0.500000
v 0.271847 -0.500000 -0.147800
v 0.271840 -0.271847 -0.271847
v 0.375953 0.080360 -0.271847
v 0.271840 -0.080360 -0.375953
v 0.375953 -0.271847 -0.080360
v 0.500000 -0.271847 0.147800
vn 0.2513 0.8504 -0.4623
vn 0.2514 0.8503 -0.4623
vn -0.2513 -0.4623 0.8504
vn -0.2514 -0.4623 0.8503
vn 0.4623 -0.8504 -0.2513
vn 0.4623 -0.8503 -0.2514
vn -0.4623 -0.2513 -0.8504
vn -0.4623 -0.2514 -0.8503
vn -0.8504 0.4623 0.2513
vn -0.8503 0.4623 0.2514
vn 0.8504 0.2513 0.4623
vn 0.8503 0.2514 0.4623
vn -0.2513 0.8504 0.4623
vn -0.2514 0.8503 0.4623
vn 0.4623 -0.2513 0.8504
vn 0.4623 -0.2514 0.8503
vn -0.4623 -0.8504 0.2513
vn -0.4623 -0.8503 0.2514
vn 0.2513 -0.4623 -0.8504
vn 0.2514 -0.4623 -0.8503
vn -0.8504 0.2513 -0.4623
vn -0.8503 0.2514 -0.4623
vn 0.8504 0.4623 -0.2513
vn 0.8503 0.4623 -0.2514
vn 0.4623 0.8504 0.2513
vn 0.4623 0.8503 0.2514
vn -0.4623 0.2513 0.8504
vn -0.4623 0.2514 0.8503
vn 0.2513 -0.8504 0.4623
vn 0.2514 -0.8503 0.4623
vn -0.2513 0.4623 -0.8504
vn -0.2514 0.4623 -0.8503
vn -0.8504 -0.4623 -0.2513
vn -0.8503 -0.4623 -0.2514
vn 0.8504 -0.2513 -0.4623
vn 0.8503 -0.2514 -0.4623
vn -0.4623 0.8504 -0.2513
vn -0.4623 0.8503 -0.2514
vn 0.2513 0.4623 0.8504
vn 0.2514 0.4623 0.8503
vn -0.2513 -0.8504 -0.4623
vn -0.2514 -0.8503 -0.4623
vn 0.4623 0.2513 -0.8504
vn 0.4623 0.2514 -0.8503
vn -0.8504 -0.2513 0.4623
vn -0.8503 -0.2514 0.4623
vn 0.8504 -0.4623 0.2513
vn 0.8503 -0.4623 0.2514
s 0
f 10//1 91//1 1//1
f 5//2 15//2 7//2
f 4//2 100//2 2//2 15//2 3//2
f 68//3 22//3 23//3
f 25//4 30//4 26//4
f 58//4 35//4 33//4 30//4 24//4
f 47//5 62//5 63//5
f 66//6 71//6 67//6
f 65//6 61//6 75//6 71//6 64//6
f 98//7 132//7 99//7
f 103//8 80//8 158//8
f 102//8 78//8 100//8 80//8 101//8
f 127//9 104//9 105//9
f 109//10 106//10 110//10
f 108//10 122//10 78//10 106//10 107//10
f 151//11 150//11 152//11
f 155//12 153//12 156//12
f 38//12 143//12 164//12 153//12 154//12
f 19//13 127//13 6//13
f 9//14 15//14 2//14
f 31//14 12//14 7//14 15//14 8//14
f 35//15 34//15 36//15
f 39//16 30//16 40//16
f 154//16 28//16 37//16 30//16 38//16
f 69//17 68//17 70//17
f 74//18 71//18 75//18
f 73//18 49//18 67//18 71//18 72//18
f 84//19 83//19 85//19
f 90//20 87//20 91//20
f 89//20 82//20 86//20 87//20 88//20
f 122//21 121//21 123//21
f 125//22 106//22 126//22
f 124//22 120//22 132//22 106//22 102//22
f 134//23 133//23 135//23
f 139//24 136//24 140//24
f 138//24 7//24 28//24 136//24 137//24
f 12//25 11//25 13//25
f 17//26 15//26 18//26
f 16//26 10//26 14//26 15//26 138//26
f 43//27 42//27 44//27
f 46//28 30//28 37//28
f 45//28 41//28 40//28 30//28 130//28
f 55//29 54//29 56//29
f 59//30 71//30 60//30
f 24//30 69//30 57//30 71//30 58//30
f 78//31 77//31 79//31
f 81//32 80//32 48//32
f 3//32 76//32 134//32 80//32 4//32
f 86//33 112//33 113//33
f 118//34 115//34 119//34
f 117//34 111//34 114//34 115//34 116//34
f 159//35 158//35 160//35
f 163//36 146//36 164//36
f 162//36 157//36 10//36 146//36 161//36
f 100//37 119//37 20//37
f 21//38 15//38 14//38
f 107//38 19//38 18//38 15//38 108//38
f 28//39 27//39 29//39
f 32//40 30//40 33//40
f 8//40 43//40 127//40 30//40 31//40
f 49//41 48//41 50//41
f 53//42 71//42 57//42
f 52//42 47//42 159//42 71//42 51//42
f 76//43 92//43 93//43
f 96//44 80//44 97//44
f 95//44 84//44 47//44 80//44 94//44
f 57//45 128//45 129//45
f 131//46 106//46 132//46
f 130//46 127//46 19//46 106//46 45//46
f 143//47 142//47 144//47
f 149//48 146//48 11//48
f 148//48 141//48 145//48 146//48 147//48
