# Blender 4.0.1
# www.blender.org
o Rhombic_hexecontahedron
v 0.685389 -0.000001 0.261810
v 0.423590 -0.161801 0.261810
v 0.261790 -0.161801 0.000010
v 0.523589 -0.000001 0.000010
v -0.161810 -0.000001 0.261810
v -0.685409 -0.000001 0.261810
v -0.423810 -0.161801 0.261810
v -0.423810 0.161799 0.261810
v 0.161790 -0.000001 0.261810
v 0.423590 0.161799 0.261810
v 0.261790 0.161799 0.000010
v 0.261790 0.423599 0.161810
v 0.423590 0.423599 0.423810
v -0.000010 0.261799 0.161810
v 0.161790 0.261799 0.423810
v -0.161810 0.261799 0.423810
v -0.000010 0.261799 0.685409
v -0.161810 0.261799 -0.423590
v 0.161790 0.261799 -0.423590
v -0.000010 0.261799 -0.685389
v -0.000010 0.261799 -0.161790
v -0.000010 -0.000001 0.523610
v -0.423810 0.423599 0.423810
v -0.261810 0.161799 0.000010
v -0.261810 0.423599 0.161810
v -0.261810 0.685399 0.000010
v -0.000010 0.523599 0.000010
v -0.261810 0.423599 -0.161790
v -0.423810 0.423599 -0.423590
v 0.161790 -0.000001 -0.261790
v -0.000010 -0.000001 -0.523589
v 0.161790 -0.261800 -0.423590
v -0.000010 -0.261800 -0.685389
v 0.161790 -0.261800 0.423810
v -0.000010 -0.261800 0.685409
v -0.161810 -0.261800 0.423810
v -0.000010 -0.261800 0.161810
v -0.000010 -0.261800 -0.161790
v -0.161810 -0.261800 -0.423590
v 0.423590 -0.423800 -0.423590
v 0.261790 -0.423800 -0.161790
v 0.423590 -0.161801 -0.261790
v 0.685389 -0.000001 -0.261790
v 0.423590 0.161799 -0.261790
v -0.161810 -0.000001 -0.261790
v -0.423810 -0.161801 -0.261790
v -0.685409 -0.000001 -0.261790
v -0.423810 0.161799 -0.261790
v 0.261790 0.423599 -0.161790
v 0.423590 0.423599 -0.423590
v 0.261790 -0.423800 0.161810
v 0.261790 -0.685400 0.000010
v 0.261790 0.685399 0.000010
v 0.423590 -0.423800 0.423810
v -0.423810 -0.423800 0.423810
v -0.261810 -0.161801 0.000010
v -0.261810 -0.423800 0.161810
v -0.523610 -0.000001 0.000010
v -0.423810 -0.423800 -0.423590
v -0.261810 -0.423800 -0.161790
v -0.261810 -0.685400 0.000010
v -0.000010 -0.523600 0.000010
vn 0.5000 -0.8090 -0.3090
vn -0.0000 -0.0000 1.0000
vn 0.5000 0.8090 -0.3090
vn 0.8091 0.3092 -0.4997
vn 0.8090 0.3090 -0.5000
vn -0.5000 0.8091 0.3088
vn -0.0000 1.0000 -0.0000
vn -0.8088 -0.3092 0.5002
vn -0.8089 -0.3094 0.4999
vn -0.3090 -0.5004 0.8087
vn -0.8086 0.3096 -0.5003
vn -0.8089 0.3091 -0.5002
vn 0.5000 0.8090 0.3091
vn 0.4998 0.8093 0.3086
vn 0.3090 0.5000 0.8090
vn 0.3090 0.5000 -0.8090
vn 0.4997 0.8092 -0.3089
vn 0.4999 0.8089 -0.3094
vn 0.8090 -0.3090 -0.5000
vn -0.0000 -1.0000 -0.0000
vn -0.5004 -0.8087 -0.3093
vn 0.8091 -0.3088 0.5000
vn 0.3089 0.4997 -0.8092
vn 0.3094 0.4999 -0.8089
vn -0.0000 -0.0000 -1.0000
vn 0.5000 0.8090 0.3090
vn 0.8090 0.3090 0.5000
vn 0.3090 -0.5000 -0.8090
vn -0.5000 0.8090 -0.3090
vn 1.0000 -0.0000 -0.0000
vn -0.3090 0.5000 -0.8090
vn -0.3090 0.5000 0.8090
vn 0.5000 -0.8090 0.3090
vn 0.8090 -0.3091 -0.5000
vn 0.8093 -0.3086 -0.4998
vn -0.5004 -0.8087 0.3090
vn 0.3096 0.5003 0.8086
vn 0.3091 0.5002 0.8089
vn 0.8088 0.3092 0.5002
vn 0.8089 0.3094 0.4999
vn -0.8087 0.3095 0.5002
vn -0.8090 0.3090 0.5000
vn -0.3092 0.5001 0.8089
vn -0.3091 0.5004 0.8087
vn -0.8087 -0.3091 -0.5004
vn -0.8089 -0.3092 -0.5001
vn -0.5002 -0.8087 -0.3095
vn -0.5000 -0.8090 -0.3090
vn -0.5002 0.8087 -0.3095
vn -0.5002 0.8087 0.3095
vn -0.5000 0.8090 0.3090
vn -0.8087 0.3093 0.5004
vn -0.3088 -0.5000 -0.8091
vn -0.3090 0.4997 -0.8092
vn -0.3088 0.5000 -0.8091
vn -0.8087 -0.3091 0.5004
vn -1.0000 -0.0000 -0.0000
vn 0.3094 -0.4999 -0.8089
vn 0.3092 -0.5002 -0.8088
vn -0.3095 -0.5002 -0.8087
vn -0.3090 -0.5000 -0.8090
vn -0.3090 -0.5000 0.8090
vn -0.3095 -0.5002 0.8087
vn 0.3092 -0.5002 0.8088
vn 0.3094 -0.4999 0.8089
vn 0.5003 -0.8086 -0.3096
vn 0.5002 -0.8089 -0.3091
vn -0.5000 -0.8090 0.3090
vn -0.5002 -0.8087 0.3095
vn 0.5002 -0.8089 0.3089
vn 0.5004 -0.8086 0.3094
vn -0.8090 0.3090 -0.5000
vn -0.8090 -0.3090 -0.5000
vn 0.8087 -0.3095 0.5002
vn 0.8090 -0.3090 0.5000
vn 0.3093 -0.5004 0.8087
s 0
f 1//1 2//1 3//1
f 3//1 4//1 1//1
f 5//2 6//2 7//2
f 6//2 5//2 8//2
f 1//2 9//2 2//2
f 9//2 1//2 10//2
f 11//3 1//3 4//3
f 1//3 11//3 10//3
f 12//4 13//4 10//4
f 10//5 11//5 12//5
f 14//6 13//6 12//6
f 13//6 14//6 15//6
f 15//7 16//7 17//7
f 18//7 19//7 20//7
f 19//7 18//7 21//7
f 16//7 15//7 14//7
f 16//8 22//8 17//8
f 22//9 16//9 5//9
f 23//10 5//10 16//10
f 5//10 23//10 8//10
f 24//11 8//11 23//11
f 23//12 25//12 24//12
f 23//13 14//13 25//13
f 14//14 23//14 16//14
f 26//15 25//15 14//15
f 14//15 27//15 26//15
f 21//16 26//16 27//16
f 26//16 21//16 28//16
f 29//17 21//17 18//17
f 21//18 29//18 28//18
f 30//19 20//19 19//19
f 20//19 30//19 31//19
f 32//5 33//5 31//5
f 31//5 30//5 32//5
f 34//20 35//20 36//20
f 36//20 37//20 34//20
f 32//20 38//20 39//20
f 39//20 33//20 32//20
f 40//21 38//21 32//21
f 38//21 40//21 41//21
f 40//22 3//22 41//22
f 3//22 40//22 42//22
f 40//23 30//23 42//23
f 30//24 40//24 32//24
f 43//25 42//25 30//25
f 30//25 44//25 43//25
f 45//25 46//25 47//25
f 47//25 48//25 45//25
f 11//26 43//26 44//26
f 43//26 11//26 4//26
f 44//27 49//27 11//27
f 49//27 44//27 50//27
f 44//28 19//28 50//28
f 50//29 21//29 49//29
f 3//30 51//30 52//30
f 53//30 12//30 11//30
f 52//30 41//30 3//30
f 11//30 49//30 53//30
f 21//31 27//31 49//31
f 53//31 49//31 27//31
f 14//32 12//32 27//32
f 53//32 27//32 12//32
f 43//33 4//33 3//33
f 3//33 42//33 43//33
f 54//34 3//34 2//34
f 3//35 54//35 51//35
f 54//36 37//36 51//36
f 37//36 54//36 34//36
f 9//37 34//37 54//37
f 54//38 2//38 9//38
f 35//39 34//39 22//39
f 9//40 22//40 34//40
f 5//41 36//41 35//41
f 35//42 22//42 5//42
f 55//43 36//43 7//43
f 5//44 7//44 36//44
f 56//45 57//45 7//45
f 55//46 7//46 57//46
f 56//47 7//47 6//47
f 6//48 58//48 56//48
f 6//29 24//29 58//29
f 24//49 6//49 8//49
f 47//50 24//50 48//50
f 24//51 47//51 58//51
f 24//52 29//52 48//52
f 29//53 45//53 48//53
f 59//54 46//54 39//54
f 45//55 39//55 46//55
f 60//56 46//56 59//56
f 46//56 60//56 56//56
f 26//57 24//57 25//57
f 56//57 61//57 57//57
f 24//57 26//57 28//57
f 61//57 56//57 60//57
f 38//58 62//58 60//58
f 61//59 60//59 62//59
f 52//60 38//60 41//60
f 38//61 52//61 62//61
f 37//62 62//62 52//62
f 52//63 51//63 37//63
f 61//64 62//64 57//64
f 37//65 57//65 62//65
f 38//66 60//66 59//66
f 59//67 39//67 38//67
f 56//68 58//68 47//68
f 47//69 46//69 56//69
f 37//70 36//70 55//70
f 55//71 57//71 37//71
f 33//72 39//72 45//72
f 45//72 31//72 33//72
f 20//73 31//73 18//73
f 45//73 18//73 31//73
f 19//28 44//28 30//28
f 21//29 50//29 19//29
f 45//53 29//53 18//53
f 29//52 24//52 28//52
f 17//74 9//74 15//74
f 9//75 17//75 22//75
f 15//76 10//76 13//76
f 10//76 15//76 9//76
