# Blender 4.0.1
# www.blender.org
o Small_triambic_icosahedron
v 7.236068 -0.000000 -2.763932
v 3.819660 -0.000000 -6.180340
v 6.180340 3.819660 -0.000000
v 7.236068 0.000000 2.763932
v 3.819660 0.000000 6.180340
v 6.180340 -3.819660 0.000000
v -7.236068 -0.000000 -2.763932
v -3.819660 -0.000000 -6.180340
v -6.180340 -3.819660 0.000000
v -7.236068 0.000000 2.763932
v -3.819660 0.000000 6.180340
v -6.180340 3.819660 -0.000000
v 2.763932 7.236068 -0.000002
v 0.000000 6.180338 -3.819660
v 2.763932 -7.236068 0.000002
v 0.000000 -6.180338 3.819660
v -2.763932 -7.236068 0.000002
v 0.000000 -6.180340 -3.819659
v -2.763932 7.236068 -0.000002
v 0.000000 6.180340 3.819659
v 0.000000 2.763932 -7.236068
v 0.000000 -2.763932 7.236068
v 0.000000 -2.763932 -7.236068
v 0.000000 2.763932 7.236068
v 4.472136 4.472136 -4.472136
v 4.472136 -4.472136 4.472136
v -4.472136 -4.472136 -4.472136
v -4.472136 4.472136 4.472136
v 4.472136 4.472136 4.472136
v 4.472136 -4.472136 -4.472136
v -4.472136 -4.472136 4.472136
v -4.472136 4.472136 -4.472136
vn 0.5774 0.5774 -0.5774
vn 0.5774 -0.5774 0.5774
vn -0.5774 -0.5774 -0.5774
vn -0.5774 0.5774 0.5774
vn 0.3568 0.9342 -0.0000
vn 0.3568 -0.9342 -0.0000
vn -0.3568 -0.9342 -0.0000
vn -0.3568 0.9342 -0.0000
vn -0.0000 0.3568 -0.9342
vn -0.0000 -0.3568 0.9342
vn -0.0000 -0.3568 -0.9342
vn -0.0000 0.3568 0.9342
vn 0.9342 -0.0000 -0.3568
vn 0.9342 -0.0000 0.3568
vn -0.9342 -0.0000 -0.3568
vn -0.9342 -0.0000 0.3568
vn 0.5774 0.5774 0.5774
vn 0.5774 -0.5774 -0.5774
vn -0.5774 -0.5774 0.5774
vn -0.5774 0.5774 -0.5774
s 0
f 1//1 2//1 3//1
f 4//2 5//2 6//2
f 7//3 8//3 9//3
f 10//4 11//4 12//4
f 13//1 3//1 14//1
f 15//2 6//2 16//2
f 17//3 9//3 18//3
f 19//4 12//4 20//4
f 21//1 14//1 2//1
f 22//2 16//2 5//2
f 23//3 18//3 8//3
f 24//4 20//4 11//4
f 25//5 14//5 3//5
f 26//6 16//6 6//6
f 27//7 18//7 9//7
f 28//8 20//8 12//8
f 25//9 2//9 14//9
f 26//10 5//10 16//10
f 27//11 8//11 18//11
f 28//12 11//12 20//12
f 25//13 3//13 2//13
f 26//14 6//14 5//14
f 27//15 9//15 8//15
f 28//16 12//16 11//16
f 13//17 20//17 3//17
f 15//18 18//18 6//18
f 17//19 16//19 9//19
f 19//20 14//20 12//20
f 29//5 3//5 20//5
f 30//6 6//6 18//6
f 31//7 9//7 16//7
f 32//8 12//8 14//8
f 32//9 14//9 8//9
f 31//10 16//10 11//10
f 30//11 18//11 2//11
f 29//12 20//12 5//12
f 30//13 2//13 6//13
f 29//14 5//14 3//14
f 32//15 8//15 12//15
f 31//16 11//16 9//16
f 4//17 3//17 5//17
f 1//18 6//18 2//18
f 10//19 9//19 11//19
f 7//20 12//20 8//20
f 19//5 20//5 14//5
f 17//6 18//6 16//6
f 15//7 16//7 18//7
f 13//8 14//8 20//8
f 23//9 8//9 2//9
f 24//10 11//10 5//10
f 21//11 2//11 8//11
f 22//12 5//12 11//12
f 4//13 6//13 3//13
f 1//14 3//14 6//14
f 10//15 12//15 9//15
f 7//16 9//16 12//16
f 24//17 5//17 20//17
f 23//18 2//18 18//18
f 22//19 11//19 16//19
f 21//20 8//20 14//20
