# Blender 4.0.1
# www.blender.org
o Solid
v 0.575017 1.421523 -0.417774
v 0.575017 1.421523 0.417775
v -0.135743 1.860797 -0.417775
v -0.575017 1.150037 -0.417774
v -0.135743 1.860797 0.417774
v -0.575017 1.150037 0.417775
v 0.219637 1.150037 -0.675973
v -0.219637 1.421523 -0.675973
v 0.219637 1.150037 0.675973
v -0.219637 1.421523 0.675973
v 0.710760 1.150036 0.000000
v -0.439274 1.860798 0.000000
v -0.710760 1.421524 0.000000
v 0.355381 1.860797 -0.258199
v 0.355381 1.860797 0.258199
v 0.219637 1.641160 -0.675973
v 0.575017 0.930399 -0.417775
v 0.710761 1.641160 0.000000
v -0.219637 0.930400 -0.675973
v 0.575017 0.930399 0.417775
v 0.000000 2.080435 0.000000
v -0.575017 1.641161 -0.417774
v 0.219637 1.641160 0.675973
v -0.710761 0.930400 0.000000
v -0.575017 1.641161 0.417775
v -0.219637 0.930400 0.675973
vn 0.6882 0.5257 -0.5000
vn 0.9511 -0.0000 -0.3090
vn 0.5878 -0.0000 -0.8090
vn 0.6882 0.5257 0.5000
vn 0.5878 -0.0000 0.8090
vn 0.9511 -0.0000 0.3090
vn -0.2629 0.5257 -0.8090
vn -0.4253 0.8507 -0.3090
vn 0.1625 0.8507 -0.5000
vn -0.9511 -0.0000 -0.3090
vn -0.5878 -0.0000 -0.8090
vn -0.4253 0.8507 0.3090
vn -0.2629 0.5257 0.8090
vn 0.1625 0.8507 0.5000
vn -0.5878 -0.0000 0.8090
vn -0.9511 -0.0000 0.3090
vn -0.0000 -0.0000 -1.0000
vn -0.0000 -0.0000 1.0000
vn -0.8507 0.5257 -0.0000
vn 0.5257 0.8507 -0.0000
s 0
f 1//1 16//1 14//1 18//1
f 1//2 18//2 11//2 17//2
f 1//3 17//3 7//3 16//3
f 2//4 18//4 15//4 23//4
f 2//5 23//5 9//5 20//5
f 2//6 20//6 11//6 18//6
f 3//7 16//7 8//7 22//7
f 3//8 22//8 12//8 21//8
f 3//9 21//9 14//9 16//9
f 4//10 24//10 13//10 22//10
f 4//11 22//11 8//11 19//11
f 5//12 21//12 12//12 25//12
f 5//13 25//13 10//13 23//13
f 5//14 23//14 15//14 21//14
f 6//15 26//15 10//15 25//15
f 6//16 25//16 13//16 24//16
f 7//17 19//17 8//17 16//17
f 9//18 23//18 10//18 26//18
f 12//19 22//19 13//19 25//19
f 14//20 21//20 15//20 18//20
o Solid.001
v 1.725052 0.710761 -0.417775
v 1.285777 0.000000 -0.417775
v 1.725052 0.710761 0.417774
v 1.285777 0.000001 0.417774
v 1.014292 1.150035 -0.417775
v 1.014292 1.150035 0.417774
v 1.369672 0.439275 -0.675974
v 0.930398 0.710761 -0.675974
v 1.369672 0.439275 0.675973
v 0.930398 0.710761 0.675973
v 1.860795 0.439274 -0.000000
v 1.589308 0.000000 -0.000000
v 0.710761 1.150036 -0.000000
v 1.505415 1.150035 -0.258199
v 1.505415 1.150035 0.258198
v 1.369672 0.930398 -0.675974
v 1.725052 0.219637 -0.417775
v 1.860795 0.930398 -0.000000
v 0.930397 0.219638 -0.675974
v 1.725052 0.219637 0.417774
v 1.150035 1.369673 -0.000000
v 0.575018 0.930399 -0.417775
v 1.369672 0.930398 0.675973
v 1.150034 -0.219636 -0.000000
v 0.575018 0.930399 0.417774
v 0.930397 0.219638 0.675973
v 0.135743 0.710761 -1.769722
v -0.000001 0.000000 -1.351947
v 0.930397 0.710761 -1.511523
v 0.794654 0.000001 -1.093748
v -0.083894 1.150035 -1.093748
v 0.710760 1.150035 -0.835550
v -0.219638 0.439275 -1.511523
v -0.355381 0.710761 -1.093748
v 1.066140 0.439275 -1.093748
v 0.930397 0.710761 -0.675974
v 0.575017 0.439274 -1.769722
v 0.491123 0.000000 -1.511522
v 0.219637 1.150036 -0.675974
v 0.219637 1.150035 -1.511523
v 0.710760 1.150035 -1.351947
v -0.219637 0.930398 -1.511523
v 0.135743 0.219637 -1.769721
v 0.575017 0.930398 -1.769722
v -0.355381 0.219638 -1.093748
v 0.930397 0.219637 -1.511523
v 0.355380 1.369673 -1.093748
v -0.219637 0.930399 -0.675974
v 1.066140 0.930398 -1.093748
v 0.355380 -0.219636 -1.093748
v 0.575017 0.930399 -0.417775
v 0.930397 0.219638 -0.675973
v -1.641159 0.710761 -0.675973
v -1.285778 0.000000 -0.417774
v -1.150035 0.710761 -1.351946
v -0.794654 0.000001 -1.093747
v -1.066141 1.150035 -0.258199
v -0.575018 1.150035 -0.934172
v -1.505415 0.439275 -0.258198
v -1.150035 0.710761 0.000000
v -0.710761 0.439275 -1.351947
v -0.355381 0.710761 -1.093748
v -1.505415 0.439274 -1.093748
v -1.285778 0.000000 -0.934172
v -0.575018 1.150036 -0.417774
v -1.369673 1.150035 -0.675973
v -1.066141 1.150035 -1.093748
v -1.505415 0.930398 -0.258199
v -1.641158 0.219637 -0.675973
v -1.505416 0.930398 -1.093748
v -1.150035 0.219638 0.000001
v -1.150035 0.219637 -1.351946
v -0.930398 1.369673 -0.675973
v -0.710761 0.930399 0.000000
v -0.710761 0.930398 -1.351947
v -0.930398 -0.219636 -0.675973
v -0.219638 0.930399 -0.675973
v -0.355380 0.219638 -1.093747
v -1.150035 0.710761 1.351947
v -0.794654 0.000000 1.093748
v -1.641158 0.710761 0.675974
v -1.285777 0.000001 0.417775
v -0.575017 1.150035 0.934173
v -1.066141 1.150035 0.258200
v -0.710760 0.439275 1.351947
v -0.355380 0.710761 1.093748
v -1.505415 0.439275 0.258199
v -1.150035 0.710761 0.000000
v -1.505415 0.439274 1.093748
v -1.285777 0.000000 0.934173
v -0.575017 1.150036 0.417775
v -1.066141 1.150035 1.093749
v -1.369672 1.150035 0.675974
v -0.710761 0.930398 1.351948
v -1.150034 0.219637 1.351947
v -1.505415 0.930398 1.093749
v -0.355380 0.219638 1.093748
v -1.641158 0.219637 0.675974
v -0.930398 1.369673 0.675974
v -0.219637 0.930399 0.675974
v -1.505415 0.930398 0.258200
v -0.930397 -0.219636 0.675974
v -0.710760 0.930399 0.000001
v -1.150034 0.219638 0.000000
v 0.930398 0.710761 1.511523
v 0.794655 0.000000 1.093747
v 0.135744 0.710761 1.769722
v 0.000000 0.000001 1.351946
v 0.710761 1.150035 0.835549
v -0.083893 1.150035 1.093748
v 1.066141 0.439275 1.093748
v 0.930398 0.710761 0.675973
v -0.219637 0.439275 1.511523
v -0.355380 0.710761 1.093748
v 0.575018 0.439274 1.769721
v 0.491124 0.000000 1.511522
v 0.219638 1.150036 0.675973
v 0.710761 1.150035 1.351947
v 0.219638 1.150035 1.511523
v 1.066141 0.930398 1.093748
v 0.930398 0.219637 1.511522
v 0.575018 0.930398 1.769722
v 0.930398 0.219638 0.675973
v 0.135744 0.219637 1.769721
v 0.355381 1.369673 1.093748
v 0.575018 0.930399 0.417775
v -0.219636 0.930398 1.511523
v 0.355381 -0.219636 1.093747
v -0.219637 0.930399 0.675974
v -0.355380 0.219638 1.093748
vn 0.6882 0.5257 -0.5000
vn 0.9511 -0.0000 -0.3090
vn 0.5878 -0.0000 -0.8090
vn 0.4253 -0.8507 -0.3090
vn 0.2629 -0.5257 -0.8090
vn 0.6882 0.5257 0.5000
vn 0.5878 -0.0000 0.8090
vn 0.9511 -0.0000 0.3090
vn 0.2629 -0.5257 0.8090
vn 0.4253 -0.8507 0.3090
vn -0.2629 0.5257 -0.8090
vn -0.4253 0.8507 -0.3090
vn 0.1625 0.8507 -0.5000
vn -0.4253 0.8507 0.3090
vn -0.2629 0.5257 0.8090
vn 0.1625 0.8507 0.5000
vn -0.0000 -0.0000 -1.0000
vn -0.0000 -0.0000 1.0000
vn 0.8507 -0.5257 -0.0000
vn 0.5257 0.8507 -0.0000
vn -0.5878 -0.0000 -0.8090
vn -0.1625 -0.8507 -0.5000
vn -0.6882 -0.5257 -0.5000
vn -0.8507 0.5257 -0.0000
vn -0.9511 -0.0000 -0.3090
vn -0.9511 -0.0000 0.3090
vn -0.5257 -0.8507 -0.0000
vn -0.6882 -0.5257 0.5000
vn -0.5878 -0.0000 0.8090
vn -0.1625 -0.8507 0.5000
s 0
f 27//21 42//21 40//21 44//21
f 27//22 44//22 37//22 43//22
f 27//23 43//23 33//23 42//23
f 28//24 43//24 38//24 50//24
f 28//25 45//25 33//25 43//25
f 29//26 44//26 41//26 49//26
f 29//27 49//27 35//27 46//27
f 29//28 46//28 37//28 44//28
f 30//29 46//29 35//29 52//29
f 30//30 50//30 38//30 46//30
f 31//31 42//31 34//31 48//31
f 31//32 48//32 39//32 47//32
f 31//33 47//33 40//33 42//33
f 32//34 47//34 39//34 51//34
f 32//35 51//35 36//35 49//35
f 32//36 49//36 41//36 47//36
f 33//37 45//37 34//37 42//37
f 35//38 49//38 36//38 52//38
f 37//39 46//39 38//39 43//39
f 40//40 47//40 41//40 44//40
f 53//31 68//31 66//31 70//31
f 53//37 70//37 63//37 69//37
f 53//41 69//41 59//41 68//41
f 54//42 69//42 64//42 76//42
f 54//43 71//43 59//43 69//43
f 55//21 70//21 67//21 75//21
f 55//22 75//22 61//22 72//22
f 55//23 72//23 63//23 70//23
f 56//39 72//39 61//39 78//39
f 56//24 76//24 64//24 72//24
f 57//44 68//44 60//44 74//44
f 57//34 74//34 65//34 73//34
f 57//32 73//32 66//32 68//32
f 58//36 73//36 65//36 77//36
f 58//26 77//26 62//26 75//26
f 58//40 75//40 67//40 73//40
f 59//45 71//45 60//45 68//45
f 61//28 75//28 62//28 78//28
f 63//25 72//25 64//25 69//25
f 66//33 73//33 67//33 70//33
f 79//44 94//44 92//44 96//44
f 79//45 96//45 89//45 95//45
f 79//46 95//46 85//46 94//46
f 80//47 95//47 90//47 102//47
f 80//48 97//48 85//48 95//48
f 81//31 96//31 93//31 101//31
f 81//37 101//37 87//37 98//37
f 81//41 98//41 89//41 96//41
f 82//25 98//25 87//25 104//25
f 82//42 102//42 90//42 98//42
f 83//35 94//35 86//35 100//35
f 83//36 100//36 91//36 99//36
f 83//34 99//34 92//34 94//34
f 84//40 99//40 91//40 103//40
f 84//21 103//21 88//21 101//21
f 84//33 101//33 93//33 99//33
f 85//49 97//49 86//49 94//49
f 87//23 101//23 88//23 104//23
f 89//43 98//43 90//43 95//43
f 92//32 99//32 93//32 96//32
f 105//35 120//35 118//35 122//35
f 105//49 122//49 115//49 121//49
f 105//38 121//38 111//38 120//38
f 106//50 121//50 116//50 128//50
f 106//29 123//29 111//29 121//29
f 107//44 122//44 119//44 127//44
f 107//45 127//45 113//45 124//45
f 107//46 124//46 115//46 122//46
f 108//43 124//43 113//43 130//43
f 108//47 128//47 116//47 124//47
f 109//26 120//26 112//26 126//26
f 109//40 126//40 117//40 125//40
f 109//36 125//36 118//36 120//36
f 110//33 125//33 117//33 129//33
f 110//31 129//31 114//31 127//31
f 110//32 127//32 119//32 125//32
f 111//27 123//27 112//27 120//27
f 113//41 127//41 114//41 130//41
f 115//48 124//48 116//48 121//48
f 118//34 125//34 119//34 122//34
f 131//26 146//26 144//26 148//26
f 131//27 148//27 141//27 147//27
f 131//28 147//28 137//28 146//28
f 132//30 147//30 142//30 154//30
f 132//39 149//39 137//39 147//39
f 133//35 148//35 145//35 153//35
f 133//49 153//49 139//49 150//49
f 133//38 150//38 141//38 148//38
f 134//48 150//48 139//48 156//48
f 134//50 154//50 142//50 150//50
f 135//21 146//21 138//21 152//21
f 135//33 152//33 143//33 151//33
f 135//40 151//40 144//40 146//40
f 136//32 151//32 143//32 155//32
f 136//44 155//44 140//44 153//44
f 136//34 153//34 145//34 151//34
f 137//22 149//22 138//22 146//22
f 139//46 153//46 140//46 156//46
f 141//29 150//29 142//29 147//29
f 144//36 151//36 145//36 148//36
o Solid.003
v -1.725052 -0.710760 -0.417775
v -1.285777 0.000000 -0.417775
v -1.725052 -0.710760 0.417774
v -1.285777 -0.000000 0.417774
v -1.014292 -1.150035 -0.417775
v -1.014292 -1.150035 0.417774
v -1.369672 -0.439274 -0.675974
v -0.930398 -0.710761 -0.675974
v -1.369672 -0.439274 0.675973
v -0.930398 -0.710761 0.675973
v -1.860795 -0.439274 -0.000000
v -1.589308 0.000000 -0.000000
v -0.710761 -1.150036 -0.000000
v -1.505416 -1.150035 -0.258199
v -1.505416 -1.150035 0.258199
v -1.369672 -0.930398 -0.675974
v -1.725052 -0.219637 -0.417775
v -1.860796 -0.930397 -0.000000
v -0.930397 -0.219638 -0.675974
v -1.725052 -0.219637 0.417774
v -1.150035 -1.369673 -0.000000
v -0.575018 -0.930398 -0.417775
v -1.369672 -0.930398 0.675973
v -1.150034 0.219637 -0.000000
v -0.575018 -0.930398 0.417774
v -0.930397 -0.219637 0.675973
v -0.135743 -0.710761 -1.769722
v 0.000001 -0.000000 -1.351947
v -0.930397 -0.710760 -1.511523
v -0.794654 -0.000000 -1.093748
v 0.083894 -1.150036 -1.093748
v -0.710761 -1.150035 -0.835550
v 0.219637 -0.439275 -1.511523
v 0.355380 -0.710761 -1.093748
v -1.066141 -0.439274 -1.093748
v -0.930397 -0.710761 -0.675974
v -0.575017 -0.439274 -1.769722
v -0.491123 -0.000000 -1.511522
v -0.219637 -1.150036 -0.675974
v -0.219637 -1.150035 -1.511523
v -0.710761 -1.150035 -1.351947
v 0.219637 -0.930398 -1.511523
v -0.135743 -0.219637 -1.769721
v -0.575017 -0.930398 -1.769722
v 0.355381 -0.219638 -1.093748
v -0.930397 -0.219637 -1.511523
v -0.355380 -1.369673 -1.093748
v 0.219637 -0.930399 -0.675974
v -1.066141 -0.930398 -1.093748
v -0.355380 0.219636 -1.093748
v -0.575017 -0.930398 -0.417775
v -0.930397 -0.219638 -0.675973
v 1.641158 -0.710761 -0.675973
v 1.285778 -0.000000 -0.417774
v 1.150035 -0.710761 -1.351946
v 0.794654 -0.000001 -1.093747
v 1.066141 -1.150036 -0.258199
v 0.575018 -1.150036 -0.934172
v 1.505415 -0.439275 -0.258198
v 1.150035 -0.710762 0.000000
v 0.710761 -0.439275 -1.351947
v 0.355380 -0.710761 -1.093748
v 1.505415 -0.439275 -1.093748
v 1.285778 -0.000001 -0.934172
v 0.575017 -1.150036 -0.417774
v 1.369672 -1.150036 -0.675973
v 1.066141 -1.150036 -1.093748
v 1.505415 -0.930399 -0.258199
v 1.641158 -0.219638 -0.675973
v 1.505415 -0.930398 -1.093748
v 1.150035 -0.219638 0.000001
v 1.150035 -0.219638 -1.351946
v 0.930398 -1.369673 -0.675973
v 0.710761 -0.930399 0.000000
v 0.710761 -0.930398 -1.351946
v 0.930398 0.219636 -0.675973
v 0.219637 -0.930399 -0.675973
v 0.355380 -0.219638 -1.093747
v 1.150034 -0.710761 1.351947
v 0.794654 -0.000000 1.093748
v 1.641158 -0.710761 0.675974
v 1.285777 -0.000001 0.417775
v 0.575017 -1.150036 0.934173
v 1.066141 -1.150036 0.258200
v 0.710760 -0.439275 1.351947
v 0.355380 -0.710761 1.093748
v 1.505415 -0.439275 0.258199
v 1.150034 -0.710762 0.000001
v 1.505415 -0.439275 1.093748
v 1.285777 -0.000001 0.934173
v 0.575017 -1.150036 0.417775
v 1.066140 -1.150035 1.093749
v 1.369672 -1.150035 0.675974
v 0.710760 -0.930398 1.351948
v 1.150034 -0.219638 1.351947
v 1.505415 -0.930398 1.093749
v 0.355380 -0.219638 1.093748
v 1.641158 -0.219638 0.675974
v 0.930397 -1.369673 0.675974
v 0.219637 -0.930399 0.675974
v 1.505415 -0.930399 0.258200
v 0.930397 0.219636 0.675974
v 0.710760 -0.930399 0.000001
v 1.150034 -0.219638 0.000000
v -0.930399 -0.710760 1.511523
v -0.794655 0.000000 1.093747
v -0.135744 -0.710760 1.769722
v -0.000000 -0.000000 1.351946
v -0.710762 -1.150035 0.835549
v 0.083893 -1.150035 1.093748
v -1.066141 -0.439274 1.093748
v -0.930398 -0.710761 0.675973
v 0.219636 -0.439275 1.511523
v 0.355380 -0.710761 1.093748
v -0.575018 -0.439274 1.769721
v -0.491124 0.000000 1.511522
v -0.219638 -1.150036 0.675974
v -0.710762 -1.150035 1.351947
v -0.219638 -1.150035 1.511523
v -1.066142 -0.930398 1.093748
v -0.930398 -0.219637 1.511522
v -0.575018 -0.930397 1.769722
v -0.930398 -0.219637 0.675973
v -0.135744 -0.219637 1.769721
v -0.355381 -1.369673 1.093748
v -0.575018 -0.930398 0.417775
v 0.219636 -0.930398 1.511523
v -0.355381 0.219637 1.093747
v 0.219636 -0.930399 0.675974
v 0.355380 -0.219638 1.093748
vn -0.6882 -0.5257 -0.5000
vn -0.9511 -0.0000 -0.3090
vn -0.5878 -0.0000 -0.8090
vn -0.4253 0.8507 -0.3090
vn -0.2629 0.5257 -0.8090
vn -0.6882 -0.5257 0.5000
vn -0.5878 -0.0000 0.8090
vn -0.9511 -0.0000 0.3090
vn -0.2629 0.5257 0.8090
vn -0.4253 0.8507 0.3090
vn 0.2629 -0.5257 -0.8090
vn 0.4253 -0.8507 -0.3090
vn -0.1625 -0.8507 -0.5000
vn 0.4253 -0.8507 0.3090
vn 0.2629 -0.5257 0.8090
vn -0.1625 -0.8507 0.5000
vn -0.0000 -0.0000 -1.0000
vn -0.0000 -0.0000 1.0000
vn -0.8507 0.5257 -0.0000
vn -0.5257 -0.8507 -0.0000
vn 0.5878 -0.0000 -0.8090
vn 0.1625 0.8507 -0.5000
vn 0.6882 0.5257 -0.5000
vn 0.8507 -0.5257 -0.0000
vn 0.9511 -0.0000 -0.3090
vn 0.9511 -0.0000 0.3090
vn 0.5257 0.8507 -0.0000
vn 0.6882 0.5257 0.5000
vn 0.5878 -0.0000 0.8090
vn 0.1625 0.8507 0.5000
s 0
f 157//51 172//51 170//51 174//51
f 157//52 174//52 167//52 173//52
f 157//53 173//53 163//53 172//53
f 158//54 173//54 168//54 180//54
f 158//55 175//55 163//55 173//55
f 159//56 174//56 171//56 179//56
f 159//57 179//57 165//57 176//57
f 159//58 176//58 167//58 174//58
f 160//59 176//59 165//59 182//59
f 160//60 180//60 168//60 176//60
f 161//61 172//61 164//61 178//61
f 161//62 178//62 169//62 177//62
f 161//63 177//63 170//63 172//63
f 162//64 177//64 169//64 181//64
f 162//65 181//65 166//65 179//65
f 162//66 179//66 171//66 177//66
f 163//67 175//67 164//67 172//67
f 165//68 179//68 166//68 182//68
f 167//69 176//69 168//69 173//69
f 170//70 177//70 171//70 174//70
f 183//61 198//61 196//61 200//61
f 183//67 200//67 193//67 199//67
f 183//71 199//71 189//71 198//71
f 184//72 199//72 194//72 206//72
f 184//73 201//73 189//73 199//73
f 185//51 200//51 197//51 205//51
f 185//52 205//52 191//52 202//52
f 185//53 202//53 193//53 200//53
f 186//69 202//69 191//69 208//69
f 186//54 206//54 194//54 202//54
f 187//74 198//74 190//74 204//74
f 187//64 204//64 195//64 203//64
f 187//62 203//62 196//62 198//62
f 188//66 203//66 195//66 207//66
f 188//56 207//56 192//56 205//56
f 188//70 205//70 197//70 203//70
f 189//75 201//75 190//75 198//75
f 191//58 205//58 192//58 208//58
f 193//55 202//55 194//55 199//55
f 196//63 203//63 197//63 200//63
f 209//74 224//74 222//74 226//74
f 209//75 226//75 219//75 225//75
f 209//76 225//76 215//76 224//76
f 210//77 225//77 220//77 232//77
f 210//78 227//78 215//78 225//78
f 211//61 226//61 223//61 231//61
f 211//67 231//67 217//67 228//67
f 211//71 228//71 219//71 226//71
f 212//55 228//55 217//55 234//55
f 212//72 232//72 220//72 228//72
f 213//65 224//65 216//65 230//65
f 213//66 230//66 221//66 229//66
f 213//64 229//64 222//64 224//64
f 214//70 229//70 221//70 233//70
f 214//51 233//51 218//51 231//51
f 214//63 231//63 223//63 229//63
f 215//79 227//79 216//79 224//79
f 217//53 231//53 218//53 234//53
f 219//73 228//73 220//73 225//73
f 222//62 229//62 223//62 226//62
f 235//65 250//65 248//65 252//65
f 235//79 252//79 245//79 251//79
f 235//68 251//68 241//68 250//68
f 236//80 251//80 246//80 258//80
f 236//59 253//59 241//59 251//59
f 237//74 252//74 249//74 257//74
f 237//75 257//75 243//75 254//75
f 237//76 254//76 245//76 252//76
f 238//73 254//73 243//73 260//73
f 238//77 258//77 246//77 254//77
f 239//56 250//56 242//56 256//56
f 239//70 256//70 247//70 255//70
f 239//66 255//66 248//66 250//66
f 240//63 255//63 247//63 259//63
f 240//61 259//61 244//61 257//61
f 240//62 257//62 249//62 255//62
f 241//57 253//57 242//57 250//57
f 243//71 257//71 244//71 260//71
f 245//78 254//78 246//78 251//78
f 248//64 255//64 249//64 252//64
f 261//56 276//56 274//56 278//56
f 261//57 278//57 271//57 277//57
f 261//58 277//58 267//58 276//58
f 262//60 277//60 272//60 284//60
f 262//69 279//69 267//69 277//69
f 263//65 278//65 275//65 283//65
f 263//79 283//79 269//79 280//79
f 263//68 280//68 271//68 278//68
f 264//78 280//78 269//78 286//78
f 264//80 284//80 272//80 280//80
f 265//51 276//51 268//51 282//51
f 265//63 282//63 273//63 281//63
f 265//70 281//70 274//70 276//70
f 266//62 281//62 273//62 285//62
f 266//74 285//74 270//74 283//74
f 266//64 283//64 275//64 281//64
f 267//52 279//52 268//52 276//52
f 269//76 283//76 270//76 286//76
f 271//59 280//59 272//59 277//59
f 274//66 281//66 275//66 278//66
o Solid.002
v -0.575018 -1.421522 -0.417774
v -0.575018 -1.421522 0.417775
v 0.135742 -1.860797 -0.417775
v 0.575017 -1.150037 -0.417774
v 0.135742 -1.860797 0.417774
v 0.575017 -1.150037 0.417775
v -0.219637 -1.150036 -0.675973
v 0.219637 -1.421523 -0.675973
v -0.219637 -1.150036 0.675973
v 0.219637 -1.421523 0.675973
v -0.710761 -1.150036 0.000000
v 0.439273 -1.860798 0.000000
v 0.710760 -1.421524 0.000000
v -0.355381 -1.860797 -0.258199
v -0.355381 -1.860797 0.258199
v -0.219638 -1.641160 -0.675973
v -0.575017 -0.930399 -0.417775
v -0.710761 -1.641159 0.000000
v 0.219637 -0.930400 -0.675973
v -0.575017 -0.930399 0.417775
v -0.000001 -2.080435 0.000000
v 0.575017 -1.641161 -0.417774
v -0.219638 -1.641160 0.675973
v 0.710760 -0.930400 0.000000
v 0.575017 -1.641161 0.417775
v 0.219637 -0.930400 0.675973
vn -0.6882 -0.5257 -0.5000
vn -0.9511 -0.0000 -0.3090
vn -0.5878 -0.0000 -0.8090
vn -0.6882 -0.5257 0.5000
vn -0.5878 -0.0000 0.8090
vn -0.9511 -0.0000 0.3090
vn 0.2629 -0.5257 -0.8090
vn 0.4253 -0.8507 -0.3090
vn -0.1625 -0.8507 -0.5000
vn 0.9511 -0.0000 -0.3090
vn 0.5878 -0.0000 -0.8090
vn 0.4253 -0.8507 0.3090
vn 0.2629 -0.5257 0.8090
vn -0.1625 -0.8507 0.5000
vn 0.5878 -0.0000 0.8090
vn 0.9511 -0.0000 0.3090
vn -0.0000 -0.0000 -1.0000
vn -0.0000 -0.0000 1.0000
vn 0.8507 -0.5257 -0.0000
vn -0.5257 -0.8507 -0.0000
s 0
f 287//81 302//81 300//81 304//81
f 287//82 304//82 297//82 303//82
f 287//83 303//83 293//83 302//83
f 288//84 304//84 301//84 309//84
f 288//85 309//85 295//85 306//85
f 288//86 306//86 297//86 304//86
f 289//87 302//87 294//87 308//87
f 289//88 308//88 298//88 307//88
f 289//89 307//89 300//89 302//89
f 290//90 310//90 299//90 308//90
f 290//91 308//91 294//91 305//91
f 291//92 307//92 298//92 311//92
f 291//93 311//93 296//93 309//93
f 291//94 309//94 301//94 307//94
f 292//95 312//95 296//95 311//95
f 292//96 311//96 299//96 310//96
f 293//97 305//97 294//97 302//97
f 295//98 309//98 296//98 312//98
f 298//99 308//99 299//99 311//99
f 300//100 307//100 301//100 304//100
