# Blender 4.0.1
# www.blender.org
o Cube.041
v 0.258380 0.418135 -0.187775
v 0.013780 0.856255 -0.551926
v 0.759640 0.395295 -0.551926
v 0.515040 0.833435 -0.916107
v 0.529140 0.856215 0.157455
v 0.284540 1.294355 -0.206726
v 1.030400 0.833395 -0.206726
v 0.785800 1.271515 -0.570862
vn 0.3945 -0.7067 0.5873
vn 0.8085 -0.0368 -0.5874
vn 0.4367 0.7066 0.5568
vn -0.3945 0.7067 -0.5874
vn -0.4367 -0.7066 -0.5568
vn -0.8085 0.0368 0.5874
s 0
f 1//1 3//1 7//1 5//1
f 8//2 7//2 3//2 4//2
f 8//3 6//3 5//3 7//3
f 8//4 4//4 2//4 6//4
f 2//5 4//5 3//5 1//5
f 2//6 1//6 5//6 6//6
o Cube.042
v 0.258420 0.418135 0.187698
v 0.529180 0.856255 -0.157455
v 0.759660 0.395295 0.551926
v 1.030420 0.833435 0.206757
v 0.013760 0.856215 0.551895
v 0.284520 1.294355 0.206741
v 0.515000 0.833375 0.916107
v 0.785760 1.271515 0.570923
vn -0.4367 -0.7067 0.5567
vn 0.8085 -0.0368 0.5874
vn -0.3946 0.7066 0.5874
vn 0.4367 0.7067 -0.5567
vn 0.3946 -0.7066 -0.5874
vn -0.8084 0.0368 -0.5874
s 0
f 9//7 11//7 15//7 13//7
f 12//8 16//8 15//8 11//8
f 16//9 14//9 13//9 15//9
f 14//10 16//10 12//10 10//10
f 10//11 12//11 11//11 9//11
f 14//12 10//12 9//12 13//12
o Cube.043
v -0.098660 0.418135 0.303787
v 0.313260 0.856255 0.454620
v -0.290160 0.395295 0.893036
v 0.121780 0.833435 1.043869
v -0.520620 0.856215 0.183640
v -0.108680 1.294355 0.334473
v -0.712100 0.833395 0.772888
v -0.300180 1.271515 0.923737
vn -0.6644 -0.7067 -0.2433
vn -0.3088 -0.0368 0.9504
vn -0.6806 0.7066 -0.1938
vn 0.6644 0.7067 0.2433
vn 0.6806 -0.7066 0.1938
vn 0.3088 0.0368 -0.9504
s 0
f 17//13 19//13 23//13 21//13
f 20//14 24//14 23//14 19//14
f 24//15 22//15 21//15 23//15
f 22//16 24//16 20//16 18//16
f 18//17 20//17 19//17 17//17
f 22//18 18//18 17//18 21//18
o Cube.044
v -0.319400 0.418135 0.000031
v -0.335560 0.856255 0.438416
v -0.938980 0.395295 0.000015
v -0.955140 0.833435 0.438400
v -0.335520 0.856215 -0.438400
v -0.351700 1.294355 -0.000015
v -0.955120 0.833395 -0.438416
v -0.971280 1.271515 -0.000031
vn 0.0260 -0.7067 -0.7071
vn -0.9993 -0.0368 -0.0000
vn -0.0260 0.7066 -0.7071
vn -0.0260 0.7067 0.7071
vn 0.0260 -0.7066 0.7071
vn 0.9993 0.0368 -0.0000
s 0
f 25//19 27//19 31//19 29//19
f 28//20 32//20 31//20 27//20
f 32//21 30//21 29//21 31//21
f 30//22 32//22 28//22 26//22
f 26//23 28//23 27//23 25//23
f 30//24 26//24 25//24 29//24
o Cube.045
v -0.098740 0.418135 -0.303772
v -0.520660 0.856255 -0.183655
v -0.290180 0.395295 -0.893021
v -0.712100 0.833435 -0.772934
v 0.313260 0.856215 -0.454575
v -0.108660 1.294355 -0.334488
v 0.121820 0.833395 -1.043854
v -0.300100 1.271515 -0.923752
vn 0.6805 -0.7067 -0.1937
vn -0.3088 -0.0368 -0.9504
vn 0.6645 0.7066 -0.2433
vn -0.6805 0.7067 0.1937
vn -0.6645 -0.7066 0.2433
vn 0.3088 0.0368 0.9504
s 0
f 33//25 35//25 39//25 37//25
f 36//26 40//26 39//26 35//26
f 40//27 38//27 37//27 39//27
f 38//28 40//28 36//28 34//28
f 34//29 36//29 35//29 33//29
f 38//30 34//30 33//30 37//30
o Cube.046
v 0.516780 -0.098645 -0.000031
v 0.915880 0.082855 -0.438416
v 0.773460 -0.663005 -0.000015
v 1.172560 -0.481525 -0.438400
v 0.915820 0.082875 0.438400
v 1.314920 0.264355 0.000015
v 1.172500 -0.481505 0.438416
v 1.571620 -0.300005 0.000031
vn -0.6437 -0.2927 0.7070
vn 0.4140 -0.9103 -0.0000
vn 0.6436 0.2928 0.7072
vn 0.6437 0.2927 -0.7070
vn -0.6436 -0.2927 -0.7071
vn -0.4140 0.9103 -0.0000
s 0
f 41//31 43//31 47//31 45//31
f 44//32 48//32 47//32 43//32
f 48//33 46//33 45//33 47//33
f 46//34 48//34 44//34 42//34
f 42//35 44//35 43//35 41//35
f 46//36 42//36 41//36 45//36
o Cube.047
v 0.159660 -0.098645 -0.491501
v -0.133940 0.082855 -1.006546
v 0.239000 -0.663005 -0.735611
v -0.054600 -0.481525 -1.250641
v 0.699940 0.082875 -0.735535
v 0.406340 0.264355 -1.250580
v 0.779280 -0.481505 -0.979645
v 0.485680 -0.300005 -1.494675
vn 0.4736 -0.2927 0.8307
vn 0.1280 -0.9103 -0.3937
vn 0.8714 0.2927 -0.3936
vn -0.4735 0.2927 -0.8307
vn -0.8714 -0.2927 0.3936
vn -0.1280 0.9103 0.3937
s 0
f 49//37 51//37 55//37 53//37
f 52//38 56//38 55//38 51//38
f 56//39 54//39 53//39 55//39
f 54//40 56//40 52//40 50//40
f 50//41 52//41 51//41 49//41
f 54//42 50//42 49//42 53//42
o Cube.048
v -0.418100 -0.098645 -0.303726
v -0.998660 0.082855 -0.183655
v -0.625760 -0.663005 -0.454620
v -1.206320 -0.481525 -0.334549
v -0.483240 0.082875 -0.892975
v -1.063800 0.264355 -0.772888
v -0.690880 -0.481505 -1.043869
v -1.271440 -0.300005 -0.923798
vn 0.9364 -0.2927 -0.1937
vn -0.3349 -0.9103 -0.2434
vn -0.1050 0.2928 -0.9504
vn -0.9364 0.2927 0.1937
vn 0.1051 -0.2927 0.9504
vn 0.3349 0.9103 0.2434
s 0
f 57//43 59//43 63//43 61//43
f 60//44 64//44 63//44 59//44
f 64//45 62//45 61//45 63//45
f 62//46 64//46 60//46 58//46
f 58//47 60//47 59//47 57//47
f 62//48 58//48 57//48 61//48
o Cube.049
v -0.418060 -0.098645 0.303787
v -0.483260 0.082855 0.893036
v -0.625740 -0.663005 0.454636
v -0.690940 -0.481525 1.043884
v -0.998600 0.082875 0.183640
v -1.063800 0.264355 0.772873
v -1.206280 -0.481505 0.334488
v -1.271480 -0.300005 0.923752
vn 0.1052 -0.2927 -0.9504
vn -0.3350 -0.9103 0.2433
vn -0.9363 0.2928 -0.1938
vn -0.1052 0.2927 0.9504
vn 0.9363 -0.2928 0.1938
vn 0.3350 0.9103 -0.2433
s 0
f 65//49 67//49 71//49 69//49
f 68//50 72//50 71//50 67//50
f 72//51 70//51 69//51 71//51
f 70//52 72//52 68//52 66//52
f 66//53 68//53 67//53 65//53
f 70//54 66//54 65//54 69//54
o Cube.050
v 0.159720 -0.098645 0.491486
v 0.699980 0.082855 0.735565
v 0.239020 -0.663005 0.735611
v 0.779280 -0.481525 0.979691
v -0.133940 0.082875 1.006454
v 0.406320 0.264355 1.250580
v -0.054640 -0.481505 1.250626
v 0.485620 -0.300005 1.494690
vn -0.8714 -0.2928 -0.3937
vn 0.1279 -0.9103 0.3937
vn -0.4737 0.2928 0.8306
vn 0.8714 0.2927 0.3937
vn 0.4736 -0.2928 -0.8307
vn -0.1279 0.9103 -0.3938
s 0
f 73//55 75//55 79//55 77//55
f 76//56 80//56 79//56 75//56
f 80//57 78//57 77//57 79//57
f 78//58 80//58 76//58 74//58
f 74//59 76//59 75//59 73//59
f 78//60 74//60 73//60 77//60
o Cube.051
v 0.418100 0.098755 -0.303726
v 0.998660 -0.082745 -0.183655
v 0.625760 0.663115 -0.454620
v 1.206320 0.481635 -0.334549
v 0.483240 -0.082765 -0.892975
v 1.063800 -0.264245 -0.772888
v 0.690880 0.481615 -1.043869
v 1.271440 0.300115 -0.923798
vn -0.9364 0.2927 -0.1937
vn 0.3349 0.9103 -0.2434
vn 0.1050 -0.2928 -0.9504
vn 0.9364 -0.2927 0.1937
vn -0.1051 0.2927 0.9504
vn -0.3349 -0.9103 0.2434
s 0
f 81//61 83//61 87//61 85//61
f 84//62 88//62 87//62 83//62
f 88//63 86//63 85//63 87//63
f 86//64 88//64 84//64 82//64
f 82//65 84//65 83//65 81//65
f 86//66 82//66 81//66 85//66
o Cube.052
v 0.418060 0.098755 0.303787
v 0.483260 -0.082745 0.893036
v 0.625740 0.663115 0.454636
v 0.690940 0.481635 1.043884
v 0.998600 -0.082765 0.183640
v 1.063800 -0.264245 0.772873
v 1.206280 0.481615 0.334488
v 1.271480 0.300115 0.923752
vn -0.1052 0.2927 -0.9504
vn 0.3350 0.9103 0.2433
vn 0.9363 -0.2928 -0.1938
vn 0.1052 -0.2927 0.9504
vn -0.9363 0.2928 0.1938
vn -0.3350 -0.9103 -0.2433
s 0
f 89//67 91//67 95//67 93//67
f 92//68 96//68 95//68 91//68
f 96//69 94//69 93//69 95//69
f 94//70 96//70 92//70 90//70
f 90//71 92//71 91//71 89//71
f 94//72 90//72 89//72 93//72
o Cube.053
v -0.159720 0.098755 0.491486
v -0.699980 -0.082745 0.735565
v -0.239020 0.663115 0.735611
v -0.779280 0.481635 0.979691
v 0.133940 -0.082765 1.006454
v -0.406320 -0.264245 1.250580
v 0.054640 0.481615 1.250626
v -0.485620 0.300115 1.494720
vn 0.8714 0.2928 -0.3937
vn -0.1279 0.9103 0.3937
vn 0.4737 -0.2928 0.8306
vn -0.8714 -0.2927 0.3937
vn -0.4736 0.2928 -0.8307
vn 0.1279 -0.9103 -0.3938
s 0
f 97//73 99//73 103//73 101//73
f 100//74 104//74 103//74 99//74
f 104//75 102//75 101//75 103//75
f 102//76 104//76 100//76 98//76
f 98//77 100//77 99//77 97//77
f 102//78 98//78 97//78 101//78
o Cube.054
v -0.516780 0.098755 -0.000031
v -0.915880 -0.082745 -0.438416
v -0.773460 0.663115 -0.000015
v -1.172560 0.481635 -0.438400
v -0.915820 -0.082765 0.438400
v -1.314920 -0.264245 0.000015
v -1.172500 0.481615 0.438416
v -1.571620 0.300115 0.000031
vn 0.6437 0.2927 0.7070
vn -0.4140 0.9103 -0.0000
vn -0.6436 -0.2928 0.7072
vn -0.6437 -0.2927 -0.7071
vn 0.6436 0.2927 -0.7071
vn 0.4140 -0.9103 -0.0000
s 0
f 105//79 107//79 111//79 109//79
f 108//80 112//80 111//80 107//80
f 112//81 110//81 109//81 111//81
f 110//82 112//82 108//82 106//82
f 106//83 108//83 107//83 105//83
f 110//84 106//84 105//84 109//84
o Cube.055
v -0.159660 0.098755 -0.491501
v 0.133940 -0.082745 -1.006531
v -0.239000 0.663115 -0.735611
v 0.054600 0.481635 -1.250641
v -0.699940 -0.082765 -0.735535
v -0.406340 -0.264245 -1.250580
v -0.779280 0.481615 -0.979645
v -0.485680 0.300115 -1.494675
vn -0.4735 0.2927 0.8307
vn -0.1280 0.9103 -0.3937
vn -0.8714 -0.2927 -0.3936
vn 0.4736 -0.2927 -0.8307
vn 0.8714 0.2928 0.3936
vn 0.1280 -0.9103 0.3937
s 0
f 113//85 115//85 119//85 117//85
f 116//86 120//86 119//86 115//86
f 120//87 118//87 117//87 119//87
f 118//88 120//88 116//88 114//88
f 114//89 116//89 115//89 113//89
f 118//90 114//90 113//90 117//90
o Cube.056
v 0.319400 -0.418025 0.000031
v 0.335560 -0.856165 0.438416
v 0.938980 -0.395185 0.000015
v 0.955140 -0.833325 0.438400
v 0.335520 -0.856105 -0.438400
v 0.351700 -1.294245 -0.000015
v 0.955120 -0.833285 -0.438416
v 0.971280 -1.271405 -0.000031
vn -0.0260 0.7067 -0.7071
vn 0.9993 0.0368 -0.0000
vn 0.0260 -0.7066 -0.7071
vn 0.0261 -0.7067 0.7071
vn -0.0260 0.7066 0.7071
vn -0.9993 -0.0368 -0.0000
s 0
f 121//91 123//91 127//91 125//91
f 124//92 128//92 127//92 123//92
f 128//93 126//93 125//93 127//93
f 126//94 128//94 124//94 122//94
f 122//95 124//95 123//95 121//95
f 126//96 122//96 121//96 125//96
o Cube.057
v 0.098740 -0.418025 -0.303772
v 0.520660 -0.856145 -0.183655
v 0.290180 -0.395185 -0.893021
v 0.712100 -0.833325 -0.772934
v -0.313260 -0.856105 -0.454575
v 0.108660 -1.294245 -0.334488
v -0.121820 -0.833285 -1.043854
v 0.300100 -1.271405 -0.923752
vn -0.6805 0.7067 -0.1937
vn 0.3088 0.0368 -0.9504
vn -0.6645 -0.7066 -0.2433
vn 0.6805 -0.7067 0.1937
vn 0.6645 0.7066 0.2433
vn -0.3088 -0.0368 0.9504
s 0
f 129//97 131//97 135//97 133//97
f 132//98 136//98 135//98 131//98
f 136//99 134//99 133//99 135//99
f 134//100 136//100 132//100 130//100
f 130//101 132//101 131//101 129//101
f 134//102 130//102 129//102 133//102
o Cube.058
v -0.258380 -0.418025 -0.187775
v -0.013780 -0.856145 -0.551926
v -0.759640 -0.395185 -0.551926
v -0.515040 -0.833325 -0.916107
v -0.529140 -0.856105 0.157455
v -0.284540 -1.294245 -0.206726
v -1.030400 -0.833285 -0.206726
v -0.785800 -1.271405 -0.570862
vn -0.3945 0.7067 0.5873
vn -0.8085 0.0368 -0.5874
vn -0.4367 -0.7066 0.5568
vn 0.3945 -0.7067 -0.5874
vn 0.4367 0.7066 -0.5568
vn 0.8085 -0.0368 0.5874
s 0
f 137//103 139//103 143//103 141//103
f 140//104 144//104 143//104 139//104
f 144//105 142//105 141//105 143//105
f 142//106 144//106 140//106 138//106
f 138//107 140//107 139//107 137//107
f 142//108 138//108 137//108 141//108
o Cube.059
v -0.258420 -0.418025 0.187698
v -0.529180 -0.856145 -0.157455
v -0.759660 -0.395185 0.551926
v -1.030420 -0.833325 0.206757
v -0.013760 -0.856105 0.551895
v -0.284520 -1.294245 0.206741
v -0.515000 -0.833285 0.916107
v -0.785760 -1.271405 0.570923
vn 0.4367 0.7067 0.5567
vn -0.8085 0.0368 0.5874
vn 0.3946 -0.7066 0.5874
vn -0.4367 -0.7067 -0.5567
vn -0.3946 0.7066 -0.5874
vn 0.8084 -0.0368 -0.5874
s 0
f 145//109 147//109 151//109 149//109
f 148//110 152//110 151//110 147//110
f 152//111 150//111 149//111 151//111
f 150//112 152//112 148//112 146//112
f 146//113 148//113 147//113 145//113
f 150//114 146//114 145//114 149//114
o Cube.060
v 0.098660 -0.418025 0.303787
v -0.313260 -0.856145 0.454620
v 0.290160 -0.395185 0.893036
v -0.121780 -0.833325 1.043869
v 0.520620 -0.856105 0.183640
v 0.108700 -1.294245 0.334473
v 0.712100 -0.833285 0.772873
v 0.300180 -1.271405 0.923737
vn 0.6644 0.7067 -0.2433
vn 0.3089 0.0368 0.9504
vn 0.6806 -0.7066 -0.1938
vn -0.6644 -0.7067 0.2433
vn -0.6806 0.7066 0.1938
vn -0.3088 -0.0368 -0.9504
s 0
f 153//115 155//115 159//115 157//115
f 156//116 160//116 159//116 155//116
f 160//117 158//117 157//117 159//117
f 158//118 160//118 156//118 154//118
f 154//119 156//119 155//119 153//119
f 158//120 154//120 153//120 157//120
