# Blender 4.0.1
# www.blender.org
o Solid.004
v 0.151766 0.794654 -0.467087
v -0.057969 0.794654 -0.178412
v -0.397328 0.794654 -0.288675
v 0.888451 -0.000001 -0.288675
v 0.642889 0.491123 0.467087
v 0.736685 0.303530 0.178412
v 0.642889 0.491123 0.110265
v 0.888451 -0.000001 0.288675
v -0.000000 -0.000001 -0.934172
v 0.057969 0.303530 -0.755762
v 0.397328 0.303530 -0.645497
v 0.303532 0.491123 -0.577350
v 0.549093 -0.000001 -0.755761
v -0.888451 -0.000001 -0.288675
v -0.700859 0.303530 -0.288675
v -0.245562 0.491123 -0.755762
v -0.549093 -0.000001 -0.755761
v -0.549093 -0.000001 0.755762
v -0.491124 0.303530 0.577351
v -0.642889 0.187591 0.467087
v 0.151766 0.794654 0.467087
v -0.245562 0.491123 0.755762
v 0.093796 0.491123 -0.645498
v -0.794655 0.491123 0.000000
v -0.584920 0.491123 -0.288675
v -0.455296 0.491123 0.467087
v -0.115939 0.491123 0.356823
v 0.093796 0.491123 0.645498
v 0.700858 -0.303532 -0.288675
v 0.303531 0.491123 -0.220529
v 0.151766 0.794654 -0.110265
v 0.151766 0.794654 0.110265
v 0.303531 0.491124 0.220528
v 0.303531 0.491123 0.577350
v 0.549092 -0.000001 0.755762
v 0.491123 0.115938 0.356823
v 0.642888 -0.187593 0.467087
v 0.245561 -0.491125 -0.755761
v 0.491123 -0.303532 -0.577350
v -0.057969 -0.303532 -0.755761
v -0.245563 -0.187593 -0.755761
v -0.187593 0.115937 -0.577350
v -0.491124 0.303530 -0.577350
v -0.455297 0.491124 -0.467086
v 0.491124 0.794654 0.000000
v 0.642889 0.491123 -0.110264
v 0.736686 0.303530 -0.178411
v 0.491124 0.115938 -0.356822
v 0.642889 -0.187593 -0.467085
v -0.397327 -0.303532 -0.645497
v -0.736685 -0.303532 -0.178411
v -0.888451 -0.000001 0.288676
v -0.794654 -0.187593 0.000001
v -0.607062 0.115937 0.000001
v -0.700858 0.303530 0.288676
v -0.584920 0.491124 0.288675
v -0.375185 0.491123 0.000001
v -0.187593 0.794654 0.000000
v -0.115938 0.491124 -0.356822
v -0.736685 -0.303532 0.178411
v 0.057970 0.303530 0.755762
v -0.057969 -0.303532 0.755761
v 0.491123 -0.303532 0.577350
v -0.397328 0.794654 0.288675
v -0.057970 0.794654 0.178411
v -0.187593 0.115938 0.577350
v -0.303532 -0.491123 0.220529
v -0.303532 -0.491123 -0.220528
v 0.455296 -0.491123 -0.467087
v 0.794655 -0.491123 0.000000
v 0.115939 -0.491123 0.356823
v -0.397327 -0.303530 0.645498
v 0.397327 -0.794655 -0.288675
v -0.491124 -0.794654 0.000000
v -0.151766 -0.794654 -0.110264
v -0.491124 -0.115938 -0.356822
v -0.642889 0.187593 -0.467085
v 0.642889 0.491125 -0.467086
v 0.794654 0.187593 0.000001
v 0.607062 -0.115938 0.000001
v 0.700858 -0.303530 0.288676
v 0.584919 -0.491124 0.288675
v 0.375185 -0.491124 0.000001
v -0.151766 -0.794654 -0.467087
v 0.057969 -0.794654 -0.178412
v 0.115938 -0.491124 -0.356822
v -0.093797 -0.491123 -0.645497
v 0.187592 -0.115938 -0.577351
v 0.245561 0.187593 -0.755762
v 0.397327 0.303532 0.645497
v -0.000001 0.000001 0.934172
v 0.245561 0.187593 0.755762
v 0.187592 -0.115938 0.577351
v -0.151766 -0.794654 0.467086
v -0.093797 -0.491124 0.645497
v -0.491124 -0.115937 0.356822
v 0.397327 -0.794654 0.288675
v 0.057970 -0.794654 0.178411
v -0.151766 -0.794654 0.110264
v 0.187593 -0.794654 0.000000
v -0.642889 -0.491123 -0.110265
v -0.642889 -0.491123 0.110265
v -0.642890 -0.491123 -0.467086
v -0.303532 -0.491123 -0.577350
v 0.584920 -0.491123 -0.288675
v 0.245561 -0.491123 0.755762
v 0.455296 -0.491123 0.467087
v -0.245562 -0.187591 0.755762
v -0.642890 -0.491123 0.467086
v -0.303532 -0.491123 0.577350
vn -0.0000 1.0000 -0.0000
vn 0.8944 0.4472 -0.0000
vn 0.2764 0.4472 -0.8507
vn -0.7236 0.4472 -0.5257
vn -0.7236 0.4472 0.5257
vn 0.2764 0.4472 0.8507
vn -0.0000 -1.0000 -0.0000
vn -0.8944 -0.4472 -0.0000
vn -0.2764 -0.4472 -0.8507
vn 0.7236 -0.4472 -0.5257
vn 0.7236 -0.4472 0.5257
vn -0.2764 -0.4472 0.8507
s 0
f 31//1 1//1 2//1 3//1 58//1 64//1 65//1 21//1 32//1 45//1
f 47//2 78//2 46//2 45//2 7//2 5//2 6//2 8//2 79//2 4//2
f 10//3 16//3 23//3 1//3 12//3 78//3 11//3 13//3 89//3 9//3
f 15//4 24//4 25//4 3//4 44//4 16//4 43//4 17//4 77//4 14//4
f 19//5 22//5 26//5 64//5 56//5 24//5 55//5 52//5 20//5 18//5
f 90//6 5//6 34//6 21//6 28//6 22//6 61//6 91//6 92//6 35//6
f 34//1 5//1 7//1 33//1
f 46//1 78//1 12//1 30//1
f 23//1 16//1 44//1 59//1
f 25//1 24//1 56//1 57//1
f 26//1 22//1 28//1 27//1
f 81//2 70//2 29//2 80//2
f 49//2 13//2 11//2 48//2
f 12//2 1//2 31//2 30//2
f 32//2 21//2 34//2 33//2
f 90//2 35//2 37//2 36//2
f 39//3 38//3 40//3 88//3
f 41//3 17//3 43//3 42//3
f 44//3 3//3 2//3 59//3
f 31//3 45//3 46//3 30//3
f 47//3 4//3 49//3 48//3
f 50//4 103//4 51//4 76//4
f 53//4 52//4 55//4 54//4
f 56//4 64//4 58//4 57//4
f 2//4 1//4 23//4 59//4
f 10//4 9//4 41//4 42//4
f 60//5 109//5 72//5 96//5
f 108//5 91//5 61//5 66//5
f 28//5 21//5 65//5 27//5
f 58//5 3//5 25//5 57//5
f 15//5 14//5 53//5 54//5
f 62//6 106//6 63//6 93//6
f 37//6 8//6 6//6 36//6
f 7//6 45//6 32//6 33//6
f 65//6 64//6 26//6 27//6
f 19//6 18//6 108//6 66//6
f 110//7 109//7 102//7 67//7
f 101//7 103//7 104//7 68//7
f 87//7 38//7 69//7 86//7
f 105//7 70//7 82//7 83//7
f 107//7 106//7 95//7 71//7
f 55//8 24//8 15//8 54//8
f 77//8 17//8 50//8 76//8
f 104//8 84//8 75//8 68//8
f 99//8 94//8 110//8 67//8
f 72//8 18//8 20//8 96//8
f 43//9 16//9 10//9 42//9
f 89//9 13//9 39//9 88//9
f 69//9 73//9 85//9 86//9
f 75//9 74//9 101//9 68//9
f 51//9 14//9 77//9 76//9
f 11//10 78//10 47//10 48//10
f 79//10 8//10 81//10 80//10
f 82//10 97//10 100//10 83//10
f 85//10 84//10 87//10 86//10
f 40//10 9//10 89//10 88//10
f 6//11 5//11 90//11 36//11
f 92//11 91//11 62//11 93//11
f 95//11 94//11 98//11 71//11
f 100//11 73//11 105//11 83//11
f 29//11 4//11 79//11 80//11
f 61//12 22//12 19//12 66//12
f 20//12 52//12 60//12 96//12
f 102//12 74//12 99//12 67//12
f 98//12 97//12 107//12 71//12
f 63//12 35//12 92//12 93//12
f 75//7 84//7 85//7 73//7 100//7 97//7 98//7 94//7 99//7 74//7
f 51//8 103//8 101//8 74//8 102//8 109//8 60//8 52//8 53//8 14//8
f 40//9 38//9 87//9 84//9 104//9 103//9 50//9 17//9 41//9 9//9
f 29//10 70//10 105//10 73//10 69//10 38//10 39//10 13//10 49//10 4//10
f 63//11 106//11 107//11 97//11 82//11 70//11 81//11 8//11 37//11 35//11
f 72//12 109//12 110//12 94//12 95//12 106//12 62//12 91//12 108//12 18//12
