# Blender 4.0.1
# www.blender.org
o bowl
v 0.333350 0.745442 -0.108312
v 0.206022 0.745442 -0.283565
v 0.149079 0.447285 -0.108312
v -0.056943 0.447285 -0.175253
v 0.092136 0.561171 -0.283565
v 0.206022 0.745442 0.283565
v 0.333350 0.745442 0.108312
v 0.092136 0.561171 0.283565
v -0.056943 0.447285 0.175253
v 0.149079 0.447285 0.108312
v -0.241214 0.561171 -0.175253
v -0.333350 0.745442 -0.108312
v -0.206022 0.745442 -0.283565
v -0.241214 0.561171 0.175253
v -0.206022 0.745442 0.283565
v -0.333350 0.745442 0.108312
v 0.000000 0.745442 -0.350505
v 0.000000 0.745442 0.350505
v 0.298157 0.561171 -0.000000
v -0.184271 0.447285 -0.000000
vn -0.1876 0.7947 0.5773
vn -0.1876 0.7947 -0.5773
vn 0.7947 0.1876 0.5773
vn 0.7947 0.1876 -0.5773
vn -0.3035 0.1876 0.9342
vn -0.3035 0.1876 -0.9342
vn -0.9822 0.1876 -0.0000
vn -0.6071 0.7947 -0.0000
vn 0.4911 0.7947 0.3568
vn 0.4911 0.7947 -0.3568
vn -0.7236 0.4472 -0.5257
vn -0.7236 0.4472 0.5257
vn 0.2764 0.4472 0.8507
vn 0.8944 0.4472 -0.0000
vn 0.2764 0.4472 -0.8507
s 0
f 3//1 5//1 4//1
f 8//2 10//2 9//2
f 11//3 13//3 12//3
f 14//4 16//4 15//4
f 2//5 17//5 5//5
f 6//6 8//6 18//6
f 1//7 19//7 7//7
f 19//8 3//8 10//8
f 4//9 11//9 20//9
f 9//10 20//10 14//10
f 10//11 8//11 6//11 7//11 19//11
f 5//12 3//12 19//12 1//12 2//12
f 13//13 11//13 4//13 5//13 17//13
f 20//14 11//14 12//14 16//14 14//14
f 18//15 8//15 9//15 14//15 15//15
o bowl.001
v 0.758879 0.149100 -0.283565
v 0.666744 0.333372 -0.350505
v 0.425529 0.149100 -0.175253
v 0.333393 0.333372 -0.108312
v 0.460722 0.333372 -0.283565
v 0.815822 0.035214 0.108312
v 0.815822 0.035214 -0.108312
v 0.609801 0.035214 0.175253
v 0.425529 0.149100 0.175253
v 0.482472 0.035214 -0.000000
v 0.368586 0.517643 -0.000000
v 0.517665 0.631529 0.108312
v 0.517665 0.631529 -0.108312
v 0.460722 0.333372 0.283565
v 0.666744 0.333372 0.350505
v 0.574608 0.517643 0.283565
v 0.574608 0.517643 -0.283565
v 0.758879 0.149100 0.283565
v 0.609801 0.035214 -0.175253
v 0.333393 0.333372 0.108312
v -0.035179 0.149100 -0.809363
v -0.127315 0.333372 -0.742423
v -0.035179 0.149100 -0.458858
v 0.000013 0.333372 -0.350546
v -0.127315 0.333372 -0.525799
v 0.355114 0.035214 -0.742423
v 0.149092 0.035214 -0.809363
v 0.355114 0.035214 -0.525799
v 0.298171 0.149100 -0.350546
v 0.149092 0.035214 -0.458858
v 0.113899 0.517643 -0.350546
v 0.262978 0.631529 -0.458858
v 0.056956 0.631529 -0.525799
v 0.412057 0.333372 -0.350546
v 0.539385 0.333372 -0.525799
v 0.447250 0.517643 -0.458858
v -0.092122 0.517643 -0.634111
v 0.504193 0.149100 -0.634111
v 0.021764 0.035214 -0.634111
v 0.206035 0.333372 -0.283606
v -0.780621 0.149100 -0.216650
v -0.745429 0.333372 -0.108337
v -0.447271 0.149100 -0.108337
v -0.333385 0.333372 -0.108337
v -0.539407 0.333372 -0.041397
v -0.596350 0.035214 -0.567155
v -0.723678 0.035214 -0.391902
v -0.390328 0.035214 -0.500214
v -0.241249 0.149100 -0.391902
v -0.390328 0.035214 -0.283590
v -0.298193 0.517643 -0.216649
v -0.355136 0.631529 -0.391902
v -0.482464 0.631529 -0.216650
v -0.206057 0.333372 -0.500214
v -0.333385 0.333372 -0.675467
v -0.298193 0.517643 -0.567155
v -0.631543 0.517643 -0.108337
v -0.447271 0.149100 -0.675467
v -0.596350 0.035214 -0.216650
v -0.206057 0.333372 -0.283590
v -0.447271 0.149100 0.675467
v -0.333385 0.333372 0.675467
v -0.241249 0.149100 0.391902
v -0.206057 0.333372 0.283590
v -0.206057 0.333372 0.500214
v -0.723678 0.035214 0.391902
v -0.596350 0.035214 0.567155
v -0.596350 0.035214 0.216650
v -0.447271 0.149100 0.108337
v -0.390328 0.035214 0.283590
v -0.298192 0.517643 0.216650
v -0.482464 0.631529 0.216650
v -0.355136 0.631529 0.391902
v -0.539407 0.333372 0.041397
v -0.745429 0.333372 0.108338
v -0.631543 0.517643 0.108338
v -0.298192 0.517643 0.567155
v -0.780621 0.149100 0.216650
v -0.390328 0.035214 0.500214
v -0.333385 0.333372 0.108337
v 0.504193 0.149100 0.634111
v 0.539385 0.333372 0.525799
v 0.298171 0.149100 0.350546
v 0.206035 0.333372 0.283606
v 0.412057 0.333372 0.350546
v 0.149092 0.035214 0.809364
v 0.355114 0.035214 0.742423
v 0.021764 0.035214 0.634111
v -0.035179 0.149100 0.458858
v 0.149092 0.035214 0.458858
v 0.113899 0.517643 0.350546
v 0.056956 0.631529 0.525799
v 0.262978 0.631529 0.458858
v -0.127315 0.333372 0.525799
v -0.127315 0.333372 0.742423
v -0.092122 0.517643 0.634111
v 0.447250 0.517643 0.458858
v -0.035179 0.149100 0.809364
v 0.355114 0.035214 0.525799
v 0.000013 0.333372 0.350546
vn 0.7947 0.1876 0.5774
vn 0.4911 0.7947 -0.3568
vn 0.6071 -0.7947 -0.0000
vn 0.3035 -0.1876 -0.9342
vn 0.3035 -0.1876 0.9342
vn -0.1876 0.7947 -0.5773
vn -0.1876 0.7947 0.5773
vn 0.4911 0.7947 0.3568
vn 0.9822 -0.1876 -0.0000
vn 0.7947 0.1876 -0.5774
vn 0.2764 0.4472 -0.8507
vn -0.0000 1.0000 -0.0000
vn -0.2764 -0.4472 -0.8507
vn -0.8944 -0.4472 -0.0000
vn -0.7236 0.4472 0.5257
vn 0.7947 0.1876 -0.5773
vn 0.1876 -0.7947 -0.5773
vn -0.7947 -0.1876 -0.5773
vn -0.6071 0.7947 -0.0000
vn -0.3035 0.1876 -0.9342
vn -0.7236 0.4472 -0.5257
vn 0.7236 -0.4472 0.5257
vn -0.2764 -0.4472 0.8506
vn 0.7236 -0.4472 -0.5257
vn -0.4911 -0.7947 -0.3568
vn -0.7947 -0.1876 0.5773
vn -0.9822 0.1876 -0.0000
vn 0.8944 0.4472 -0.0000
vn -0.4911 -0.7947 0.3568
vn -0.3035 0.1876 0.9342
vn 0.2764 0.4472 0.8507
vn 0.1876 -0.7947 0.5773
vn 0.7947 0.1876 0.5773
vn -0.2764 -0.4472 0.8507
s 0
f 23//16 25//16 24//16
f 28//17 30//17 29//17
f 31//18 33//18 32//18
f 34//19 36//19 35//19
f 22//20 37//20 25//20
f 26//21 28//21 38//21
f 21//22 39//22 27//22
f 39//23 23//23 30//23
f 24//24 31//24 40//24
f 29//25 40//25 34//25
f 65//26 63//26 79//26 61//26 62//26
f 30//27 28//27 26//27 27//27 39//27
f 73//28 71//28 64//28 65//28 77//28
f 80//29 71//29 72//29 76//29 74//29
f 78//30 68//30 69//30 74//30 75//30
f 43//31 45//31 44//31
f 48//21 50//21 49//21
f 51//32 53//32 52//32
f 54//33 56//33 55//33
f 42//24 57//24 45//24
f 46//34 48//34 58//34
f 41//23 59//23 47//23
f 59//17 43//17 50//17
f 44//19 51//19 60//19
f 49//35 60//35 54//35
f 85//36 83//36 99//36 81//36 82//36
f 93//29 91//29 84//29 85//29 97//29
f 120//37 111//37 112//37 116//37 114//37
f 100//38 91//38 92//38 96//38 94//38
f 40//39 31//39 32//39 36//39 34//39
f 63//35 65//35 64//35
f 68//34 70//34 69//34
f 71//40 73//40 72//40
f 74//41 76//41 75//41
f 62//19 77//19 65//19
f 66//22 68//22 78//22
f 61//17 79//17 67//17
f 79//21 63//21 70//21
f 64//33 71//33 80//33
f 69//42 80//42 74//42
f 105//30 103//30 119//30 101//30 102//30
f 70//27 68//27 66//27 67//27 79//27
f 118//43 108//43 109//43 114//43 115//43
f 50//27 48//27 46//27 47//27 59//27
f 60//28 51//28 52//28 56//28 54//28
f 83//42 85//42 84//42
f 88//22 90//22 89//22
f 91//44 93//44 92//44
f 94//20 96//20 95//20
f 82//33 97//33 85//33
f 86//23 88//23 98//23
f 81//21 99//21 87//21
f 99//34 83//34 90//34
f 84//41 91//41 100//41
f 89//45 100//45 94//45
f 58//36 48//36 49//36 54//36 55//36
f 90//27 88//27 86//27 87//27 99//27
f 25//46 23//46 39//46 21//46 22//46
f 33//37 31//37 24//37 25//37 37//37
f 53//39 51//39 44//39 45//39 57//39
f 103//45 105//45 104//45
f 108//23 110//23 109//23
f 111//47 113//47 112//47
f 114//24 116//24 115//24
f 102//41 117//41 105//41
f 106//17 108//17 118//17
f 101//34 119//34 107//34
f 119//22 103//22 110//22
f 104//20 111//20 120//20
f 109//48 120//48 114//48
f 38//26 28//26 29//26 34//26 35//26
f 110//27 108//27 106//27 107//27 119//27
f 45//43 43//43 59//43 41//43 42//43
f 113//49 111//49 104//49 105//49 117//49
f 98//46 88//46 89//46 94//46 95//46
o bowl.002
v -0.758879 -0.149100 -0.283565
v -0.666744 -0.333372 -0.350505
v -0.425529 -0.149100 -0.175253
v -0.333394 -0.333372 -0.108312
v -0.460722 -0.333372 -0.283565
v -0.815822 -0.035214 0.108312
v -0.815822 -0.035214 -0.108312
v -0.609801 -0.035214 0.175253
v -0.425529 -0.149100 0.175253
v -0.482472 -0.035214 0.000000
v -0.368586 -0.517643 0.000000
v -0.517665 -0.631529 0.108312
v -0.517665 -0.631529 -0.108312
v -0.460722 -0.333372 0.283565
v -0.666744 -0.333372 0.350505
v -0.574608 -0.517643 0.283565
v -0.574608 -0.517643 -0.283565
v -0.758879 -0.149100 0.283565
v -0.609801 -0.035214 -0.175253
v -0.333394 -0.333372 0.108312
v 0.035179 -0.149100 -0.809363
v 0.127315 -0.333372 -0.742423
v 0.035179 -0.149100 -0.458858
v -0.000013 -0.333372 -0.350546
v 0.127315 -0.333372 -0.525799
v -0.355114 -0.035214 -0.742423
v -0.149092 -0.035214 -0.809363
v -0.355114 -0.035214 -0.525799
v -0.298171 -0.149100 -0.350546
v -0.149092 -0.035214 -0.458858
v -0.113899 -0.517643 -0.350546
v -0.262978 -0.631529 -0.458858
v -0.056957 -0.631529 -0.525799
v -0.412057 -0.333372 -0.350546
v -0.539385 -0.333372 -0.525799
v -0.447250 -0.517643 -0.458858
v 0.092122 -0.517643 -0.634111
v -0.504193 -0.149100 -0.634111
v -0.021764 -0.035214 -0.634111
v -0.206035 -0.333372 -0.283606
v 0.780621 -0.149101 -0.216649
v 0.745429 -0.333372 -0.108337
v 0.447271 -0.149101 -0.108337
v 0.333385 -0.333372 -0.108337
v 0.539407 -0.333372 -0.041397
v 0.596350 -0.035215 -0.567155
v 0.723678 -0.035215 -0.391902
v 0.390328 -0.035214 -0.500214
v 0.241249 -0.149100 -0.391902
v 0.390328 -0.035214 -0.283590
v 0.298192 -0.517643 -0.216649
v 0.355135 -0.631529 -0.391902
v 0.482464 -0.631530 -0.216649
v 0.206057 -0.333372 -0.500214
v 0.333385 -0.333372 -0.675467
v 0.298192 -0.517643 -0.567155
v 0.631542 -0.517644 -0.108337
v 0.447271 -0.149101 -0.675467
v 0.596350 -0.035215 -0.216649
v 0.206057 -0.333372 -0.283590
v 0.447271 -0.149101 0.675467
v 0.333385 -0.333372 0.675467
v 0.241249 -0.149100 0.391902
v 0.206057 -0.333372 0.283590
v 0.206057 -0.333372 0.500214
v 0.723678 -0.035215 0.391902
v 0.596350 -0.035215 0.567155
v 0.596350 -0.035215 0.216650
v 0.447271 -0.149100 0.108338
v 0.390328 -0.035214 0.283590
v 0.298192 -0.517643 0.216650
v 0.482464 -0.631530 0.216650
v 0.355135 -0.631529 0.391902
v 0.539407 -0.333372 0.041397
v 0.745429 -0.333372 0.108338
v 0.631542 -0.517643 0.108338
v 0.298192 -0.517643 0.567155
v 0.780621 -0.149101 0.216650
v 0.390328 -0.035214 0.500214
v 0.333385 -0.333372 0.108338
v -0.504193 -0.149100 0.634111
v -0.539386 -0.333372 0.525799
v -0.298171 -0.149100 0.350546
v -0.206035 -0.333372 0.283606
v -0.412057 -0.333372 0.350546
v -0.149092 -0.035214 0.809363
v -0.355114 -0.035214 0.742423
v -0.021764 -0.035214 0.634111
v 0.035179 -0.149100 0.458858
v -0.149092 -0.035214 0.458858
v -0.113900 -0.517643 0.350546
v -0.056957 -0.631529 0.525799
v -0.262978 -0.631529 0.458858
v 0.127315 -0.333372 0.525799
v 0.127315 -0.333372 0.742423
v 0.092122 -0.517643 0.634111
v -0.447250 -0.517643 0.458858
v 0.035179 -0.149100 0.809363
v -0.355114 -0.035214 0.525799
v -0.000014 -0.333372 0.350546
vn -0.7947 -0.1876 0.5773
vn -0.4911 -0.7947 -0.3568
vn -0.6071 0.7947 -0.0000
vn -0.3035 0.1876 -0.9342
vn -0.3035 0.1876 0.9342
vn 0.1876 -0.7947 -0.5773
vn 0.1876 -0.7947 0.5773
vn -0.4911 -0.7947 0.3568
vn -0.9822 0.1876 -0.0000
vn -0.7947 -0.1876 -0.5773
vn -0.2764 -0.4472 -0.8507
vn -0.0000 -1.0000 -0.0000
vn 0.2764 0.4472 -0.8507
vn 0.8944 0.4472 -0.0000
vn 0.7236 -0.4472 0.5257
vn -0.1876 0.7947 -0.5773
vn 0.7947 0.1876 -0.5773
vn 0.6071 -0.7947 -0.0000
vn 0.3035 -0.1876 -0.9342
vn 0.7236 -0.4472 -0.5257
vn -0.7236 0.4472 0.5257
vn 0.2764 0.4472 0.8507
vn -0.7236 0.4472 -0.5257
vn 0.4911 0.7947 -0.3568
vn 0.7947 0.1876 0.5773
vn 0.1876 -0.7947 0.5774
vn 0.1876 -0.7947 -0.5774
vn 0.9822 -0.1876 -0.0000
vn -0.8944 -0.4472 -0.0000
vn 0.4911 0.7947 0.3568
vn 0.7947 0.1876 0.5774
vn 0.3035 -0.1876 0.9342
vn -0.2764 -0.4472 0.8507
vn -0.1876 0.7947 0.5773
vn -0.7947 -0.1876 0.5774
vn -0.2764 -0.4472 0.8506
s 0
f 123//50 125//50 124//50
f 128//51 130//51 129//51
f 131//52 133//52 132//52
f 134//53 136//53 135//53
f 122//54 137//54 125//54
f 126//55 128//55 138//55
f 121//56 139//56 127//56
f 139//57 123//57 130//57
f 124//58 131//58 140//58
f 129//59 140//59 134//59
f 165//60 163//60 179//60 161//60 162//60
f 130//61 128//61 126//61 127//61 139//61
f 173//62 171//62 164//62 165//62 177//62
f 180//63 171//63 172//63 176//63 174//63
f 178//64 168//64 169//64 174//64 175//64
f 143//59 145//59 144//59
f 148//55 150//55 149//55
f 151//65 153//65 152//65
f 154//66 156//66 155//66
f 142//58 157//58 145//58
f 146//67 148//67 158//67
f 141//57 159//57 147//57
f 159//51 143//51 150//51
f 144//53 151//53 160//53
f 149//68 160//68 154//68
f 185//69 183//69 199//69 181//69 182//69
f 193//63 191//63 184//63 185//63 197//63
f 220//70 211//70 212//70 216//70 214//70
f 200//71 191//71 192//71 196//71 194//71
f 140//72 131//72 132//72 136//72 134//72
f 163//68 165//68 164//68
f 168//67 170//67 169//67
f 171//73 173//73 172//73
f 174//74 176//74 175//74
f 162//53 177//53 165//53
f 166//75 168//75 178//75
f 161//51 179//51 167//51
f 179//76 163//76 170//76
f 164//66 171//66 180//66
f 169//77 180//77 174//77
f 205//64 203//64 219//64 201//64 202//64
f 170//61 168//61 166//61 167//61 179//61
f 218//78 208//78 209//78 214//78 215//78
f 150//61 148//61 146//61 147//61 159//61
f 160//62 151//62 152//62 156//62 154//62
f 183//77 185//77 184//77
f 188//75 190//75 189//75
f 191//79 193//79 192//79
f 194//54 196//54 195//54
f 182//66 197//66 185//66
f 186//57 188//57 198//57
f 181//76 199//76 187//76
f 199//67 183//67 190//67
f 184//80 191//80 200//80
f 189//81 200//81 194//81
f 158//69 148//69 149//69 154//69 155//69
f 190//61 188//61 186//61 187//61 199//61
f 125//82 123//82 139//82 121//82 122//82
f 133//70 131//70 124//70 125//70 137//70
f 153//72 151//72 144//72 145//72 157//72
f 203//81 205//81 204//81
f 208//57 210//57 209//57
f 211//83 213//83 212//83
f 214//58 216//58 215//58
f 202//80 217//80 205//80
f 206//51 208//51 218//51
f 201//67 219//67 207//67
f 219//56 203//56 210//56
f 204//54 211//54 220//54
f 209//84 220//84 214//84
f 138//60 128//60 129//60 134//60 135//60
f 210//61 208//61 206//61 207//61 219//61
f 145//78 143//78 159//78 141//78 142//78
f 213//71 211//71 204//71 205//71 217//71
f 198//85 188//85 189//85 194//85 195//85
o bowl.003
v 0.333350 -0.745442 -0.108312
v 0.333350 -0.745442 0.108312
v 0.184272 -0.447284 0.000000
v 0.056943 -0.447285 0.175252
v 0.241215 -0.561171 0.175252
v 0.000000 -0.745442 -0.350505
v 0.206022 -0.745442 -0.283565
v -0.092136 -0.561170 -0.283565
v -0.149079 -0.447284 -0.108312
v 0.056943 -0.447284 -0.175253
v -0.092136 -0.561171 0.283564
v -0.206022 -0.745442 0.283564
v 0.000000 -0.745442 0.350505
v -0.298157 -0.561171 0.000000
v -0.333350 -0.745442 -0.108312
v -0.333350 -0.745442 0.108312
v 0.206022 -0.745442 0.283564
v -0.206022 -0.745442 -0.283565
v 0.241215 -0.561170 -0.175253
v -0.149079 -0.447285 0.108312
vn -0.4911 -0.7947 -0.3568
vn 0.1876 -0.7947 0.5773
vn 0.3035 -0.1876 -0.9342
vn 0.9822 -0.1876 -0.0000
vn -0.7947 -0.1876 -0.5774
vn 0.3035 -0.1876 0.9342
vn -0.7947 -0.1876 0.5773
vn -0.4911 -0.7947 0.3568
vn 0.1876 -0.7947 -0.5774
vn 0.6071 -0.7947 -0.0000
vn -0.2764 -0.4472 0.8507
vn -0.8944 -0.4472 -0.0000
vn -0.2764 -0.4472 -0.8507
vn 0.7236 -0.4472 -0.5257
vn 0.7236 -0.4472 0.5257
s 0
f 223//86 225//86 224//86
f 228//87 230//87 229//87
f 231//88 233//88 232//88
f 234//89 236//89 235//89
f 222//90 237//90 225//90
f 226//91 228//91 238//91
f 221//92 239//92 227//92
f 239//93 223//93 230//93
f 224//94 231//94 240//94
f 229//95 240//95 234//95
f 230//96 228//96 226//96 227//96 239//96
f 225//97 223//97 239//97 221//97 222//97
f 233//98 231//98 224//98 225//98 237//98
f 240//99 231//99 232//99 236//99 234//99
f 238//100 228//100 229//100 234//100 235//100
o core
v -0.390278 0.035184 0.283554
v -0.447221 0.149070 0.108301
v -0.333335 0.333341 0.108301
v -0.206007 0.333341 0.283554
v -0.241199 0.149070 0.391866
v 0.206007 -0.333341 0.283554
v 0.241199 -0.149070 0.391866
v 0.390278 -0.035184 0.283554
v 0.447221 -0.149070 0.108301
v 0.333335 -0.333341 0.108301
v -0.390278 0.035184 -0.283554
v -0.241199 0.149070 -0.391866
v -0.206007 0.333341 -0.283554
v -0.333335 0.333341 -0.108301
v -0.447221 0.149070 -0.108301
v 0.206007 -0.333341 -0.283554
v 0.333335 -0.333341 -0.108301
v 0.447221 -0.149070 -0.108301
v 0.390278 -0.035184 -0.283554
v 0.241199 -0.149070 -0.391866
v -0.425467 -0.149069 0.175252
v -0.333332 -0.333341 0.108312
v -0.333332 -0.333341 -0.108312
v -0.425467 -0.149069 -0.175252
v -0.482410 -0.035183 0.000000
v -0.056943 0.447215 0.175252
v -0.184271 0.447215 -0.000000
v -0.056943 0.447215 -0.175252
v 0.149079 0.447215 -0.108312
v 0.149079 0.447215 0.108312
v 0.056943 -0.447215 0.175252
v 0.184271 -0.447215 0.000000
v 0.056943 -0.447215 -0.175252
v -0.149079 -0.447215 -0.108312
v -0.149079 -0.447215 0.108312
v 0.425467 0.149069 0.175252
v 0.333332 0.333341 0.108312
v 0.333332 0.333341 -0.108312
v 0.425467 0.149069 -0.175252
v 0.482410 0.035183 -0.000000
v -0.298152 -0.149069 0.350487
v -0.149073 -0.035183 0.458799
v 0.035198 -0.149069 0.458799
v 0.000006 -0.333341 0.350487
v -0.206016 -0.333341 0.283547
v -0.298152 -0.149069 -0.350487
v -0.206016 -0.333341 -0.283547
v 0.000006 -0.333341 -0.350487
v 0.035198 -0.149069 -0.458799
v -0.149073 -0.035183 -0.458799
v -0.000006 0.333341 0.350487
v 0.206016 0.333341 0.283547
v 0.298152 0.149069 0.350487
v 0.149073 0.035183 0.458799
v -0.035198 0.149069 0.458799
v -0.000006 0.333341 -0.350487
v -0.035198 0.149069 -0.458799
v 0.149073 0.035183 -0.458799
v 0.298152 0.149069 -0.350487
v 0.206016 0.333341 -0.283547
vn 0.8507 -0.5257 -0.0000
vn -0.8507 0.5257 -0.0000
vn 0.9511 -0.0000 0.3090
vn 0.9511 -0.0000 -0.3090
vn 0.4253 -0.8507 -0.3090
vn 0.4253 -0.8507 0.3090
vn -0.4253 0.8507 -0.3090
vn -0.4253 0.8507 0.3090
vn 0.5257 0.8507 -0.0000
vn -0.5257 -0.8507 -0.0000
vn -0.9511 -0.0000 0.3090
vn -0.9511 -0.0000 -0.3090
vn 0.5878 -0.0000 -0.8090
vn -0.2629 0.5257 -0.8090
vn 0.1625 0.8507 -0.5000
vn 0.6882 0.5257 -0.5000
vn 0.6882 0.5257 0.5000
vn 0.1625 0.8507 0.5000
vn -0.2629 0.5257 0.8090
vn 0.5878 -0.0000 0.8090
vn -0.1625 -0.8507 -0.5000
vn -0.6882 -0.5257 -0.5000
vn -0.5878 -0.0000 -0.8090
vn -0.0000 -0.0000 -1.0000
vn 0.2629 -0.5257 -0.8090
vn 0.2629 -0.5257 0.8090
vn -0.0000 -0.0000 1.0000
vn -0.5878 -0.0000 0.8090
vn -0.6882 -0.5257 0.5000
vn -0.1625 -0.8507 0.5000
vn 0.7947 0.1876 -0.5773
vn 0.1876 -0.7947 -0.5773
vn 0.7947 0.1876 0.5773
vn 0.1876 -0.7947 0.5773
vn -0.1876 0.7947 -0.5773
vn -0.7947 -0.1876 -0.5773
vn -0.1876 0.7947 0.5773
vn -0.7947 -0.1876 0.5773
vn 0.3035 -0.1876 -0.9342
vn -0.3035 0.1876 -0.9342
vn 0.3035 -0.1876 0.9342
vn -0.3035 0.1876 0.9342
vn 0.9822 -0.1876 -0.0000
vn 0.6071 -0.7947 -0.0000
vn -0.6071 0.7947 -0.0000
vn -0.9822 0.1876 -0.0000
vn 0.4911 0.7947 -0.3568
vn 0.4911 0.7947 0.3568
vn -0.4911 -0.7947 -0.3568
vn -0.4911 -0.7947 0.3568
s 0
f 255//101 254//101 243//101 242//101
f 258//102 257//102 250//102 249//102
f 265//103 264//103 251//103 255//103
f 261//104 265//104 242//104 241//104
f 267//105 266//105 244//105 243//105
f 268//106 267//106 254//106 253//106
f 272//107 271//107 246//107 250//107
f 273//108 272//108 257//108 256//108
f 275//109 274//109 263//109 262//109
f 278//110 277//110 270//110 269//110
f 280//111 279//111 259//111 258//111
f 276//112 280//112 249//112 248//112
f 282//113 281//113 241//113 245//113
f 284//114 283//114 247//114 246//114
f 285//115 284//115 271//115 275//115
f 281//116 285//116 262//116 261//116
f 287//117 286//117 264//117 263//117
f 288//118 287//118 274//118 273//118
f 289//119 288//119 256//119 260//119
f 286//120 290//120 252//120 251//120
f 292//121 291//121 266//121 270//121
f 293//122 292//122 277//122 276//122
f 294//123 293//123 248//123 247//123
f 295//124 294//124 283//124 282//124
f 291//125 295//125 245//125 244//125
f 297//126 296//126 253//126 252//126
f 298//127 297//127 290//127 289//127
f 299//128 298//128 260//128 259//128
f 300//129 299//129 279//129 278//129
f 296//130 300//130 269//130 268//130
f 241//131 281//131 261//131
f 244//132 266//132 291//132
f 251//133 264//133 286//133
f 253//134 296//134 268//134
f 246//135 271//135 284//135
f 248//136 293//136 276//136
f 256//137 288//137 273//137
f 259//138 279//138 299//138
f 245//139 295//139 282//139
f 247//140 283//140 294//140
f 252//141 290//141 297//141
f 260//142 298//142 289//142
f 265//143 255//143 242//143
f 267//144 243//144 254//144
f 272//145 250//145 257//145
f 280//146 258//146 249//146
f 285//147 275//147 262//147
f 287//148 263//148 274//148
f 292//149 270//149 277//149
f 300//150 278//150 269//150
o shell
v 0.596358 -0.035330 -0.567045
v 0.723576 -0.035330 -0.391944
v 0.780519 -0.149216 -0.216692
v 0.745357 -0.333328 -0.108473
v 0.631471 -0.517599 -0.108473
v 0.482521 -0.631386 -0.216692
v 0.355193 -0.631386 -0.391944
v 0.298299 -0.517599 -0.567045
v 0.333492 -0.333328 -0.675357
v 0.447280 -0.149216 -0.675357
v -0.355193 0.631386 -0.391944
v -0.298299 0.517599 -0.567045
v -0.333492 0.333328 -0.675357
v -0.447280 0.149216 -0.675357
v -0.596358 0.035330 -0.567045
v -0.723576 0.035330 -0.391944
v -0.780519 0.149216 -0.216692
v -0.745357 0.333328 -0.108473
v -0.631471 0.517599 -0.108473
v -0.482521 0.631386 -0.216692
v 0.723576 -0.035330 0.391944
v 0.596358 -0.035330 0.567045
v 0.447280 -0.149216 0.675357
v 0.333492 -0.333328 0.675357
v 0.298299 -0.517599 0.567045
v 0.355193 -0.631386 0.391944
v 0.482521 -0.631386 0.216692
v 0.631471 -0.517599 0.108473
v 0.745357 -0.333328 0.108473
v 0.780519 -0.149216 0.216692
v -0.298299 0.517599 0.567045
v -0.355193 0.631386 0.391944
v -0.482521 0.631386 0.216692
v -0.631471 0.517599 0.108473
v -0.745357 0.333328 0.108473
v -0.780519 0.149216 0.216692
v -0.723576 0.035330 0.391944
v -0.596358 0.035330 0.567045
v -0.447280 0.149216 0.675357
v -0.333492 0.333328 0.675357
v 0.758821 0.149216 -0.283471
v 0.666765 0.333328 -0.350353
v 0.574630 0.517599 -0.283413
v 0.517736 0.631386 -0.108312
v 0.517736 0.631386 0.108312
v 0.574630 0.517599 0.283413
v 0.666765 0.333328 0.350353
v 0.758821 0.149216 0.283471
v 0.815764 0.035330 0.108218
v 0.815764 0.035330 -0.108218
v 0.000049 -0.745442 -0.350353
v 0.205893 -0.745442 -0.283471
v 0.333221 -0.745442 -0.108218
v 0.333221 -0.745442 0.108218
v 0.205893 -0.745442 0.283471
v 0.000049 -0.745442 0.350353
v -0.205972 -0.745442 0.283413
v -0.333191 -0.745442 0.108312
v -0.333191 -0.745442 -0.108312
v -0.205972 -0.745442 -0.283413
v -0.000049 0.745442 -0.350353
v -0.205893 0.745442 -0.283471
v -0.333221 0.745442 -0.108218
v -0.333221 0.745442 0.108218
v -0.205893 0.745442 0.283471
v -0.000049 0.745442 0.350353
v 0.205972 0.745442 0.283413
v 0.333191 0.745442 0.108312
v 0.333191 0.745442 -0.108312
v 0.205972 0.745442 -0.283413
v -0.758821 -0.149216 -0.283471
v -0.666765 -0.333328 -0.350353
v -0.574630 -0.517599 -0.283413
v -0.517736 -0.631386 -0.108312
v -0.517736 -0.631386 0.108312
v -0.574630 -0.517599 0.283413
v -0.666765 -0.333328 0.350353
v -0.758821 -0.149216 0.283471
v -0.815764 -0.035330 0.108218
v -0.815764 -0.035330 -0.108218
v 0.539248 0.333328 -0.525867
v 0.504085 0.149216 -0.634085
v 0.355007 0.035330 -0.742397
v 0.149163 0.035330 -0.809279
v -0.035108 0.149216 -0.809279
v -0.127164 0.333328 -0.742397
v -0.091971 0.517599 -0.634085
v 0.056979 0.631386 -0.525867
v 0.263000 0.631386 -0.458926
v 0.447112 0.517599 -0.458926
v 0.504085 0.149216 0.634085
v 0.539248 0.333328 0.525867
v 0.447112 0.517599 0.458926
v 0.263000 0.631386 0.458926
v 0.056979 0.631386 0.525867
v -0.091971 0.517599 0.634085
v -0.127164 0.333328 0.742397
v -0.035108 0.149216 0.809279
v 0.149163 0.035330 0.809279
v 0.355007 0.035330 0.742397
v 0.091971 -0.517599 -0.634085
v -0.056979 -0.631386 -0.525867
v -0.263000 -0.631386 -0.458926
v -0.447112 -0.517599 -0.458926
v -0.539248 -0.333328 -0.525867
v -0.504085 -0.149216 -0.634085
v -0.355007 -0.035330 -0.742397
v -0.149163 -0.035330 -0.809279
v 0.035108 -0.149216 -0.809279
v 0.127164 -0.333328 -0.742397
v -0.056979 -0.631386 0.525867
v 0.091971 -0.517599 0.634085
v 0.127164 -0.333328 0.742397
v 0.035108 -0.149216 0.809279
v -0.149163 -0.035330 0.809279
v -0.355007 -0.035330 0.742397
v -0.504085 -0.149216 0.634085
v -0.539248 -0.333328 0.525867
v -0.447112 -0.517599 0.458926
v -0.263000 -0.631386 0.458926
vn 0.8507 -0.5257 -0.0000
vn -0.8507 0.5257 -0.0000
vn 0.9511 -0.0000 0.3090
vn 0.9511 -0.0000 -0.3090
vn 0.4253 -0.8506 -0.3090
vn 0.4253 -0.8506 0.3090
vn -0.4253 0.8506 -0.3090
vn -0.4253 0.8506 0.3090
vn 0.5257 0.8506 -0.0000
vn -0.5257 -0.8506 -0.0000
vn -0.9511 -0.0000 0.3090
vn -0.9511 -0.0000 -0.3090
vn 0.5878 -0.0000 -0.8090
vn -0.2629 0.5257 -0.8090
vn 0.1625 0.8506 -0.5000
vn 0.6882 0.5257 -0.5000
vn 0.6882 0.5257 0.5000
vn 0.1625 0.8506 0.5000
vn -0.2629 0.5257 0.8090
vn 0.5878 -0.0000 0.8090
vn -0.1625 -0.8507 -0.5000
vn -0.6882 -0.5257 -0.5000
vn -0.5878 -0.0000 -0.8090
vn -0.0000 -0.0000 -1.0000
vn 0.2629 -0.5257 -0.8090
vn 0.2629 -0.5257 0.8090
vn -0.0000 -0.0000 1.0000
vn -0.5878 -0.0000 0.8090
vn -0.6882 -0.5257 0.5000
vn -0.1625 -0.8507 0.5000
vn 0.6071 -0.7947 -0.0000
vn -0.9822 0.1876 -0.0000
vn 0.7947 0.1876 0.5774
vn 0.7947 0.1876 0.5773
vn 0.9822 -0.1876 -0.0000
vn -0.1876 0.7947 0.5774
vn 0.3035 -0.1876 -0.9342
vn 0.4911 0.7947 -0.3568
vn -0.4911 -0.7947 0.3568
vn -0.1876 0.7947 -0.5774
vn 0.4911 0.7947 0.3568
vn 0.1876 -0.7947 -0.5774
vn -0.7947 -0.1876 0.5773
vn -0.4911 -0.7947 -0.3568
vn 0.3035 -0.1876 0.9342
vn -0.3035 0.1876 0.9342
vn -0.3035 0.1876 -0.9342
vn -0.6071 0.7947 -0.0000
vn 0.7947 0.1876 -0.5773
vn -0.7947 -0.1876 -0.5773
vn 0.1876 -0.7947 0.5774
s 0
f 329//151 328//151 305//151 304//151
f 335//152 334//152 319//152 318//152
f 349//153 348//153 321//153 330//153
f 341//154 350//154 303//154 302//154
f 353//155 352//155 307//155 306//155
f 355//156 354//156 327//156 326//156
f 363//157 362//157 311//157 320//157
f 365//158 364//158 333//158 332//158
f 369//159 368//159 345//159 344//159
f 375//160 374//160 359//160 358//160
f 379//161 378//161 337//161 336//161
f 371//162 380//162 317//162 316//162
f 383//163 382//163 301//163 310//163
f 387//164 386//164 313//164 312//164
f 389//165 388//165 361//165 370//165
f 381//166 390//166 343//166 342//166
f 393//167 392//167 347//167 346//167
f 395//168 394//168 367//168 366//168
f 397//169 396//169 331//169 340//169
f 391//170 400//170 323//170 322//170
f 403//171 402//171 351//171 360//171
f 405//172 404//172 373//172 372//172
f 407//173 406//173 315//173 314//173
f 409//174 408//174 385//174 384//174
f 401//175 410//175 309//175 308//175
f 413//176 412//176 325//176 324//176
f 415//177 414//177 399//177 398//177
f 417//178 416//178 339//178 338//178
f 419//179 418//179 377//179 376//179
f 411//180 420//180 357//180 356//180
f 353//181 306//181 305//181 328//181 327//181 354//181
f 379//182 336//182 335//182 318//182 317//182 380//182
f 322//183 321//183 392//183 391//183
f 321//184 348//184 347//184 392//184
f 349//185 330//185 329//185 304//185 303//185 350//185
f 331//186 396//186 395//186 366//186 365//186 332//186
f 309//187 410//187 409//187 384//187 383//187 310//187
f 389//188 370//188 369//188 344//188 343//188 390//188
f 419//189 376//189 375//189 358//189 357//189 420//189
f 311//190 362//190 361//190 388//190 387//190 312//190
f 393//191 346//191 345//191 368//191 367//191 394//191
f 307//192 352//192 351//192 402//192 401//192 308//192
f 337//193 378//193 377//193 418//193 417//193 338//193
f 403//194 360//194 359//194 374//194 373//194 404//194
f 323//195 400//195 399//195 414//195 413//195 324//195
f 339//196 416//196 415//196 398//196 397//196 340//196
f 313//197 386//197 385//197 408//197 407//197 314//197
f 363//198 320//198 319//198 334//198 333//198 364//198
f 301//199 382//199 381//199 342//199 341//199 302//199
f 315//200 406//200 405//200 372//200 371//200 316//200
f 325//201 412//201 411//201 356//201 355//201 326//201
