# Blender 4.0.1
# www.blender.org
o Rhombic_hexecontahedron
v 0.685389 -0.137643 0.222708
v 0.423590 -0.275278 0.137645
v 0.261790 -0.137641 -0.085055
v 0.523589 -0.000006 0.000008
v -0.161810 -0.137643 0.222708
v -0.685409 -0.137643 0.222708
v -0.423810 -0.275278 0.137645
v -0.423810 -0.000007 0.307772
v 0.161790 -0.137643 0.222708
v 0.423590 -0.000007 0.307772
v 0.261790 0.137629 0.085071
v 0.261790 0.275266 0.360343
v 0.423590 0.137525 0.583214
v -0.000010 0.137631 0.275280
v 0.161790 -0.000111 0.498150
v -0.161810 -0.000111 0.498150
v -0.000010 -0.137642 0.720680
v -0.161810 0.445394 -0.222691
v 0.161790 0.445394 -0.222691
v -0.000010 0.583030 -0.445391
v -0.000010 0.307758 0.000009
v -0.000010 -0.275279 0.445409
v -0.423810 0.137525 0.583214
v -0.261810 0.137629 0.085071
v -0.261810 0.275266 0.360343
v -0.261810 0.583030 0.360344
v -0.000010 0.445395 0.275281
v -0.261810 0.445393 0.085073
v -0.423810 0.583029 -0.137628
v 0.161790 0.137630 -0.222692
v -0.000010 0.275266 -0.445392
v 0.161790 -0.000006 -0.497964
v -0.000010 0.137630 -0.720663
v 0.161790 -0.445511 0.222878
v -0.000010 -0.583041 0.445407
v -0.161810 -0.445511 0.222878
v -0.000010 -0.307769 0.000007
v -0.000010 -0.137642 -0.275263
v -0.161810 -0.000006 -0.497964
v 0.423590 -0.137811 -0.583132
v 0.261790 -0.275448 -0.360432
v 0.423590 -0.000005 -0.307756
v 0.685389 0.137630 -0.222692
v 0.423590 0.275266 -0.137629
v -0.161810 0.137630 -0.222692
v -0.423810 -0.000005 -0.307756
v -0.685409 0.137630 -0.222692
v -0.423810 0.275266 -0.137629
v 0.261790 0.445393 0.085073
v 0.423590 0.583029 -0.137628
v 0.261790 -0.445574 -0.085161
v 0.261790 -0.583041 -0.360328
v 0.261790 0.583030 0.360344
v 0.423590 -0.583316 0.137709
v -0.423810 -0.583316 0.137709
v -0.261810 -0.137641 -0.085055
v -0.261810 -0.445574 -0.085161
v -0.523610 -0.000006 0.000008
v -0.423810 -0.137811 -0.583132
v -0.261810 -0.275448 -0.360432
v -0.261810 -0.583041 -0.360328
v -0.000010 -0.445406 -0.275264
vn -0.0000 -0.5257 0.8507
vn 0.5000 0.8507 0.1625
vn -0.5000 0.5259 0.6880
vn -0.8089 -0.5260 0.2628
vn -0.0000 0.8507 0.5257
vn -0.3090 -0.8509 0.4249
vn 0.3090 -0.0000 0.9511
vn 0.8089 0.0002 0.5880
vn 0.8090 0.5257 -0.2629
vn 0.4998 0.8508 0.1624
vn 0.8090 -0.0000 -0.5878
vn -0.0000 -0.8507 -0.5257
vn -0.8089 0.0002 0.5880
vn 0.3090 0.8507 -0.4253
vn 0.8091 -0.5256 0.2630
vn -0.0000 0.5257 -0.8507
vn -1.0000 -0.0000 -0.0000
vn 0.5000 0.5257 0.6882
vn -0.3093 -0.8507 0.4251
vn 0.8090 -0.0000 0.5878
vn -0.5004 -0.8504 -0.1623
vn -0.3088 -0.0000 -0.9511
vn -0.8087 -0.5260 0.2632
vn 0.3093 -0.8508 0.4248
vn 1.0000 -0.0000 -0.0000
vn -0.8087 -0.0000 0.5883
vn -0.3090 -0.0000 0.9511
vn -0.8090 0.5257 -0.2629
vn -0.5004 -0.5253 -0.6882
vn -0.8088 -0.0000 -0.5881
vn 0.5000 -0.8507 -0.1625
vn 0.5002 -0.5253 -0.6883
vn -0.3093 -0.0002 -0.9510
vn 0.8091 -0.0000 -0.5876
vn -0.3089 0.8506 -0.4255
vn 0.3093 -0.0002 -0.9510
vn 0.3094 0.0004 0.9509
vn 0.4999 0.5259 0.6882
vn 0.3091 0.8506 -0.4255
vn -0.5001 -0.8507 -0.1622
vn 0.3090 -0.0000 -0.9511
vn -0.3091 0.0004 0.9510
vn -0.5001 -0.5255 -0.6883
vn 0.8089 -0.5260 0.2628
vn 0.8091 0.5257 -0.2627
vn -0.5001 0.8507 0.1622
vn -0.5001 0.5255 0.6883
vn 0.3093 -0.8507 0.4251
vn -0.5000 0.8507 0.1625
vn -0.3090 0.8507 -0.4253
vn 0.5003 -0.8505 -0.1622
vn -0.8090 -0.0000 -0.5878
vn 0.5000 -0.5257 -0.6882
vn -0.8087 0.5262 -0.2629
s 0
f 5//1 8//1 6//1 7//1
f 1//1 10//1 9//1 2//1
f 11//2 10//2 1//2 4//2
f 14//3 15//3 13//3 12//3
f 16//4 5//4 22//4 17//4
f 15//5 14//5 16//5 17//5
f 23//6 8//6 5//6 16//6
f 14//7 27//7 26//7 25//7
f 9//8 22//8 35//8 34//8
f 31//9 30//9 32//9 33//9
f 29//10 28//10 21//10 18//10
f 30//11 31//11 20//11 19//11
f 36//12 37//12 34//12 35//12
f 35//13 22//13 5//13 36//13
f 21//14 28//14 26//14 27//14
f 40//15 42//15 3//15 41//15
f 39//12 33//12 32//12 38//12
f 30//16 44//16 43//16 42//16
f 26//17 28//17 24//17 25//17
f 11//18 4//18 43//18 44//18
f 52//19 51//19 37//19 62//19
f 44//20 50//20 49//20 11//20
f 54//21 34//21 37//21 51//21
f 29//22 18//22 45//22 48//22
f 60//23 56//23 46//23 59//23
f 15//24 9//24 10//24 13//24
f 11//25 49//25 53//25 12//25
f 24//26 28//26 29//26 48//26
f 53//27 27//27 14//27 12//27
f 45//28 31//28 33//28 39//28
f 40//29 41//29 38//29 32//29
f 55//30 7//30 56//30 57//30
f 3//31 42//31 43//31 4//31
f 59//32 39//32 38//32 60//32
f 52//33 62//33 38//33 41//33
f 54//34 51//34 3//34 2//34
f 45//35 39//35 59//35 46//35
f 61//36 60//36 38//36 62//36
f 54//37 2//37 9//37 34//37
f 23//38 16//38 14//38 25//38
f 40//39 32//39 30//39 42//39
f 47//16 48//16 45//16 46//16
f 52//25 41//25 3//25 51//25
f 47//40 46//40 56//40 58//40
f 56//17 60//17 61//17 57//17
f 18//5 21//5 19//5 20//5
f 44//41 30//41 19//41 50//41
f 5//42 7//42 55//42 36//42
f 6//43 58//43 56//43 7//43
f 17//44 22//44 9//44 15//44
f 10//45 11//45 12//45 13//45
f 6//46 8//46 24//46 58//46
f 47//47 58//47 24//47 48//47
f 37//48 57//48 61//48 62//48
f 50//49 19//49 21//49 49//49
f 53//50 49//50 21//50 27//50
f 55//51 57//51 37//51 36//51
f 45//52 18//52 20//52 31//52
f 3//53 4//53 1//53 2//53
f 23//54 25//54 24//54 8//54
