# Blender 4.0.1
# www.blender.org
o star.001
v -0.447226 -0.341640 -0.324908
v 0.170824 -0.105590 -0.525725
v 0.170820 -0.341638 -0.525730
v 0.105591 -0.447211 -0.324922
v 0.381966 0.000002 -0.525728
v 0.552784 -0.341641 0.000000
v 0.341649 -0.447211 0.000017
v 0.276404 -0.552779 0.200822
v 0.552788 -0.105559 0.000013
v 0.170820 -0.341638 0.525730
v 0.105559 -0.447211 0.324933
v -0.105580 -0.552779 0.324933
v -0.276393 -0.447209 0.200830
v -0.447207 -0.341640 0.324934
v -0.276379 -0.447215 -0.200824
v -0.341628 -0.552796 0.000002
v 0.276394 -0.552784 -0.200809
v -0.105571 -0.552796 -0.324907
v 0.447213 0.341638 0.324919
v 0.618038 0.000014 0.200806
v 0.447224 0.105581 -0.324907
v 0.618039 0.000012 -0.200802
v 0.341640 0.552784 0.000002
v 0.447225 0.341640 -0.324908
v -0.170820 0.341641 -0.525728
v -0.170824 0.105590 -0.525725
v 0.000010 0.000012 -0.649841
v 0.105574 0.552784 -0.324918
v -0.105557 0.447221 -0.324913
v -0.447224 -0.105569 -0.324904
v -0.381973 0.000014 -0.525729
v -0.552784 0.341641 0.000000
v -0.552782 0.105590 0.000005
v -0.618033 0.000012 -0.200822
v -0.447219 -0.105556 0.324922
v -0.618034 0.000014 0.200818
v -0.170814 0.105590 0.525728
v -0.381975 0.000012 0.525727
v 0.105579 0.552779 0.324933
v -0.170805 0.341643 0.525737
v 0.381966 0.000000 0.525728
v 0.170838 -0.105569 0.525725
v 0.000007 0.000014 0.649841
v 0.447204 0.105581 0.324934
v -0.341636 0.447215 0.000018
v -0.276382 0.552796 -0.200806
v -0.105570 0.447227 0.324906
v -0.276384 0.552796 0.200802
v 0.276381 0.447227 0.200805
v 0.276383 0.447227 -0.200802
v -0.618038 -0.500003 0.000001
v -0.670825 -0.394428 0.162462
v -0.756235 -0.223607 0.100406
v -0.756235 -0.223608 -0.100407
v -0.670826 -0.394426 -0.162455
v -0.361807 -0.394428 -0.587789
v -0.190985 -0.500003 -0.587788
v -0.329181 -0.223607 -0.688195
v -0.138196 -0.223608 -0.750250
v -0.052792 -0.394426 -0.688195
v 0.500005 -0.499997 -0.363274
v 0.447220 -0.394427 -0.525731
v 0.552791 -0.223611 -0.525730
v 0.670825 -0.223608 -0.363272
v 0.638197 -0.394428 -0.262872
v 0.638197 -0.394428 0.262872
v 0.500004 -0.499996 0.363276
v 0.670824 -0.223607 0.363274
v 0.552790 -0.223611 0.525730
v 0.447220 -0.394426 0.525731
v -0.190986 -0.499996 0.587791
v -0.052792 -0.394426 0.688195
v -0.138198 -0.223607 0.750250
v -0.329183 -0.223608 0.688194
v -0.361800 -0.394426 0.587792
v 0.138197 -0.776398 0.100407
v 0.138193 -0.776398 -0.100402
v -0.052788 -0.776397 0.162461
v -0.170815 -0.776397 0.000001
v -0.052786 -0.776397 -0.162454
v 0.618040 0.499997 0.000001
v 0.670825 0.394426 0.162456
v 0.756232 0.223613 0.100403
v 0.756233 0.223612 -0.100402
v 0.670826 0.394426 -0.162455
v 0.361806 0.394428 -0.587789
v 0.190986 0.499997 -0.587791
v 0.329178 0.223612 -0.688193
v 0.138201 0.223612 -0.750246
v 0.052792 0.394428 -0.688194
v -0.447220 0.394428 -0.525730
v -0.500002 0.500003 -0.363274
v -0.552789 0.223613 -0.525730
v -0.670820 0.223612 -0.363276
v -0.638197 0.394428 -0.262872
v -0.638197 0.394428 0.262872
v -0.500003 0.500003 0.363272
v -0.670820 0.223613 0.363275
v -0.552791 0.223612 0.525729
v -0.447216 0.394430 0.525734
v 0.190986 0.499996 0.587791
v 0.052793 0.394428 0.688194
v 0.138200 0.223613 0.750246
v 0.329179 0.223612 0.688194
v 0.361801 0.394426 0.587791
v -0.138191 0.776398 -0.100403
v -0.138192 0.776398 0.100401
v 0.052788 0.776397 0.162461
v 0.170816 0.776397 0.000001
v 0.052786 0.776397 -0.162455
vn -0.1625 -0.8506 0.5000
vn -0.5878 -0.0000 0.8090
vn -0.8507 0.5257 -0.0000
vn -0.5878 -0.0000 -0.8090
vn -0.1625 -0.8506 -0.5000
vn -0.5257 -0.8506 -0.0000
vn -0.9511 -0.0000 -0.3090
vn -0.2629 0.5257 -0.8090
vn 0.5878 -0.0000 -0.8090
vn 0.4253 -0.8506 -0.3090
vn -0.1625 -0.8507 -0.5000
vn -0.0000 -0.0000 -1.0000
vn 0.6882 0.5257 -0.5000
vn 0.9511 -0.0000 0.3090
vn 0.4253 -0.8507 0.3090
vn 0.4253 -0.8507 -0.3090
vn 0.9511 -0.0000 -0.3090
vn 0.6882 0.5257 0.5000
vn -0.0000 -0.0000 1.0000
vn -0.1624 -0.8507 0.5000
vn 0.5878 -0.0000 0.8090
vn -0.2629 0.5257 0.8090
vn -0.9511 -0.0000 0.3090
vn 0.8506 -0.5257 -0.0000
vn 0.2629 -0.5257 0.8090
vn -0.6882 -0.5257 0.5000
vn -0.6882 -0.5257 -0.5000
vn 0.2629 -0.5257 -0.8090
vn 0.1625 0.8506 0.5000
vn 0.1625 0.8506 -0.5000
vn 0.5257 0.8507 -0.0000
vn -0.4253 0.8507 -0.3090
vn -0.4253 0.8506 0.3090
vn -0.4253 0.8506 -0.3090
vn 0.1625 0.8507 0.5000
vn -0.4253 0.8507 0.3090
vn -0.8944 -0.4472 -0.0000
vn 0.2764 0.4472 0.8507
vn -0.0000 -1.0000 -0.0000
vn -0.0000 1.0000 -0.0000
vn -0.2764 -0.4472 0.8507
vn -0.7236 0.4472 0.5257
vn 0.2764 0.4472 -0.8507
vn -0.7236 0.4472 -0.5257
vn 0.8944 0.4472 -0.0000
vn 0.7236 -0.4472 0.5257
vn 0.7236 -0.4472 -0.5257
vn -0.2764 -0.4472 -0.8507
s 0
f 52//1 51//1 16//1 13//1 14//1
f 53//2 52//2 14//2 35//2 36//2
f 36//3 33//3 34//3 54//3 53//3
f 1//4 55//4 54//4 34//4 30//4
f 51//5 55//5 1//5 15//5 16//5
f 57//6 18//6 15//6 1//6 56//6
f 58//7 56//7 1//7 30//7 31//7
f 31//8 26//8 27//8 59//8 58//8
f 3//9 60//9 59//9 27//9 2//9
f 60//10 3//10 4//10 18//10 57//10
f 3//11 62//11 61//11 17//11 4//11
f 62//12 3//12 2//12 5//12 63//12
f 5//13 21//13 22//13 64//13 63//13
f 6//14 65//14 64//14 22//14 9//14
f 6//15 7//15 17//15 61//15 65//15
f 67//16 8//16 7//16 6//16 66//16
f 6//17 9//17 20//17 68//17 66//17
f 68//18 20//18 44//18 41//18 69//18
f 41//19 42//19 10//19 70//19 69//19
f 8//20 67//20 70//20 10//20 11//20
f 71//15 12//15 11//15 10//15 72//15
f 73//21 72//21 10//21 42//21 43//21
f 43//22 37//22 38//22 74//22 73//22
f 14//23 75//23 74//23 38//23 35//23
f 75//6 14//6 13//6 12//6 71//6
f 17//24 7//24 8//24 76//24 77//24
f 76//25 8//25 11//25 12//25 78//25
f 78//26 12//26 13//26 16//26 79//26
f 79//27 16//27 15//27 18//27 80//27
f 18//28 4//28 17//28 77//28 80//28
f 19//29 82//29 81//29 23//29 49//29
f 82//21 19//21 44//21 20//21 83//21
f 20//24 9//24 22//24 84//24 83//24
f 24//9 85//9 84//9 22//9 21//9
f 81//30 85//30 24//30 50//30 23//30
f 28//31 50//31 24//31 86//31 87//31
f 86//17 24//17 21//17 5//17 88//17
f 5//28 2//28 27//28 89//28 88//28
f 27//4 26//4 25//4 90//4 89//4
f 25//32 29//32 28//32 87//32 90//32
f 25//30 91//30 92//30 46//30 29//30
f 31//12 93//12 91//12 25//12 26//12
f 93//27 31//27 30//27 34//27 94//27
f 33//23 32//23 95//23 94//23 34//23
f 32//33 45//33 46//33 92//33 95//33
f 45//34 32//34 96//34 97//34 48//34
f 96//7 32//7 33//7 36//7 98//7
f 38//26 99//26 98//26 36//26 35//26
f 100//19 99//19 38//19 37//19 40//19
f 48//35 97//35 100//35 40//35 47//35
f 40//36 102//36 101//36 39//36 47//36
f 102//2 40//2 37//2 43//2 103//2
f 42//25 41//25 104//25 103//25 43//25
f 44//14 19//14 105//14 104//14 41//14
f 19//31 49//31 39//31 101//31 105//31
f 106//3 46//3 45//3 48//3 107//3
f 47//22 39//22 108//22 107//22 48//22
f 23//18 109//18 108//18 39//18 49//18
f 23//13 50//13 28//13 110//13 109//13
f 28//8 29//8 46//8 106//8 110//8
f 47//22 39//22 108//22 107//22 48//22
f 51//37 52//37 53//37 54//37 55//37
f 101//38 102//38 103//38 104//38 105//38
f 79//39 80//39 77//39 76//39 78//39
f 106//40 107//40 108//40 109//40 110//40
f 71//41 72//41 73//41 74//41 75//41
f 97//42 96//42 98//42 99//42 100//42
f 89//43 90//43 87//43 86//43 88//43
f 95//44 92//44 91//44 93//44 94//44
f 85//45 81//45 82//45 83//45 84//45
f 67//46 66//46 68//46 69//46 70//46
f 61//47 62//47 63//47 64//47 65//47
f 59//48 60//48 57//48 56//48 58//48
