# Blender 4.0.1
# www.blender.org
o Cube.041
v 0.012919 0.020906 9.990611
v 0.000689 0.042812 9.972404
v 0.037982 0.019764 9.972404
v 0.025752 0.041671 9.954195
v 0.026457 0.042810 10.007873
v 0.014227 0.064717 9.989664
v 0.051520 0.041669 9.989664
v 0.039290 0.063575 9.971457
v 0.026758 0.064146 9.980560
v 0.007458 0.053765 9.981034
v 0.006804 0.031859 9.981507
v 0.045405 0.052622 9.980560
v 0.031867 0.030718 9.963300
v 0.020342 0.053764 9.998769
v 0.044751 0.030716 9.981034
v 0.025451 0.020335 9.981507
v 0.032521 0.052623 9.962826
v 0.038988 0.042239 9.998769
v 0.019688 0.031858 9.999242
v 0.013221 0.042242 9.963300
v 0.032220 0.031287 9.990138
v 0.038636 0.041670 9.971930
v 0.032873 0.053193 9.989664
v 0.019990 0.053194 9.971930
v 0.019336 0.031288 9.972404
v 0.013573 0.042811 9.990138
vn 0.3945 -0.7067 0.5874
vn 0.3945 -0.7067 0.5873
vn 0.8085 -0.0368 -0.5874
vn 0.4367 0.7066 0.5568
vn -0.3946 0.7066 -0.5873
vn -0.3945 0.7067 -0.5874
vn -0.3946 0.7067 -0.5873
vn -0.4366 -0.7066 -0.5568
vn -0.4367 -0.7066 -0.5568
vn -0.8085 0.0368 0.5874
s 0
f 1//1 16//1 21//1 19//1
f 19//1 21//1 18//1 5//1
f 21//1 15//1 7//1 18//1
f 16//2 3//2 15//2 21//2
f 4//3 17//3 22//3 13//3
f 13//3 22//3 15//3 3//3
f 22//3 12//3 7//3 15//3
f 17//3 8//3 12//3 22//3
f 8//4 9//4 23//4 12//4
f 12//4 23//4 18//4 7//4
f 23//4 14//4 5//4 18//4
f 9//4 6//4 14//4 23//4
f 6//5 9//5 24//5 10//5
f 10//6 24//6 20//6 2//6
f 24//7 17//7 4//7 20//7
f 9//6 8//6 17//6 24//6
f 2//8 20//8 25//8 11//8
f 11//9 25//9 16//9 1//9
f 25//9 13//9 3//9 16//9
f 20//9 4//9 13//9 25//9
f 6//10 10//10 26//10 14//10
f 14//10 26//10 19//10 5//10
f 26//10 11//10 1//10 19//10
f 10//10 2//10 11//10 26//10
o Cube.042
v 0.012921 0.020906 10.009385
v 0.026459 0.042812 9.992127
v 0.037983 0.019764 10.027596
v 0.051521 0.041671 10.010338
v 0.000688 0.042810 10.027595
v 0.014226 0.064717 10.010337
v 0.025750 0.041668 10.045805
v 0.039288 0.063575 10.028546
vn -0.4367 -0.7067 0.5567
vn 0.8085 -0.0368 0.5874
vn -0.3946 0.7066 0.5874
vn 0.4367 0.7067 -0.5567
vn 0.3946 -0.7066 -0.5874
vn -0.8084 0.0368 -0.5874
s 0
f 27//11 29//11 33//11 31//11
f 30//12 34//12 33//12 29//12
f 34//13 32//13 31//13 33//13
f 32//14 34//14 30//14 28//14
f 28//15 30//15 29//15 27//15
f 32//16 28//16 27//16 31//16
o Cube.043
v -0.004933 0.020906 10.015189
v 0.015663 0.042812 10.022731
v -0.014508 0.019764 10.044652
v 0.006089 0.041671 10.052194
v -0.026031 0.042810 10.009182
v -0.005434 0.064717 10.016724
v -0.035605 0.041669 10.038645
v -0.015009 0.063575 10.046186
vn -0.6644 -0.7067 -0.2433
vn -0.3088 -0.0368 0.9504
vn -0.6806 0.7066 -0.1938
vn 0.6644 0.7067 0.2433
vn 0.6806 -0.7066 0.1938
vn 0.3088 0.0368 -0.9504
s 0
f 35//17 37//17 41//17 39//17
f 38//18 42//18 41//18 37//18
f 42//19 40//19 39//19 41//19
f 40//20 42//20 38//20 36//20
f 36//21 38//21 37//21 35//21
f 40//22 36//22 35//22 39//22
o Cube.044
v -0.015970 0.020906 10.000002
v -0.016778 0.042812 10.021921
v -0.046949 0.019764 10.000001
v -0.047757 0.041671 10.021920
v -0.016776 0.042810 9.978080
v -0.017585 0.064717 9.999999
v -0.047756 0.041669 9.978079
v -0.048564 0.063575 9.999998
vn 0.0260 -0.7067 -0.7071
vn -0.9993 -0.0368 -0.0000
vn -0.0260 0.7066 -0.7071
vn -0.0260 0.7067 0.7071
vn 0.0260 -0.7066 0.7071
vn 0.9993 0.0368 -0.0000
s 0
f 43//23 45//23 49//23 47//23
f 46//24 50//24 49//24 45//24
f 50//25 48//25 47//25 49//25
f 48//26 50//26 46//26 44//26
f 44//27 46//27 45//27 43//27
f 48//28 44//28 43//28 47//28
o Cube.045
v -0.004937 0.020906 9.984812
v -0.026033 0.042812 9.990817
v -0.014509 0.019764 9.955349
v -0.035605 0.041671 9.961353
v 0.015663 0.042810 9.977271
v -0.005433 0.064717 9.983275
v 0.006091 0.041669 9.947807
v -0.015005 0.063575 9.953813
vn 0.6805 -0.7067 -0.1937
vn -0.3088 -0.0368 -0.9504
vn 0.6645 0.7066 -0.2433
vn -0.6805 0.7067 0.1937
vn -0.6645 -0.7066 0.2433
vn 0.3088 0.0368 0.9504
s 0
f 51//29 53//29 57//29 55//29
f 54//30 58//30 57//30 53//30
f 58//31 56//31 55//31 57//31
f 56//32 58//32 54//32 52//32
f 52//33 54//33 53//33 51//33
f 56//34 52//34 51//34 55//34
o Cube.046
v 0.025839 -0.004933 9.999998
v 0.045794 0.004142 9.978079
v 0.038673 -0.033151 9.999999
v 0.058628 -0.024077 9.978080
v 0.045791 0.004143 10.021920
v 0.065746 0.013217 10.000001
v 0.058625 -0.024076 10.021921
v 0.078581 -0.015001 10.000002
vn -0.6437 -0.2927 0.7070
vn 0.4140 -0.9103 -0.0000
vn 0.6436 0.2928 0.7072
vn 0.6437 0.2927 -0.7070
vn -0.6437 -0.2927 -0.7071
vn -0.4140 0.9103 -0.0000
s 0
f 59//35 61//35 65//35 63//35
f 62//36 66//36 65//36 61//36
f 66//37 64//37 63//37 65//37
f 64//38 66//38 62//38 60//38
f 60//39 62//39 61//39 59//39
f 64//40 60//40 59//40 63//40
o Cube.047
v 0.007983 -0.004933 9.975425
v -0.006697 0.004142 9.949673
v 0.011950 -0.033151 9.963220
v -0.002730 -0.024077 9.937468
v 0.034997 0.004143 9.963223
v 0.020317 0.013217 9.937471
v 0.038964 -0.024076 9.951017
v 0.024284 -0.015001 9.925266
vn 0.4735 -0.2927 0.8307
vn 0.1280 -0.9103 -0.3937
vn 0.8714 0.2927 -0.3936
vn -0.4735 0.2927 -0.8307
vn -0.8714 -0.2927 0.3936
vn -0.1280 0.9103 0.3937
s 0
f 67//41 69//41 73//41 71//41
f 70//42 74//42 73//42 69//42
f 74//43 72//43 71//43 73//43
f 72//44 74//44 70//44 68//44
f 68//45 70//45 69//45 67//45
f 72//46 68//46 67//46 71//46
o Cube.048
v -0.020905 -0.004933 9.984814
v -0.049933 0.004142 9.990817
v -0.031288 -0.033151 9.977269
v -0.060316 -0.024077 9.983273
v -0.024162 0.004143 9.955351
v -0.053190 0.013217 9.961355
v -0.034544 -0.024076 9.947806
v -0.063572 -0.015001 9.953810
vn 0.9364 -0.2927 -0.1937
vn -0.3349 -0.9103 -0.2434
vn -0.1050 0.2928 -0.9504
vn -0.9364 0.2927 0.1937
vn 0.1051 -0.2927 0.9504
vn 0.3349 0.9103 0.2434
s 0
f 75//47 77//47 81//47 79//47
f 78//48 82//48 81//48 77//48
f 82//49 80//49 79//49 81//49
f 80//50 82//50 78//50 76//50
f 76//51 78//51 77//51 75//51
f 80//52 76//52 75//52 79//52
o Cube.049
v -0.020903 -0.004933 10.015189
v -0.024163 0.004142 10.044652
v -0.031287 -0.033151 10.022732
v -0.034547 -0.024077 10.052195
v -0.049930 0.004143 10.009182
v -0.053190 0.013217 10.038644
v -0.060314 -0.024076 10.016725
v -0.063574 -0.015001 10.046187
vn 0.1052 -0.2927 -0.9504
vn -0.3350 -0.9103 0.2433
vn -0.9363 0.2928 -0.1938
vn -0.1052 0.2927 0.9504
vn 0.9363 -0.2928 0.1938
vn 0.3350 0.9103 -0.2433
s 0
f 83//53 85//53 89//53 87//53
f 86//54 90//54 89//54 85//54
f 90//55 88//55 87//55 89//55
f 88//56 90//56 86//56 84//56
f 84//57 86//57 85//57 83//57
f 88//58 84//58 83//58 87//58
o Cube.050
v 0.007986 -0.004933 10.024574
v 0.034999 0.004142 10.036778
v 0.011951 -0.033151 10.036780
v 0.038964 -0.024077 10.048985
v -0.006697 0.004143 10.050323
v 0.020316 0.013217 10.062529
v -0.002732 -0.024076 10.062531
v 0.024281 -0.015001 10.074735
vn -0.8714 -0.2928 -0.3937
vn 0.1279 -0.9103 0.3937
vn -0.4737 0.2928 0.8306
vn 0.8714 0.2927 0.3937
vn 0.4736 -0.2928 -0.8307
vn -0.1279 0.9103 -0.3938
s 0
f 91//59 93//59 97//59 95//59
f 94//60 98//60 97//60 93//60
f 98//61 96//61 95//61 97//61
f 96//62 98//62 94//62 92//62
f 92//63 94//63 93//63 91//63
f 96//64 92//64 91//64 95//64
o Cube.051
v 0.020905 0.004937 9.984814
v 0.049933 -0.004138 9.990817
v 0.031288 0.033155 9.977269
v 0.060316 0.024081 9.983273
v 0.024162 -0.004139 9.955351
v 0.053190 -0.013213 9.961355
v 0.034544 0.024080 9.947806
v 0.063572 0.015005 9.953810
vn -0.9364 0.2927 -0.1937
vn 0.3349 0.9103 -0.2434
vn 0.1050 -0.2928 -0.9504
vn 0.9364 -0.2927 0.1937
vn -0.1051 0.2927 0.9504
vn -0.3349 -0.9103 0.2434
s 0
f 99//65 101//65 105//65 103//65
f 102//66 106//66 105//66 101//66
f 106//67 104//67 103//67 105//67
f 104//68 106//68 102//68 100//68
f 100//69 102//69 101//69 99//69
f 104//70 100//70 99//70 103//70
o Cube.052
v 0.020903 0.004937 10.015189
v 0.024163 -0.004138 10.044652
v 0.031287 0.033155 10.022732
v 0.034547 0.024081 10.052195
v 0.049930 -0.004139 10.009182
v 0.053190 -0.013213 10.038644
v 0.060314 0.024080 10.016725
v 0.063574 0.015005 10.046187
vn -0.1052 0.2927 -0.9504
vn 0.3350 0.9103 0.2433
vn 0.9363 -0.2928 -0.1938
vn 0.1052 -0.2927 0.9504
vn -0.9363 0.2928 0.1938
vn -0.3350 -0.9103 -0.2433
s 0
f 107//71 109//71 113//71 111//71
f 110//72 114//72 113//72 109//72
f 114//73 112//73 111//73 113//73
f 112//74 114//74 110//74 108//74
f 108//75 110//75 109//75 107//75
f 112//76 108//76 107//76 111//76
o Cube.053
v -0.007986 0.004937 10.024574
v -0.034999 -0.004138 10.036778
v -0.011951 0.033155 10.036780
v -0.038964 0.024081 10.048985
v 0.006697 -0.004139 10.050323
v -0.020316 -0.013213 10.062529
v 0.002732 0.024080 10.062531
v -0.024281 0.015005 10.074736
vn 0.8714 0.2928 -0.3937
vn -0.1279 0.9103 0.3937
vn 0.4737 -0.2928 0.8306
vn -0.8714 -0.2927 0.3937
vn -0.4736 0.2928 -0.8307
vn 0.1279 -0.9103 -0.3938
s 0
f 115//77 117//77 121//77 119//77
f 118//78 122//78 121//78 117//78
f 122//79 120//79 119//79 121//79
f 120//80 122//80 118//80 116//80
f 116//81 118//81 117//81 115//81
f 120//82 116//82 115//82 119//82
o Cube.054
v -0.025839 0.004937 9.999998
v -0.045794 -0.004138 9.978079
v -0.038673 0.033155 9.999999
v -0.058628 0.024081 9.978080
v -0.045791 -0.004139 10.021920
v -0.065746 -0.013213 10.000001
v -0.058625 0.024080 10.021921
v -0.078581 0.015005 10.000002
vn 0.6437 0.2927 0.7070
vn -0.4140 0.9103 -0.0000
vn -0.6436 -0.2928 0.7072
vn -0.6437 -0.2927 -0.7071
vn 0.6436 0.2927 -0.7071
vn 0.4140 -0.9103 -0.0000
s 0
f 123//83 125//83 129//83 127//83
f 126//84 130//84 129//84 125//84
f 130//85 128//85 127//85 129//85
f 128//86 130//86 126//86 124//86
f 124//87 126//87 125//87 123//87
f 128//88 124//88 123//88 127//88
o Cube.055
v -0.007983 0.004937 9.975425
v 0.006697 -0.004138 9.949674
v -0.011950 0.033155 9.963220
v 0.002730 0.024081 9.937468
v -0.034997 -0.004139 9.963223
v -0.020317 -0.013213 9.937471
v -0.038964 0.024080 9.951017
v -0.024284 0.015005 9.925266
vn -0.4735 0.2927 0.8307
vn -0.1280 0.9103 -0.3937
vn -0.8714 -0.2928 -0.3936
vn 0.4736 -0.2927 -0.8307
vn 0.8714 0.2928 0.3936
vn 0.1280 -0.9103 0.3937
s 0
f 131//89 133//89 137//89 135//89
f 134//90 138//90 137//90 133//90
f 138//91 136//91 135//91 137//91
f 136//92 138//92 134//92 132//92
f 132//93 134//93 133//93 131//93
f 136//94 132//94 131//94 135//94
o Cube.056
v 0.015970 -0.020902 10.000002
v 0.016778 -0.042809 10.021921
v 0.046949 -0.019760 10.000001
v 0.047757 -0.041667 10.021920
v 0.016776 -0.042806 9.978080
v 0.017585 -0.064713 9.999999
v 0.047756 -0.041665 9.978079
v 0.048564 -0.063571 9.999998
vn -0.0260 0.7067 -0.7071
vn 0.9993 0.0368 -0.0000
vn 0.0260 -0.7066 -0.7071
vn 0.0260 -0.7067 0.7071
vn -0.0260 0.7066 0.7071
vn -0.9993 -0.0368 -0.0000
s 0
f 139//95 141//95 145//95 143//95
f 142//96 146//96 145//96 141//96
f 146//97 144//97 143//97 145//97
f 144//98 146//98 142//98 140//98
f 140//99 142//99 141//99 139//99
f 144//100 140//100 139//100 143//100
o Cube.057
v 0.004937 -0.020902 9.984812
v 0.026033 -0.042808 9.990817
v 0.014509 -0.019760 9.955349
v 0.035605 -0.041667 9.961353
v -0.015663 -0.042806 9.977271
v 0.005433 -0.064713 9.983275
v -0.006091 -0.041665 9.947807
v 0.015005 -0.063571 9.953813
vn -0.6805 0.7067 -0.1937
vn 0.3088 0.0368 -0.9504
vn -0.6645 -0.7066 -0.2433
vn 0.6805 -0.7067 0.1937
vn 0.6645 0.7066 0.2433
vn -0.3088 -0.0368 0.9504
s 0
f 147//101 149//101 153//101 151//101
f 150//102 154//102 153//102 149//102
f 154//103 152//103 151//103 153//103
f 152//104 154//104 150//104 148//104
f 148//105 150//105 149//105 147//105
f 152//106 148//106 147//106 151//106
o Cube.058
v -0.012919 -0.020902 9.990611
v -0.000689 -0.042808 9.972404
v -0.037982 -0.019760 9.972404
v -0.025752 -0.041667 9.954195
v -0.026457 -0.042806 10.007873
v -0.014227 -0.064713 9.989664
v -0.051520 -0.041665 9.989664
v -0.039290 -0.063571 9.971457
vn -0.3945 0.7067 0.5873
vn -0.8085 0.0368 -0.5874
vn -0.4367 -0.7066 0.5568
vn 0.3945 -0.7067 -0.5873
vn 0.4367 0.7066 -0.5568
vn 0.8085 -0.0368 0.5874
s 0
f 155//107 157//107 161//107 159//107
f 158//108 162//108 161//108 157//108
f 162//109 160//109 159//109 161//109
f 160//110 162//110 158//110 156//110
f 156//111 158//111 157//111 155//111
f 160//112 156//112 155//112 159//112
o Cube.059
v -0.012921 -0.020902 10.009385
v -0.026459 -0.042808 9.992127
v -0.037983 -0.019760 10.027596
v -0.051521 -0.041667 10.010338
v -0.000688 -0.042806 10.027595
v -0.014226 -0.064713 10.010337
v -0.025750 -0.041665 10.045805
v -0.039288 -0.063571 10.028546
vn 0.4367 0.7067 0.5567
vn -0.8085 0.0368 0.5874
vn 0.3946 -0.7066 0.5874
vn -0.4367 -0.7067 -0.5567
vn -0.3946 0.7066 -0.5874
vn 0.8084 -0.0368 -0.5874
s 0
f 163//113 165//113 169//113 167//113
f 166//114 170//114 169//114 165//114
f 170//115 168//115 167//115 169//115
f 168//116 170//116 166//116 164//116
f 164//117 166//117 165//117 163//117
f 168//118 164//118 163//118 167//118
o Cube.060
v 0.004933 -0.020902 10.015189
v -0.015663 -0.042808 10.022731
v 0.014508 -0.019760 10.044652
v -0.006089 -0.041667 10.052194
v 0.026031 -0.042806 10.009182
v 0.005435 -0.064713 10.016724
v 0.035605 -0.041665 10.038644
v 0.015009 -0.063571 10.046186
vn 0.6644 0.7067 -0.2433
vn 0.3089 0.0368 0.9504
vn 0.6806 -0.7066 -0.1938
vn -0.6644 -0.7067 0.2433
vn -0.6806 0.7066 0.1938
vn -0.3088 -0.0368 -0.9504
s 0
f 171//119 173//119 177//119 175//119
f 174//120 178//120 177//120 173//120
f 178//121 176//121 175//121 177//121
f 176//122 178//122 174//122 172//122
f 172//123 174//123 173//123 171//123
f 176//124 172//124 171//124 175//124
