# Blender 4.0.1
# www.blender.org
o 4_compound.001
v -1.500000 1.500000 -1.500000
v 1.500000 -1.500000 1.500000
v -2.500000 -0.500000 0.500000
v 2.500000 0.500000 -0.500000
v -0.500000 -2.500000 -0.500000
v 0.500000 2.500000 0.500000
v -0.500000 0.500000 2.500000
v 0.500000 -0.500000 -2.500000
vn 0.3333 0.6667 -0.6667
vn -0.3333 -0.6667 0.6667
vn 0.6667 -0.6667 -0.3333
vn -0.6667 -0.3333 -0.6667
vn -0.6667 0.6667 0.3333
vn 0.6667 0.3333 0.6667
s 0
f 4//1 8//1 1//1 6//1
f 3//2 5//2 2//2 7//2
f 8//3 4//3 2//3 5//3
f 5//4 3//4 1//4 8//4
f 7//5 6//5 1//5 3//5
f 6//6 7//6 2//6 4//6
o 4_compound.002
v -1.500000 1.500001 1.500000
v 1.500000 -1.500001 -1.500000
v -2.500000 -0.500000 -0.500000
v 2.500000 0.500000 0.500000
v -0.500000 0.500000 -2.500000
v 0.500000 -0.500000 2.500000
v -0.500000 -2.500000 0.500000
v 0.500000 2.500000 -0.500000
vn 0.3333 0.6667 0.6667
vn -0.3333 -0.6667 -0.6667
vn 0.6667 0.3333 -0.6667
vn -0.6667 0.6667 -0.3333
vn -0.6667 -0.3333 0.6667
vn 0.6667 -0.6667 0.3333
s 0
f 12//7 16//7 9//7 14//7
f 11//8 13//8 10//8 15//8
f 16//9 12//9 10//9 13//9
f 13//10 11//10 9//10 16//10
f 15//11 14//11 9//11 11//11
f 14//12 15//12 10//12 12//12
o 4_compound.007
v -1.500000 -1.500000 1.500000
v 1.500000 1.500000 -1.500000
v -2.500000 0.500000 -0.500000
v 2.500000 -0.500000 0.500000
v -0.500000 2.500000 0.500000
v 0.500000 -2.500000 -0.500000
v -0.500000 -0.500000 -2.500000
v 0.500000 0.500000 2.500000
vn 0.3333 -0.6667 0.6667
vn -0.3333 0.6667 -0.6667
vn 0.6667 0.6667 0.3333
vn -0.6667 0.3333 0.6667
vn -0.6667 -0.6667 -0.3333
vn 0.6667 -0.3333 -0.6667
s 0
f 20//13 24//13 17//13 22//13
f 19//14 21//14 18//14 23//14
f 24//15 20//15 18//15 21//15
f 21//16 19//16 17//16 24//16
f 23//17 22//17 17//17 19//17
f 22//18 23//18 18//18 20//18
o 4_compound.008
v -1.500000 -1.500000 -1.500001
v 1.500000 1.500000 1.500001
v -2.500000 0.500000 0.500000
v 2.500000 -0.500000 -0.500000
v -0.500000 -0.500001 2.500000
v 0.500000 0.500001 -2.500000
v -0.500000 2.500000 -0.500000
v 0.500000 -2.500000 0.500000
vn 0.3333 -0.6667 -0.6667
vn -0.3333 0.6667 0.6667
vn 0.6667 -0.3333 0.6667
vn -0.6667 -0.6667 0.3333
vn -0.6667 0.3333 -0.6667
vn 0.6667 0.6667 -0.3333
s 0
f 28//19 32//19 25//19 30//19
f 27//20 29//20 26//20 31//20
f 32//21 28//21 26//21 29//21
f 29//22 27//22 25//22 32//22
f 31//23 30//23 25//23 27//23
f 30//24 31//24 26//24 28//24
o 4_compound.010
v -0.042000 0.042000 -0.042000
v 0.014000 0.070000 0.014000
v -0.018000 0.054000 -0.018000
v 0.000000 0.063000 -0.000000
v 0.018000 0.054000 0.018000
v -0.054000 0.018000 -0.018000
v -0.034364 0.034364 -0.011455
v 0.000000 0.042000 0.042000
v 0.011455 0.034364 0.034364
v -0.011455 0.034364 -0.034364
v -0.018000 0.018000 -0.054000
v 0.042000 0.042000 -0.000000
v -0.034364 0.011455 -0.034364
v 0.034364 0.034364 0.011455
vn 0.3333 0.6667 -0.6667
vn -0.6667 -0.3333 -0.6667
vn -0.6667 0.6667 0.3333
vn 0.6667 0.3334 0.6667
s 0
f 33//25 35//25 42//25 43//25
f 34//25 44//25 36//25
f 33//26 43//26 45//26 38//26
f 39//27 35//27 33//27 38//27
f 40//27 34//27 36//27
f 34//28 40//28 41//28 37//28 46//28 44//28
