# Blender 4.0.1
# www.blender.org
o Solid
v 0.596358 -0.035330 -0.567045
v 0.723576 -0.035330 -0.391944
v 0.780519 -0.149216 -0.216692
v 0.745357 -0.333328 -0.108473
v 0.631471 -0.517599 -0.108473
v 0.482521 -0.631386 -0.216692
v 0.355193 -0.631386 -0.391944
v 0.298299 -0.517599 -0.567045
v 0.333492 -0.333328 -0.675357
v 0.447280 -0.149216 -0.675357
v -0.355193 0.631386 -0.391944
v -0.298299 0.517599 -0.567045
v -0.333492 0.333328 -0.675357
v -0.447280 0.149216 -0.675357
v -0.596358 0.035330 -0.567045
v -0.723576 0.035330 -0.391944
v -0.780519 0.149216 -0.216692
v -0.745357 0.333328 -0.108473
v -0.631471 0.517599 -0.108473
v -0.482521 0.631386 -0.216692
v 0.723576 -0.035330 0.391944
v 0.596358 -0.035330 0.567045
v 0.447280 -0.149216 0.675357
v 0.333492 -0.333328 0.675357
v 0.298299 -0.517599 0.567045
v 0.355193 -0.631386 0.391944
v 0.482521 -0.631386 0.216692
v 0.631471 -0.517599 0.108473
v 0.745357 -0.333328 0.108473
v 0.780519 -0.149216 0.216692
v -0.298299 0.517599 0.567045
v -0.355193 0.631386 0.391944
v -0.482521 0.631386 0.216692
v -0.631471 0.517599 0.108473
v -0.745357 0.333328 0.108473
v -0.780519 0.149216 0.216692
v -0.723576 0.035330 0.391944
v -0.596358 0.035330 0.567045
v -0.447280 0.149216 0.675357
v -0.333492 0.333328 0.675357
v 0.758821 0.149216 -0.283471
v 0.666765 0.333328 -0.350353
v 0.574630 0.517599 -0.283413
v 0.517736 0.631386 -0.108312
v 0.517736 0.631386 0.108312
v 0.574630 0.517599 0.283413
v 0.666765 0.333328 0.350353
v 0.758821 0.149216 0.283471
v 0.815764 0.035330 0.108218
v 0.815764 0.035330 -0.108218
v 0.000049 -0.745442 -0.350353
v 0.205893 -0.745442 -0.283471
v 0.333221 -0.745442 -0.108218
v 0.333221 -0.745442 0.108218
v 0.205893 -0.745442 0.283471
v 0.000049 -0.745442 0.350353
v -0.205972 -0.745442 0.283413
v -0.333191 -0.745442 0.108312
v -0.333191 -0.745442 -0.108312
v -0.205972 -0.745442 -0.283413
v -0.000049 0.745442 -0.350353
v -0.205893 0.745442 -0.283471
v -0.333221 0.745442 -0.108218
v -0.333221 0.745442 0.108218
v -0.205893 0.745442 0.283471
v -0.000049 0.745442 0.350353
v 0.205972 0.745442 0.283413
v 0.333191 0.745442 0.108312
v 0.333191 0.745442 -0.108312
v 0.205972 0.745442 -0.283413
v -0.758821 -0.149216 -0.283471
v -0.666765 -0.333328 -0.350353
v -0.574630 -0.517599 -0.283413
v -0.517736 -0.631386 -0.108312
v -0.517736 -0.631386 0.108312
v -0.574630 -0.517599 0.283413
v -0.666765 -0.333328 0.350353
v -0.758821 -0.149216 0.283471
v -0.815764 -0.035330 0.108218
v -0.815764 -0.035330 -0.108218
v 0.539248 0.333328 -0.525867
v 0.504085 0.149216 -0.634085
v 0.355007 0.035330 -0.742397
v 0.149163 0.035330 -0.809279
v -0.035108 0.149216 -0.809279
v -0.127164 0.333328 -0.742397
v -0.091971 0.517599 -0.634085
v 0.056979 0.631386 -0.525867
v 0.263000 0.631386 -0.458926
v 0.447112 0.517599 -0.458926
v 0.504085 0.149216 0.634085
v 0.539248 0.333328 0.525867
v 0.447112 0.517599 0.458926
v 0.263000 0.631386 0.458926
v 0.056979 0.631386 0.525867
v -0.091971 0.517599 0.634085
v -0.127164 0.333328 0.742397
v -0.035108 0.149216 0.809279
v 0.149163 0.035330 0.809279
v 0.355007 0.035330 0.742397
v 0.091971 -0.517599 -0.634085
v -0.056979 -0.631386 -0.525867
v -0.263000 -0.631386 -0.458926
v -0.447112 -0.517599 -0.458926
v -0.539248 -0.333328 -0.525867
v -0.504085 -0.149216 -0.634085
v -0.355007 -0.035330 -0.742397
v -0.149163 -0.035330 -0.809279
v 0.035108 -0.149216 -0.809279
v 0.127164 -0.333328 -0.742397
v -0.056979 -0.631386 0.525867
v 0.091971 -0.517599 0.634085
v 0.127164 -0.333328 0.742397
v 0.035108 -0.149216 0.809279
v -0.149163 -0.035330 0.809279
v -0.355007 -0.035330 0.742397
v -0.504085 -0.149216 0.634085
v -0.539248 -0.333328 0.525867
v -0.447112 -0.517599 0.458926
v -0.263000 -0.631386 0.458926
vn 0.8507 -0.5257 -0.0000
vn -0.8507 0.5257 -0.0000
vn 0.9511 -0.0000 0.3090
vn 0.9511 -0.0000 -0.3090
vn 0.4253 -0.8506 -0.3090
vn 0.4253 -0.8506 0.3090
vn -0.4253 0.8506 -0.3090
vn -0.4253 0.8506 0.3090
vn 0.5257 0.8506 -0.0000
vn -0.5257 -0.8506 -0.0000
vn -0.9511 -0.0000 0.3090
vn -0.9511 -0.0000 -0.3090
vn 0.5878 -0.0000 -0.8090
vn -0.2629 0.5257 -0.8090
vn 0.1625 0.8506 -0.5000
vn 0.6882 0.5257 -0.5000
vn 0.6882 0.5257 0.5000
vn 0.1625 0.8506 0.5000
vn -0.2629 0.5257 0.8090
vn 0.5878 -0.0000 0.8090
vn -0.1625 -0.8507 -0.5000
vn -0.6882 -0.5257 -0.5000
vn -0.5878 -0.0000 -0.8090
vn -0.0000 -0.0000 -1.0000
vn 0.2629 -0.5257 -0.8090
vn 0.2629 -0.5257 0.8090
vn -0.0000 -0.0000 1.0000
vn -0.5878 -0.0000 0.8090
vn -0.6882 -0.5257 0.5000
vn -0.1625 -0.8507 0.5000
vn 0.6071 -0.7947 -0.0000
vn -0.9822 0.1876 -0.0000
vn 0.7947 0.1876 0.5774
vn 0.7947 0.1876 0.5773
vn 0.9822 -0.1876 -0.0000
vn -0.1876 0.7947 0.5774
vn 0.3035 -0.1876 -0.9342
vn 0.4911 0.7947 -0.3568
vn -0.4911 -0.7947 0.3568
vn -0.1876 0.7947 -0.5774
vn 0.4911 0.7947 0.3568
vn 0.1876 -0.7947 -0.5774
vn -0.7947 -0.1876 0.5773
vn -0.4911 -0.7947 -0.3568
vn 0.3035 -0.1876 0.9342
vn -0.3035 0.1876 0.9342
vn -0.3035 0.1876 -0.9342
vn -0.6071 0.7947 -0.0000
vn 0.7947 0.1876 -0.5773
vn -0.7947 -0.1876 -0.5773
vn 0.1876 -0.7947 0.5774
s 0
f 29//1 28//1 5//1 4//1
f 35//2 34//2 19//2 18//2
f 49//3 48//3 21//3 30//3
f 41//4 50//4 3//4 2//4
f 53//5 52//5 7//5 6//5
f 55//6 54//6 27//6 26//6
f 63//7 62//7 11//7 20//7
f 65//8 64//8 33//8 32//8
f 69//9 68//9 45//9 44//9
f 75//10 74//10 59//10 58//10
f 79//11 78//11 37//11 36//11
f 71//12 80//12 17//12 16//12
f 83//13 82//13 1//13 10//13
f 87//14 86//14 13//14 12//14
f 89//15 88//15 61//15 70//15
f 81//16 90//16 43//16 42//16
f 93//17 92//17 47//17 46//17
f 95//18 94//18 67//18 66//18
f 97//19 96//19 31//19 40//19
f 91//20 100//20 23//20 22//20
f 103//21 102//21 51//21 60//21
f 105//22 104//22 73//22 72//22
f 107//23 106//23 15//23 14//23
f 109//24 108//24 85//24 84//24
f 101//25 110//25 9//25 8//25
f 113//26 112//26 25//26 24//26
f 115//27 114//27 99//27 98//27
f 117//28 116//28 39//28 38//28
f 119//29 118//29 77//29 76//29
f 111//30 120//30 57//30 56//30
f 53//31 6//31 5//31 28//31 27//31 54//31
f 79//32 36//32 35//32 18//32 17//32 80//32
f 22//33 21//33 92//33 91//33
f 21//34 48//34 47//34 92//34
f 49//35 30//35 29//35 4//35 3//35 50//35
f 31//36 96//36 95//36 66//36 65//36 32//36
f 9//37 110//37 109//37 84//37 83//37 10//37
f 89//38 70//38 69//38 44//38 43//38 90//38
f 119//39 76//39 75//39 58//39 57//39 120//39
f 11//40 62//40 61//40 88//40 87//40 12//40
f 93//41 46//41 45//41 68//41 67//41 94//41
f 7//42 52//42 51//42 102//42 101//42 8//42
f 37//43 78//43 77//43 118//43 117//43 38//43
f 103//44 60//44 59//44 74//44 73//44 104//44
f 23//45 100//45 99//45 114//45 113//45 24//45
f 39//46 116//46 115//46 98//46 97//46 40//46
f 13//47 86//47 85//47 108//47 107//47 14//47
f 63//48 20//48 19//48 34//48 33//48 64//48
f 1//49 82//49 81//49 42//49 41//49 2//49
f 15//50 106//50 105//50 72//50 71//50 16//50
f 25//51 112//51 111//51 56//51 55//51 26//51
o Solid.001
v 0.333339 0.742397 -0.108308
v 0.206015 0.742397 -0.283555
v 0.149074 0.444250 -0.108308
v -0.056941 0.444250 -0.175247
v 0.092133 0.558132 -0.283555
v 0.206015 0.742397 0.283555
v 0.333339 0.742397 0.108308
v 0.092133 0.558132 0.283555
v -0.056941 0.444250 0.175247
v 0.149074 0.444250 0.108308
v -0.241206 0.558132 -0.175247
v -0.333339 0.742397 -0.108308
v -0.206015 0.742397 -0.283555
v -0.241206 0.558132 0.175247
v -0.206015 0.742397 0.283555
v -0.333339 0.742397 0.108308
v 0.000000 0.742397 -0.350493
v 0.000000 0.742397 0.350493
v 0.298147 0.558132 -0.000000
v -0.184265 0.444250 -0.000000
vn -0.1876 0.7947 0.5773
vn -0.1876 0.7947 -0.5773
vn 0.7947 0.1876 0.5773
vn 0.7947 0.1876 -0.5773
vn -0.3035 0.1876 0.9342
vn -0.3035 0.1876 -0.9342
vn -0.9822 0.1876 -0.0000
vn -0.6071 0.7947 -0.0000
vn 0.4911 0.7947 0.3568
vn 0.4911 0.7947 -0.3568
vn -0.7236 0.4472 0.5257
vn 0.2764 0.4472 0.8507
vn -0.7236 0.4472 -0.5257
vn 0.8944 0.4472 -0.0000
vn 0.2764 0.4472 -0.8507
s 0
f 123//52 125//52 124//52
f 128//53 130//53 129//53
f 131//54 133//54 132//54
f 134//55 136//55 135//55
f 122//56 137//56 125//56
f 126//57 128//57 138//57
f 121//58 139//58 127//58
f 139//59 123//59 130//59
f 124//60 131//60 140//60
f 129//61 140//61 134//61
f 121//62 122//62 125//62 139//62
f 139//62 125//62 123//62
f 125//63 137//63 133//63 124//63
f 124//63 133//63 131//63
f 127//64 139//64 130//64 126//64
f 126//64 130//64 128//64
f 136//65 134//65 140//65 132//65
f 132//65 140//65 131//65
f 134//66 135//66 138//66 129//66
f 129//66 138//66 128//66
o Solid.002
v 0.756153 0.147745 -0.283555
v 0.664020 0.332010 -0.350493
v 0.422814 0.147745 -0.175246
v 0.330681 0.332010 -0.108308
v 0.458005 0.332010 -0.283555
v 0.813094 0.033863 0.108308
v 0.813094 0.033863 -0.108308
v 0.607079 0.033863 0.175247
v 0.422814 0.147745 0.175247
v 0.479755 0.033863 -0.000000
v 0.365873 0.516275 -0.000000
v 0.514947 0.630157 0.108308
v 0.514947 0.630157 -0.108308
v 0.458005 0.332010 0.283555
v 0.664020 0.332010 0.350493
v 0.571888 0.516275 0.283555
v 0.571888 0.516275 -0.283555
v 0.756153 0.147745 0.283555
v 0.607079 0.033863 -0.175246
v 0.330681 0.332010 0.108308
v -0.036013 0.147745 -0.806767
v -0.128145 0.332010 -0.739829
v -0.036013 0.147745 -0.456274
v -0.000821 0.332010 -0.347966
v -0.128145 0.332010 -0.523212
v 0.354267 0.033863 -0.739829
v 0.148252 0.033863 -0.806767
v 0.354267 0.033863 -0.523212
v 0.297326 0.147745 -0.347966
v 0.148252 0.033863 -0.456274
v 0.113061 0.516275 -0.347966
v 0.262135 0.630157 -0.456274
v 0.056120 0.630157 -0.523212
v 0.411208 0.332010 -0.347966
v 0.538532 0.332010 -0.523212
v 0.446400 0.516275 -0.456274
v -0.092954 0.516275 -0.631521
v 0.503341 0.147745 -0.631521
v 0.020928 0.033863 -0.631521
v 0.205194 0.332010 -0.281028
v -0.778410 0.147745 -0.215055
v -0.743218 0.332010 -0.106746
v -0.445071 0.147745 -0.106746
v -0.331189 0.332010 -0.106746
v -0.537204 0.332010 -0.039808
v -0.594145 0.033863 -0.565548
v -0.721469 0.033863 -0.390301
v -0.388130 0.033863 -0.498610
v -0.239056 0.147745 -0.390301
v -0.388130 0.033863 -0.281993
v -0.295997 0.516275 -0.215055
v -0.352939 0.630157 -0.390301
v -0.480263 0.630157 -0.215055
v -0.203865 0.332010 -0.498610
v -0.331189 0.332010 -0.673856
v -0.295998 0.516275 -0.565548
v -0.629336 0.516275 -0.106746
v -0.445071 0.147745 -0.673856
v -0.594145 0.033863 -0.215055
v -0.203865 0.332010 -0.281993
v -0.445071 0.147745 0.673856
v -0.331189 0.332010 0.673856
v -0.239056 0.147745 0.390301
v -0.203865 0.332010 0.281993
v -0.203865 0.332010 0.498610
v -0.721469 0.033863 0.390301
v -0.594145 0.033863 0.565548
v -0.594145 0.033863 0.215055
v -0.445071 0.147745 0.106746
v -0.388130 0.033863 0.281993
v -0.295997 0.516275 0.215055
v -0.480263 0.630157 0.215055
v -0.352939 0.630157 0.390301
v -0.537204 0.332010 0.039808
v -0.743218 0.332010 0.106746
v -0.629336 0.516275 0.106746
v -0.295997 0.516275 0.565548
v -0.778410 0.147745 0.215055
v -0.388130 0.033863 0.498610
v -0.331189 0.332010 0.106746
v 0.503341 0.147745 0.631521
v 0.538532 0.332010 0.523212
v 0.297326 0.147745 0.347966
v 0.205194 0.332010 0.281028
v 0.411208 0.332010 0.347966
v 0.148253 0.033863 0.806767
v 0.354267 0.033863 0.739829
v 0.020928 0.033863 0.631521
v -0.036013 0.147745 0.456274
v 0.148252 0.033863 0.456274
v 0.113061 0.516275 0.347966
v 0.056120 0.630157 0.523212
v 0.262135 0.630157 0.456274
v -0.128145 0.332010 0.523212
v -0.128145 0.332010 0.739829
v -0.092954 0.516275 0.631521
v 0.446400 0.516275 0.456274
v -0.036013 0.147745 0.806767
v 0.354267 0.033863 0.523212
v -0.000821 0.332010 0.347966
vn 0.7947 0.1876 0.5773
vn 0.4911 0.7947 -0.3568
vn 0.6071 -0.7947 -0.0000
vn 0.3035 -0.1876 -0.9342
vn 0.3035 -0.1876 0.9342
vn -0.1876 0.7947 -0.5773
vn -0.1876 0.7947 0.5773
vn 0.4911 0.7947 0.3568
vn 0.9822 -0.1876 -0.0000
vn 0.7947 0.1876 -0.5773
vn 0.2764 0.4472 0.8507
vn 0.2764 0.4472 0.8506
vn 0.7236 -0.4472 0.5257
vn -0.0000 1.0000 -0.0000
vn 0.7236 -0.4472 -0.5257
vn 0.2764 0.4472 -0.8507
vn 0.7947 0.1876 -0.5774
vn -0.1876 0.7947 -0.5774
vn 0.1876 -0.7947 -0.5774
vn -0.7947 -0.1876 -0.5774
vn -0.6071 0.7947 -0.0000
vn -0.3035 0.1876 -0.9342
vn 0.8944 0.4472 -0.0000
vn -0.2764 -0.4472 -0.8507
vn -0.7236 0.4472 -0.5257
vn -0.4911 -0.7947 -0.3568
vn -0.7947 -0.1876 0.5774
vn -0.1876 0.7947 0.5774
vn -0.7947 -0.1876 -0.5773
vn -0.9822 0.1876 -0.0000
vn 0.2764 0.4472 -0.8506
vn -0.2764 -0.4472 -0.8506
vn -0.8944 -0.4472 -0.0000
vn -0.7236 0.4472 0.5257
vn -0.4911 -0.7947 0.3568
vn -0.7947 -0.1876 0.5773
vn -0.3035 0.1876 0.9342
vn -0.2764 -0.4472 0.8507
vn -0.2764 -0.4472 0.8506
vn 0.1876 -0.7947 0.5774
vn 0.7947 0.1876 0.5774
s 0
f 143//67 145//67 144//67
f 148//68 150//68 149//68
f 151//69 153//69 152//69
f 154//70 156//70 155//70
f 142//71 157//71 145//71
f 146//72 148//72 158//72
f 141//73 159//73 147//73
f 159//74 143//74 150//74
f 144//75 151//75 160//75
f 149//76 160//76 154//76
f 141//77 142//77 145//77 159//77
f 159//78 145//78 143//78
f 145//79 157//79 153//79 144//79
f 144//79 153//79 151//79
f 147//80 159//80 150//80 146//80
f 146//80 150//80 148//80
f 156//81 154//81 160//81 152//81
f 152//81 160//81 151//81
f 154//82 155//82 158//82 149//82
f 149//82 158//82 148//82
f 163//83 165//83 164//83
f 168//84 170//84 169//84
f 171//85 173//85 172//85
f 174//86 176//86 175//86
f 162//75 177//75 165//75
f 166//87 168//87 178//87
f 161//74 179//74 167//74
f 179//68 163//68 170//68
f 164//70 171//70 180//70
f 169//88 180//88 174//88
f 161//89 162//89 165//89 179//89
f 179//89 165//89 163//89
f 165//81 177//81 173//81 164//81
f 164//81 173//81 171//81
f 167//80 179//80 170//80 166//80
f 166//80 170//80 168//80
f 176//90 174//90 180//90 172//90
f 172//90 180//90 171//90
f 174//91 175//91 178//91 169//91
f 169//91 178//91 168//91
f 183//88 185//88 184//88
f 188//87 190//87 189//87
f 191//92 193//92 192//92
f 194//93 196//93 195//93
f 182//70 197//70 185//70
f 186//94 188//94 198//94
f 181//68 199//68 187//68
f 199//72 183//72 190//72
f 184//95 191//95 200//95
f 189//96 200//96 194//96
f 181//82 182//82 185//82 199//82
f 199//97 185//97 183//97
f 185//90 197//90 193//90 184//90
f 184//98 193//98 191//98
f 187//80 199//80 190//80 186//80
f 186//80 190//80 188//80
f 196//99 194//99 200//99 192//99
f 192//99 200//99 191//99
f 194//100 195//100 198//100 189//100
f 189//100 198//100 188//100
f 203//96 205//96 204//96
f 208//73 210//73 209//73
f 211//101 213//101 212//101
f 214//71 216//71 215//71
f 202//86 217//86 205//86
f 206//74 208//74 218//74
f 201//84 219//84 207//84
f 219//87 203//87 210//87
f 204//102 211//102 220//102
f 209//103 220//103 214//103
f 201//91 202//91 205//91 219//91
f 219//91 205//91 203//91
f 205//99 217//99 213//99 204//99
f 204//99 213//99 211//99
f 207//80 219//80 210//80 206//80
f 206//80 210//80 208//80
f 216//104 214//104 220//104 212//104
f 212//105 220//105 211//105
f 214//78 215//78 218//78 209//78
f 209//78 218//78 208//78
f 223//103 225//103 224//103
f 228//74 230//74 229//74
f 231//106 233//106 232//106
f 234//75 236//75 235//75
f 222//93 237//93 225//93
f 226//68 228//68 238//68
f 221//87 239//87 227//87
f 239//94 223//94 230//94
f 224//71 231//71 240//71
f 229//107 240//107 234//107
f 221//100 222//100 225//100 239//100
f 239//100 225//100 223//100
f 225//104 237//104 233//104 224//104
f 224//104 233//104 231//104
f 227//80 239//80 230//80 226//80
f 226//80 230//80 228//80
f 236//79 234//79 240//79 232//79
f 232//79 240//79 231//79
f 234//89 235//89 238//89 229//89
f 229//89 238//89 228//89
o Solid.003
v -0.756153 -0.147745 -0.283555
v -0.664020 -0.332010 -0.350493
v -0.422814 -0.147745 -0.175246
v -0.330682 -0.332010 -0.108308
v -0.458006 -0.332010 -0.283555
v -0.813094 -0.033863 0.108308
v -0.813094 -0.033863 -0.108308
v -0.607079 -0.033863 0.175247
v -0.422814 -0.147745 0.175247
v -0.479755 -0.033863 0.000000
v -0.365873 -0.516275 0.000000
v -0.514947 -0.630157 0.108308
v -0.514947 -0.630157 -0.108308
v -0.458006 -0.332010 0.283555
v -0.664020 -0.332010 0.350493
v -0.571888 -0.516275 0.283555
v -0.571888 -0.516275 -0.283555
v -0.756153 -0.147745 0.283555
v -0.607079 -0.033863 -0.175246
v -0.330682 -0.332010 0.108308
v 0.036013 -0.147745 -0.806767
v 0.128145 -0.332010 -0.739829
v 0.036013 -0.147745 -0.456274
v 0.000821 -0.332010 -0.347966
v 0.128145 -0.332010 -0.523212
v -0.354267 -0.033863 -0.739829
v -0.148252 -0.033863 -0.806767
v -0.354267 -0.033863 -0.523212
v -0.297326 -0.147745 -0.347966
v -0.148252 -0.033863 -0.456274
v -0.113061 -0.516275 -0.347966
v -0.262135 -0.630157 -0.456274
v -0.056120 -0.630157 -0.523212
v -0.411208 -0.332010 -0.347966
v -0.538532 -0.332010 -0.523212
v -0.446400 -0.516275 -0.456274
v 0.092954 -0.516275 -0.631521
v -0.503341 -0.147745 -0.631521
v -0.020928 -0.033863 -0.631521
v -0.205194 -0.332010 -0.281028
v 0.778410 -0.147745 -0.215055
v 0.743218 -0.332010 -0.106746
v 0.445071 -0.147745 -0.106746
v 0.331189 -0.332010 -0.106746
v 0.537203 -0.332010 -0.039808
v 0.594145 -0.033863 -0.565548
v 0.721469 -0.033863 -0.390301
v 0.388130 -0.033863 -0.498610
v 0.239056 -0.147745 -0.390301
v 0.388130 -0.033863 -0.281993
v 0.295997 -0.516275 -0.215055
v 0.352938 -0.630157 -0.390301
v 0.480262 -0.630157 -0.215055
v 0.203865 -0.332010 -0.498610
v 0.331189 -0.332010 -0.673856
v 0.295997 -0.516275 -0.565548
v 0.629336 -0.516275 -0.106746
v 0.445071 -0.147745 -0.673856
v 0.594145 -0.033863 -0.215055
v 0.203865 -0.332010 -0.281993
v 0.445071 -0.147745 0.673856
v 0.331189 -0.332010 0.673856
v 0.239056 -0.147745 0.390301
v 0.203865 -0.332010 0.281993
v 0.203865 -0.332010 0.498610
v 0.721469 -0.033863 0.390301
v 0.594145 -0.033863 0.565548
v 0.594145 -0.033863 0.215055
v 0.445071 -0.147745 0.106746
v 0.388130 -0.033863 0.281993
v 0.295997 -0.516275 0.215055
v 0.480262 -0.630157 0.215055
v 0.352938 -0.630157 0.390301
v 0.537203 -0.332010 0.039808
v 0.743218 -0.332010 0.106747
v 0.629336 -0.516275 0.106747
v 0.295997 -0.516275 0.565548
v 0.778410 -0.147745 0.215055
v 0.388130 -0.033863 0.498610
v 0.331189 -0.332010 0.106746
v -0.503341 -0.147745 0.631521
v -0.538532 -0.332010 0.523212
v -0.297326 -0.147745 0.347966
v -0.205194 -0.332010 0.281028
v -0.411208 -0.332010 0.347966
v -0.148253 -0.033863 0.806767
v -0.354267 -0.033863 0.739829
v -0.020928 -0.033863 0.631521
v 0.036013 -0.147745 0.456274
v -0.148253 -0.033863 0.456274
v -0.113061 -0.516275 0.347966
v -0.056120 -0.630157 0.523213
v -0.262135 -0.630157 0.456274
v 0.128145 -0.332010 0.523212
v 0.128145 -0.332010 0.739829
v 0.092953 -0.516275 0.631521
v -0.446400 -0.516275 0.456274
v 0.036013 -0.147745 0.806767
v -0.354267 -0.033863 0.523212
v 0.000821 -0.332010 0.347966
vn -0.7947 -0.1876 0.5773
vn -0.4911 -0.7947 -0.3568
vn -0.6071 0.7947 -0.0000
vn -0.3035 0.1876 -0.9342
vn -0.3035 0.1876 0.9342
vn 0.1876 -0.7947 -0.5773
vn 0.1876 -0.7947 0.5773
vn -0.4911 -0.7947 0.3568
vn -0.9822 0.1876 -0.0000
vn -0.7947 -0.1876 -0.5773
vn -0.2764 -0.4472 0.8507
vn -0.2764 -0.4472 0.8506
vn -0.7236 0.4472 0.5257
vn -0.0000 -1.0000 -0.0000
vn -0.7236 0.4472 -0.5257
vn -0.2764 -0.4472 -0.8507
vn -0.7947 -0.1876 -0.5774
vn 0.1876 -0.7947 -0.5774
vn -0.1876 0.7947 -0.5774
vn 0.7947 0.1876 -0.5774
vn 0.6071 -0.7947 -0.0000
vn 0.3035 -0.1876 -0.9342
vn -0.8944 -0.4472 -0.0000
vn 0.2764 0.4472 -0.8507
vn 0.7236 -0.4472 -0.5257
vn 0.4911 0.7947 -0.3568
vn 0.7947 0.1876 0.5774
vn 0.1876 -0.7947 0.5774
vn 0.7947 0.1876 -0.5773
vn 0.9822 -0.1876 -0.0000
vn 0.2764 0.4472 -0.8506
vn 0.8944 0.4472 -0.0000
vn 0.7236 -0.4472 0.5257
vn 0.4911 0.7947 0.3568
vn 0.7947 0.1876 0.5773
vn 0.3035 -0.1876 0.9342
vn 0.2764 0.4472 0.8507
vn 0.2764 0.4472 0.8506
vn -0.1876 0.7947 0.5773
vn -0.7947 -0.1876 0.5774
s 0
f 243//108 245//108 244//108
f 248//109 250//109 249//109
f 251//110 253//110 252//110
f 254//111 256//111 255//111
f 242//112 257//112 245//112
f 246//113 248//113 258//113
f 241//114 259//114 247//114
f 259//115 243//115 250//115
f 244//116 251//116 260//116
f 249//117 260//117 254//117
f 241//118 242//118 245//118 259//118
f 259//119 245//119 243//119
f 245//120 257//120 253//120 244//120
f 244//120 253//120 251//120
f 247//121 259//121 250//121 246//121
f 246//121 250//121 248//121
f 256//122 254//122 260//122 252//122
f 252//122 260//122 251//122
f 254//123 255//123 258//123 249//123
f 249//123 258//123 248//123
f 263//124 265//124 264//124
f 268//125 270//125 269//125
f 271//126 273//126 272//126
f 274//127 276//127 275//127
f 262//116 277//116 265//116
f 266//128 268//128 278//128
f 261//115 279//115 267//115
f 279//109 263//109 270//109
f 264//111 271//111 280//111
f 269//129 280//129 274//129
f 261//130 262//130 265//130 279//130
f 279//130 265//130 263//130
f 265//122 277//122 273//122 264//122
f 264//122 273//122 271//122
f 267//121 279//121 270//121 266//121
f 266//121 270//121 268//121
f 276//131 274//131 280//131 272//131
f 272//131 280//131 271//131
f 274//132 275//132 278//132 269//132
f 269//132 278//132 268//132
f 283//129 285//129 284//129
f 288//128 290//128 289//128
f 291//133 293//133 292//133
f 294//134 296//134 295//134
f 282//111 297//111 285//111
f 286//135 288//135 298//135
f 281//109 299//109 287//109
f 299//113 283//113 290//113
f 284//136 291//136 300//136
f 289//137 300//137 294//137
f 281//123 282//123 285//123 299//123
f 299//123 285//123 283//123
f 285//131 297//131 293//131 284//131
f 284//138 293//138 291//138
f 287//121 299//121 290//121 286//121
f 286//121 290//121 288//121
f 296//139 294//139 300//139 292//139
f 292//139 300//139 291//139
f 294//140 295//140 298//140 289//140
f 289//140 298//140 288//140
f 303//137 305//137 304//137
f 308//114 310//114 309//114
f 311//141 313//141 312//141
f 314//112 316//112 315//112
f 302//127 317//127 305//127
f 306//115 308//115 318//115
f 301//125 319//125 307//125
f 319//128 303//128 310//128
f 304//142 311//142 320//142
f 309//143 320//143 314//143
f 301//132 302//132 305//132 319//132
f 319//132 305//132 303//132
f 305//139 317//139 313//139 304//139
f 304//139 313//139 311//139
f 307//121 319//121 310//121 306//121
f 306//121 310//121 308//121
f 316//144 314//144 320//144 312//144
f 312//145 320//145 311//145
f 314//118 315//118 318//118 309//118
f 309//119 318//119 308//119
f 323//143 325//143 324//143
f 328//115 330//115 329//115
f 331//146 333//146 332//146
f 334//116 336//116 335//116
f 322//134 337//134 325//134
f 326//109 328//109 338//109
f 321//128 339//128 327//128
f 339//135 323//135 330//135
f 324//112 331//112 340//112
f 329//147 340//147 334//147
f 321//140 322//140 325//140 339//140
f 339//140 325//140 323//140
f 325//144 337//144 333//144 324//144
f 324//144 333//144 331//144
f 327//121 339//121 330//121 326//121
f 326//121 330//121 328//121
f 336//120 334//120 340//120 332//120
f 332//120 340//120 331//120
f 334//130 335//130 338//130 329//130
f 329//130 338//130 328//130
o Solid.004
v -0.333339 -0.742397 -0.108308
v -0.206015 -0.742397 -0.283555
v -0.149074 -0.444250 -0.108308
v 0.056941 -0.444250 -0.175247
v -0.092133 -0.558132 -0.283555
v -0.206015 -0.742397 0.283555
v -0.333339 -0.742397 0.108308
v -0.092133 -0.558132 0.283555
v 0.056941 -0.444250 0.175247
v -0.149074 -0.444250 0.108308
v 0.241206 -0.558132 -0.175247
v 0.333338 -0.742397 -0.108308
v 0.206014 -0.742397 -0.283555
v 0.241206 -0.558132 0.175247
v 0.206014 -0.742397 0.283555
v 0.333338 -0.742397 0.108308
v 0.000000 -0.742397 -0.350493
v 0.000000 -0.742397 0.350493
v -0.298147 -0.558132 0.000000
v 0.184265 -0.444250 0.000000
vn 0.1876 -0.7947 0.5773
vn 0.1876 -0.7947 -0.5773
vn -0.7947 -0.1876 0.5773
vn -0.7947 -0.1876 -0.5773
vn 0.3035 -0.1876 0.9342
vn 0.3035 -0.1876 -0.9342
vn 0.9822 -0.1876 -0.0000
vn 0.6071 -0.7947 -0.0000
vn -0.4911 -0.7947 0.3568
vn -0.4911 -0.7947 -0.3568
vn 0.7236 -0.4472 0.5257
vn -0.2764 -0.4472 0.8507
vn 0.7236 -0.4472 -0.5257
vn -0.8944 -0.4472 -0.0000
vn -0.2764 -0.4472 -0.8507
s 0
f 343//148 345//148 344//148
f 348//149 350//149 349//149
f 351//150 353//150 352//150
f 354//151 356//151 355//151
f 342//152 357//152 345//152
f 346//153 348//153 358//153
f 341//154 359//154 347//154
f 359//155 343//155 350//155
f 344//156 351//156 360//156
f 349//157 360//157 354//157
f 341//158 342//158 345//158 359//158
f 359//158 345//158 343//158
f 345//159 357//159 353//159 344//159
f 344//159 353//159 351//159
f 347//160 359//160 350//160 346//160
f 346//160 350//160 348//160
f 356//161 354//161 360//161 352//161
f 352//161 360//161 351//161
f 354//162 355//162 358//162 349//162
f 349//162 358//162 348//162
o Solid.005
v -0.390278 0.035184 0.283554
v -0.447221 0.149070 0.108301
v -0.333335 0.333341 0.108301
v -0.206007 0.333341 0.283554
v -0.241199 0.149070 0.391866
v 0.206007 -0.333341 0.283554
v 0.241199 -0.149070 0.391866
v 0.390278 -0.035184 0.283554
v 0.447221 -0.149070 0.108301
v 0.333335 -0.333341 0.108301
v -0.390278 0.035184 -0.283554
v -0.241199 0.149070 -0.391866
v -0.206007 0.333341 -0.283554
v -0.333335 0.333341 -0.108301
v -0.447221 0.149070 -0.108301
v 0.206007 -0.333341 -0.283554
v 0.333335 -0.333341 -0.108301
v 0.447221 -0.149070 -0.108301
v 0.390278 -0.035184 -0.283554
v 0.241199 -0.149070 -0.391866
v -0.425467 -0.149069 0.175252
v -0.333332 -0.333341 0.108312
v -0.333332 -0.333341 -0.108312
v -0.425467 -0.149069 -0.175252
v -0.482410 -0.035183 0.000000
v -0.056943 0.447215 0.175252
v -0.184271 0.447215 -0.000000
v -0.056943 0.447215 -0.175252
v 0.149079 0.447215 -0.108312
v 0.149079 0.447215 0.108312
v 0.056943 -0.447215 0.175252
v 0.184271 -0.447215 0.000000
v 0.056943 -0.447215 -0.175252
v -0.149079 -0.447215 -0.108312
v -0.149079 -0.447215 0.108312
v 0.425467 0.149069 0.175252
v 0.333332 0.333341 0.108312
v 0.333332 0.333341 -0.108312
v 0.425467 0.149069 -0.175252
v 0.482410 0.035183 -0.000000
v -0.298152 -0.149069 0.350487
v -0.149073 -0.035183 0.458799
v 0.035198 -0.149069 0.458799
v 0.000006 -0.333341 0.350487
v -0.206016 -0.333341 0.283547
v -0.298152 -0.149069 -0.350487
v -0.206016 -0.333341 -0.283547
v 0.000006 -0.333341 -0.350487
v 0.035198 -0.149069 -0.458799
v -0.149073 -0.035183 -0.458799
v -0.000006 0.333341 0.350487
v 0.206016 0.333341 0.283547
v 0.298152 0.149069 0.350487
v 0.149073 0.035183 0.458799
v -0.035198 0.149069 0.458799
v -0.000006 0.333341 -0.350487
v -0.035198 0.149069 -0.458799
v 0.149073 0.035183 -0.458799
v 0.298152 0.149069 -0.350487
v 0.206016 0.333341 -0.283547
vn 0.8507 -0.5257 -0.0000
vn -0.8507 0.5257 -0.0000
vn 0.9511 -0.0000 0.3090
vn 0.9511 -0.0000 -0.3090
vn 0.4253 -0.8507 -0.3090
vn 0.4253 -0.8507 0.3090
vn -0.4253 0.8507 -0.3090
vn -0.4253 0.8507 0.3090
vn 0.5257 0.8507 -0.0000
vn -0.5257 -0.8507 -0.0000
vn -0.9511 -0.0000 0.3090
vn -0.9511 -0.0000 -0.3090
vn 0.5878 -0.0000 -0.8090
vn -0.2629 0.5257 -0.8090
vn 0.1625 0.8507 -0.5000
vn 0.6882 0.5257 -0.5000
vn 0.6882 0.5257 0.5000
vn 0.1625 0.8507 0.5000
vn -0.2629 0.5257 0.8090
vn 0.5878 -0.0000 0.8090
vn -0.1625 -0.8507 -0.5000
vn -0.6882 -0.5257 -0.5000
vn -0.5878 -0.0000 -0.8090
vn -0.0000 -0.0000 -1.0000
vn 0.2629 -0.5257 -0.8090
vn 0.2629 -0.5257 0.8090
vn -0.0000 -0.0000 1.0000
vn -0.5878 -0.0000 0.8090
vn -0.6882 -0.5257 0.5000
vn -0.1625 -0.8507 0.5000
vn 0.7947 0.1876 -0.5773
vn 0.1876 -0.7947 -0.5773
vn 0.7947 0.1876 0.5773
vn 0.1876 -0.7947 0.5773
vn -0.1876 0.7947 -0.5773
vn -0.7947 -0.1876 -0.5773
vn -0.1876 0.7947 0.5773
vn -0.7947 -0.1876 0.5773
vn 0.3035 -0.1876 -0.9342
vn -0.3035 0.1876 -0.9342
vn 0.3035 -0.1876 0.9342
vn -0.3035 0.1876 0.9342
vn 0.9822 -0.1876 -0.0000
vn 0.6071 -0.7947 -0.0000
vn -0.6071 0.7947 -0.0000
vn -0.9822 0.1876 -0.0000
vn 0.4911 0.7947 -0.3568
vn 0.4911 0.7947 0.3568
vn -0.4911 -0.7947 -0.3568
vn -0.4911 -0.7947 0.3568
s 0
f 375//163 374//163 363//163 362//163
f 378//164 377//164 370//164 369//164
f 385//165 384//165 371//165 375//165
f 381//166 385//166 362//166 361//166
f 387//167 386//167 364//167 363//167
f 388//168 387//168 374//168 373//168
f 392//169 391//169 366//169 370//169
f 393//170 392//170 377//170 376//170
f 395//171 394//171 383//171 382//171
f 398//172 397//172 390//172 389//172
f 400//173 399//173 379//173 378//173
f 396//174 400//174 369//174 368//174
f 402//175 401//175 361//175 365//175
f 404//176 403//176 367//176 366//176
f 405//177 404//177 391//177 395//177
f 401//178 405//178 382//178 381//178
f 407//179 406//179 384//179 383//179
f 408//180 407//180 394//180 393//180
f 409//181 408//181 376//181 380//181
f 406//182 410//182 372//182 371//182
f 412//183 411//183 386//183 390//183
f 413//184 412//184 397//184 396//184
f 414//185 413//185 368//185 367//185
f 415//186 414//186 403//186 402//186
f 411//187 415//187 365//187 364//187
f 417//188 416//188 373//188 372//188
f 418//189 417//189 410//189 409//189
f 419//190 418//190 380//190 379//190
f 420//191 419//191 399//191 398//191
f 416//192 420//192 389//192 388//192
f 361//193 401//193 381//193
f 364//194 386//194 411//194
f 371//195 384//195 406//195
f 373//196 416//196 388//196
f 366//197 391//197 404//197
f 368//198 413//198 396//198
f 376//199 408//199 393//199
f 379//200 399//200 419//200
f 365//201 415//201 402//201
f 367//202 403//202 414//202
f 372//203 410//203 417//203
f 380//204 418//204 409//204
f 385//205 375//205 362//205
f 387//206 363//206 374//206
f 392//207 370//207 377//207
f 400//208 378//208 369//208
f 405//209 395//209 382//209
f 407//210 383//210 394//210
f 412//211 390//211 397//211
f 420//212 398//212 389//212
